%FSAX24Y24*%
%MOIN*%
G70*
G01*
G75*
G04 Layer_Color=2752767*
%ADD10R,0.0591X0.0551*%
%ADD11R,0.0551X0.0591*%
%ADD12C,0.0100*%
%ADD13C,0.0472*%
%ADD14C,0.0400*%
%ADD15C,0.0591*%
%ADD16R,0.0591X0.0591*%
%ADD17C,0.1000*%
%ADD18R,0.0591X0.0591*%
%ADD19C,0.0532*%
%ADD20R,0.0532X0.0532*%
%ADD21C,0.0551*%
%ADD22C,0.0600*%
%ADD23C,0.0700*%
%ADD24C,0.0500*%
%ADD25C,0.0236*%
%ADD26C,0.0098*%
%ADD27C,0.0079*%
%ADD28R,0.0671X0.0631*%
%ADD29R,0.0631X0.0671*%
%ADD30C,0.0552*%
%ADD31C,0.0480*%
%ADD32C,0.0671*%
%ADD33R,0.0671X0.0671*%
%ADD34C,0.1080*%
%ADD35R,0.0671X0.0671*%
%ADD36C,0.0612*%
%ADD37R,0.0612X0.0612*%
%ADD38C,0.0631*%
%ADD39C,0.0680*%
%ADD40C,0.0780*%
%ADD41C,0.0580*%
%ADD42C,0.0050*%
%ADD43C,0.0067*%
%ADD44C,0.0040*%
D12*
X031685Y013000D02*
G03*
X031685Y013000I-000535J000000D01*
G01*
X010335Y012900D02*
G03*
X010335Y012900I-000535J000000D01*
G01*
X011435Y034450D02*
G03*
X011435Y034450I-000535J000000D01*
G01*
X030985Y034650D02*
G03*
X030985Y034650I-000535J000000D01*
G01*
D42*
X016850Y023400D02*
Y023800D01*
X017250D01*
Y023400D01*
X016850D01*
Y021400D02*
Y021800D01*
X017250D01*
Y021400D01*
X016850D01*
X010850Y031500D02*
X010650Y031900D01*
X011050D01*
X010850Y031500D01*
Y030500D02*
X010650Y030900D01*
X011050D01*
X010850Y030500D01*
Y029500D02*
X010650Y029900D01*
X011050D01*
X010850Y029500D01*
Y028500D02*
X010650Y028900D01*
X011050D01*
X010850Y028500D01*
X013850Y031500D02*
X013650Y031900D01*
X014050D01*
X013850Y031500D01*
Y030500D02*
X013650Y030900D01*
X014050D01*
X013850Y030500D01*
Y029500D02*
X013650Y029900D01*
X014050D01*
X013850Y029500D01*
Y028500D02*
X013650Y028900D01*
X014050D01*
X013850Y028500D01*
X014450Y033900D02*
X014550Y034000D01*
X014650D01*
X014550Y034100D01*
X014650Y034200D01*
X014550D01*
X014450Y034300D01*
X014350Y034200D01*
X014250D01*
X014350Y034100D01*
X014250Y034000D01*
X014350D01*
X014450Y033900D01*
X016400D02*
X016500Y034000D01*
X016600D01*
X016500Y034100D01*
X016600Y034200D01*
X016500D01*
X016400Y034300D01*
X016300Y034200D01*
X016200D01*
X016300Y034100D01*
X016200Y034000D01*
X016300D01*
X016400Y033900D01*
X022800Y011350D02*
X022900Y011450D01*
X023000D01*
X022900Y011550D01*
X023000Y011650D01*
X022900D01*
X022800Y011750D01*
X022700Y011650D01*
X022600D01*
X022700Y011550D01*
X022600Y011450D01*
X022700D01*
X022800Y011350D01*
X020850D02*
X020950Y011450D01*
X021050D01*
X020950Y011550D01*
X021050Y011650D01*
X020950D01*
X020850Y011750D01*
X020750Y011650D01*
X020650D01*
X020750Y011550D01*
X020650Y011450D01*
X020750D01*
X020850Y011350D01*
X018500D02*
X018600Y011450D01*
X018700D01*
X018600Y011550D01*
X018700Y011650D01*
X018600D01*
X018500Y011750D01*
X018400Y011650D01*
X018300D01*
X018400Y011550D01*
X018300Y011450D01*
X018400D01*
X018500Y011350D01*
X016550D02*
X016650Y011450D01*
X016750D01*
X016650Y011550D01*
X016750Y011650D01*
X016650D01*
X016550Y011750D01*
X016450Y011650D01*
X016350D01*
X016450Y011550D01*
X016350Y011450D01*
X016450D01*
X016550Y011350D01*
X014150D02*
X014250Y011450D01*
X014350D01*
X014250Y011550D01*
X014350Y011650D01*
X014250D01*
X014150Y011750D01*
X014050Y011650D01*
X013950D01*
X014050Y011550D01*
X013950Y011450D01*
X014050D01*
X014150Y011350D01*
X012200D02*
X012300Y011450D01*
X012400D01*
X012300Y011550D01*
X012400Y011650D01*
X012300D01*
X012200Y011750D01*
X012100Y011650D01*
X012000D01*
X012100Y011550D01*
X012000Y011450D01*
X012100D01*
X012200Y011350D01*
X030750Y024000D02*
X030550Y024400D01*
X030950D01*
X030750Y024000D01*
Y031000D02*
X030550Y031400D01*
X030950D01*
X030750Y031000D01*
Y030000D02*
X030550Y030400D01*
X030950D01*
X030750Y030000D01*
Y029000D02*
X030550Y029400D01*
X030950D01*
X030750Y029000D01*
Y028000D02*
X030550Y028400D01*
X030950D01*
X030750Y028000D01*
Y027000D02*
X030550Y027400D01*
X030950D01*
X030750Y027000D01*
Y026000D02*
X030550Y026400D01*
X030950D01*
X030750Y026000D01*
Y025000D02*
X030550Y025400D01*
X030950D01*
X030750Y025000D01*
Y023000D02*
X030550Y023400D01*
X030950D01*
X030750Y023000D01*
Y022000D02*
X030550Y022400D01*
X030950D01*
X030750Y022000D01*
X010666Y026000D02*
X010766Y026200D01*
X010666Y026400D01*
X010866Y026300D01*
X011066Y026400D01*
X010966Y026200D01*
X011066Y026000D01*
X010866Y026100D01*
X010666Y026000D01*
X012634D02*
X012734Y026200D01*
X012634Y026400D01*
X012834Y026300D01*
X013034Y026400D01*
X012934Y026200D01*
X013034Y026000D01*
X012834Y026100D01*
X012634Y026000D01*
X017450Y025450D02*
Y025850D01*
X017850D01*
Y025450D01*
X017450D01*
Y026450D02*
Y026850D01*
X017850D01*
Y026450D01*
X017450D01*
X022650Y020050D02*
Y020450D01*
X023050D01*
Y020050D01*
X022650D01*
Y019050D02*
Y019450D01*
X023050D01*
Y019050D01*
X022650D01*
Y022600D02*
Y023000D01*
X023050D01*
Y022600D01*
X022650D01*
Y021600D02*
Y022000D01*
X023050D01*
Y021600D01*
X022650D01*
X010716Y018750D02*
X010816Y018950D01*
X010716Y019150D01*
X010916Y019050D01*
X011116Y019150D01*
X011016Y018950D01*
X011116Y018750D01*
X010916Y018850D01*
X010716Y018750D01*
X012684D02*
X012784Y018950D01*
X012684Y019150D01*
X012884Y019050D01*
X013084Y019150D01*
X012984Y018950D01*
X013084Y018750D01*
X012884Y018850D01*
X012684Y018750D01*
X014116Y026050D02*
X014216Y026250D01*
X014116Y026450D01*
X014316Y026350D01*
X014516Y026450D01*
X014416Y026250D01*
X014516Y026050D01*
X014316Y026150D01*
X014116Y026050D01*
X016084D02*
X016184Y026250D01*
X016084Y026450D01*
X016284Y026350D01*
X016484Y026450D01*
X016384Y026250D01*
X016484Y026050D01*
X016284Y026150D01*
X016084Y026050D01*
X010950Y020850D02*
Y020750D01*
X011150D01*
Y020850D01*
X011250D01*
Y021050D01*
X011150D01*
Y021150D01*
X010950D01*
Y021050D01*
X010850D01*
Y020850D01*
X010950D01*
Y023850D02*
Y023750D01*
X011150D01*
Y023850D01*
X011250D01*
Y024050D01*
X011150D01*
Y024150D01*
X010950D01*
Y024050D01*
X010850D01*
Y023850D01*
X010950D01*
X011900D02*
Y023750D01*
X012100D01*
Y023850D01*
X012200D01*
Y024050D01*
X012100D01*
Y024150D01*
X011900D01*
Y024050D01*
X011800D01*
Y023850D01*
X011900D01*
Y020850D02*
Y020750D01*
X012100D01*
Y020850D01*
X012200D01*
Y021050D01*
X012100D01*
Y021150D01*
X011900D01*
Y021050D01*
X011800D01*
Y020850D01*
X011900D01*
X012850D02*
Y020750D01*
X013050D01*
Y020850D01*
X013150D01*
Y021050D01*
X013050D01*
Y021150D01*
X012850D01*
Y021050D01*
X012750D01*
Y020850D01*
X012850D01*
Y023850D02*
Y023750D01*
X013050D01*
Y023850D01*
X013150D01*
Y024050D01*
X013050D01*
Y024150D01*
X012850D01*
Y024050D01*
X012750D01*
Y023850D01*
X012850D01*
X022850Y016751D02*
Y016651D01*
X023050D01*
Y016751D01*
X023150D01*
Y016951D01*
X023050D01*
Y017051D01*
X022850D01*
Y016951D01*
X022750D01*
Y016751D01*
X022850D01*
X025850D02*
Y016651D01*
X026050D01*
Y016751D01*
X026150D01*
Y016951D01*
X026050D01*
Y017051D01*
X025850D01*
Y016951D01*
X025750D01*
Y016751D01*
X025850D01*
X022850Y017735D02*
Y017635D01*
X023050D01*
Y017735D01*
X023150D01*
Y017935D01*
X023050D01*
Y018035D01*
X022850D01*
Y017935D01*
X022750D01*
Y017735D01*
X022850D01*
X025850D02*
Y017635D01*
X026050D01*
Y017735D01*
X026150D01*
Y017935D01*
X026050D01*
Y018035D01*
X025850D01*
Y017935D01*
X025750D01*
Y017735D01*
X025850D01*
X022400Y023956D02*
Y023856D01*
X022600D01*
Y023956D01*
X022700D01*
Y024156D01*
X022600D01*
Y024256D01*
X022400D01*
Y024156D01*
X022300D01*
Y023956D01*
X022400D01*
X025400D02*
Y023856D01*
X025600D01*
Y023956D01*
X025700D01*
Y024156D01*
X025600D01*
Y024256D01*
X025400D01*
Y024156D01*
X025300D01*
Y023956D01*
X025400D01*
Y024941D02*
Y024841D01*
X025600D01*
Y024941D01*
X025700D01*
Y025141D01*
X025600D01*
Y025241D01*
X025400D01*
Y025141D01*
X025300D01*
Y024941D01*
X025400D01*
X022400D02*
Y024841D01*
X022600D01*
Y024941D01*
X022700D01*
Y025141D01*
X022600D01*
Y025241D01*
X022400D01*
Y025141D01*
X022300D01*
Y024941D01*
X022400D01*
Y025925D02*
Y025825D01*
X022600D01*
Y025925D01*
X022700D01*
Y026125D01*
X022600D01*
Y026225D01*
X022400D01*
Y026125D01*
X022300D01*
Y025925D01*
X022400D01*
X025400D02*
Y025825D01*
X025600D01*
Y025925D01*
X025700D01*
Y026125D01*
X025600D01*
Y026225D01*
X025400D01*
Y026125D01*
X025300D01*
Y025925D01*
X025400D01*
X030000Y016851D02*
Y016751D01*
X030200D01*
Y016851D01*
X030300D01*
Y017051D01*
X030200D01*
Y017151D01*
X030000D01*
Y017051D01*
X029900D01*
Y016851D01*
X030000D01*
X027000D02*
Y016751D01*
X027200D01*
Y016851D01*
X027300D01*
Y017051D01*
X027200D01*
Y017151D01*
X027000D01*
Y017051D01*
X026900D01*
Y016851D01*
X027000D01*
X030000Y017835D02*
Y017735D01*
X030200D01*
Y017835D01*
X030300D01*
Y018035D01*
X030200D01*
Y018135D01*
X030000D01*
Y018035D01*
X029900D01*
Y017835D01*
X030000D01*
X027000D02*
Y017735D01*
X027200D01*
Y017835D01*
X027300D01*
Y018035D01*
X027200D01*
Y018135D01*
X027000D01*
Y018035D01*
X026900D01*
Y017835D01*
X027000D01*
Y018819D02*
Y018719D01*
X027200D01*
Y018819D01*
X027300D01*
Y019019D01*
X027200D01*
Y019119D01*
X027000D01*
Y019019D01*
X026900D01*
Y018819D01*
X027000D01*
X030000D02*
Y018719D01*
X030200D01*
Y018819D01*
X030300D01*
Y019019D01*
X030200D01*
Y019119D01*
X030000D01*
Y019019D01*
X029900D01*
Y018819D01*
X030000D01*
Y019804D02*
Y019704D01*
X030200D01*
Y019804D01*
X030300D01*
Y020004D01*
X030200D01*
Y020104D01*
X030000D01*
Y020004D01*
X029900D01*
Y019804D01*
X030000D01*
X027000D02*
Y019704D01*
X027200D01*
Y019804D01*
X027300D01*
Y020004D01*
X027200D01*
Y020104D01*
X027000D01*
Y020004D01*
X026900D01*
Y019804D01*
X027000D01*
X030000Y020850D02*
Y020750D01*
X030200D01*
Y020850D01*
X030300D01*
Y021050D01*
X030200D01*
Y021150D01*
X030000D01*
Y021050D01*
X029900D01*
Y020850D01*
X030000D01*
X027000D02*
Y020750D01*
X027200D01*
Y020850D01*
X027300D01*
Y021050D01*
X027200D01*
Y021150D01*
X027000D01*
Y021050D01*
X026900D01*
Y020850D01*
X027000D01*
X014750D02*
Y020750D01*
X014950D01*
Y020850D01*
X015050D01*
Y021050D01*
X014950D01*
Y021150D01*
X014750D01*
Y021050D01*
X014650D01*
Y020850D01*
X014750D01*
Y023850D02*
Y023750D01*
X014950D01*
Y023850D01*
X015050D01*
Y024050D01*
X014950D01*
Y024150D01*
X014750D01*
Y024050D01*
X014650D01*
Y023850D01*
X014750D01*
X013800D02*
Y023750D01*
X014000D01*
Y023850D01*
X014100D01*
Y024050D01*
X014000D01*
Y024150D01*
X013800D01*
Y024050D01*
X013700D01*
Y023850D01*
X013800D01*
Y020850D02*
Y020750D01*
X014000D01*
Y020850D01*
X014100D01*
Y021050D01*
X014000D01*
Y021150D01*
X013800D01*
Y021050D01*
X013700D01*
Y020850D01*
X013800D01*
X026800Y022100D02*
Y022500D01*
X027200D01*
Y022100D01*
X026800D01*
X027800D02*
Y022500D01*
X028200D01*
Y022100D01*
X027800D01*
X017200Y019850D02*
X017000Y020250D01*
X017400D01*
X017200Y019850D01*
X016200D02*
X016000Y020250D01*
X016400D01*
X016200Y019850D01*
X015200D02*
X015000Y020250D01*
X015400D01*
X015200Y019850D01*
X014200D02*
X014000Y020250D01*
X014400D01*
X014200Y019850D01*
X017200Y016850D02*
X017000Y017250D01*
X017400D01*
X017200Y016850D01*
X016200D02*
X016000Y017250D01*
X016400D01*
X016200Y016850D01*
X015200D02*
X015000Y017250D01*
X015400D01*
X015200Y016850D01*
X014200D02*
X014000Y017250D01*
X014400D01*
X014200Y016850D01*
X018750Y031500D02*
X018550Y031900D01*
X018950D01*
X018750Y031500D01*
Y030500D02*
X018550Y030900D01*
X018950D01*
X018750Y030500D01*
Y029500D02*
X018550Y029900D01*
X018950D01*
X018750Y029500D01*
Y028500D02*
X018550Y028900D01*
X018950D01*
X018750Y028500D01*
X021750Y031500D02*
X021550Y031900D01*
X021950D01*
X021750Y031500D01*
Y030500D02*
X021550Y030900D01*
X021950D01*
X021750Y030500D01*
Y029500D02*
X021550Y029900D01*
X021950D01*
X021750Y029500D01*
Y028500D02*
X021550Y028900D01*
X021950D01*
X021750Y028500D01*
X022750Y031550D02*
X022550Y031950D01*
X022950D01*
X022750Y031550D01*
Y030550D02*
X022550Y030950D01*
X022950D01*
X022750Y030550D01*
Y029550D02*
X022550Y029950D01*
X022950D01*
X022750Y029550D01*
Y028550D02*
X022550Y028950D01*
X022950D01*
X022750Y028550D01*
X025750Y031550D02*
X025550Y031950D01*
X025950D01*
X025750Y031550D01*
Y030550D02*
X025550Y030950D01*
X025950D01*
X025750Y030550D01*
Y029550D02*
X025550Y029950D01*
X025950D01*
X025750Y029550D01*
Y028550D02*
X025550Y028950D01*
X025950D01*
X025750Y028550D01*
X014800Y031500D02*
X014600Y031900D01*
X015000D01*
X014800Y031500D01*
Y030500D02*
X014600Y030900D01*
X015000D01*
X014800Y030500D01*
Y029500D02*
X014600Y029900D01*
X015000D01*
X014800Y029500D01*
Y028500D02*
X014600Y028900D01*
X015000D01*
X014800Y028500D01*
X017800Y031500D02*
X017600Y031900D01*
X018000D01*
X017800Y031500D01*
Y030500D02*
X017600Y030900D01*
X018000D01*
X017800Y030500D01*
Y029500D02*
X017600Y029900D01*
X018000D01*
X017800Y029500D01*
Y028500D02*
X017600Y028900D01*
X018000D01*
X017800Y028500D01*
X022850Y013900D02*
Y013800D01*
X023050D01*
Y013900D01*
X023150D01*
Y014100D01*
X023050D01*
Y014200D01*
X022850D01*
Y014100D01*
X022750D01*
Y013900D01*
X022850D01*
X025850D02*
Y013800D01*
X026050D01*
Y013900D01*
X026150D01*
Y014100D01*
X026050D01*
Y014200D01*
X025850D01*
Y014100D01*
X025750D01*
Y013900D01*
X025850D01*
X022850Y014850D02*
Y014750D01*
X023050D01*
Y014850D01*
X023150D01*
Y015050D01*
X023050D01*
Y015150D01*
X022850D01*
Y015050D01*
X022750D01*
Y014850D01*
X022850D01*
X025850D02*
Y014750D01*
X026050D01*
Y014850D01*
X026150D01*
Y015050D01*
X026050D01*
Y015150D01*
X025850D01*
Y015050D01*
X025750D01*
Y014850D01*
X025850D01*
X022850Y015767D02*
Y015667D01*
X023050D01*
Y015767D01*
X023150D01*
Y015967D01*
X023050D01*
Y016067D01*
X022850D01*
Y015967D01*
X022750D01*
Y015767D01*
X022850D01*
X025850D02*
Y015667D01*
X026050D01*
Y015767D01*
X026150D01*
Y015967D01*
X026050D01*
Y016067D01*
X025850D01*
Y015967D01*
X025750D01*
Y015767D01*
X025850D01*
X030050Y013850D02*
Y013750D01*
X030250D01*
Y013850D01*
X030350D01*
Y014050D01*
X030250D01*
Y014150D01*
X030050D01*
Y014050D01*
X029950D01*
Y013850D01*
X030050D01*
X027050D02*
Y013750D01*
X027250D01*
Y013850D01*
X027350D01*
Y014050D01*
X027250D01*
Y014150D01*
X027050D01*
Y014050D01*
X026950D01*
Y013850D01*
X027050D01*
X030000Y014882D02*
Y014782D01*
X030200D01*
Y014882D01*
X030300D01*
Y015082D01*
X030200D01*
Y015182D01*
X030000D01*
Y015082D01*
X029900D01*
Y014882D01*
X030000D01*
X027000D02*
Y014782D01*
X027200D01*
Y014882D01*
X027300D01*
Y015082D01*
X027200D01*
Y015182D01*
X027000D01*
Y015082D01*
X026900D01*
Y014882D01*
X027000D01*
X030000Y015867D02*
Y015767D01*
X030200D01*
Y015867D01*
X030300D01*
Y016067D01*
X030200D01*
Y016167D01*
X030000D01*
Y016067D01*
X029900D01*
Y015867D01*
X030000D01*
X027000D02*
Y015767D01*
X027200D01*
Y015867D01*
X027300D01*
Y016067D01*
X027200D01*
Y016167D01*
X027000D01*
Y016067D01*
X026900D01*
Y015867D01*
X027000D01*
X025400Y027050D02*
Y026950D01*
X025600D01*
Y027050D01*
X025700D01*
Y027250D01*
X025600D01*
Y027350D01*
X025400D01*
Y027250D01*
X025300D01*
Y027050D01*
X025400D01*
X022400D02*
Y026950D01*
X022600D01*
Y027050D01*
X022700D01*
Y027250D01*
X022600D01*
Y027350D01*
X022400D01*
Y027250D01*
X022300D01*
Y027050D01*
X022400D01*
X021600Y013950D02*
X021400Y014350D01*
X021800D01*
X021600Y013950D01*
Y014950D02*
X021400Y015350D01*
X021800D01*
X021600Y014950D01*
Y015950D02*
X021400Y016350D01*
X021800D01*
X021600Y015950D01*
Y016950D02*
X021400Y017350D01*
X021800D01*
X021600Y016950D01*
Y017950D02*
X021400Y018350D01*
X021800D01*
X021600Y017950D01*
Y018950D02*
X021400Y019350D01*
X021800D01*
X021600Y018950D01*
Y019950D02*
X021400Y020350D01*
X021800D01*
X021600Y019950D01*
Y020950D02*
X021400Y021350D01*
X021800D01*
X021600Y020950D01*
Y021950D02*
X021400Y022350D01*
X021800D01*
X021600Y021950D01*
Y022950D02*
X021400Y023350D01*
X021800D01*
X021600Y022950D01*
Y023950D02*
X021400Y024350D01*
X021800D01*
X021600Y023950D01*
Y024950D02*
X021400Y025350D01*
X021800D01*
X021600Y024950D01*
Y025950D02*
X021400Y026350D01*
X021800D01*
X021600Y025950D01*
Y026950D02*
X021400Y027350D01*
X021800D01*
X021600Y026950D01*
X018600Y013950D02*
X018400Y014350D01*
X018800D01*
X018600Y013950D01*
Y014950D02*
X018400Y015350D01*
X018800D01*
X018600Y014950D01*
Y015950D02*
X018400Y016350D01*
X018800D01*
X018600Y015950D01*
Y016950D02*
X018400Y017350D01*
X018800D01*
X018600Y016950D01*
Y017950D02*
X018400Y018350D01*
X018800D01*
X018600Y017950D01*
Y018950D02*
X018400Y019350D01*
X018800D01*
X018600Y018950D01*
Y019950D02*
X018400Y020350D01*
X018800D01*
X018600Y019950D01*
Y020950D02*
X018400Y021350D01*
X018800D01*
X018600Y020950D01*
Y021950D02*
X018400Y022350D01*
X018800D01*
X018600Y021950D01*
Y022950D02*
X018400Y023350D01*
X018800D01*
X018600Y022950D01*
Y023950D02*
X018400Y024350D01*
X018800D01*
X018600Y023950D01*
Y024950D02*
X018400Y025350D01*
X018800D01*
X018600Y024950D01*
Y025950D02*
X018400Y026350D01*
X018800D01*
X018600Y025950D01*
Y026950D02*
X018400Y027350D01*
X018800D01*
X018600Y026950D01*
X029200Y011900D02*
X029000Y012300D01*
X029400D01*
X029200Y011900D01*
Y010900D02*
X029000Y011300D01*
X029400D01*
X029200Y010900D01*
X028200Y011900D02*
X028000Y012300D01*
X028400D01*
X028200Y011900D01*
Y010900D02*
X028000Y011300D01*
X028400D01*
X028200Y010900D01*
X027200Y011900D02*
X027000Y012300D01*
X027400D01*
X027200Y011900D01*
Y010900D02*
X027000Y011300D01*
X027400D01*
X027200Y010900D01*
X026200Y011900D02*
X026000Y012300D01*
X026400D01*
X026200Y011900D01*
Y010900D02*
X026000Y011300D01*
X026400D01*
X026200Y010900D01*
X025200Y011900D02*
X025000Y012300D01*
X025400D01*
X025200Y011900D01*
Y010900D02*
X025000Y011300D01*
X025400D01*
X025200Y010900D01*
X026600Y024350D02*
X026700D01*
X026800Y024450D01*
X026900Y024350D01*
X027000D01*
Y024450D01*
X026900Y024550D01*
X027000Y024650D01*
Y024750D01*
X026900D01*
X026800Y024650D01*
X026700Y024750D01*
X026600D01*
Y024650D01*
X026700Y024550D01*
X026600Y024450D01*
Y024350D01*
X027600D02*
X027700D01*
X027800Y024450D01*
X027900Y024350D01*
X028000D01*
Y024450D01*
X027900Y024550D01*
X028000Y024650D01*
Y024750D01*
X027900D01*
X027800Y024650D01*
X027700Y024750D01*
X027600D01*
Y024650D01*
X027700Y024550D01*
X027600Y024450D01*
Y024350D01*
Y025550D02*
X027800Y025750D01*
X028000Y025550D01*
X027800Y025350D01*
X027600Y025550D01*
X026600D02*
X026800Y025750D01*
X027000Y025550D01*
X026800Y025350D01*
X026600Y025550D01*
X027600Y026550D02*
X027800Y026750D01*
X028000Y026550D01*
X027800Y026350D01*
X027600Y026550D01*
X026600D02*
X026800Y026750D01*
X027000Y026550D01*
X026800Y026350D01*
X026600Y026550D01*
X016500Y014400D02*
X016600D01*
X016700Y014500D01*
X016800Y014400D01*
X016900D01*
Y014500D01*
X016800Y014600D01*
X016900Y014700D01*
Y014800D01*
X016800D01*
X016700Y014700D01*
X016600Y014800D01*
X016500D01*
Y014700D01*
X016600Y014600D01*
X016500Y014500D01*
Y014400D01*
Y015400D02*
X016600D01*
X016700Y015500D01*
X016800Y015400D01*
X016900D01*
Y015500D01*
X016800Y015600D01*
X016900Y015700D01*
Y015800D01*
X016800D01*
X016700Y015700D01*
X016600Y015800D01*
X016500D01*
Y015700D01*
X016600Y015600D01*
X016500Y015500D01*
Y015400D01*
X015500Y015600D02*
X015700Y015800D01*
X015900Y015600D01*
X015700Y015400D01*
X015500Y015600D01*
Y014600D02*
X015700Y014800D01*
X015900Y014600D01*
X015700Y014400D01*
X015500Y014600D01*
X014500Y015600D02*
X014700Y015800D01*
X014900Y015600D01*
X014700Y015400D01*
X014500Y015600D01*
Y014600D02*
X014700Y014800D01*
X014900Y014600D01*
X014700Y014400D01*
X014500Y014600D01*
X024850Y019600D02*
X025050Y019800D01*
X025250Y019600D01*
X025050Y019400D01*
X024850Y019600D01*
Y021550D02*
X025050Y021750D01*
X025250Y021550D01*
X025050Y021350D01*
X024850Y021550D01*
X012600Y013950D02*
Y014350D01*
X013000D01*
Y013950D01*
X012600D01*
X012680Y014030D02*
Y014270D01*
X012920D01*
Y014030D01*
X012680D01*
X010850Y016500D02*
Y016900D01*
X011250D01*
Y016500D01*
X010850D01*
X010930Y016580D02*
Y016820D01*
X011170D01*
Y016580D01*
X010930D01*
X011700Y015500D02*
X011800D01*
X011900Y015600D01*
X012000Y015500D01*
X012100D01*
Y015600D01*
X012000Y015700D01*
X012100Y015800D01*
Y015900D01*
X012000D01*
X011900Y015800D01*
X011800Y015900D01*
X011700D01*
Y015800D01*
X011800Y015700D01*
X011700Y015600D01*
Y015500D01*
Y016700D02*
X011900Y016900D01*
X012100Y016700D01*
X011900Y016500D01*
X011700Y016700D01*
Y013950D02*
X011800D01*
X011900Y014050D01*
X012000Y013950D01*
X012100D01*
Y014050D01*
X012000Y014150D01*
X012100Y014250D01*
Y014350D01*
X012000D01*
X011900Y014250D01*
X011800Y014350D01*
X011700D01*
Y014250D01*
X011800Y014150D01*
X011700Y014050D01*
Y013950D01*
X012600Y016500D02*
Y016900D01*
X013000D01*
Y016500D01*
X012600D01*
X012680Y016580D02*
Y016820D01*
X012920D01*
Y016580D01*
X012680D01*
X024550Y023850D02*
X024350Y024250D01*
X024750D01*
X024550Y023850D01*
Y023930D02*
X024430Y024170D01*
X024670D01*
X024550Y023930D01*
X017180Y022580D02*
X016980Y022980D01*
X017380D01*
X017180Y022580D01*
Y022660D02*
X017060Y022900D01*
X017300D01*
X017180Y022660D01*
X022250Y019450D02*
X022050Y019850D01*
X022450D01*
X022250Y019450D01*
Y019530D02*
X022130Y019770D01*
X022370D01*
X022250Y019530D01*
X020700Y023750D02*
X020500Y024150D01*
X020900D01*
X020700Y023750D01*
Y023830D02*
X020580Y024070D01*
X020820D01*
X020700Y023830D01*
X016750Y018950D02*
X016550Y019350D01*
X016950D01*
X016750Y018950D01*
Y019030D02*
X016630Y019270D01*
X016870D01*
X016750Y019030D01*
X020670Y020880D02*
X020470Y021280D01*
X020870D01*
X020670Y020880D01*
Y020960D02*
X020550Y021200D01*
X020790D01*
X020670Y020960D01*
X028250Y035500D02*
X028050Y035900D01*
X028450D01*
X028250Y035500D01*
Y035580D02*
X028130Y035820D01*
X028370D01*
X028250Y035580D01*
X024950Y022900D02*
X024750Y023300D01*
X025150D01*
X024950Y022900D01*
Y022980D02*
X024830Y023220D01*
X025070D01*
X024950Y022980D01*
X023750Y023010D02*
X023550Y023410D01*
X023950D01*
X023750Y023010D01*
Y023090D02*
X023630Y023330D01*
X023870D01*
X023750Y023090D01*
X025926Y023100D02*
X025726Y023500D01*
X026126D01*
X025926Y023100D01*
Y023180D02*
X025806Y023420D01*
X026046D01*
X025926Y023180D01*
D43*
X031350Y013000D02*
G03*
X031350Y013000I-000200J000000D01*
G01*
X010000Y012900D02*
G03*
X010000Y012900I-000200J000000D01*
G01*
X011050Y034450D02*
G03*
X011050Y034450I-000200J000000D01*
G01*
X030650Y034650D02*
G03*
X030650Y034650I-000200J000000D01*
G01*
X011200Y014150D02*
G03*
X011200Y014150I-000200J000000D01*
G01*
D44*
X011120D02*
G03*
X011120Y014150I-000120J000000D01*
G01*
M02*
