%FSAX24Y24*%
%MOIN*%
G70*
G01*
G75*
G04 Layer_Color=65535*
%ADD10R,0.0591X0.0551*%
%ADD11R,0.0551X0.0591*%
%ADD12C,0.0100*%
%ADD13C,0.0472*%
%ADD14C,0.0400*%
%ADD15C,0.0591*%
%ADD16R,0.0591X0.0591*%
%ADD17C,0.1000*%
%ADD18R,0.0591X0.0591*%
%ADD19C,0.0532*%
%ADD20R,0.0532X0.0532*%
%ADD21C,0.0551*%
%ADD22C,0.0600*%
%ADD23C,0.0700*%
%ADD24C,0.0500*%
%ADD25C,0.0236*%
%ADD26C,0.0098*%
%ADD27C,0.0079*%
G36*
X020821Y033725D02*
X020827D01*
X020843Y033723D01*
X020859Y033721D01*
X020877Y033716D01*
X020895Y033711D01*
X020911Y033704D01*
X020912D01*
X020913Y033704D01*
X020918Y033700D01*
X020925Y033696D01*
X020934Y033689D01*
X020943Y033680D01*
X020953Y033670D01*
X020963Y033658D01*
X020971Y033644D01*
Y033643D01*
X020972Y033642D01*
X020973Y033639D01*
X020974Y033637D01*
X020978Y033628D01*
X020982Y033617D01*
X020985Y033602D01*
X020989Y033584D01*
X020991Y033564D01*
X020992Y033542D01*
Y033529D01*
X020749D01*
Y033527D01*
X020750Y033524D01*
X020750Y033519D01*
X020751Y033512D01*
X020756Y033497D01*
X020760Y033491D01*
X020764Y033485D01*
X020765Y033484D01*
X020767Y033481D01*
X020771Y033478D01*
X020777Y033475D01*
X020783Y033471D01*
X020791Y033468D01*
X020799Y033465D01*
X020810Y033464D01*
X020813D01*
X020816Y033465D01*
X020821D01*
X020832Y033468D01*
X020844Y033473D01*
X020845D01*
X020846Y033474D01*
X020850Y033478D01*
X020857Y033484D01*
X020865Y033493D01*
X020985Y033482D01*
Y033481D01*
X020985Y033481D01*
X020983Y033478D01*
X020980Y033475D01*
X020974Y033466D01*
X020967Y033455D01*
X020957Y033444D01*
X020946Y033432D01*
X020933Y033422D01*
X020919Y033413D01*
X020918D01*
X020917Y033412D01*
X020914Y033411D01*
X020912Y033410D01*
X020908Y033408D01*
X020903Y033406D01*
X020897Y033404D01*
X020890Y033403D01*
X020882Y033401D01*
X020875Y033399D01*
X020855Y033396D01*
X020832Y033394D01*
X020807Y033393D01*
X020797D01*
X020791Y033394D01*
X020785D01*
X020771Y033395D01*
X020755Y033397D01*
X020739Y033400D01*
X020722Y033404D01*
X020707Y033410D01*
X020706Y033411D01*
X020701Y033414D01*
X020695Y033418D01*
X020687Y033424D01*
X020677Y033432D01*
X020668Y033442D01*
X020658Y033454D01*
X020648Y033467D01*
Y033468D01*
X020647Y033469D01*
X020645Y033474D01*
X020641Y033482D01*
X020636Y033493D01*
X020632Y033507D01*
X020628Y033522D01*
X020625Y033540D01*
X020625Y033558D01*
Y033559D01*
Y033562D01*
Y033566D01*
X020625Y033571D01*
X020626Y033577D01*
X020627Y033584D01*
X020630Y033601D01*
X020636Y033621D01*
X020645Y033640D01*
X020650Y033650D01*
X020657Y033661D01*
X020663Y033670D01*
X020672Y033679D01*
X020673Y033680D01*
X020674Y033681D01*
X020677Y033683D01*
X020680Y033687D01*
X020685Y033690D01*
X020691Y033693D01*
X020698Y033698D01*
X020707Y033703D01*
X020715Y033707D01*
X020725Y033711D01*
X020736Y033715D01*
X020747Y033718D01*
X020761Y033721D01*
X020774Y033724D01*
X020789Y033725D01*
X020804Y033726D01*
X020815D01*
X020821Y033725D01*
D02*
G37*
G36*
X019261D02*
X019275Y033724D01*
X019289Y033723D01*
X019304Y033721D01*
X019317Y033719D01*
X019319D01*
X019323Y033718D01*
X019329Y033716D01*
X019337Y033714D01*
X019346Y033710D01*
X019355Y033705D01*
X019365Y033700D01*
X019373Y033693D01*
X019374Y033693D01*
X019376Y033691D01*
X019378Y033688D01*
X019382Y033683D01*
X019386Y033678D01*
X019390Y033672D01*
X019394Y033664D01*
X019398Y033655D01*
X019398Y033654D01*
X019399Y033650D01*
X019401Y033645D01*
X019403Y033639D01*
X019404Y033633D01*
X019405Y033625D01*
X019407Y033617D01*
Y033608D01*
Y033468D01*
Y033467D01*
Y033464D01*
Y033460D01*
Y033455D01*
X019408Y033443D01*
X019409Y033437D01*
X019409Y033432D01*
Y033432D01*
X019410Y033430D01*
X019411Y033427D01*
X019412Y033424D01*
X019414Y033419D01*
X019416Y033414D01*
X019422Y033400D01*
X019307D01*
Y033401D01*
X019306Y033402D01*
X019304Y033407D01*
X019300Y033413D01*
X019298Y033418D01*
Y033420D01*
X019297Y033423D01*
X019296Y033430D01*
X019295Y033438D01*
X019294Y033437D01*
X019290Y033435D01*
X019285Y033431D01*
X019279Y033426D01*
X019272Y033421D01*
X019264Y033415D01*
X019256Y033410D01*
X019246Y033405D01*
X019245Y033404D01*
X019240Y033404D01*
X019234Y033401D01*
X019225Y033399D01*
X019214Y033397D01*
X019202Y033394D01*
X019187Y033394D01*
X019172Y033393D01*
X019167D01*
X019163Y033394D01*
X019158D01*
X019153Y033394D01*
X019140Y033396D01*
X019126Y033399D01*
X019111Y033404D01*
X019098Y033410D01*
X019085Y033419D01*
X019084Y033420D01*
X019081Y033424D01*
X019076Y033429D01*
X019071Y033437D01*
X019066Y033446D01*
X019060Y033458D01*
X019057Y033470D01*
X019056Y033484D01*
Y033485D01*
Y033486D01*
Y033490D01*
X019057Y033497D01*
X019059Y033505D01*
X019061Y033514D01*
X019066Y033524D01*
X019071Y033534D01*
X019077Y033543D01*
X019078Y033544D01*
X019082Y033547D01*
X019087Y033552D01*
X019095Y033557D01*
X019105Y033562D01*
X019119Y033568D01*
X019136Y033573D01*
X019155Y033578D01*
X019156D01*
X019158Y033579D01*
X019162Y033579D01*
X019166Y033580D01*
X019172Y033581D01*
X019178Y033583D01*
X019192Y033585D01*
X019207Y033589D01*
X019222Y033592D01*
X019235Y033595D01*
X019240Y033596D01*
X019244Y033597D01*
X019245D01*
X019247Y033598D01*
X019251Y033600D01*
X019257Y033601D01*
X019264Y033604D01*
X019272Y033606D01*
X019288Y033612D01*
Y033613D01*
Y033616D01*
X019287Y033620D01*
Y033624D01*
X019284Y033635D01*
X019282Y033639D01*
X019278Y033644D01*
Y033644D01*
X019277Y033645D01*
X019274Y033647D01*
X019271Y033649D01*
X019267Y033650D01*
X019261Y033651D01*
X019254Y033653D01*
X019240D01*
X019235Y033652D01*
X019229D01*
X019214Y033649D01*
X019207Y033646D01*
X019201Y033643D01*
X019200D01*
X019199Y033641D01*
X019197Y033639D01*
X019194Y033637D01*
X019191Y033633D01*
X019188Y033628D01*
X019185Y033622D01*
X019182Y033615D01*
X019066Y033628D01*
Y033629D01*
X019066Y033633D01*
X019068Y033638D01*
X019070Y033645D01*
X019076Y033661D01*
X019080Y033668D01*
X019084Y033675D01*
X019085Y033676D01*
X019087Y033678D01*
X019089Y033681D01*
X019093Y033685D01*
X019099Y033690D01*
X019104Y033695D01*
X019111Y033700D01*
X019120Y033705D01*
X019120Y033706D01*
X019123Y033707D01*
X019126Y033709D01*
X019131Y033710D01*
X019138Y033713D01*
X019147Y033715D01*
X019156Y033718D01*
X019166Y033720D01*
X019168D01*
X019171Y033721D01*
X019177Y033721D01*
X019186Y033723D01*
X019195Y033724D01*
X019205Y033725D01*
X019217Y033726D01*
X019249D01*
X019261Y033725D01*
D02*
G37*
G36*
X021119Y033155D02*
X021125D01*
X021131Y033154D01*
X021138Y033154D01*
X021146Y033152D01*
X021162Y033150D01*
X021179Y033145D01*
X021195Y033139D01*
X021203Y033135D01*
X021209Y033130D01*
X021210D01*
X021211Y033129D01*
X021215Y033126D01*
X021221Y033119D01*
X021228Y033111D01*
X021236Y033100D01*
X021242Y033087D01*
X021246Y033078D01*
X021248Y033070D01*
X021250Y033061D01*
X021252Y033051D01*
X021150Y033046D01*
Y033047D01*
X021150Y033050D01*
X021148Y033054D01*
X021147Y033059D01*
X021144Y033064D01*
X021141Y033070D01*
X021137Y033075D01*
X021133Y033080D01*
X021132Y033080D01*
X021131Y033082D01*
X021127Y033083D01*
X021123Y033085D01*
X021119Y033087D01*
X021113Y033089D01*
X021105Y033090D01*
X021097Y033091D01*
X021094D01*
X021091Y033090D01*
X021087D01*
X021078Y033087D01*
X021074Y033085D01*
X021070Y033083D01*
X021069Y033082D01*
X021068Y033081D01*
X021065Y033077D01*
X021062Y033071D01*
X021061Y033067D01*
X021060Y033063D01*
Y033062D01*
Y033062D01*
X021061Y033058D01*
X021064Y033053D01*
X021065Y033050D01*
X021068Y033048D01*
X021068D01*
X021069Y033046D01*
X021072Y033045D01*
X021075Y033044D01*
X021080Y033042D01*
X021086Y033040D01*
X021094Y033037D01*
X021103Y033035D01*
X021104D01*
X021107Y033034D01*
X021110Y033033D01*
X021115Y033032D01*
X021121Y033031D01*
X021127Y033029D01*
X021135Y033027D01*
X021142Y033025D01*
X021159Y033021D01*
X021176Y033015D01*
X021191Y033010D01*
X021198Y033007D01*
X021204Y033004D01*
X021205D01*
X021205Y033003D01*
X021209Y033001D01*
X021215Y032998D01*
X021221Y032993D01*
X021229Y032988D01*
X021236Y032981D01*
X021243Y032974D01*
X021249Y032965D01*
X021250Y032964D01*
X021251Y032961D01*
X021254Y032956D01*
X021256Y032950D01*
X021258Y032943D01*
X021261Y032934D01*
X021262Y032924D01*
X021263Y032914D01*
Y032913D01*
Y032912D01*
Y032910D01*
Y032908D01*
X021262Y032902D01*
X021261Y032894D01*
X021258Y032884D01*
X021255Y032874D01*
X021250Y032862D01*
X021244Y032851D01*
X021244Y032850D01*
X021241Y032847D01*
X021237Y032842D01*
X021231Y032835D01*
X021223Y032828D01*
X021214Y032821D01*
X021204Y032814D01*
X021192Y032808D01*
X021191D01*
X021191Y032808D01*
X021189Y032807D01*
X021186Y032806D01*
X021182Y032805D01*
X021179Y032804D01*
X021169Y032802D01*
X021157Y032799D01*
X021143Y032796D01*
X021127Y032795D01*
X021109Y032794D01*
X021100D01*
X021094Y032795D01*
X021087Y032796D01*
X021079Y032796D01*
X021070Y032797D01*
X021060Y032798D01*
X021039Y032802D01*
X021019Y032808D01*
X021010Y032812D01*
X021001Y032817D01*
X020992Y032822D01*
X020986Y032828D01*
X020985Y032828D01*
X020984Y032829D01*
X020982Y032831D01*
X020980Y032834D01*
X020978Y032837D01*
X020975Y032841D01*
X020968Y032851D01*
X020961Y032864D01*
X020955Y032879D01*
X020950Y032896D01*
X020949Y032906D01*
X020947Y032915D01*
X021050Y032922D01*
Y032921D01*
X021051Y032918D01*
X021051Y032913D01*
X021053Y032908D01*
X021057Y032895D01*
X021060Y032889D01*
X021064Y032884D01*
X021064Y032883D01*
X021067Y032880D01*
X021070Y032877D01*
X021076Y032874D01*
X021082Y032869D01*
X021090Y032866D01*
X021100Y032863D01*
X021111Y032863D01*
X021115D01*
X021119Y032863D01*
X021123Y032864D01*
X021129Y032865D01*
X021135Y032867D01*
X021141Y032870D01*
X021146Y032874D01*
X021146Y032874D01*
X021148Y032876D01*
X021150Y032878D01*
X021152Y032881D01*
X021156Y032888D01*
X021158Y032893D01*
X021158Y032898D01*
Y032899D01*
Y032900D01*
X021158Y032903D01*
X021157Y032906D01*
X021156Y032910D01*
X021153Y032915D01*
X021150Y032919D01*
X021146Y032923D01*
X021146Y032923D01*
X021144Y032925D01*
X021140Y032927D01*
X021135Y032929D01*
X021127Y032932D01*
X021118Y032935D01*
X021106Y032939D01*
X021098Y032941D01*
X021091Y032943D01*
X021090D01*
X021088Y032943D01*
X021084Y032945D01*
X021080Y032945D01*
X021074Y032947D01*
X021067Y032949D01*
X021060Y032951D01*
X021052Y032954D01*
X021035Y032960D01*
X021019Y032968D01*
X021003Y032976D01*
X020996Y032981D01*
X020990Y032986D01*
X020989Y032987D01*
X020986Y032990D01*
X020981Y032996D01*
X020976Y033004D01*
X020969Y033014D01*
X020965Y033025D01*
X020961Y033038D01*
X020961Y033046D01*
X020960Y033053D01*
Y033054D01*
Y033058D01*
X020961Y033063D01*
X020962Y033070D01*
X020964Y033077D01*
X020967Y033086D01*
X020970Y033095D01*
X020976Y033104D01*
X020976Y033105D01*
X020978Y033108D01*
X020982Y033112D01*
X020987Y033118D01*
X020994Y033124D01*
X021002Y033130D01*
X021011Y033136D01*
X021022Y033142D01*
X021023D01*
X021023Y033142D01*
X021025Y033143D01*
X021028Y033144D01*
X021031Y033145D01*
X021035Y033146D01*
X021045Y033149D01*
X021057Y033151D01*
X021072Y033154D01*
X021088Y033155D01*
X021108Y033156D01*
X021115D01*
X021119Y033155D01*
D02*
G37*
G36*
X019951Y033725D02*
X019959Y033724D01*
X019968Y033722D01*
X019978Y033720D01*
X019988Y033716D01*
X019998Y033711D01*
X019999Y033710D01*
X020002Y033709D01*
X020006Y033706D01*
X020011Y033702D01*
X020018Y033697D01*
X020025Y033689D01*
X020033Y033681D01*
X020042Y033671D01*
Y033718D01*
X020156D01*
Y033279D01*
X020033D01*
Y033431D01*
X020032Y033430D01*
X020030Y033427D01*
X020026Y033424D01*
X020021Y033420D01*
X020014Y033415D01*
X020008Y033410D01*
X019999Y033406D01*
X019991Y033402D01*
X019990D01*
X019987Y033400D01*
X019982Y033399D01*
X019976Y033398D01*
X019969Y033396D01*
X019960Y033394D01*
X019950Y033394D01*
X019940Y033393D01*
X019934D01*
X019931Y033394D01*
X019926Y033394D01*
X019920Y033395D01*
X019906Y033398D01*
X019891Y033403D01*
X019875Y033410D01*
X019867Y033415D01*
X019859Y033421D01*
X019851Y033426D01*
X019844Y033434D01*
Y033435D01*
X019842Y033436D01*
X019840Y033438D01*
X019838Y033442D01*
X019835Y033446D01*
X019832Y033452D01*
X019829Y033458D01*
X019825Y033465D01*
X019822Y033473D01*
X019818Y033482D01*
X019815Y033492D01*
X019813Y033503D01*
X019810Y033514D01*
X019808Y033527D01*
X019807Y033540D01*
X019807Y033554D01*
Y033555D01*
Y033557D01*
Y033559D01*
Y033563D01*
X019807Y033568D01*
Y033573D01*
X019809Y033585D01*
X019811Y033600D01*
X019813Y033615D01*
X019818Y033631D01*
X019824Y033646D01*
Y033647D01*
X019824Y033648D01*
X019827Y033653D01*
X019831Y033660D01*
X019836Y033668D01*
X019843Y033678D01*
X019851Y033688D01*
X019861Y033697D01*
X019872Y033705D01*
X019873Y033706D01*
X019877Y033709D01*
X019884Y033712D01*
X019892Y033715D01*
X019901Y033719D01*
X019913Y033722D01*
X019926Y033725D01*
X019939Y033726D01*
X019944D01*
X019951Y033725D01*
D02*
G37*
G36*
X022236Y033400D02*
X022106D01*
Y033523D01*
X022236D01*
Y033400D01*
D02*
G37*
G36*
X022886Y033746D02*
X022658D01*
Y033676D01*
X022870D01*
Y033586D01*
X022658D01*
Y033500D01*
X022893D01*
Y033400D01*
X022522D01*
Y033840D01*
X022886D01*
Y033746D01*
D02*
G37*
G36*
X019761Y033647D02*
X019600Y033482D01*
X019771D01*
Y033400D01*
X019454D01*
Y033478D01*
X019608Y033636D01*
X019466D01*
Y033718D01*
X019761D01*
Y033647D01*
D02*
G37*
G36*
X021329D02*
X021168Y033482D01*
X021339D01*
Y033400D01*
X021023D01*
Y033478D01*
X021176Y033636D01*
X021034D01*
Y033718D01*
X021329D01*
Y033647D01*
D02*
G37*
G36*
X020358Y032800D02*
X020254D01*
Y032898D01*
X020358D01*
Y032800D01*
D02*
G37*
G36*
X020596Y033149D02*
X020601D01*
X020612Y033148D01*
X020624Y033146D01*
X020637Y033144D01*
X020650Y033141D01*
X020661Y033136D01*
X020662D01*
X020662Y033136D01*
X020666Y033134D01*
X020671Y033131D01*
X020678Y033127D01*
X020686Y033121D01*
X020694Y033115D01*
X020702Y033108D01*
X020709Y033099D01*
X020710Y033098D01*
X020713Y033095D01*
X020716Y033090D01*
X020720Y033084D01*
X020725Y033075D01*
X020730Y033066D01*
X020734Y033055D01*
X020738Y033044D01*
Y033043D01*
X020738Y033042D01*
X020739Y033038D01*
X020740Y033031D01*
X020742Y033023D01*
X020744Y033013D01*
X020745Y033001D01*
X020746Y032989D01*
X020746Y032976D01*
Y032975D01*
Y032973D01*
Y032970D01*
Y032966D01*
X020746Y032962D01*
Y032956D01*
X020745Y032944D01*
X020743Y032930D01*
X020741Y032916D01*
X020738Y032902D01*
X020734Y032889D01*
X020733Y032888D01*
X020732Y032884D01*
X020728Y032878D01*
X020724Y032871D01*
X020719Y032863D01*
X020713Y032854D01*
X020706Y032845D01*
X020698Y032837D01*
X020697Y032837D01*
X020694Y032834D01*
X020689Y032831D01*
X020683Y032826D01*
X020676Y032821D01*
X020668Y032817D01*
X020658Y032813D01*
X020649Y032810D01*
X020648D01*
X020648Y032809D01*
X020646D01*
X020643Y032808D01*
X020636Y032807D01*
X020627Y032805D01*
X020617Y032803D01*
X020607Y032802D01*
X020596Y032801D01*
X020584Y032800D01*
X020424D01*
Y033150D01*
X020592D01*
X020596Y033149D01*
D02*
G37*
G36*
X021947Y033155D02*
X021955Y033154D01*
X021964Y033154D01*
X021973Y033152D01*
X021984Y033150D01*
X021992Y033147D01*
X021994Y033146D01*
X021996Y033146D01*
X022000Y033144D01*
X022006Y033141D01*
X022018Y033134D01*
X022024Y033130D01*
X022029Y033124D01*
X022030Y033124D01*
X022032Y033121D01*
X022034Y033119D01*
X022037Y033115D01*
X022041Y033111D01*
X022045Y033106D01*
X022051Y033095D01*
X022052Y033094D01*
X022053Y033092D01*
X022055Y033089D01*
X022056Y033085D01*
X022059Y033079D01*
X022061Y033073D01*
X022063Y033066D01*
X022065Y033059D01*
Y033058D01*
X022065Y033057D01*
Y033055D01*
X022066Y033052D01*
X022068Y033049D01*
X022068Y033044D01*
X022070Y033034D01*
X022072Y033022D01*
X022074Y033008D01*
X022074Y032993D01*
X022075Y032977D01*
Y032976D01*
Y032973D01*
Y032968D01*
X022074Y032962D01*
Y032953D01*
X022074Y032945D01*
X022072Y032935D01*
X022071Y032924D01*
X022067Y032902D01*
X022061Y032878D01*
X022057Y032867D01*
X022053Y032857D01*
X022048Y032847D01*
X022043Y032838D01*
X022042Y032837D01*
X022041Y032836D01*
X022039Y032834D01*
X022037Y032831D01*
X022033Y032828D01*
X022029Y032824D01*
X022023Y032820D01*
X022016Y032816D01*
X022010Y032812D01*
X022002Y032808D01*
X021992Y032804D01*
X021982Y032801D01*
X021971Y032798D01*
X021959Y032796D01*
X021946Y032795D01*
X021932Y032794D01*
X021924D01*
X021921Y032795D01*
X021916D01*
X021906Y032796D01*
X021895Y032798D01*
X021883Y032800D01*
X021871Y032803D01*
X021861Y032808D01*
X021859Y032808D01*
X021856Y032810D01*
X021851Y032814D01*
X021845Y032818D01*
X021838Y032824D01*
X021830Y032831D01*
X021823Y032840D01*
X021816Y032849D01*
X021816Y032850D01*
X021814Y032853D01*
X021811Y032857D01*
X021809Y032863D01*
X021806Y032871D01*
X021803Y032880D01*
X021799Y032890D01*
X021797Y032902D01*
Y032902D01*
Y032903D01*
X021796Y032905D01*
X021795Y032908D01*
X021795Y032915D01*
X021793Y032924D01*
X021792Y032935D01*
X021791Y032947D01*
X021790Y032962D01*
Y032976D01*
Y032978D01*
Y032981D01*
Y032986D01*
X021791Y032992D01*
X021791Y033001D01*
X021792Y033010D01*
X021793Y033020D01*
X021795Y033031D01*
X021799Y033054D01*
X021805Y033077D01*
X021809Y033088D01*
X021814Y033098D01*
X021820Y033107D01*
X021826Y033115D01*
X021826Y033116D01*
X021828Y033117D01*
X021830Y033119D01*
X021832Y033121D01*
X021836Y033125D01*
X021841Y033128D01*
X021846Y033132D01*
X021852Y033136D01*
X021860Y033140D01*
X021868Y033143D01*
X021877Y033146D01*
X021887Y033150D01*
X021897Y033152D01*
X021909Y033154D01*
X021921Y033155D01*
X021934Y033156D01*
X021941D01*
X021947Y033155D01*
D02*
G37*
G36*
X020096Y033149D02*
X020101D01*
X020107Y033148D01*
X020119Y033146D01*
X020134Y033143D01*
X020148Y033138D01*
X020162Y033131D01*
X020168Y033126D01*
X020174Y033121D01*
X020175D01*
X020176Y033120D01*
X020179Y033116D01*
X020184Y033110D01*
X020189Y033101D01*
X020195Y033090D01*
X020199Y033076D01*
X020203Y033060D01*
X020204Y033052D01*
Y033042D01*
Y033042D01*
Y033040D01*
Y033037D01*
X020203Y033033D01*
Y033029D01*
X020203Y033024D01*
X020200Y033012D01*
X020196Y032999D01*
X020191Y032985D01*
X020183Y032972D01*
X020177Y032966D01*
X020172Y032960D01*
X020171D01*
X020170Y032958D01*
X020168Y032957D01*
X020166Y032955D01*
X020162Y032953D01*
X020158Y032950D01*
X020154Y032947D01*
X020148Y032945D01*
X020142Y032942D01*
X020134Y032939D01*
X020126Y032937D01*
X020117Y032935D01*
X020108Y032933D01*
X020098Y032931D01*
X020087Y032931D01*
X020075Y032930D01*
X020016D01*
Y032800D01*
X019908D01*
Y033150D01*
X020092D01*
X020096Y033149D01*
D02*
G37*
G36*
X022335Y032800D02*
X022237D01*
Y033033D01*
X022236Y033032D01*
X022233Y033030D01*
X022228Y033027D01*
X022222Y033022D01*
X022215Y033017D01*
X022207Y033013D01*
X022190Y033003D01*
X022190Y033003D01*
X022186Y033001D01*
X022182Y032999D01*
X022175Y032996D01*
X022167Y032993D01*
X022158Y032990D01*
X022147Y032986D01*
X022135Y032982D01*
Y033062D01*
X022135D01*
X022137Y033062D01*
X022139Y033063D01*
X022143Y033064D01*
X022147Y033066D01*
X022152Y033068D01*
X022163Y033072D01*
X022175Y033078D01*
X022188Y033084D01*
X022200Y033091D01*
X022211Y033099D01*
X022213Y033101D01*
X022216Y033103D01*
X022221Y033108D01*
X022227Y033115D01*
X022234Y033123D01*
X022241Y033133D01*
X022248Y033144D01*
X022254Y033156D01*
X022335D01*
Y032800D01*
D02*
G37*
G36*
X022710Y033072D02*
X022554D01*
X022545Y033020D01*
X022546Y033021D01*
X022548Y033021D01*
X022551Y033023D01*
X022555Y033024D01*
X022561Y033026D01*
X022566Y033028D01*
X022578Y033031D01*
X022578D01*
X022580Y033032D01*
X022584Y033033D01*
X022588Y033033D01*
X022592Y033034D01*
X022598Y033035D01*
X022609Y033035D01*
X022614D01*
X022618Y033035D01*
X022622D01*
X022627Y033034D01*
X022639Y033031D01*
X022653Y033027D01*
X022667Y033022D01*
X022681Y033014D01*
X022688Y033009D01*
X022694Y033003D01*
X022694Y033003D01*
X022695Y033002D01*
X022697Y033000D01*
X022699Y032998D01*
X022705Y032990D01*
X022711Y032982D01*
X022717Y032970D01*
X022721Y032956D01*
X022725Y032941D01*
X022726Y032932D01*
X022727Y032923D01*
Y032923D01*
Y032922D01*
Y032920D01*
Y032917D01*
X022726Y032911D01*
X022725Y032902D01*
X022723Y032892D01*
X022719Y032882D01*
X022715Y032870D01*
X022710Y032858D01*
X022709Y032857D01*
X022707Y032853D01*
X022703Y032847D01*
X022698Y032841D01*
X022691Y032833D01*
X022683Y032825D01*
X022673Y032817D01*
X022662Y032810D01*
X022662D01*
X022661Y032810D01*
X022659Y032809D01*
X022657Y032808D01*
X022650Y032805D01*
X022641Y032802D01*
X022629Y032800D01*
X022616Y032797D01*
X022600Y032795D01*
X022583Y032794D01*
X022577D01*
X022571Y032795D01*
X022563D01*
X022553Y032796D01*
X022543Y032797D01*
X022533Y032798D01*
X022524Y032800D01*
X022522D01*
X022520Y032802D01*
X022515Y032803D01*
X022509Y032805D01*
X022502Y032808D01*
X022496Y032811D01*
X022488Y032815D01*
X022481Y032820D01*
X022481Y032820D01*
X022479Y032822D01*
X022475Y032825D01*
X022472Y032828D01*
X022467Y032833D01*
X022463Y032838D01*
X022454Y032849D01*
X022453Y032850D01*
X022452Y032853D01*
X022450Y032856D01*
X022448Y032861D01*
X022445Y032867D01*
X022442Y032874D01*
X022439Y032882D01*
X022436Y032890D01*
X022535Y032902D01*
Y032900D01*
X022535Y032898D01*
X022537Y032894D01*
X022538Y032888D01*
X022540Y032882D01*
X022543Y032876D01*
X022547Y032871D01*
X022551Y032865D01*
X022551Y032865D01*
X022553Y032863D01*
X022556Y032861D01*
X022559Y032859D01*
X022564Y032857D01*
X022569Y032855D01*
X022576Y032854D01*
X022582Y032853D01*
X022586D01*
X022590Y032854D01*
X022594Y032855D01*
X022599Y032857D01*
X022605Y032860D01*
X022610Y032863D01*
X022616Y032869D01*
X022617Y032869D01*
X022618Y032871D01*
X022620Y032876D01*
X022623Y032880D01*
X022625Y032887D01*
X022627Y032894D01*
X022629Y032904D01*
X022629Y032915D01*
Y032915D01*
Y032916D01*
Y032920D01*
X022629Y032925D01*
X022628Y032932D01*
X022626Y032940D01*
X022624Y032947D01*
X022621Y032955D01*
X022616Y032961D01*
X022615Y032962D01*
X022613Y032963D01*
X022610Y032966D01*
X022606Y032968D01*
X022601Y032971D01*
X022595Y032974D01*
X022588Y032975D01*
X022580Y032976D01*
X022578D01*
X022575Y032975D01*
X022572D01*
X022563Y032972D01*
X022558Y032971D01*
X022553Y032968D01*
X022552D01*
X022551Y032968D01*
X022549Y032966D01*
X022547Y032964D01*
X022543Y032962D01*
X022540Y032959D01*
X022536Y032955D01*
X022532Y032950D01*
X022449Y032962D01*
X022480Y033150D01*
X022710D01*
Y033072D01*
D02*
G37*
G36*
X020900Y032800D02*
X020797D01*
Y032898D01*
X020900D01*
Y032800D01*
D02*
G37*
G36*
X021618Y033155D02*
X021623D01*
X021634Y033154D01*
X021647Y033153D01*
X021660Y033150D01*
X021673Y033148D01*
X021684Y033144D01*
X021685D01*
X021686Y033143D01*
X021689Y033142D01*
X021695Y033139D01*
X021701Y033135D01*
X021708Y033130D01*
X021715Y033124D01*
X021723Y033117D01*
X021729Y033108D01*
X021730Y033107D01*
X021732Y033104D01*
X021735Y033099D01*
X021738Y033092D01*
X021741Y033084D01*
X021744Y033075D01*
X021746Y033064D01*
X021746Y033054D01*
Y033053D01*
Y033052D01*
Y033048D01*
X021746Y033042D01*
X021744Y033034D01*
X021742Y033025D01*
X021738Y033015D01*
X021734Y033004D01*
X021727Y032992D01*
X021727Y032991D01*
X021724Y032988D01*
X021719Y032982D01*
X021712Y032974D01*
X021703Y032964D01*
X021691Y032953D01*
X021684Y032947D01*
X021676Y032941D01*
X021668Y032935D01*
X021659Y032929D01*
X021658Y032928D01*
X021654Y032925D01*
X021650Y032922D01*
X021643Y032918D01*
X021630Y032908D01*
X021625Y032904D01*
X021620Y032900D01*
X021619Y032900D01*
X021618Y032899D01*
X021616Y032897D01*
X021613Y032895D01*
X021606Y032888D01*
X021596Y032880D01*
X021749D01*
Y032800D01*
X021457D01*
Y032801D01*
Y032802D01*
X021458Y032804D01*
X021459Y032808D01*
X021459Y032812D01*
X021460Y032816D01*
X021463Y032826D01*
X021467Y032839D01*
X021472Y032853D01*
X021479Y032867D01*
X021488Y032881D01*
Y032882D01*
X021489Y032883D01*
X021490Y032885D01*
X021493Y032888D01*
X021496Y032892D01*
X021499Y032896D01*
X021504Y032901D01*
X021509Y032906D01*
X021515Y032913D01*
X021522Y032920D01*
X021530Y032927D01*
X021539Y032935D01*
X021548Y032943D01*
X021558Y032952D01*
X021570Y032962D01*
X021582Y032971D01*
X021583Y032972D01*
X021584Y032972D01*
X021586Y032974D01*
X021589Y032976D01*
X021596Y032982D01*
X021605Y032989D01*
X021615Y032996D01*
X021624Y033005D01*
X021631Y033012D01*
X021635Y033015D01*
X021637Y033019D01*
X021638Y033019D01*
X021639Y033021D01*
X021641Y033025D01*
X021643Y033029D01*
X021645Y033033D01*
X021648Y033039D01*
X021649Y033045D01*
X021650Y033050D01*
Y033051D01*
Y033053D01*
X021649Y033056D01*
X021648Y033060D01*
X021647Y033064D01*
X021644Y033068D01*
X021641Y033073D01*
X021637Y033078D01*
X021637Y033078D01*
X021635Y033080D01*
X021633Y033081D01*
X021629Y033084D01*
X021625Y033086D01*
X021620Y033087D01*
X021615Y033089D01*
X021608Y033089D01*
X021604D01*
X021601Y033089D01*
X021597Y033088D01*
X021592Y033087D01*
X021587Y033084D01*
X021582Y033081D01*
X021578Y033077D01*
X021577Y033076D01*
X021576Y033075D01*
X021574Y033072D01*
X021572Y033068D01*
X021569Y033062D01*
X021566Y033055D01*
X021564Y033046D01*
X021562Y033036D01*
X021465Y033044D01*
Y033044D01*
Y033046D01*
X021465Y033048D01*
X021466Y033050D01*
X021467Y033058D01*
X021469Y033067D01*
X021472Y033077D01*
X021475Y033088D01*
X021480Y033098D01*
X021485Y033107D01*
X021486Y033109D01*
X021488Y033111D01*
X021491Y033115D01*
X021496Y033121D01*
X021502Y033126D01*
X021510Y033132D01*
X021518Y033138D01*
X021528Y033143D01*
X021529Y033144D01*
X021533Y033145D01*
X021539Y033147D01*
X021548Y033150D01*
X021559Y033152D01*
X021572Y033154D01*
X021588Y033155D01*
X021605Y033156D01*
X021614D01*
X021618Y033155D01*
D02*
G37*
G36*
X023356Y033400D02*
X023234D01*
Y033718D01*
X023356D01*
Y033400D01*
D02*
G37*
G36*
X019702Y035205D02*
Y035191D01*
X019716D01*
Y035177D01*
Y035163D01*
Y035149D01*
Y035135D01*
Y035121D01*
Y035107D01*
Y035093D01*
Y035079D01*
Y035065D01*
Y035051D01*
Y035037D01*
Y035023D01*
Y035009D01*
Y034994D01*
Y034980D01*
Y034966D01*
Y034952D01*
Y034938D01*
Y034924D01*
X019702D01*
Y034910D01*
Y034896D01*
Y034882D01*
X019156D01*
Y034868D01*
X019142D01*
Y034854D01*
Y034840D01*
X019128D01*
Y034826D01*
X019114D01*
Y034812D01*
Y034798D01*
X019702D01*
Y034784D01*
Y034770D01*
X019716D01*
Y034756D01*
Y034742D01*
Y034728D01*
Y034714D01*
Y034700D01*
Y034686D01*
Y034672D01*
Y034658D01*
Y034644D01*
Y034630D01*
Y034616D01*
Y034602D01*
Y034588D01*
Y034574D01*
Y034560D01*
Y034546D01*
Y034532D01*
Y034518D01*
X019702D01*
Y034504D01*
Y034490D01*
Y034476D01*
X018960D01*
Y034462D01*
X018946D01*
Y034448D01*
Y034434D01*
X018932D01*
Y034420D01*
Y034406D01*
Y034392D01*
Y034378D01*
Y034364D01*
X019702D01*
Y034350D01*
Y034336D01*
Y034322D01*
X019716D01*
Y034308D01*
Y034294D01*
Y034280D01*
Y034266D01*
Y034252D01*
Y034238D01*
Y034224D01*
Y034210D01*
Y034196D01*
Y034182D01*
Y034168D01*
Y034154D01*
Y034140D01*
Y034126D01*
Y034112D01*
Y034098D01*
Y034084D01*
Y034070D01*
X019702D01*
Y034056D01*
Y034042D01*
X019688D01*
Y034028D01*
X018539D01*
Y034042D01*
X018525D01*
Y034056D01*
X018511D01*
Y034070D01*
Y034084D01*
Y034098D01*
Y034112D01*
X018525D01*
Y034126D01*
Y034140D01*
Y034154D01*
Y034168D01*
Y034182D01*
Y034196D01*
Y034210D01*
X018539D01*
Y034224D01*
Y034238D01*
Y034252D01*
Y034266D01*
Y034280D01*
X018553D01*
Y034294D01*
Y034308D01*
Y034322D01*
Y034336D01*
Y034350D01*
Y034364D01*
X018567D01*
Y034378D01*
Y034392D01*
Y034406D01*
X018581D01*
Y034420D01*
Y034434D01*
Y034448D01*
Y034462D01*
Y034476D01*
X018595D01*
Y034490D01*
Y034504D01*
Y034518D01*
X018609D01*
Y034532D01*
Y034546D01*
Y034560D01*
X018623D01*
Y034574D01*
Y034588D01*
Y034602D01*
X018637D01*
Y034616D01*
Y034630D01*
Y034644D01*
X018651D01*
Y034658D01*
Y034672D01*
Y034686D01*
X018665D01*
Y034700D01*
Y034714D01*
X018679D01*
Y034728D01*
Y034742D01*
X018693D01*
Y034756D01*
Y034770D01*
X018707D01*
Y034784D01*
Y034798D01*
Y034812D01*
X018721D01*
Y034826D01*
Y034840D01*
X018735D01*
Y034854D01*
Y034868D01*
X018750D01*
Y034882D01*
Y034896D01*
X018764D01*
Y034910D01*
Y034924D01*
X018778D01*
Y034938D01*
Y034952D01*
X018792D01*
Y034966D01*
Y034980D01*
X018806D01*
Y034994D01*
X018820D01*
Y035009D01*
Y035023D01*
X018834D01*
Y035037D01*
X018848D01*
Y035051D01*
Y035065D01*
X018862D01*
Y035079D01*
Y035093D01*
X018876D01*
Y035107D01*
X018890D01*
Y035121D01*
Y035135D01*
X018904D01*
Y035149D01*
X018918D01*
Y035163D01*
Y035177D01*
X018932D01*
Y035191D01*
X018946D01*
Y035205D01*
X018960D01*
Y035219D01*
X019702D01*
Y035205D01*
D02*
G37*
G36*
X020865D02*
Y035191D01*
X020879D01*
Y035177D01*
Y035163D01*
Y035149D01*
Y035135D01*
Y035121D01*
Y035107D01*
Y035093D01*
Y035079D01*
Y035065D01*
Y035051D01*
Y035037D01*
Y035023D01*
Y035009D01*
Y034994D01*
Y034980D01*
Y034966D01*
Y034952D01*
Y034938D01*
Y034924D01*
Y034910D01*
X020865D01*
Y034896D01*
X020851D01*
Y034882D01*
X020249D01*
Y034868D01*
Y034854D01*
Y034840D01*
Y034826D01*
Y034812D01*
Y034798D01*
X020851D01*
Y034784D01*
X020865D01*
Y034770D01*
X020879D01*
Y034756D01*
Y034742D01*
Y034728D01*
Y034714D01*
Y034700D01*
Y034686D01*
Y034672D01*
Y034658D01*
Y034644D01*
Y034630D01*
Y034616D01*
Y034602D01*
Y034588D01*
Y034574D01*
Y034560D01*
Y034546D01*
Y034532D01*
Y034518D01*
Y034504D01*
Y034490D01*
Y034476D01*
Y034462D01*
Y034448D01*
Y034434D01*
Y034420D01*
Y034406D01*
Y034392D01*
Y034378D01*
Y034364D01*
Y034350D01*
Y034336D01*
Y034322D01*
Y034308D01*
Y034294D01*
Y034280D01*
Y034266D01*
Y034252D01*
Y034238D01*
Y034224D01*
Y034210D01*
Y034196D01*
Y034182D01*
Y034168D01*
Y034154D01*
Y034140D01*
Y034126D01*
Y034112D01*
Y034098D01*
Y034084D01*
Y034070D01*
Y034056D01*
X020865D01*
Y034042D01*
X020851D01*
Y034028D01*
X019912D01*
Y034042D01*
X019898D01*
Y034056D01*
X019884D01*
Y034070D01*
Y034084D01*
Y034098D01*
Y034112D01*
Y034126D01*
Y034140D01*
Y034154D01*
Y034168D01*
Y034182D01*
Y034196D01*
Y034210D01*
Y034224D01*
Y034238D01*
Y034252D01*
Y034266D01*
Y034280D01*
Y034294D01*
Y034308D01*
Y034322D01*
Y034336D01*
Y034350D01*
X019898D01*
Y034364D01*
X020529D01*
Y034378D01*
Y034392D01*
Y034406D01*
Y034420D01*
Y034434D01*
Y034448D01*
Y034462D01*
X019898D01*
Y034476D01*
X019884D01*
Y034490D01*
Y034504D01*
Y034518D01*
Y034532D01*
Y034546D01*
Y034560D01*
Y034574D01*
Y034588D01*
Y034602D01*
Y034616D01*
Y034630D01*
Y034644D01*
Y034658D01*
Y034672D01*
Y034686D01*
Y034700D01*
Y034714D01*
Y034728D01*
Y034742D01*
Y034756D01*
Y034770D01*
Y034784D01*
Y034798D01*
Y034812D01*
Y034826D01*
Y034840D01*
Y034854D01*
Y034868D01*
Y034882D01*
Y034896D01*
Y034910D01*
Y034924D01*
Y034938D01*
Y034952D01*
Y034966D01*
Y034980D01*
Y034994D01*
Y035009D01*
Y035023D01*
Y035037D01*
Y035051D01*
Y035065D01*
Y035079D01*
Y035093D01*
Y035107D01*
Y035121D01*
Y035135D01*
Y035149D01*
Y035163D01*
Y035177D01*
Y035191D01*
Y035205D01*
X019898D01*
Y035219D01*
X020865D01*
Y035205D01*
D02*
G37*
G36*
X023160Y033725D02*
X023167Y033723D01*
X023176Y033721D01*
X023186Y033718D01*
X023197Y033714D01*
X023209Y033708D01*
X023171Y033622D01*
X023170Y033623D01*
X023167Y033623D01*
X023163Y033625D01*
X023158Y033627D01*
X023147Y033629D01*
X023142Y033631D01*
X023133D01*
X023128Y033630D01*
X023123Y033628D01*
X023117Y033626D01*
X023111Y033623D01*
X023105Y033617D01*
X023100Y033611D01*
X023099Y033609D01*
X023097Y033605D01*
X023094Y033598D01*
X023092Y033593D01*
X023090Y033587D01*
X023089Y033580D01*
X023087Y033573D01*
X023085Y033564D01*
X023084Y033555D01*
X023083Y033545D01*
X023082Y033533D01*
X023081Y033520D01*
Y033507D01*
Y033400D01*
X022958D01*
Y033718D01*
X023073D01*
Y033666D01*
X023073Y033667D01*
X023075Y033672D01*
X023078Y033677D01*
X023083Y033684D01*
X023094Y033699D01*
X023100Y033706D01*
X023105Y033712D01*
X023106Y033713D01*
X023109Y033715D01*
X023112Y033716D01*
X023117Y033719D01*
X023124Y033721D01*
X023132Y033724D01*
X023140Y033725D01*
X023149Y033726D01*
X023154D01*
X023160Y033725D01*
D02*
G37*
G36*
X023356Y033756D02*
X023234D01*
Y033840D01*
X023356D01*
Y033756D01*
D02*
G37*
G36*
X021847Y033846D02*
X021862Y033846D01*
X021880Y033844D01*
X021899Y033841D01*
X021916Y033838D01*
X021923Y033836D01*
X021931Y033834D01*
X021932D01*
X021933Y033833D01*
X021937Y033831D01*
X021944Y033828D01*
X021952Y033824D01*
X021961Y033818D01*
X021971Y033811D01*
X021982Y033802D01*
X021991Y033792D01*
X021992Y033791D01*
X021995Y033787D01*
X021999Y033781D01*
X022004Y033774D01*
X022010Y033764D01*
X022016Y033752D01*
X022022Y033737D01*
X022027Y033722D01*
X021896Y033699D01*
Y033700D01*
X021895Y033704D01*
X021893Y033708D01*
X021890Y033714D01*
X021886Y033720D01*
X021881Y033726D01*
X021875Y033732D01*
X021868Y033737D01*
X021868Y033738D01*
X021865Y033740D01*
X021861Y033742D01*
X021855Y033744D01*
X021848Y033747D01*
X021839Y033749D01*
X021830Y033750D01*
X021819Y033751D01*
X021814D01*
X021811Y033750D01*
X021803Y033749D01*
X021793Y033747D01*
X021781Y033743D01*
X021770Y033737D01*
X021759Y033730D01*
X021748Y033720D01*
X021747Y033718D01*
X021743Y033714D01*
X021739Y033706D01*
X021735Y033696D01*
X021730Y033682D01*
X021726Y033665D01*
X021722Y033644D01*
X021721Y033633D01*
Y033621D01*
Y033620D01*
Y033617D01*
Y033614D01*
X021722Y033609D01*
Y033603D01*
X021723Y033597D01*
X021725Y033582D01*
X021728Y033565D01*
X021732Y033548D01*
X021739Y033533D01*
X021743Y033525D01*
X021748Y033519D01*
X021749Y033518D01*
X021753Y033514D01*
X021759Y033510D01*
X021767Y033504D01*
X021778Y033498D01*
X021791Y033494D01*
X021806Y033491D01*
X021823Y033489D01*
X021831D01*
X021837Y033490D01*
X021843Y033491D01*
X021851Y033492D01*
X021866Y033495D01*
X021867D01*
X021869Y033497D01*
X021874Y033498D01*
X021880Y033500D01*
X021887Y033503D01*
X021895Y033508D01*
X021904Y033512D01*
X021914Y033518D01*
Y033560D01*
X021823D01*
Y033651D01*
X022033D01*
Y033463D01*
X022032Y033462D01*
X022031Y033461D01*
X022027Y033459D01*
X022023Y033456D01*
X022018Y033453D01*
X022011Y033449D01*
X021997Y033441D01*
X021980Y033432D01*
X021962Y033422D01*
X021944Y033414D01*
X021926Y033407D01*
X021925D01*
X021924Y033406D01*
X021921Y033405D01*
X021917Y033404D01*
X021913Y033404D01*
X021908Y033403D01*
X021895Y033400D01*
X021879Y033397D01*
X021860Y033395D01*
X021839Y033394D01*
X021816Y033393D01*
X021808D01*
X021803Y033394D01*
X021797D01*
X021789Y033394D01*
X021781Y033395D01*
X021771Y033396D01*
X021751Y033399D01*
X021730Y033404D01*
X021708Y033410D01*
X021688Y033419D01*
X021688D01*
X021686Y033421D01*
X021683Y033421D01*
X021680Y033424D01*
X021672Y033430D01*
X021661Y033439D01*
X021649Y033450D01*
X021636Y033464D01*
X021623Y033480D01*
X021612Y033498D01*
Y033499D01*
X021612Y033501D01*
X021610Y033503D01*
X021608Y033508D01*
X021606Y033513D01*
X021604Y033519D01*
X021601Y033525D01*
X021599Y033534D01*
X021594Y033552D01*
X021590Y033572D01*
X021586Y033595D01*
X021585Y033620D01*
Y033621D01*
Y033623D01*
Y033627D01*
X021586Y033632D01*
Y033639D01*
X021587Y033645D01*
X021588Y033654D01*
X021589Y033662D01*
X021593Y033682D01*
X021598Y033703D01*
X021605Y033725D01*
X021615Y033745D01*
Y033746D01*
X021617Y033748D01*
X021618Y033750D01*
X021621Y033753D01*
X021628Y033764D01*
X021637Y033775D01*
X021650Y033788D01*
X021664Y033802D01*
X021682Y033814D01*
X021702Y033825D01*
X021703D01*
X021704Y033826D01*
X021707Y033827D01*
X021710Y033829D01*
X021715Y033830D01*
X021720Y033832D01*
X021726Y033835D01*
X021734Y033836D01*
X021742Y033838D01*
X021751Y033841D01*
X021771Y033844D01*
X021795Y033846D01*
X021822Y033847D01*
X021840D01*
X021847Y033846D01*
D02*
G37*
G36*
X019243Y033758D02*
X019185D01*
X019235Y033847D01*
X019340D01*
X019243Y033758D01*
D02*
G37*
G36*
X023623Y033725D02*
X023631Y033724D01*
X023648Y033722D01*
X023667Y033719D01*
X023687Y033714D01*
X023705Y033707D01*
X023715Y033703D01*
X023722Y033698D01*
X023723D01*
X023724Y033696D01*
X023729Y033693D01*
X023737Y033686D01*
X023745Y033677D01*
X023754Y033666D01*
X023765Y033652D01*
X023773Y033635D01*
X023781Y033617D01*
X023666Y033601D01*
Y033602D01*
X023665Y033605D01*
X023663Y033608D01*
X023661Y033612D01*
X023655Y033623D01*
X023651Y033627D01*
X023645Y033631D01*
X023645Y033632D01*
X023643Y033633D01*
X023640Y033634D01*
X023635Y033637D01*
X023630Y033639D01*
X023623Y033640D01*
X023616Y033641D01*
X023607Y033642D01*
X023602D01*
X023597Y033641D01*
X023591Y033639D01*
X023583Y033637D01*
X023574Y033633D01*
X023567Y033628D01*
X023559Y033620D01*
X023558Y033619D01*
X023557Y033616D01*
X023553Y033611D01*
X023550Y033604D01*
X023547Y033595D01*
X023543Y033583D01*
X023542Y033569D01*
X023541Y033554D01*
Y033552D01*
Y033547D01*
X023542Y033541D01*
X023543Y033532D01*
X023545Y033523D01*
X023548Y033513D01*
X023552Y033503D01*
X023558Y033495D01*
X023559Y033494D01*
X023562Y033492D01*
X023566Y033488D01*
X023571Y033485D01*
X023578Y033481D01*
X023586Y033478D01*
X023596Y033475D01*
X023606Y033475D01*
X023610D01*
X023614Y033475D01*
X023619Y033476D01*
X023633Y033480D01*
X023640Y033482D01*
X023645Y033486D01*
X023646Y033487D01*
X023648Y033489D01*
X023651Y033492D01*
X023655Y033496D01*
X023659Y033501D01*
X023663Y033508D01*
X023667Y033515D01*
X023671Y033524D01*
X023787Y033511D01*
X023786Y033509D01*
X023785Y033505D01*
X023782Y033498D01*
X023779Y033490D01*
X023774Y033480D01*
X023769Y033469D01*
X023762Y033458D01*
X023754Y033448D01*
X023754Y033447D01*
X023750Y033443D01*
X023746Y033438D01*
X023739Y033432D01*
X023731Y033426D01*
X023721Y033420D01*
X023711Y033413D01*
X023699Y033407D01*
X023697Y033406D01*
X023693Y033404D01*
X023685Y033403D01*
X023675Y033400D01*
X023663Y033397D01*
X023648Y033395D01*
X023631Y033394D01*
X023612Y033393D01*
X023604D01*
X023595Y033394D01*
X023583D01*
X023569Y033395D01*
X023556Y033397D01*
X023542Y033399D01*
X023528Y033402D01*
X023526Y033403D01*
X023522Y033404D01*
X023516Y033406D01*
X023508Y033410D01*
X023499Y033414D01*
X023489Y033419D01*
X023479Y033425D01*
X023470Y033432D01*
X023469Y033433D01*
X023465Y033436D01*
X023461Y033441D01*
X023456Y033447D01*
X023450Y033454D01*
X023444Y033462D01*
X023438Y033471D01*
X023433Y033481D01*
X023432Y033483D01*
X023431Y033486D01*
X023428Y033493D01*
X023426Y033502D01*
X023423Y033513D01*
X023422Y033525D01*
X023420Y033541D01*
X023419Y033557D01*
Y033558D01*
Y033560D01*
Y033563D01*
Y033566D01*
X023420Y033574D01*
X023421Y033586D01*
X023423Y033599D01*
X023426Y033612D01*
X023430Y033627D01*
X023435Y033639D01*
X023436Y033640D01*
X023438Y033644D01*
X023440Y033648D01*
X023444Y033654D01*
X023449Y033661D01*
X023454Y033667D01*
X023461Y033675D01*
X023469Y033682D01*
X023470Y033682D01*
X023472Y033685D01*
X023476Y033688D01*
X023482Y033693D01*
X023489Y033697D01*
X023497Y033702D01*
X023504Y033706D01*
X023513Y033710D01*
X023514Y033711D01*
X023520Y033713D01*
X023527Y033715D01*
X023537Y033718D01*
X023551Y033721D01*
X023566Y033723D01*
X023584Y033725D01*
X023604Y033726D01*
X023617D01*
X023623Y033725D01*
D02*
G37*
G36*
X023737Y035219D02*
X023765D01*
Y035205D01*
Y035191D01*
X023779D01*
Y035177D01*
X023793D01*
Y035163D01*
Y035149D01*
X023807D01*
Y035135D01*
X023821D01*
Y035121D01*
Y035107D01*
X023835D01*
Y035093D01*
X023849D01*
Y035079D01*
Y035065D01*
X023863D01*
Y035051D01*
Y035037D01*
X023877D01*
Y035023D01*
X023891D01*
Y035009D01*
Y034994D01*
X023905D01*
Y034980D01*
Y034966D01*
X023919D01*
Y034952D01*
X023933D01*
Y034938D01*
Y034924D01*
Y034910D01*
Y034896D01*
Y034882D01*
X023373D01*
Y034868D01*
X023359D01*
Y034854D01*
Y034840D01*
Y034826D01*
Y034812D01*
X023976D01*
Y034798D01*
X024004D01*
Y034784D01*
Y034770D01*
X024018D01*
Y034756D01*
Y034742D01*
Y034728D01*
X024032D01*
Y034714D01*
Y034700D01*
X024046D01*
Y034686D01*
Y034672D01*
X024060D01*
Y034658D01*
Y034644D01*
Y034630D01*
X024074D01*
Y034616D01*
Y034602D01*
Y034588D01*
X024088D01*
Y034574D01*
Y034560D01*
Y034546D01*
X024102D01*
Y034532D01*
Y034518D01*
Y034504D01*
Y034490D01*
X024116D01*
Y034476D01*
Y034462D01*
X024088D01*
Y034448D01*
X023359D01*
Y034434D01*
Y034420D01*
Y034406D01*
Y034392D01*
X023373D01*
Y034378D01*
X024144D01*
Y034364D01*
Y034350D01*
X024158D01*
Y034336D01*
Y034322D01*
Y034308D01*
Y034294D01*
Y034280D01*
Y034266D01*
X024172D01*
Y034252D01*
Y034238D01*
Y034224D01*
Y034210D01*
Y034196D01*
X024186D01*
Y034182D01*
Y034168D01*
Y034154D01*
Y034140D01*
Y034126D01*
Y034112D01*
X024200D01*
Y034098D01*
Y034084D01*
Y034070D01*
Y034056D01*
X024186D01*
Y034042D01*
X024172D01*
Y034028D01*
X023023D01*
Y034042D01*
X023009D01*
Y034056D01*
X022995D01*
Y034070D01*
Y034084D01*
Y034098D01*
Y034112D01*
Y034126D01*
Y034140D01*
Y034154D01*
Y034168D01*
Y034182D01*
Y034196D01*
Y034210D01*
Y034224D01*
Y034238D01*
Y034252D01*
Y034266D01*
Y034280D01*
Y034294D01*
Y034308D01*
Y034322D01*
Y034336D01*
Y034350D01*
Y034364D01*
Y034378D01*
Y034392D01*
Y034406D01*
Y034420D01*
Y034434D01*
Y034448D01*
Y034462D01*
Y034476D01*
Y034490D01*
Y034504D01*
Y034518D01*
Y034532D01*
Y034546D01*
Y034560D01*
Y034574D01*
Y034588D01*
Y034602D01*
Y034616D01*
Y034630D01*
Y034644D01*
Y034658D01*
Y034672D01*
Y034686D01*
Y034700D01*
Y034714D01*
Y034728D01*
Y034742D01*
Y034756D01*
Y034770D01*
Y034784D01*
Y034798D01*
Y034812D01*
Y034826D01*
Y034840D01*
Y034854D01*
Y034868D01*
Y034882D01*
Y034896D01*
Y034910D01*
Y034924D01*
Y034938D01*
Y034952D01*
Y034966D01*
Y034980D01*
Y034994D01*
Y035009D01*
Y035023D01*
Y035037D01*
Y035051D01*
Y035065D01*
Y035079D01*
Y035093D01*
Y035107D01*
Y035121D01*
Y035135D01*
Y035149D01*
Y035163D01*
Y035177D01*
Y035191D01*
Y035205D01*
X023009D01*
Y035219D01*
X023023D01*
Y035233D01*
X023737D01*
Y035219D01*
D02*
G37*
G36*
X022799Y035205D02*
X022813D01*
Y035191D01*
Y035177D01*
Y035163D01*
Y035149D01*
Y035135D01*
Y035121D01*
Y035107D01*
Y035093D01*
Y035079D01*
Y035065D01*
Y035051D01*
Y035037D01*
Y035023D01*
Y035009D01*
Y034994D01*
Y034980D01*
Y034966D01*
Y034952D01*
Y034938D01*
Y034924D01*
Y034910D01*
Y034896D01*
Y034882D01*
Y034868D01*
Y034854D01*
Y034840D01*
Y034826D01*
Y034812D01*
Y034798D01*
Y034784D01*
Y034770D01*
Y034756D01*
Y034742D01*
Y034728D01*
Y034714D01*
Y034700D01*
Y034686D01*
Y034672D01*
Y034658D01*
Y034644D01*
Y034630D01*
Y034616D01*
Y034602D01*
Y034588D01*
Y034574D01*
Y034560D01*
Y034546D01*
Y034532D01*
Y034518D01*
Y034504D01*
Y034490D01*
Y034476D01*
Y034462D01*
Y034448D01*
Y034434D01*
Y034420D01*
Y034406D01*
Y034392D01*
Y034378D01*
Y034364D01*
Y034350D01*
Y034336D01*
Y034322D01*
Y034308D01*
Y034294D01*
Y034280D01*
Y034266D01*
Y034252D01*
Y034238D01*
Y034224D01*
Y034210D01*
Y034196D01*
Y034182D01*
Y034168D01*
Y034154D01*
Y034140D01*
Y034126D01*
Y034112D01*
Y034098D01*
Y034084D01*
Y034070D01*
Y034056D01*
X022799D01*
Y034042D01*
X022785D01*
Y034028D01*
X022490D01*
Y034042D01*
X022476D01*
Y034056D01*
Y034070D01*
X022462D01*
Y034084D01*
Y034098D01*
Y034112D01*
Y034126D01*
Y034140D01*
Y034154D01*
Y034168D01*
Y034182D01*
Y034196D01*
Y034210D01*
Y034224D01*
Y034238D01*
Y034252D01*
Y034266D01*
Y034280D01*
Y034294D01*
Y034308D01*
Y034322D01*
X022476D01*
Y034336D01*
X022448D01*
Y034322D01*
X022434D01*
Y034308D01*
X022420D01*
Y034294D01*
Y034280D01*
X022406D01*
Y034266D01*
X022392D01*
Y034252D01*
Y034238D01*
X022378D01*
Y034224D01*
X022364D01*
Y034210D01*
X022350D01*
Y034196D01*
Y034182D01*
X022336D01*
Y034168D01*
X022322D01*
Y034154D01*
Y034140D01*
X022308D01*
Y034126D01*
X022294D01*
Y034112D01*
Y034098D01*
X022280D01*
Y034084D01*
X022266D01*
Y034070D01*
Y034056D01*
X022252D01*
Y034042D01*
X022238D01*
Y034028D01*
X022210D01*
Y034042D01*
X022196D01*
Y034056D01*
X022182D01*
Y034070D01*
Y034084D01*
X022168D01*
Y034098D01*
X022154D01*
Y034112D01*
X022140D01*
Y034126D01*
Y034140D01*
X022126D01*
Y034154D01*
X022112D01*
Y034168D01*
Y034182D01*
X022098D01*
Y034196D01*
X022084D01*
Y034210D01*
Y034224D01*
X022070D01*
Y034238D01*
X022056D01*
Y034252D01*
Y034266D01*
X022042D01*
Y034280D01*
X022028D01*
Y034294D01*
Y034308D01*
X022014D01*
Y034322D01*
X022000D01*
Y034336D01*
Y034350D01*
X021972D01*
Y034336D01*
Y034322D01*
Y034308D01*
Y034294D01*
X021986D01*
Y034280D01*
X021972D01*
Y034266D01*
Y034252D01*
Y034238D01*
Y034224D01*
Y034210D01*
Y034196D01*
Y034182D01*
Y034168D01*
Y034154D01*
Y034140D01*
Y034126D01*
Y034112D01*
Y034098D01*
Y034084D01*
Y034070D01*
Y034056D01*
Y034042D01*
X021944D01*
Y034028D01*
X021636D01*
Y034042D01*
X021622D01*
Y034056D01*
X021608D01*
Y034070D01*
Y034084D01*
Y034098D01*
Y034112D01*
Y034126D01*
Y034140D01*
Y034154D01*
Y034168D01*
Y034182D01*
Y034196D01*
Y034210D01*
Y034224D01*
Y034238D01*
Y034252D01*
Y034266D01*
Y034280D01*
Y034294D01*
Y034308D01*
Y034322D01*
Y034336D01*
Y034350D01*
Y034364D01*
Y034378D01*
Y034392D01*
Y034406D01*
Y034420D01*
Y034434D01*
Y034448D01*
Y034462D01*
Y034476D01*
Y034490D01*
Y034504D01*
Y034518D01*
Y034532D01*
Y034546D01*
Y034560D01*
Y034574D01*
Y034588D01*
Y034602D01*
Y034616D01*
Y034630D01*
Y034644D01*
Y034658D01*
Y034672D01*
Y034686D01*
Y034700D01*
Y034714D01*
Y034728D01*
Y034742D01*
Y034756D01*
Y034770D01*
Y034784D01*
Y034798D01*
Y034812D01*
Y034826D01*
Y034840D01*
Y034854D01*
Y034868D01*
Y034882D01*
Y034896D01*
Y034910D01*
Y034924D01*
Y034938D01*
Y034952D01*
Y034966D01*
Y034980D01*
Y034994D01*
Y035009D01*
Y035023D01*
Y035037D01*
Y035051D01*
Y035065D01*
Y035079D01*
Y035093D01*
Y035107D01*
Y035121D01*
Y035135D01*
Y035149D01*
Y035163D01*
Y035177D01*
Y035191D01*
X021622D01*
Y035205D01*
Y035219D01*
X021958D01*
Y035205D01*
X021972D01*
Y035191D01*
Y035177D01*
X021986D01*
Y035163D01*
X022000D01*
Y035149D01*
X022014D01*
Y035135D01*
Y035121D01*
X022028D01*
Y035107D01*
X022042D01*
Y035093D01*
Y035079D01*
X022056D01*
Y035065D01*
Y035051D01*
X022070D01*
Y035037D01*
X022084D01*
Y035023D01*
X022098D01*
Y035009D01*
Y034994D01*
X022112D01*
Y034980D01*
X022126D01*
Y034966D01*
Y034952D01*
X022140D01*
Y034938D01*
X022154D01*
Y034924D01*
Y034910D01*
X022168D01*
Y034896D01*
X022182D01*
Y034882D01*
Y034868D01*
X022196D01*
Y034854D01*
X022210D01*
Y034840D01*
X022238D01*
Y034854D01*
X022252D01*
Y034868D01*
Y034882D01*
X022266D01*
Y034896D01*
X022280D01*
Y034910D01*
Y034924D01*
X022294D01*
Y034938D01*
X022308D01*
Y034952D01*
Y034966D01*
X022322D01*
Y034980D01*
X022336D01*
Y034994D01*
Y035009D01*
X022350D01*
Y035023D01*
X022364D01*
Y035037D01*
Y035051D01*
X022378D01*
Y035065D01*
X022392D01*
Y035079D01*
Y035093D01*
X022406D01*
Y035107D01*
X022420D01*
Y035121D01*
Y035135D01*
X022434D01*
Y035149D01*
X022448D01*
Y035163D01*
Y035177D01*
X022462D01*
Y035191D01*
X022476D01*
Y035205D01*
Y035219D01*
X022799D01*
Y035205D01*
D02*
G37*
G36*
X023967Y033612D02*
X024058Y033718D01*
X024208D01*
X024094Y033606D01*
X024215Y033400D01*
X024077D01*
X024013Y033527D01*
X023967Y033482D01*
Y033400D01*
X023843D01*
Y033840D01*
X023967D01*
Y033612D01*
D02*
G37*
G36*
X021412Y035205D02*
Y035191D01*
Y035177D01*
Y035163D01*
Y035149D01*
Y035135D01*
Y035121D01*
Y035107D01*
Y035093D01*
Y035079D01*
Y035065D01*
Y035051D01*
Y035037D01*
Y035023D01*
Y035009D01*
Y034994D01*
Y034980D01*
Y034966D01*
Y034952D01*
Y034938D01*
Y034924D01*
Y034910D01*
Y034896D01*
Y034882D01*
Y034868D01*
Y034854D01*
Y034840D01*
Y034826D01*
Y034812D01*
Y034798D01*
Y034784D01*
Y034770D01*
Y034756D01*
Y034742D01*
Y034728D01*
Y034714D01*
Y034700D01*
Y034686D01*
Y034672D01*
Y034658D01*
Y034644D01*
Y034630D01*
Y034616D01*
Y034602D01*
Y034588D01*
Y034574D01*
Y034560D01*
Y034546D01*
Y034532D01*
Y034518D01*
Y034504D01*
Y034490D01*
Y034476D01*
Y034462D01*
Y034448D01*
Y034434D01*
Y034420D01*
Y034406D01*
Y034392D01*
Y034378D01*
Y034364D01*
Y034350D01*
Y034336D01*
Y034322D01*
Y034308D01*
Y034294D01*
Y034280D01*
Y034266D01*
Y034252D01*
Y034238D01*
Y034224D01*
Y034210D01*
Y034196D01*
Y034182D01*
Y034168D01*
Y034154D01*
Y034140D01*
Y034126D01*
Y034112D01*
Y034098D01*
Y034084D01*
Y034070D01*
Y034056D01*
Y034042D01*
X021398D01*
Y034028D01*
X021089D01*
Y034042D01*
X021075D01*
Y034056D01*
X021061D01*
Y034070D01*
X021075D01*
Y034084D01*
Y034098D01*
Y034112D01*
Y034126D01*
Y034140D01*
Y034154D01*
Y034168D01*
Y034182D01*
Y034196D01*
Y034210D01*
Y034224D01*
Y034238D01*
Y034252D01*
Y034266D01*
Y034280D01*
Y034294D01*
Y034308D01*
Y034322D01*
Y034336D01*
Y034350D01*
Y034364D01*
Y034378D01*
Y034392D01*
Y034406D01*
Y034420D01*
Y034434D01*
Y034448D01*
Y034462D01*
Y034476D01*
Y034490D01*
Y034504D01*
Y034518D01*
Y034532D01*
Y034546D01*
Y034560D01*
Y034574D01*
Y034588D01*
Y034602D01*
Y034616D01*
Y034630D01*
Y034644D01*
Y034658D01*
Y034672D01*
Y034686D01*
Y034700D01*
Y034714D01*
Y034728D01*
Y034742D01*
Y034756D01*
Y034770D01*
Y034784D01*
Y034798D01*
Y034812D01*
Y034826D01*
Y034840D01*
Y034854D01*
Y034868D01*
Y034882D01*
Y034896D01*
Y034910D01*
Y034924D01*
Y034938D01*
Y034952D01*
Y034966D01*
Y034980D01*
Y034994D01*
Y035009D01*
Y035023D01*
Y035037D01*
Y035051D01*
Y035065D01*
Y035079D01*
Y035093D01*
Y035107D01*
Y035121D01*
Y035135D01*
Y035149D01*
Y035163D01*
Y035177D01*
Y035191D01*
Y035205D01*
Y035219D01*
X021412D01*
Y035205D01*
D02*
G37*
G36*
X018871Y033400D02*
X018723D01*
X018558Y033840D01*
X018699D01*
X018799Y033523D01*
X018897Y033840D01*
X019034D01*
X018871Y033400D01*
D02*
G37*
G36*
X020565D02*
X020451D01*
Y033451D01*
X020450Y033449D01*
X020447Y033446D01*
X020442Y033440D01*
X020435Y033434D01*
X020428Y033426D01*
X020419Y033419D01*
X020410Y033412D01*
X020400Y033406D01*
X020399Y033405D01*
X020396Y033404D01*
X020390Y033402D01*
X020382Y033399D01*
X020374Y033397D01*
X020363Y033395D01*
X020350Y033394D01*
X020336Y033393D01*
X020331D01*
X020328Y033394D01*
X020319Y033394D01*
X020308Y033396D01*
X020295Y033400D01*
X020282Y033405D01*
X020269Y033412D01*
X020257Y033422D01*
X020256Y033424D01*
X020253Y033428D01*
X020249Y033435D01*
X020243Y033445D01*
X020238Y033459D01*
X020233Y033475D01*
X020230Y033493D01*
X020229Y033515D01*
Y033718D01*
X020352D01*
Y033543D01*
Y033541D01*
Y033538D01*
X020352Y033533D01*
X020353Y033526D01*
X020357Y033512D01*
X020359Y033506D01*
X020363Y033500D01*
X020363Y033499D01*
X020364Y033498D01*
X020367Y033497D01*
X020371Y033494D01*
X020375Y033492D01*
X020380Y033490D01*
X020387Y033489D01*
X020394Y033488D01*
X020397D01*
X020401Y033489D01*
X020407Y033490D01*
X020412Y033492D01*
X020418Y033495D01*
X020423Y033499D01*
X020429Y033504D01*
X020430Y033505D01*
X020432Y033508D01*
X020434Y033512D01*
X020437Y033519D01*
X020440Y033526D01*
X020441Y033537D01*
X020443Y033550D01*
X020444Y033565D01*
Y033718D01*
X020565D01*
Y033400D01*
D02*
G37*
%LPC*%
G36*
X020809Y033654D02*
X020804D01*
X020799Y033653D01*
X020792Y033651D01*
X020785Y033648D01*
X020777Y033644D01*
X020769Y033638D01*
X020762Y033630D01*
X020761Y033629D01*
X020761Y033628D01*
X020759Y033624D01*
X020756Y033619D01*
X020754Y033613D01*
X020752Y033606D01*
X020750Y033597D01*
X020749Y033587D01*
X020868D01*
Y033589D01*
X020867Y033593D01*
X020866Y033599D01*
X020864Y033606D01*
X020861Y033615D01*
X020858Y033623D01*
X020854Y033631D01*
X020848Y033638D01*
X020848Y033639D01*
X020846Y033640D01*
X020843Y033643D01*
X020838Y033646D01*
X020832Y033649D01*
X020826Y033651D01*
X020817Y033653D01*
X020809Y033654D01*
D02*
G37*
G36*
X019979Y033636D02*
X019976D01*
X019971Y033635D01*
X019966Y033633D01*
X019960Y033632D01*
X019954Y033628D01*
X019949Y033623D01*
X019943Y033617D01*
X019942Y033617D01*
X019940Y033614D01*
X019938Y033610D01*
X019936Y033603D01*
X019933Y033595D01*
X019931Y033584D01*
X019929Y033572D01*
X019928Y033557D01*
Y033555D01*
Y033551D01*
X019929Y033544D01*
X019930Y033535D01*
X019932Y033526D01*
X019934Y033517D01*
X019938Y033508D01*
X019943Y033501D01*
X019943Y033500D01*
X019945Y033498D01*
X019949Y033496D01*
X019953Y033492D01*
X019958Y033489D01*
X019964Y033486D01*
X019971Y033485D01*
X019978Y033484D01*
X019982D01*
X019987Y033485D01*
X019992Y033486D01*
X019998Y033488D01*
X020005Y033492D01*
X020012Y033496D01*
X020018Y033502D01*
X020019Y033503D01*
X020020Y033505D01*
X020023Y033509D01*
X020026Y033516D01*
X020029Y033524D01*
X020031Y033534D01*
X020033Y033545D01*
X020034Y033558D01*
Y033559D01*
Y033560D01*
Y033565D01*
X020033Y033572D01*
X020032Y033581D01*
X020030Y033590D01*
X020027Y033601D01*
X020023Y033610D01*
X020018Y033617D01*
X020017Y033618D01*
X020015Y033620D01*
X020012Y033623D01*
X020008Y033627D01*
X020002Y033630D01*
X019995Y033633D01*
X019987Y033635D01*
X019979Y033636D01*
D02*
G37*
G36*
X019288Y033551D02*
X019287D01*
X019284Y033549D01*
X019278Y033547D01*
X019272Y033546D01*
X019264Y033543D01*
X019255Y033540D01*
X019235Y033535D01*
X019234Y033534D01*
X019229Y033533D01*
X019223Y033531D01*
X019216Y033529D01*
X019208Y033525D01*
X019200Y033522D01*
X019193Y033519D01*
X019188Y033515D01*
Y033514D01*
X019186Y033514D01*
X019184Y033508D01*
X019180Y033502D01*
X019180Y033497D01*
X019179Y033492D01*
Y033492D01*
Y033490D01*
X019180Y033487D01*
Y033484D01*
X019183Y033476D01*
X019185Y033472D01*
X019188Y033469D01*
X019189D01*
X019190Y033467D01*
X019192Y033466D01*
X019196Y033464D01*
X019200Y033463D01*
X019205Y033462D01*
X019211Y033460D01*
X019221D01*
X019225Y033461D01*
X019230D01*
X019242Y033464D01*
X019248Y033466D01*
X019255Y033470D01*
X019256Y033470D01*
X019257Y033471D01*
X019261Y033474D01*
X019265Y033476D01*
X019273Y033484D01*
X019277Y033489D01*
X019280Y033494D01*
Y033495D01*
X019281Y033497D01*
X019283Y033500D01*
X019284Y033504D01*
X019285Y033509D01*
X019287Y033515D01*
X019288Y033523D01*
Y033530D01*
Y033551D01*
D02*
G37*
G36*
X021931Y033091D02*
X021930D01*
X021927Y033091D01*
X021923Y033090D01*
X021918Y033088D01*
X021912Y033085D01*
X021906Y033080D01*
X021901Y033074D01*
X021896Y033066D01*
X021895Y033065D01*
X021895Y033062D01*
X021894Y033059D01*
X021893Y033055D01*
X021892Y033051D01*
X021891Y033046D01*
X021890Y033040D01*
X021889Y033033D01*
X021889Y033027D01*
X021887Y033018D01*
X021887Y033009D01*
Y032999D01*
X021886Y032988D01*
Y032976D01*
Y032976D01*
Y032974D01*
Y032970D01*
Y032966D01*
X021887Y032960D01*
Y032953D01*
X021887Y032940D01*
X021889Y032925D01*
X021891Y032909D01*
X021892Y032902D01*
X021893Y032896D01*
X021895Y032890D01*
X021897Y032885D01*
X021898Y032884D01*
X021900Y032881D01*
X021902Y032878D01*
X021906Y032873D01*
X021911Y032868D01*
X021916Y032865D01*
X021923Y032862D01*
X021931Y032861D01*
X021934D01*
X021936Y032861D01*
X021940Y032862D01*
X021944Y032863D01*
X021948Y032865D01*
X021953Y032867D01*
X021957Y032871D01*
X021957Y032871D01*
X021959Y032873D01*
X021961Y032876D01*
X021963Y032879D01*
X021965Y032883D01*
X021968Y032889D01*
X021971Y032895D01*
X021973Y032903D01*
Y032904D01*
X021973Y032907D01*
X021975Y032913D01*
X021975Y032921D01*
X021977Y032931D01*
X021977Y032943D01*
X021978Y032957D01*
Y032974D01*
Y032974D01*
Y032977D01*
Y032980D01*
Y032985D01*
X021977Y032990D01*
Y032997D01*
X021977Y033011D01*
X021975Y033027D01*
X021973Y033042D01*
X021971Y033050D01*
X021970Y033056D01*
X021968Y033062D01*
X021966Y033067D01*
X021965Y033068D01*
X021964Y033071D01*
X021961Y033074D01*
X021957Y033079D01*
X021953Y033084D01*
X021947Y033087D01*
X021939Y033090D01*
X021931Y033091D01*
D02*
G37*
G36*
X020560Y033070D02*
X020533D01*
Y032880D01*
X020564D01*
X020570Y032880D01*
X020578D01*
X020594Y032883D01*
X020601Y032884D01*
X020607Y032887D01*
X020608Y032888D01*
X020610Y032888D01*
X020612Y032890D01*
X020615Y032893D01*
X020619Y032896D01*
X020623Y032901D01*
X020626Y032906D01*
X020629Y032913D01*
X020630Y032914D01*
X020631Y032917D01*
X020632Y032921D01*
X020634Y032928D01*
X020635Y032936D01*
X020637Y032947D01*
X020637Y032959D01*
X020638Y032974D01*
Y032974D01*
Y032976D01*
Y032979D01*
Y032982D01*
X020637Y032987D01*
Y032992D01*
X020636Y033004D01*
X020633Y033017D01*
X020630Y033029D01*
X020625Y033041D01*
X020623Y033046D01*
X020619Y033050D01*
X020619Y033050D01*
X020616Y033053D01*
X020611Y033056D01*
X020605Y033060D01*
X020596Y033064D01*
X020586Y033067D01*
X020574Y033070D01*
X020560Y033070D01*
D02*
G37*
G36*
X020046Y033078D02*
X020016D01*
Y033001D01*
X020047D01*
X020053Y033001D01*
X020060Y033002D01*
X020067Y033003D01*
X020074Y033005D01*
X020081Y033008D01*
X020086Y033011D01*
X020087Y033012D01*
X020088Y033013D01*
X020090Y033015D01*
X020093Y033019D01*
X020095Y033023D01*
X020097Y033027D01*
X020099Y033033D01*
X020099Y033039D01*
Y033040D01*
Y033042D01*
X020099Y033045D01*
X020098Y033048D01*
X020097Y033053D01*
X020095Y033057D01*
X020092Y033062D01*
X020088Y033066D01*
X020087Y033067D01*
X020086Y033068D01*
X020083Y033070D01*
X020078Y033072D01*
X020073Y033074D01*
X020066Y033076D01*
X020057Y033078D01*
X020046Y033078D01*
D02*
G37*
%LPD*%
D12*
X013450Y035350D02*
X017600D01*
X013450Y032500D02*
Y035700D01*
X017600D01*
Y032500D02*
Y035700D01*
X013450Y032500D02*
X017600D01*
X014050Y035350D02*
Y035700D01*
Y035350D02*
X014800D01*
X014850Y035400D01*
Y035700D01*
X016100Y035350D02*
Y035650D01*
Y035350D02*
X016900D01*
X016950Y035400D01*
Y035700D01*
X013450Y033350D02*
X017600D01*
X019650Y010300D02*
X023800D01*
Y009950D02*
Y013150D01*
X019650Y009950D02*
X023800D01*
X019650D02*
Y013150D01*
X023800D01*
X023200Y009950D02*
Y010300D01*
X022450D02*
X023200D01*
X022400Y010250D02*
X022450Y010300D01*
X022400Y009950D02*
Y010250D01*
X021150Y010000D02*
Y010300D01*
X020350D02*
X021150D01*
X020300Y010250D02*
X020350Y010300D01*
X020300Y009950D02*
Y010250D01*
X019650Y012300D02*
X023800D01*
X015350Y010300D02*
X019500D01*
Y009950D02*
Y013150D01*
X015350Y009950D02*
X019500D01*
X015350D02*
Y013150D01*
X019500D01*
X018900Y009950D02*
Y010300D01*
X018150D02*
X018900D01*
X018100Y010250D02*
X018150Y010300D01*
X018100Y009950D02*
Y010250D01*
X016850Y010000D02*
Y010300D01*
X016050D02*
X016850D01*
X016000Y010250D02*
X016050Y010300D01*
X016000Y009950D02*
Y010250D01*
X015350Y012300D02*
X019500D01*
X011000Y010300D02*
X015150D01*
Y009950D02*
Y013150D01*
X011000Y009950D02*
X015150D01*
X011000D02*
Y013150D01*
X015150D01*
X014550Y009950D02*
Y010300D01*
X013800D02*
X014550D01*
X013750Y010250D02*
X013800Y010300D01*
X013750Y009950D02*
Y010250D01*
X012500Y010000D02*
Y010300D01*
X011700D02*
X012500D01*
X011650Y010250D02*
X011700Y010300D01*
X011650Y009950D02*
Y010250D01*
X011000Y012300D02*
X015150D01*
X029950Y012100D02*
X030250Y011800D01*
X029950Y012100D02*
X030250Y012400D01*
Y011800D02*
Y012400D01*
X026300Y023700D02*
X028300D01*
X026300D02*
Y027450D01*
X028300D01*
Y023700D02*
Y027450D01*
X017550Y014100D02*
Y016100D01*
X013800Y014100D02*
X017550D01*
X013800D02*
Y016100D01*
X017550D01*
X026000Y018450D02*
Y022850D01*
X025950Y018400D02*
X026000Y018450D01*
X024200Y018400D02*
X025950D01*
X024150Y018450D02*
X024200Y018400D01*
X024150Y022850D02*
X026000D01*
X024150Y018450D02*
Y022850D01*
X011400Y014700D02*
Y016250D01*
X012400Y014700D02*
Y016250D01*
X026750Y029300D02*
Y029403D01*
Y029352D01*
X026440D01*
X026492Y029300D01*
Y029558D02*
X026440Y029610D01*
Y029713D01*
X026492Y029765D01*
X026543D01*
X026595Y029713D01*
X026647Y029765D01*
X026698D01*
X026750Y029713D01*
Y029610D01*
X026698Y029558D01*
X026647D01*
X026595Y029610D01*
X026543Y029558D01*
X026492D01*
X026595Y029610D02*
Y029713D01*
X026492Y029868D02*
X026440Y029920D01*
Y030023D01*
X026492Y030075D01*
X026698D01*
X026750Y030023D01*
Y029920D01*
X026698Y029868D01*
X026492D01*
X026750Y030455D02*
X026440D01*
X026595Y030300D01*
Y030507D01*
X026440Y030610D02*
Y030817D01*
X026492D01*
X026698Y030610D01*
X026750D01*
X026492Y030920D02*
X026440Y030971D01*
Y031075D01*
X026492Y031126D01*
X026698D01*
X026750Y031075D01*
Y030971D01*
X026698Y030920D01*
X026492D01*
X026750Y031555D02*
X026440D01*
X026595Y031400D01*
Y031607D01*
X026440Y031710D02*
Y031916D01*
X026492D01*
X026698Y031710D01*
X026750D01*
X026492Y032020D02*
X026440Y032071D01*
Y032175D01*
X026492Y032226D01*
X026698D01*
X026750Y032175D01*
Y032071D01*
X026698Y032020D01*
X026492D01*
X025957Y035360D02*
X025750D01*
Y035205D01*
X025853Y035257D01*
X025905D01*
X025957Y035205D01*
Y035102D01*
X025905Y035050D01*
X025802D01*
X025750Y035102D01*
X026060Y035257D02*
X026163Y035050D01*
X026267Y035257D01*
X026650Y035050D02*
X026753D01*
X026702D01*
Y035360D01*
X026650Y035308D01*
X026908D02*
X026960Y035360D01*
X027063D01*
X027115Y035308D01*
Y035102D01*
X027063Y035050D01*
X026960D01*
X026908Y035102D01*
Y035308D01*
X027218Y035257D02*
X027321Y035050D01*
X027425Y035257D01*
X027750Y034955D02*
X027957D01*
X028060Y034800D02*
X028163D01*
X028112D01*
Y035110D01*
X028060Y035058D01*
X028318D02*
X028370Y035110D01*
X028473D01*
X028525Y035058D01*
Y034852D01*
X028473Y034800D01*
X028370D01*
X028318Y034852D01*
Y035058D01*
X028628Y035007D02*
X028731Y034800D01*
X028835Y035007D01*
X011660Y030470D02*
X012054D01*
Y030372D01*
X011660Y029978D01*
Y029880D01*
X012546D02*
Y030470D01*
X012250Y030175D01*
X012644D01*
X012841Y029880D02*
X013038D01*
X012939D01*
Y030470D01*
X012841Y030372D01*
X014400Y033250D02*
Y032850D01*
X014600Y032650D01*
X014800Y032850D01*
Y033250D01*
X015100Y032650D02*
X015300D01*
X015400Y032750D01*
Y032950D01*
X015300Y033050D01*
X015100D01*
X015000Y032950D01*
Y032750D01*
X015100Y032650D01*
X015600Y033050D02*
Y032750D01*
X015700Y032650D01*
X015999D01*
Y033050D01*
X016299Y033150D02*
Y033050D01*
X016199D01*
X016399D01*
X016299D01*
Y032750D01*
X016399Y032650D01*
X013950Y013565D02*
Y013355D01*
X014055Y013250D01*
X014160Y013355D01*
Y013565D01*
X014265Y013250D02*
X014370D01*
X014317D01*
Y013460D01*
X014265D01*
X014527Y013250D02*
Y013460D01*
X014685D01*
X014737Y013407D01*
Y013250D01*
X029050Y032700D02*
X029450D01*
X029250D01*
Y032100D01*
X029950D02*
X029750D01*
X029650Y032200D01*
Y032400D01*
X029750Y032500D01*
X029950D01*
X030050Y032400D01*
Y032300D01*
X029650D01*
X030250Y032100D02*
X030550D01*
X030649Y032200D01*
X030550Y032300D01*
X030350D01*
X030250Y032400D01*
X030350Y032500D01*
X030649D01*
X030949Y032600D02*
Y032500D01*
X030849D01*
X031049D01*
X030949D01*
Y032200D01*
X031049Y032100D01*
X026750Y028250D02*
Y028355D01*
Y028302D01*
X026435D01*
X026488Y028250D01*
Y028512D02*
X026435Y028565D01*
Y028670D01*
X026488Y028722D01*
X026540D01*
X026593Y028670D01*
X026645Y028722D01*
X026698D01*
X026750Y028670D01*
Y028565D01*
X026698Y028512D01*
X026645D01*
X026593Y028565D01*
X026540Y028512D01*
X026488D01*
X026593Y028565D02*
Y028670D01*
X026488Y028827D02*
X026435Y028880D01*
Y028985D01*
X026488Y029037D01*
X026698D01*
X026750Y028985D01*
Y028880D01*
X026698Y028827D01*
X026488D01*
X011460Y026040D02*
X011565D01*
X011512D01*
Y026355D01*
X011460Y026302D01*
X011722D02*
X011775Y026355D01*
X011880D01*
X011932Y026302D01*
Y026092D01*
X011880Y026040D01*
X011775D01*
X011722Y026092D01*
Y026302D01*
X012037Y026250D02*
Y026092D01*
X012090Y026040D01*
X012247D01*
Y026250D01*
X015950Y022305D02*
X015640D01*
X015795Y022150D01*
Y022357D01*
X015640Y022460D02*
Y022666D01*
X015692D01*
X015898Y022460D01*
X015950D01*
Y022770D02*
X015743D01*
Y022925D01*
X015795Y022976D01*
X015950D01*
X017610Y027990D02*
X017510Y028090D01*
X017310D01*
X017210Y027990D01*
Y027590D01*
X017310Y027490D01*
X017510D01*
X017610Y027590D01*
X018110Y027490D02*
Y028090D01*
X017810Y027790D01*
X018210D01*
X023800Y019560D02*
Y019350D01*
X023590Y019560D01*
X023538D01*
X023485Y019507D01*
Y019402D01*
X023538Y019350D01*
X023800Y019875D02*
Y019665D01*
X023590Y019875D01*
X023538D01*
X023485Y019822D01*
Y019717D01*
X023538Y019665D01*
X023800Y019980D02*
X023590D01*
Y020137D01*
X023643Y020190D01*
X023800D01*
Y022060D02*
Y021850D01*
X023590Y022060D01*
X023538D01*
X023485Y022007D01*
Y021902D01*
X023538Y021850D01*
X023800Y022375D02*
Y022165D01*
X023590Y022375D01*
X023538D01*
X023485Y022322D01*
Y022217D01*
X023538Y022165D01*
X023800Y022480D02*
X023590D01*
Y022637D01*
X023643Y022690D01*
X023800D01*
X011510Y018790D02*
X011615D01*
X011562D01*
Y019105D01*
X011510Y019052D01*
X011772D02*
X011825Y019105D01*
X011930D01*
X011982Y019052D01*
Y018842D01*
X011930Y018790D01*
X011825D01*
X011772Y018842D01*
Y019052D01*
X012087Y018790D02*
Y019000D01*
X012245D01*
X012297Y018947D01*
Y018790D01*
X014930Y026090D02*
X014720D01*
X014930Y026300D01*
Y026352D01*
X014877Y026405D01*
X014772D01*
X014720Y026352D01*
X015245Y026090D02*
X015035D01*
X015245Y026300D01*
Y026352D01*
X015192Y026405D01*
X015087D01*
X015035Y026352D01*
X015350D02*
X015402Y026405D01*
X015507D01*
X015560Y026352D01*
Y026142D01*
X015507Y026090D01*
X015402D01*
X015350Y026142D01*
Y026352D01*
X015665Y026300D02*
Y026142D01*
X015717Y026090D01*
X015874D01*
Y026300D01*
X011200Y021850D02*
Y021955D01*
Y021902D01*
X010885D01*
X010938Y021850D01*
Y022112D02*
X010885Y022165D01*
Y022270D01*
X010938Y022322D01*
X011148D01*
X011200Y022270D01*
Y022165D01*
X011148Y022112D01*
X010938D01*
Y022427D02*
X010885Y022480D01*
Y022585D01*
X010938Y022637D01*
X011148D01*
X011200Y022585D01*
Y022480D01*
X011148Y022427D01*
X010938D01*
X011200Y022742D02*
X010885D01*
X011095D02*
X010990Y022900D01*
X011095Y022742D02*
X011200Y022900D01*
X012150Y021900D02*
Y022005D01*
Y021952D01*
X011835D01*
X011888Y021900D01*
Y022162D02*
X011835Y022215D01*
Y022320D01*
X011888Y022372D01*
X012098D01*
X012150Y022320D01*
Y022215D01*
X012098Y022162D01*
X011888D01*
Y022477D02*
X011835Y022530D01*
Y022635D01*
X011888Y022687D01*
X012098D01*
X012150Y022635D01*
Y022530D01*
X012098Y022477D01*
X011888D01*
X012150Y022792D02*
X011835D01*
X012045D02*
X011940Y022950D01*
X012045Y022792D02*
X012150Y022950D01*
X013100Y021910D02*
Y022015D01*
Y021962D01*
X012785D01*
X012838Y021910D01*
Y022172D02*
X012785Y022225D01*
Y022330D01*
X012838Y022382D01*
X013048D01*
X013100Y022330D01*
Y022225D01*
X013048Y022172D01*
X012838D01*
Y022487D02*
X012785Y022540D01*
Y022645D01*
X012838Y022697D01*
X013048D01*
X013100Y022645D01*
Y022540D01*
X013048Y022487D01*
X012838D01*
X013100Y022802D02*
X012785D01*
X012995D02*
X012890Y022960D01*
X012995Y022802D02*
X013100Y022960D01*
X024270Y016690D02*
X024060D01*
X024270Y016900D01*
Y016952D01*
X024217Y017005D01*
X024112D01*
X024060Y016952D01*
X024375D02*
X024427Y017005D01*
X024532D01*
X024585Y016952D01*
Y016742D01*
X024532Y016690D01*
X024427D01*
X024375Y016742D01*
Y016952D01*
X024690Y016690D02*
Y017005D01*
Y016795D02*
X024847Y016900D01*
X024690Y016795D02*
X024847Y016690D01*
X024270Y017680D02*
X024060D01*
X024270Y017890D01*
Y017942D01*
X024217Y017995D01*
X024112D01*
X024060Y017942D01*
X024375D02*
X024427Y017995D01*
X024532D01*
X024585Y017942D01*
Y017732D01*
X024532Y017680D01*
X024427D01*
X024375Y017732D01*
Y017942D01*
X024690Y017680D02*
Y017995D01*
Y017785D02*
X024847Y017890D01*
X024690Y017785D02*
X024847Y017680D01*
X023820Y023900D02*
X023610D01*
X023820Y024110D01*
Y024162D01*
X023767Y024215D01*
X023662D01*
X023610Y024162D01*
X023925D02*
X023977Y024215D01*
X024082D01*
X024135Y024162D01*
Y023952D01*
X024082Y023900D01*
X023977D01*
X023925Y023952D01*
Y024162D01*
X024240Y023900D02*
Y024215D01*
Y024005D02*
X024397Y024110D01*
X024240Y024005D02*
X024397Y023900D01*
X023820Y024880D02*
X023610D01*
X023820Y025090D01*
Y025142D01*
X023767Y025195D01*
X023662D01*
X023610Y025142D01*
X023925D02*
X023977Y025195D01*
X024082D01*
X024135Y025142D01*
Y024932D01*
X024082Y024880D01*
X023977D01*
X023925Y024932D01*
Y025142D01*
X024240Y024880D02*
Y025195D01*
Y024985D02*
X024397Y025090D01*
X024240Y024985D02*
X024397Y024880D01*
X023796Y025850D02*
X023560D01*
X023796Y026086D01*
Y026145D01*
X023737Y026204D01*
X023619D01*
X023560Y026145D01*
X023914D02*
X023973Y026204D01*
X024091D01*
X024150Y026145D01*
Y025909D01*
X024091Y025850D01*
X023973D01*
X023914Y025909D01*
Y026145D01*
X024268Y025850D02*
Y026204D01*
Y025968D02*
X024446Y026086D01*
X024268Y025968D02*
X024446Y025850D01*
X028230Y016790D02*
X028335D01*
X028282D01*
Y017105D01*
X028230Y017052D01*
X028492D02*
X028545Y017105D01*
X028650D01*
X028702Y017052D01*
Y016842D01*
X028650Y016790D01*
X028545D01*
X028492Y016842D01*
Y017052D01*
X028807Y016790D02*
Y017105D01*
Y016895D02*
X028965Y017000D01*
X028807Y016895D02*
X028965Y016790D01*
X028230Y017780D02*
X028335D01*
X028282D01*
Y018095D01*
X028230Y018042D01*
X028492D02*
X028545Y018095D01*
X028650D01*
X028702Y018042D01*
Y017832D01*
X028650Y017780D01*
X028545D01*
X028492Y017832D01*
Y018042D01*
X028807Y017780D02*
Y018095D01*
Y017885D02*
X028965Y017990D01*
X028807Y017885D02*
X028965Y017780D01*
X028230Y018760D02*
X028335D01*
X028282D01*
Y019075D01*
X028230Y019022D01*
X028492D02*
X028545Y019075D01*
X028650D01*
X028702Y019022D01*
Y018812D01*
X028650Y018760D01*
X028545D01*
X028492Y018812D01*
Y019022D01*
X028807Y018760D02*
Y019075D01*
Y018865D02*
X028965Y018970D01*
X028807Y018865D02*
X028965Y018760D01*
X028230Y019750D02*
X028335D01*
X028282D01*
Y020065D01*
X028230Y020012D01*
X028492D02*
X028545Y020065D01*
X028650D01*
X028702Y020012D01*
Y019802D01*
X028650Y019750D01*
X028545D01*
X028492Y019802D01*
Y020012D01*
X028807Y019750D02*
Y020065D01*
Y019855D02*
X028965Y019960D01*
X028807Y019855D02*
X028965Y019750D01*
X028410Y020800D02*
X028200D01*
X028410Y021010D01*
Y021062D01*
X028357Y021115D01*
X028252D01*
X028200Y021062D01*
X028515D02*
X028567Y021115D01*
X028672D01*
X028725Y021062D01*
Y020852D01*
X028672Y020800D01*
X028567D01*
X028515Y020852D01*
Y021062D01*
X028830Y020800D02*
Y021115D01*
Y020905D02*
X028987Y021010D01*
X028830Y020905D02*
X028987Y020800D01*
X015000Y022200D02*
Y022305D01*
Y022252D01*
X014685D01*
X014738Y022200D01*
Y022462D02*
X014685Y022515D01*
Y022620D01*
X014738Y022672D01*
X014948D01*
X015000Y022620D01*
Y022515D01*
X014948Y022462D01*
X014738D01*
X014050Y022050D02*
Y022155D01*
Y022102D01*
X013735D01*
X013788Y022050D01*
Y022312D02*
X013735Y022365D01*
Y022470D01*
X013788Y022522D01*
X013998D01*
X014050Y022470D01*
Y022365D01*
X013998Y022312D01*
X013788D01*
X014050Y022627D02*
X013735D01*
X013945D02*
X013840Y022785D01*
X013945Y022627D02*
X014050Y022785D01*
X024657Y035308D02*
X024605Y035360D01*
X024502D01*
X024450Y035308D01*
Y035102D01*
X024502Y035050D01*
X024605D01*
X024657Y035102D01*
X024760Y035360D02*
Y035102D01*
X024812Y035050D01*
X024915D01*
X024966Y035102D01*
Y035360D01*
X025070D02*
X025276D01*
X025173D01*
Y035050D01*
X026800Y023308D02*
X026852Y023360D01*
X026955D01*
X027007Y023308D01*
Y023102D01*
X026955Y023050D01*
X026852D01*
X026800Y023102D01*
Y023308D01*
X027110Y023050D02*
Y023102D01*
X027162D01*
Y023050D01*
X027110D01*
X027368Y023308D02*
X027420Y023360D01*
X027523D01*
X027575Y023308D01*
Y023102D01*
X027523Y023050D01*
X027420D01*
X027368Y023102D01*
Y023308D01*
X027678Y023050D02*
X027781D01*
X027730D01*
Y023360D01*
X027678Y023308D01*
X027936Y023257D02*
Y023102D01*
X027988Y023050D01*
X028143D01*
Y023257D01*
X014950Y018750D02*
X015350D01*
Y018650D01*
X014950Y018250D01*
Y018150D01*
X015850D02*
Y018750D01*
X015550Y018450D01*
X015950D01*
X016150Y018150D02*
X016350D01*
X016250D01*
Y018750D01*
X016150Y018650D01*
X019560Y030470D02*
X019954D01*
Y030372D01*
X019560Y029978D01*
Y029880D01*
X020446D02*
Y030470D01*
X020150Y030175D01*
X020544D01*
X020741Y029880D02*
X020938D01*
X020839D01*
Y030470D01*
X020741Y030372D01*
X023550Y030530D02*
X023950D01*
Y030430D01*
X023550Y030030D01*
Y029930D01*
X024450D02*
Y030530D01*
X024150Y030230D01*
X024550D01*
X024750Y029930D02*
X024950D01*
X024850D01*
Y030530D01*
X024750Y030430D01*
X015610Y030470D02*
X016004D01*
Y030372D01*
X015610Y029978D01*
Y029880D01*
X016496D02*
Y030470D01*
X016200Y030175D01*
X016594D01*
X016791Y029880D02*
X016988D01*
X016889D01*
Y030470D01*
X016791Y030372D01*
X024260Y013852D02*
X024050D01*
X024260Y014062D01*
Y014114D01*
X024207Y014167D01*
X024102D01*
X024050Y014114D01*
X024365D02*
X024417Y014167D01*
X024522D01*
X024575Y014114D01*
Y013904D01*
X024522Y013852D01*
X024417D01*
X024365Y013904D01*
Y014114D01*
X024680Y013852D02*
Y014167D01*
Y013957D02*
X024837Y014062D01*
X024680Y013957D02*
X024837Y013852D01*
X024260Y014818D02*
X024050D01*
X024260Y015028D01*
Y015080D01*
X024207Y015133D01*
X024102D01*
X024050Y015080D01*
X024365D02*
X024417Y015133D01*
X024522D01*
X024575Y015080D01*
Y014870D01*
X024522Y014818D01*
X024417D01*
X024365Y014870D01*
Y015080D01*
X024680Y014818D02*
Y015133D01*
Y014923D02*
X024837Y015028D01*
X024680Y014923D02*
X024837Y014818D01*
X024270Y015710D02*
X024060D01*
X024270Y015920D01*
Y015972D01*
X024217Y016025D01*
X024112D01*
X024060Y015972D01*
X024375D02*
X024427Y016025D01*
X024532D01*
X024585Y015972D01*
Y015762D01*
X024532Y015710D01*
X024427D01*
X024375Y015762D01*
Y015972D01*
X024690Y015710D02*
Y016025D01*
Y015815D02*
X024847Y015920D01*
X024690Y015815D02*
X024847Y015710D01*
X028280Y013790D02*
X028385D01*
X028332D01*
Y014105D01*
X028280Y014052D01*
X028542D02*
X028595Y014105D01*
X028700D01*
X028752Y014052D01*
Y013842D01*
X028700Y013790D01*
X028595D01*
X028542Y013842D01*
Y014052D01*
X028857Y013790D02*
Y014105D01*
Y013895D02*
X029015Y014000D01*
X028857Y013895D02*
X029015Y013790D01*
X028230Y014820D02*
X028335D01*
X028282D01*
Y015135D01*
X028230Y015082D01*
X028492D02*
X028545Y015135D01*
X028650D01*
X028702Y015082D01*
Y014872D01*
X028650Y014820D01*
X028545D01*
X028492Y014872D01*
Y015082D01*
X028807Y014820D02*
Y015135D01*
Y014925D02*
X028965Y015030D01*
X028807Y014925D02*
X028965Y014820D01*
X028230Y015810D02*
X028335D01*
X028282D01*
Y016125D01*
X028230Y016072D01*
X028492D02*
X028545Y016125D01*
X028650D01*
X028702Y016072D01*
Y015862D01*
X028650Y015810D01*
X028545D01*
X028492Y015862D01*
Y016072D01*
X028807Y015810D02*
Y016125D01*
Y015915D02*
X028965Y016020D01*
X028807Y015915D02*
X028965Y015810D01*
X023760Y027252D02*
X023812Y027305D01*
X023917D01*
X023970Y027252D01*
Y027200D01*
X023917Y027147D01*
X023865D01*
X023917D01*
X023970Y027095D01*
Y027042D01*
X023917Y026990D01*
X023812D01*
X023760Y027042D01*
X024075Y026990D02*
Y027305D01*
Y027095D02*
X024232Y027200D01*
X024075Y027095D02*
X024232Y026990D01*
X020400Y016550D02*
X020000D01*
X019800Y016750D01*
X020000Y016950D01*
X020400D01*
X020100D01*
Y016550D01*
X019800Y017150D02*
Y017550D01*
Y017350D01*
X020400D01*
Y017750D02*
X020000D01*
Y017850D01*
X020100Y017950D01*
X020400D01*
X020100D01*
X020000Y018050D01*
X020100Y018149D01*
X020400D01*
Y018649D02*
Y018449D01*
X020300Y018349D01*
X020100D01*
X020000Y018449D01*
Y018649D01*
X020100Y018749D01*
X020200D01*
Y018349D01*
X020600Y019149D02*
Y019249D01*
X020500Y019349D01*
X020000D01*
Y019049D01*
X020100Y018949D01*
X020300D01*
X020400Y019049D01*
Y019349D01*
X020000Y019649D02*
Y019849D01*
X020100Y019949D01*
X020400D01*
Y019649D01*
X020300Y019549D01*
X020200Y019649D01*
Y019949D01*
X019900Y020149D02*
X019800Y020249D01*
Y020449D01*
X019900Y020549D01*
X020000D01*
X020100Y020449D01*
Y020349D01*
Y020449D01*
X020200Y020549D01*
X020300D01*
X020400Y020449D01*
Y020249D01*
X020300Y020149D01*
X020400Y021149D02*
Y020749D01*
X020000Y021149D01*
X019900D01*
X019800Y021049D01*
Y020849D01*
X019900Y020749D01*
Y021348D02*
X019800Y021448D01*
Y021648D01*
X019900Y021748D01*
X020000D01*
X020100Y021648D01*
X020200Y021748D01*
X020300D01*
X020400Y021648D01*
Y021448D01*
X020300Y021348D01*
X020200D01*
X020100Y021448D01*
X020000Y021348D01*
X019900D01*
X020100Y021448D02*
Y021648D01*
X020400Y021948D02*
X019800D01*
Y022248D01*
X019900Y022348D01*
X020100D01*
X020200Y022248D01*
Y021948D01*
X020100Y022548D02*
Y022948D01*
X020400Y023148D02*
X019800D01*
Y023448D01*
X019900Y023548D01*
X020100D01*
X020200Y023448D01*
Y023148D01*
X019800Y023748D02*
X020300D01*
X020400Y023848D01*
Y024048D01*
X020300Y024148D01*
X019800D01*
X029935Y010650D02*
X030145D01*
X030250Y010755D01*
X030145Y010860D01*
X029935D01*
X029988Y011175D02*
X029935Y011122D01*
Y011017D01*
X029988Y010965D01*
X030198D01*
X030250Y011017D01*
Y011122D01*
X030198Y011175D01*
X029988Y011490D02*
X029935Y011437D01*
Y011332D01*
X029988Y011280D01*
X030198D01*
X030250Y011332D01*
Y011437D01*
X030198Y011490D01*
X014200Y014750D02*
Y014850D01*
Y014800D01*
X013900D01*
X013950Y014750D01*
Y015000D02*
X013900Y015050D01*
Y015150D01*
X013950Y015200D01*
X014150D01*
X014200Y015150D01*
Y015050D01*
X014150Y015000D01*
X013950D01*
X014200Y015300D02*
X013900D01*
X014100D02*
X014000Y015450D01*
X014100Y015300D02*
X014200Y015450D01*
X026900Y027000D02*
X027017D01*
X026958D01*
Y027350D01*
X026900Y027292D01*
X027192D02*
X027250Y027350D01*
X027367D01*
X027425Y027292D01*
Y027058D01*
X027367Y027000D01*
X027250D01*
X027192Y027058D01*
Y027292D01*
X027541Y027000D02*
Y027350D01*
Y027117D02*
X027716Y027233D01*
X027541Y027117D02*
X027716Y027000D01*
X011110Y017890D02*
X011010Y017990D01*
X010810D01*
X010710Y017890D01*
Y017790D01*
X010810Y017690D01*
X011010D01*
X011110Y017590D01*
Y017490D01*
X011010Y017390D01*
X010810D01*
X010710Y017490D01*
X011310Y017390D02*
X011510D01*
X011410D01*
Y017990D01*
X011310Y017890D01*
X020860Y013565D02*
X020650D01*
Y013407D01*
X020755Y013460D01*
X020807D01*
X020860Y013407D01*
Y013302D01*
X020807Y013250D01*
X020702D01*
X020650Y013302D01*
X020965Y013460D02*
X021070Y013250D01*
X021175Y013460D01*
X022660Y013512D02*
X022607Y013565D01*
X022502D01*
X022450Y013512D01*
Y013302D01*
X022502Y013250D01*
X022607D01*
X022660Y013302D01*
Y013407D01*
X022555D01*
X022765Y013250D02*
Y013565D01*
X022975Y013250D01*
Y013565D01*
X023080D02*
Y013250D01*
X023237D01*
X023290Y013302D01*
Y013512D01*
X023237Y013565D01*
X023080D01*
X011810Y013512D02*
X011757Y013565D01*
X011652D01*
X011600Y013512D01*
Y013302D01*
X011652Y013250D01*
X011757D01*
X011810Y013302D01*
Y013407D01*
X011705D01*
X011915Y013250D02*
Y013565D01*
X012125Y013250D01*
Y013565D01*
X012230D02*
Y013250D01*
X012387D01*
X012440Y013302D01*
Y013512D01*
X012387Y013565D01*
X012230D01*
X015950Y013407D02*
X016160D01*
X016265Y013250D02*
X016370D01*
X016317D01*
Y013565D01*
X016265Y013512D01*
X016527D02*
X016580Y013565D01*
X016685D01*
X016737Y013512D01*
Y013302D01*
X016685Y013250D01*
X016580D01*
X016527Y013302D01*
Y013512D01*
X016842Y013460D02*
X016947Y013250D01*
X017052Y013460D01*
X018150Y013407D02*
X018360D01*
X018255Y013512D02*
Y013302D01*
X018465Y013250D02*
X018570D01*
X018517D01*
Y013565D01*
X018465Y013512D01*
X018727D02*
X018780Y013565D01*
X018885D01*
X018937Y013512D01*
Y013302D01*
X018885Y013250D01*
X018780D01*
X018727Y013302D01*
Y013512D01*
X019042Y013460D02*
X019147Y013250D01*
X019252Y013460D01*
X029048Y013195D02*
X028949D01*
X028900Y013146D01*
Y012949D01*
X028949Y012900D01*
X029048D01*
X029097Y012949D01*
Y013146D01*
X029048Y013195D01*
X029392Y013146D02*
X029343Y013195D01*
X029244D01*
X029195Y013146D01*
Y013097D01*
X029244Y013048D01*
X029343D01*
X029392Y012998D01*
Y012949D01*
X029343Y012900D01*
X029244D01*
X029195Y012949D01*
X029490Y013195D02*
X029589D01*
X029540D01*
Y012900D01*
X029490D01*
X029589D01*
X027850Y013195D02*
Y012900D01*
X028047D01*
X028342Y013195D02*
X028145D01*
Y012900D01*
X028342D01*
X028145Y013048D02*
X028244D01*
X028440Y013195D02*
Y012900D01*
X028588D01*
X028637Y012949D01*
Y013146D01*
X028588Y013195D01*
X028440D01*
X026850Y012900D02*
Y013195D01*
X026998D01*
X027047Y013146D01*
Y013048D01*
X026998Y012998D01*
X026850D01*
X026948D02*
X027047Y012900D01*
X027342Y013146D02*
X027293Y013195D01*
X027194D01*
X027145Y013146D01*
Y013097D01*
X027194Y013048D01*
X027293D01*
X027342Y012998D01*
Y012949D01*
X027293Y012900D01*
X027194D01*
X027145Y012949D01*
X027440Y013195D02*
X027637D01*
X027539D01*
Y012900D01*
X026047Y013146D02*
X025998Y013195D01*
X025899D01*
X025850Y013146D01*
Y013097D01*
X025899Y013048D01*
X025998D01*
X026047Y012998D01*
Y012949D01*
X025998Y012900D01*
X025899D01*
X025850Y012949D01*
X026342Y013146D02*
X026293Y013195D01*
X026194D01*
X026145Y013146D01*
Y012949D01*
X026194Y012900D01*
X026293D01*
X026342Y012949D01*
X026440Y013195D02*
Y012900D01*
Y012998D01*
X026637Y013195D01*
X026490Y013048D01*
X026637Y012900D01*
X029000Y029435D02*
Y029100D01*
X029223D01*
X029335Y029435D02*
Y029100D01*
X029502D01*
X029558Y029156D01*
Y029212D01*
X029502Y029267D01*
X029335D01*
X029502D01*
X029558Y029323D01*
Y029379D01*
X029502Y029435D01*
X029335D01*
X029892D02*
X029669D01*
Y029267D01*
X029781D01*
X029669D01*
Y029100D01*
X028900Y031535D02*
Y031312D01*
X029012Y031200D01*
X029123Y031312D01*
Y031535D01*
X029290Y031200D02*
X029402D01*
X029458Y031256D01*
Y031367D01*
X029402Y031423D01*
X029290D01*
X029235Y031367D01*
Y031256D01*
X029290Y031200D01*
X029569Y031423D02*
Y031256D01*
X029625Y031200D01*
X029792D01*
Y031423D01*
X029959Y031479D02*
Y031423D01*
X029904D01*
X030015D01*
X029959D01*
Y031256D01*
X030015Y031200D01*
X029273Y030479D02*
X029217Y030535D01*
X029106D01*
X029050Y030479D01*
Y030423D01*
X029106Y030367D01*
X029217D01*
X029273Y030312D01*
Y030256D01*
X029217Y030200D01*
X029106D01*
X029050Y030256D01*
X029552Y030200D02*
X029440D01*
X029385Y030256D01*
Y030367D01*
X029440Y030423D01*
X029552D01*
X029608Y030367D01*
Y030312D01*
X029385D01*
X029831Y030088D02*
X029886D01*
X029942Y030144D01*
Y030423D01*
X029775D01*
X029719Y030367D01*
Y030256D01*
X029775Y030200D01*
X029942D01*
X028750Y028385D02*
Y028050D01*
X028917D01*
X028973Y028106D01*
Y028162D01*
X028917Y028217D01*
X028750D01*
X028917D01*
X028973Y028273D01*
Y028329D01*
X028917Y028385D01*
X028750D01*
X029085Y028050D02*
X029196D01*
X029140D01*
Y028273D01*
X029085D01*
X029419D02*
X029531D01*
X029586Y028217D01*
Y028050D01*
X029419D01*
X029363Y028106D01*
X029419Y028162D01*
X029586D01*
X029698Y028050D02*
X029865D01*
X029921Y028106D01*
X029865Y028162D01*
X029754D01*
X029698Y028217D01*
X029754Y028273D01*
X029921D01*
X028850Y027435D02*
Y027100D01*
X029017D01*
X029073Y027156D01*
Y027379D01*
X029017Y027435D01*
X028850D01*
X029352Y027100D02*
X029240D01*
X029185Y027156D01*
Y027267D01*
X029240Y027323D01*
X029352D01*
X029408Y027267D01*
Y027212D01*
X029185D01*
X029742Y027323D02*
X029575D01*
X029519Y027267D01*
Y027156D01*
X029575Y027100D01*
X029742D01*
X029000Y026485D02*
Y026262D01*
X029112Y026150D01*
X029223Y026262D01*
Y026485D01*
X029335Y026150D02*
X029446D01*
X029390D01*
Y026373D01*
X029335D01*
X029613Y026150D02*
Y026373D01*
X029781D01*
X029836Y026317D01*
Y026150D01*
X029000Y025150D02*
X029112D01*
X029056D01*
Y025485D01*
X029000Y025429D01*
X029279D02*
X029335Y025485D01*
X029446D01*
X029502Y025429D01*
Y025206D01*
X029446Y025150D01*
X029335D01*
X029279Y025206D01*
Y025429D01*
X029613Y025373D02*
X029725Y025150D01*
X029836Y025373D01*
X028850Y024367D02*
X029073D01*
X029185Y024200D02*
X029296D01*
X029240D01*
Y024535D01*
X029185Y024479D01*
X029463D02*
X029519Y024535D01*
X029631D01*
X029686Y024479D01*
Y024256D01*
X029631Y024200D01*
X029519D01*
X029463Y024256D01*
Y024479D01*
X029798Y024423D02*
X029909Y024200D01*
X030021Y024423D01*
X029373Y023485D02*
X029150D01*
Y023317D01*
X029262Y023373D01*
X029317D01*
X029373Y023317D01*
Y023206D01*
X029317Y023150D01*
X029206D01*
X029150Y023206D01*
X029485Y023373D02*
X029596Y023150D01*
X029708Y023373D01*
X024850Y013195D02*
X024948D01*
X024899D01*
Y012900D01*
X024850D01*
X024948D01*
X025293Y013146D02*
X025244Y013195D01*
X025145D01*
X025096Y013146D01*
Y013097D01*
X025145Y013048D01*
X025244D01*
X025293Y012998D01*
Y012949D01*
X025244Y012900D01*
X025145D01*
X025096Y012949D01*
X025539Y013195D02*
X025440D01*
X025391Y013146D01*
Y012949D01*
X025440Y012900D01*
X025539D01*
X025588Y012949D01*
Y013146D01*
X025539Y013195D01*
X029223Y022379D02*
X029167Y022435D01*
X029056D01*
X029000Y022379D01*
Y022156D01*
X029056Y022100D01*
X029167D01*
X029223Y022156D01*
Y022267D01*
X029112D01*
X029335Y022100D02*
Y022435D01*
X029558Y022100D01*
Y022435D01*
X029669D02*
Y022100D01*
X029836D01*
X029892Y022156D01*
Y022379D01*
X029836Y022435D01*
X029669D01*
X012771Y033973D02*
X012715Y033917D01*
Y033806D01*
X012771Y033750D01*
X012994D01*
X013050Y033806D01*
Y033917D01*
X012994Y033973D01*
X012883D01*
Y033862D01*
X013050Y034085D02*
X012715D01*
X013050Y034308D01*
X012715D01*
Y034419D02*
X013050D01*
Y034586D01*
X012994Y034642D01*
X012771D01*
X012715Y034586D01*
Y034419D01*
X017765Y033800D02*
X017988D01*
X018100Y033912D01*
X017988Y034023D01*
X017765D01*
X018100Y034190D02*
Y034302D01*
X018044Y034358D01*
X017933D01*
X017877Y034302D01*
Y034190D01*
X017933Y034135D01*
X018044D01*
X018100Y034190D01*
X017877Y034469D02*
X018044D01*
X018100Y034525D01*
Y034692D01*
X017877D01*
X017821Y034859D02*
X017877D01*
Y034804D01*
Y034915D01*
Y034859D01*
X018044D01*
X018100Y034915D01*
D25*
X013118Y028566D02*
G03*
X013118Y028566I-000118J000000D01*
G01*
X014184Y017900D02*
G03*
X014184Y017900I-000118J000000D01*
G01*
X021018Y028566D02*
G03*
X021018Y028566I-000118J000000D01*
G01*
X025018Y028616D02*
G03*
X025018Y028616I-000118J000000D01*
G01*
X017068Y028566D02*
G03*
X017068Y028566I-000118J000000D01*
G01*
X020868Y014075D02*
G03*
X020868Y014075I-000118J000000D01*
G01*
D26*
X013899Y028188D02*
G03*
X013899Y028188I-000049J000000D01*
G01*
X013737Y017050D02*
G03*
X013737Y017050I-000049J000000D01*
G01*
X021799Y028188D02*
G03*
X021799Y028188I-000049J000000D01*
G01*
X025799Y028238D02*
G03*
X025799Y028238I-000049J000000D01*
G01*
X017849Y028188D02*
G03*
X017849Y028188I-000049J000000D01*
G01*
X021649Y013638D02*
G03*
X021649Y013638I-000049J000000D01*
G01*
D27*
X012600Y028172D02*
G03*
X012100Y028172I-000250J000000D01*
G01*
X011134Y025873D02*
G03*
X012514Y025777I000716J000327D01*
G01*
Y026623D02*
G03*
X011134Y026527I-000664J-000423D01*
G01*
X011236Y018527D02*
G03*
X012616Y018623I000664J000423D01*
G01*
Y019277D02*
G03*
X011236Y019373I-000716J-000327D01*
G01*
X014584Y025923D02*
G03*
X015964Y025827I000716J000327D01*
G01*
Y026673D02*
G03*
X014584Y026577I-000664J-000423D01*
G01*
X013672Y018300D02*
G03*
X013672Y018800I000000J000250D01*
G01*
X020500Y028172D02*
G03*
X020000Y028172I-000250J000000D01*
G01*
X024500Y028222D02*
G03*
X024000Y028222I-000250J000000D01*
G01*
X016550Y028172D02*
G03*
X016050Y028172I-000250J000000D01*
G01*
X020350Y013681D02*
G03*
X019850Y013681I-000250J000000D01*
G01*
X017800Y020850D02*
Y024350D01*
X016300D02*
X017800D01*
X016300Y020850D02*
Y024350D01*
Y020850D02*
X017800D01*
X025694Y033900D02*
X026206D01*
X026794D02*
X027306D01*
X027894D02*
X028406D01*
X027750Y031544D02*
Y032056D01*
Y030494D02*
Y031006D01*
Y029444D02*
Y029956D01*
Y028394D02*
Y028906D01*
X024594Y033897D02*
X025106D01*
X011307Y032228D02*
X013393D01*
X011307Y028172D02*
X012100D01*
X012600D02*
X013393D01*
X011307D02*
Y032228D01*
X013393Y028172D02*
Y032228D01*
X030250Y022450D02*
Y031700D01*
Y021700D02*
Y022450D01*
Y021700D02*
X031250D01*
Y031700D01*
X030250D02*
X031250D01*
X017150Y025150D02*
X018150D01*
X017150D02*
Y027150D01*
X018150D01*
Y025150D02*
Y027150D01*
X022350Y020750D02*
X023350D01*
Y018750D02*
Y020750D01*
X022350Y018750D02*
X023350D01*
X022350D02*
Y020750D01*
Y023300D02*
X023350D01*
Y021300D02*
Y023300D01*
X022350Y021300D02*
X023350D01*
X022350D02*
Y023300D01*
X011050Y023450D02*
Y023540D01*
Y021360D02*
Y021450D01*
Y023450D02*
X011350D01*
Y021450D02*
Y023450D01*
X010750Y021450D02*
X011350D01*
X010750D02*
Y023450D01*
X011050D01*
X012000Y021360D02*
Y021450D01*
Y023450D02*
Y023540D01*
X011700Y021450D02*
X012000D01*
X011700D02*
Y023450D01*
X012300D01*
Y021450D02*
Y023450D01*
X012000Y021450D02*
X012300D01*
X012950Y023450D02*
Y023540D01*
Y021360D02*
Y021450D01*
Y023450D02*
X013250D01*
Y021450D02*
Y023450D01*
X012650Y021450D02*
X013250D01*
X012650D02*
Y023450D01*
X012950D01*
X025450Y016851D02*
X025540D01*
X023360D02*
X023450D01*
X025450Y016551D02*
Y016851D01*
X023450Y016551D02*
X025450D01*
X023450D02*
Y017151D01*
X025450D01*
Y016851D02*
Y017151D01*
Y017835D02*
X025540D01*
X023360D02*
X023450D01*
X025450Y017535D02*
Y017835D01*
X023450Y017535D02*
X025450D01*
X023450D02*
Y018135D01*
X025450D01*
Y017835D02*
Y018135D01*
X025000Y024056D02*
X025090D01*
X022910D02*
X023000D01*
X025000Y023756D02*
Y024056D01*
X023000Y023756D02*
X025000D01*
X023000D02*
Y024356D01*
X025000D01*
Y024056D02*
Y024356D01*
X022910Y025041D02*
X023000D01*
X025000D02*
X025090D01*
X023000D02*
Y025341D01*
X025000D01*
Y024741D02*
Y025341D01*
X023000Y024741D02*
X025000D01*
X023000D02*
Y025041D01*
X025000Y026025D02*
X025090D01*
X022910D02*
X023000D01*
X025000Y025725D02*
Y026025D01*
X023000Y025725D02*
X025000D01*
X023000D02*
Y026325D01*
X025000D01*
Y026025D02*
Y026325D01*
X027510Y016951D02*
X027600D01*
X029600D02*
X029690D01*
X027600D02*
Y017251D01*
X029600D01*
Y016651D02*
Y017251D01*
X027600Y016651D02*
X029600D01*
X027600D02*
Y016951D01*
X027510Y017935D02*
X027600D01*
X029600D02*
X029690D01*
X027600D02*
Y018235D01*
X029600D01*
Y017635D02*
Y018235D01*
X027600Y017635D02*
X029600D01*
X027600D02*
Y017935D01*
X029600Y018919D02*
X029690D01*
X027510D02*
X027600D01*
X029600Y018619D02*
Y018919D01*
X027600Y018619D02*
X029600D01*
X027600D02*
Y019219D01*
X029600D01*
Y018919D02*
Y019219D01*
X027510Y019904D02*
X027600D01*
X029600D02*
X029690D01*
X027600D02*
Y020204D01*
X029600D01*
Y019604D02*
Y020204D01*
X027600Y019604D02*
X029600D01*
X027600D02*
Y019904D01*
X027510Y020950D02*
X027600D01*
X029600D02*
X029690D01*
X027600D02*
Y021250D01*
X029600D01*
Y020650D02*
Y021250D01*
X027600Y020650D02*
X029600D01*
X027600D02*
Y020950D01*
X014850Y023450D02*
Y023540D01*
Y021360D02*
Y021450D01*
Y023450D02*
X015150D01*
Y021450D02*
Y023450D01*
X014550Y021450D02*
X015150D01*
X014550D02*
Y023450D01*
X014850D01*
X013900Y021360D02*
Y021450D01*
Y023450D02*
Y023540D01*
X013600Y021450D02*
X013900D01*
X013600D02*
Y023450D01*
X014200D01*
Y021450D02*
Y023450D01*
X013900Y021450D02*
X014200D01*
X026500Y021800D02*
Y022800D01*
X028500D01*
Y021800D02*
Y022800D01*
X026500Y021800D02*
X028500D01*
X017728Y017507D02*
Y019593D01*
X013672Y018800D02*
Y019593D01*
Y017507D02*
Y018300D01*
Y019593D02*
X017728D01*
X013672Y017507D02*
X017728D01*
X019207Y032228D02*
X021293D01*
X019207Y028172D02*
X020000D01*
X020500D02*
X021293D01*
X019207D02*
Y032228D01*
X021293Y028172D02*
Y032228D01*
X023207Y032278D02*
X025293D01*
X023207Y028222D02*
X024000D01*
X024500D02*
X025293D01*
X023207D02*
Y032278D01*
X025293Y028222D02*
Y032278D01*
X015257Y032228D02*
X017343D01*
X015257Y028172D02*
X016050D01*
X016550D02*
X017343D01*
X015257D02*
Y032228D01*
X017343Y028172D02*
Y032228D01*
X025450Y014000D02*
X025540D01*
X023360D02*
X023450D01*
X025450Y013700D02*
Y014000D01*
X023450Y013700D02*
X025450D01*
X023450D02*
Y014300D01*
X025450D01*
Y014000D02*
Y014300D01*
Y014950D02*
X025540D01*
X023360D02*
X023450D01*
X025450Y014650D02*
Y014950D01*
X023450Y014650D02*
X025450D01*
X023450D02*
Y015250D01*
X025450D01*
Y014950D02*
Y015250D01*
Y015867D02*
X025540D01*
X023360D02*
X023450D01*
X025450Y015567D02*
Y015867D01*
X023450Y015567D02*
X025450D01*
X023450D02*
Y016167D01*
X025450D01*
Y015867D02*
Y016167D01*
X027560Y013950D02*
X027650D01*
X029650D02*
X029740D01*
X027650D02*
Y014250D01*
X029650D01*
Y013650D02*
Y014250D01*
X027650Y013650D02*
X029650D01*
X027650D02*
Y013950D01*
X027510Y014982D02*
X027600D01*
X029600D02*
X029690D01*
X027600D02*
Y015282D01*
X029600D01*
Y014682D02*
Y015282D01*
X027600Y014682D02*
X029600D01*
X027600D02*
Y014982D01*
X027510Y015967D02*
X027600D01*
X029600D02*
X029690D01*
X027600D02*
Y016267D01*
X029600D01*
Y015667D02*
Y016267D01*
X027600Y015667D02*
X029600D01*
X027600D02*
Y015967D01*
X022910Y027150D02*
X023000D01*
X025000D02*
X025090D01*
X023000D02*
Y027450D01*
X025000D01*
Y026850D02*
Y027450D01*
X023000Y026850D02*
X025000D01*
X023000D02*
Y027150D01*
X021143Y013681D02*
Y027619D01*
X019057Y013681D02*
Y027619D01*
X020350Y013681D02*
X021143D01*
X019057D02*
X019850D01*
X019057Y027619D02*
X021143D01*
X024700Y010600D02*
Y012600D01*
X029700Y010600D02*
Y012600D01*
X024700Y010600D02*
X029700D01*
X024700Y012600D02*
X029700D01*
M02*
