%FSAX24Y24*%
%MOIN*%
G70*
G01*
G75*
G04 Layer_Physical_Order=1*
G04 Layer_Color=255*
%ADD10R,0.0591X0.0551*%
%ADD11R,0.0551X0.0591*%
%ADD12C,0.0100*%
%ADD13C,0.0472*%
%ADD14C,0.0400*%
%ADD15C,0.0591*%
%ADD16R,0.0591X0.0591*%
%ADD17C,0.1000*%
%ADD18R,0.0591X0.0591*%
%ADD19C,0.0532*%
%ADD20R,0.0532X0.0532*%
%ADD21C,0.0551*%
%ADD22C,0.0600*%
%ADD23C,0.0700*%
%ADD24C,0.0500*%
G36*
X025749Y022994D02*
X025834Y022959D01*
X025924Y022947D01*
X025929Y022946D01*
X025973Y022903D01*
Y022654D01*
X025984Y022596D01*
X026017Y022546D01*
X026157Y022407D01*
Y021740D01*
X026169Y021681D01*
X026202Y021632D01*
X026749Y021085D01*
X026734Y021048D01*
X026721Y020950D01*
X026734Y020852D01*
X026772Y020761D01*
X026832Y020682D01*
X026896Y020633D01*
X026879Y020583D01*
X026063D01*
X025653Y020993D01*
Y023005D01*
X025703Y023030D01*
X025749Y022994D01*
D02*
G37*
G36*
X020523Y023644D02*
X020609Y023609D01*
X020700Y023597D01*
X020791Y023609D01*
X020815Y023619D01*
X020842Y023592D01*
X020891Y023559D01*
X020901Y023557D01*
X020950Y023547D01*
X021395D01*
X021405Y023497D01*
X021401Y023495D01*
X021318Y023432D01*
X021255Y023349D01*
X021215Y023253D01*
X021201Y023150D01*
X021215Y023047D01*
X021255Y022951D01*
X021318Y022868D01*
X021401Y022805D01*
X021497Y022765D01*
X021600Y022751D01*
X021703Y022765D01*
X021750Y022784D01*
X021900Y022633D01*
Y022481D01*
X021851Y022456D01*
X021799Y022495D01*
X021703Y022535D01*
X021600Y022549D01*
X021497Y022535D01*
X021401Y022495D01*
X021318Y022432D01*
X021255Y022349D01*
X021215Y022253D01*
X021201Y022150D01*
X021215Y022047D01*
X021255Y021951D01*
X021318Y021868D01*
X021347Y021846D01*
X021350Y021796D01*
X021042Y021488D01*
X021009Y021439D01*
X020997Y021380D01*
Y021311D01*
X020947Y021294D01*
X020920Y021330D01*
X020847Y021386D01*
X020761Y021421D01*
X020670Y021433D01*
X020579Y021421D01*
X020555Y021411D01*
X020453Y021513D01*
Y023642D01*
X020498Y023664D01*
X020523Y023644D01*
D02*
G37*
G36*
X020339Y021195D02*
X020329Y021171D01*
X020317Y021080D01*
X020329Y020989D01*
X020364Y020903D01*
X020420Y020830D01*
X020493Y020774D01*
X020579Y020739D01*
X020670Y020727D01*
X020761Y020739D01*
X020847Y020774D01*
X020920Y020830D01*
X020952Y020872D01*
X021005Y020860D01*
X021009Y020841D01*
X021042Y020792D01*
X021292Y020542D01*
X021339Y020511D01*
X021342Y020507D01*
X021350Y020478D01*
X021350Y020456D01*
X021318Y020432D01*
X021255Y020349D01*
X021236Y020303D01*
X020813D01*
X020253Y020863D01*
Y021215D01*
X020299Y021235D01*
X020339Y021195D01*
D02*
G37*
G36*
X022492Y022302D02*
X022541Y022269D01*
X022551Y022267D01*
X022600Y022257D01*
X022827D01*
X022901Y022183D01*
X022900Y022181D01*
Y021800D01*
X022850D01*
Y021750D01*
X022517D01*
X022522Y021712D01*
X022556Y021630D01*
X022610Y021560D01*
X022680Y021506D01*
X022697Y021499D01*
Y021220D01*
X022709Y021161D01*
X022742Y021112D01*
X023087Y020767D01*
Y020548D01*
X023042Y020526D01*
X023020Y020544D01*
X022938Y020578D01*
X022850Y020589D01*
X022762Y020578D01*
X022746Y020571D01*
X022206Y021110D01*
Y022517D01*
X022256Y022537D01*
X022492Y022302D01*
D02*
G37*
G36*
X021147Y030875D02*
Y027450D01*
X021159Y027391D01*
X021192Y027342D01*
X021234Y027300D01*
X021215Y027253D01*
X021201Y027150D01*
X021215Y027047D01*
X021255Y026951D01*
X021318Y026868D01*
X021401Y026805D01*
X021497Y026765D01*
X021600Y026751D01*
X021703Y026765D01*
X021799Y026805D01*
X021882Y026868D01*
X021945Y026951D01*
X021985Y027047D01*
X021999Y027150D01*
X021985Y027253D01*
X021945Y027349D01*
X021882Y027432D01*
X021799Y027495D01*
X021703Y027535D01*
X021600Y027549D01*
X021503Y027536D01*
X021484Y027541D01*
X021453Y027562D01*
Y028305D01*
X022097D01*
Y027400D01*
X022109Y027341D01*
X022142Y027292D01*
X022149Y027285D01*
X022134Y027248D01*
X022121Y027150D01*
X022134Y027052D01*
X022172Y026961D01*
X022232Y026882D01*
X022311Y026822D01*
X022402Y026784D01*
X022500Y026771D01*
X022598Y026784D01*
X022689Y026822D01*
X022768Y026882D01*
X022828Y026961D01*
X022866Y027052D01*
X022879Y027150D01*
X022866Y027248D01*
X022828Y027339D01*
X022768Y027418D01*
X022689Y027478D01*
X022598Y027516D01*
X022500Y027529D01*
X022441Y027521D01*
X022403Y027554D01*
Y028471D01*
X022453Y028488D01*
X022468Y028468D01*
X022551Y028405D01*
X022647Y028365D01*
X022750Y028351D01*
X022853Y028365D01*
X022949Y028405D01*
X023032Y028468D01*
X023095Y028551D01*
X023135Y028647D01*
X023149Y028750D01*
X023135Y028853D01*
X023095Y028949D01*
X023032Y029032D01*
X022949Y029095D01*
X022853Y029135D01*
X022750Y029149D01*
X022647Y029135D01*
X022551Y029095D01*
X022468Y029032D01*
X022453Y029012D01*
X022403Y029029D01*
Y029200D01*
X022391Y029259D01*
X022358Y029308D01*
X022116Y029550D01*
X022135Y029597D01*
X022149Y029700D01*
X022135Y029803D01*
X022095Y029899D01*
X022032Y029982D01*
X021949Y030045D01*
X021853Y030085D01*
X021750Y030099D01*
X021647Y030085D01*
X021551Y030045D01*
X021503Y030009D01*
X021453Y030033D01*
Y030367D01*
X021503Y030391D01*
X021551Y030355D01*
X021647Y030315D01*
X021750Y030301D01*
X021853Y030315D01*
X021900Y030334D01*
X022092Y030142D01*
X022141Y030109D01*
X022200Y030097D01*
X022471D01*
X022488Y030047D01*
X022468Y030032D01*
X022405Y029949D01*
X022365Y029853D01*
X022351Y029750D01*
X022365Y029647D01*
X022405Y029551D01*
X022468Y029468D01*
X022551Y029405D01*
X022647Y029365D01*
X022750Y029351D01*
X022853Y029365D01*
X022949Y029405D01*
X023032Y029468D01*
X023095Y029551D01*
X023135Y029647D01*
X023149Y029750D01*
X023135Y029853D01*
X023095Y029949D01*
X023032Y030032D01*
X023012Y030047D01*
X023029Y030097D01*
X023887D01*
X023997Y029987D01*
Y023518D01*
X023952Y023496D01*
X023927Y023516D01*
X023841Y023551D01*
X023750Y023563D01*
X023659Y023551D01*
X023573Y023516D01*
X023500Y023460D01*
X023444Y023387D01*
X023409Y023301D01*
X023397Y023210D01*
X023409Y023119D01*
X023444Y023033D01*
X023500Y022960D01*
X023573Y022904D01*
X023597Y022895D01*
Y021985D01*
X023552Y021969D01*
X023547Y021969D01*
X023050Y022467D01*
X023054Y022533D01*
X023090Y022560D01*
X023144Y022630D01*
X023178Y022712D01*
X023189Y022800D01*
X023178Y022888D01*
X023144Y022970D01*
X023090Y023040D01*
X023020Y023094D01*
X022938Y023128D01*
X022850Y023139D01*
X022762Y023128D01*
X022680Y023094D01*
X022610Y023040D01*
X022556Y022970D01*
X022553Y022961D01*
X022503Y022971D01*
Y023080D01*
X022493Y023129D01*
X022491Y023139D01*
X022458Y023188D01*
X021859Y023787D01*
X021858Y023850D01*
X021882Y023868D01*
X021945Y023951D01*
X021985Y024047D01*
X021999Y024150D01*
X021985Y024253D01*
X021945Y024349D01*
X021882Y024432D01*
X021799Y024495D01*
X021795Y024497D01*
X021805Y024547D01*
X022159D01*
X022218Y024559D01*
X022268Y024592D01*
X022365Y024690D01*
X022402Y024675D01*
X022500Y024662D01*
X022598Y024675D01*
X022689Y024712D01*
X022768Y024773D01*
X022828Y024851D01*
X022866Y024943D01*
X022879Y025041D01*
X022866Y025139D01*
X022828Y025230D01*
X022768Y025308D01*
X022689Y025369D01*
X022598Y025406D01*
X022500Y025419D01*
X022402Y025406D01*
X022311Y025369D01*
X022232Y025308D01*
X022172Y025230D01*
X022134Y025139D01*
X022121Y025041D01*
X022134Y024943D01*
X022149Y024906D01*
X022096Y024853D01*
X021933D01*
X021909Y024903D01*
X021945Y024951D01*
X021985Y025047D01*
X021999Y025150D01*
X021985Y025253D01*
X021945Y025349D01*
X021882Y025432D01*
X021799Y025495D01*
X021703Y025535D01*
X021600Y025549D01*
X021497Y025535D01*
X021401Y025495D01*
X021318Y025432D01*
X021255Y025349D01*
X021215Y025253D01*
X021201Y025150D01*
X021215Y025047D01*
X021255Y024951D01*
X021291Y024903D01*
X021267Y024853D01*
X020790D01*
X020731Y024841D01*
X020682Y024808D01*
X020299Y024425D01*
X020253Y024445D01*
Y030047D01*
X021101Y030895D01*
X021147Y030875D01*
D02*
G37*
G36*
X026145Y028355D02*
X026173Y028316D01*
Y026759D01*
X026126Y026740D01*
X025851Y027015D01*
X025866Y027052D01*
X025879Y027150D01*
X025866Y027248D01*
X025828Y027339D01*
X025768Y027418D01*
X025689Y027478D01*
X025598Y027516D01*
X025500Y027529D01*
X025491Y027528D01*
X025453Y027561D01*
Y028319D01*
X025488Y028355D01*
X026145D01*
D02*
G37*
G36*
X017887Y027587D02*
Y026948D01*
X017842Y026926D01*
X017820Y026944D01*
X017738Y026978D01*
X017650Y026989D01*
X017562Y026978D01*
X017546Y026971D01*
X017303Y027213D01*
Y028105D01*
X017349Y028125D01*
X017887Y027587D01*
D02*
G37*
G36*
X025311Y026822D02*
X025402Y026784D01*
X025500Y026771D01*
X025598Y026784D01*
X025635Y026799D01*
X025973Y026461D01*
Y025834D01*
X025926Y025815D01*
X025851Y025890D01*
X025866Y025927D01*
X025879Y026025D01*
X025866Y026123D01*
X025828Y026214D01*
X025768Y026293D01*
X025689Y026353D01*
X025598Y026391D01*
X025500Y026404D01*
X025402Y026391D01*
X025311Y026353D01*
X025273Y026324D01*
X025223Y026349D01*
Y026826D01*
X025273Y026851D01*
X025311Y026822D01*
D02*
G37*
G36*
X026892Y028687D02*
X026892Y028687D01*
X026892Y028687D01*
X026917Y028670D01*
X026941Y028654D01*
X026942Y028654D01*
X026942Y028654D01*
X026981Y028638D01*
Y028255D01*
X027732D01*
Y028255D01*
X027768D01*
Y028255D01*
X027991D01*
Y027666D01*
X028002Y027608D01*
X028036Y027558D01*
X028137Y027457D01*
Y026846D01*
X028090Y026830D01*
X028085Y026835D01*
X028002Y026899D01*
X027904Y026940D01*
X027800Y026953D01*
X027696Y026940D01*
X027598Y026899D01*
X027515Y026835D01*
X027451Y026752D01*
X027410Y026654D01*
X027397Y026550D01*
X027410Y026446D01*
X027451Y026348D01*
X027515Y026265D01*
X027598Y026201D01*
X027696Y026160D01*
X027800Y026147D01*
X027904Y026160D01*
X028002Y026201D01*
X028085Y026265D01*
X028090Y026270D01*
X028137Y026254D01*
Y026103D01*
X027953Y025919D01*
X027904Y025940D01*
X027850Y025947D01*
Y025600D01*
X028197D01*
X028190Y025654D01*
X028170Y025703D01*
X028398Y025932D01*
X028431Y025981D01*
X028443Y026040D01*
Y027520D01*
X028433Y027569D01*
X028431Y027579D01*
X028398Y027628D01*
X028297Y027730D01*
Y028255D01*
X028507D01*
Y027240D01*
X028519Y027181D01*
X028552Y027132D01*
X030369Y025314D01*
X030365Y025303D01*
X030351Y025200D01*
X030365Y025097D01*
X030405Y025001D01*
X030468Y024918D01*
X030551Y024855D01*
X030647Y024815D01*
X030750Y024801D01*
X030853Y024815D01*
X030949Y024855D01*
X031032Y024918D01*
X031047Y024938D01*
X031097Y024921D01*
Y024479D01*
X031047Y024462D01*
X031032Y024482D01*
X030949Y024545D01*
X030853Y024585D01*
X030750Y024599D01*
X030647Y024585D01*
X030551Y024545D01*
X030468Y024482D01*
X030405Y024399D01*
X030365Y024303D01*
X030351Y024200D01*
X030365Y024097D01*
X030405Y024001D01*
X030468Y023918D01*
X030551Y023855D01*
X030647Y023815D01*
X030750Y023801D01*
X030853Y023815D01*
X030949Y023855D01*
X031032Y023918D01*
X031047Y023938D01*
X031097Y023921D01*
Y023479D01*
X031047Y023462D01*
X031032Y023482D01*
X030949Y023545D01*
X030853Y023585D01*
X030750Y023599D01*
X030647Y023585D01*
X030551Y023545D01*
X030468Y023482D01*
X030405Y023399D01*
X030365Y023303D01*
X030351Y023200D01*
X030365Y023097D01*
X030369Y023086D01*
X029562Y022278D01*
X029529Y022229D01*
X029517Y022170D01*
Y020770D01*
X029529Y020711D01*
X029562Y020662D01*
X029892Y020332D01*
X029941Y020299D01*
X029942Y020299D01*
X029949Y020275D01*
X029947Y020247D01*
X029911Y020232D01*
X029832Y020171D01*
X029772Y020093D01*
X029734Y020002D01*
X029721Y019904D01*
X029734Y019805D01*
X029772Y019714D01*
X029832Y019636D01*
X029911Y019575D01*
X030002Y019538D01*
X030100Y019525D01*
X030198Y019538D01*
X030289Y019575D01*
X030368Y019636D01*
X030380Y019651D01*
X030427Y019635D01*
Y019188D01*
X030380Y019172D01*
X030368Y019187D01*
X030289Y019247D01*
X030198Y019285D01*
X030100Y019298D01*
X030002Y019285D01*
X029965Y019270D01*
X028697Y020538D01*
X028648Y020571D01*
X028589Y020583D01*
X027321D01*
X027304Y020633D01*
X027368Y020682D01*
X027428Y020761D01*
X027466Y020852D01*
X027479Y020950D01*
X027466Y021048D01*
X027428Y021139D01*
X027368Y021218D01*
X027289Y021278D01*
X027198Y021316D01*
X027100Y021329D01*
X027002Y021316D01*
X026965Y021301D01*
X026463Y021803D01*
Y022470D01*
X026451Y022529D01*
X026418Y022578D01*
X026279Y022718D01*
Y022871D01*
X026326Y022919D01*
X026373Y022900D01*
Y022774D01*
X026384Y022716D01*
X026417Y022666D01*
X026679Y022404D01*
X026672Y022388D01*
X026661Y022300D01*
X026672Y022212D01*
X026706Y022130D01*
X026760Y022060D01*
X026830Y022006D01*
X026912Y021972D01*
X027000Y021961D01*
X027088Y021972D01*
X027170Y022006D01*
X027240Y022060D01*
X027294Y022130D01*
X027328Y022212D01*
X027339Y022300D01*
X027328Y022388D01*
X027294Y022470D01*
X027240Y022540D01*
X027170Y022594D01*
X027088Y022628D01*
X027000Y022639D01*
X026912Y022628D01*
X026896Y022621D01*
X026679Y022838D01*
Y023549D01*
X026667Y023607D01*
X026634Y023657D01*
X026479Y023812D01*
Y024235D01*
X026529Y024254D01*
X026598Y024201D01*
X026696Y024160D01*
X026800Y024147D01*
X026904Y024160D01*
X027002Y024201D01*
X027085Y024265D01*
X027107Y024293D01*
X027157Y024276D01*
Y022990D01*
X027169Y022931D01*
X027202Y022882D01*
X027679Y022404D01*
X027672Y022388D01*
X027667Y022350D01*
X027950D01*
Y022633D01*
X027912Y022628D01*
X027896Y022621D01*
X027463Y023053D01*
Y024254D01*
X027510Y024270D01*
X027515Y024265D01*
X027598Y024201D01*
X027696Y024160D01*
X027800Y024147D01*
X027904Y024160D01*
X028002Y024201D01*
X028085Y024265D01*
X028149Y024348D01*
X028190Y024446D01*
X028203Y024550D01*
X028190Y024654D01*
X028149Y024752D01*
X028085Y024835D01*
X028002Y024899D01*
X027904Y024940D01*
X027800Y024953D01*
X027696Y024940D01*
X027598Y024899D01*
X027515Y024835D01*
X027510Y024830D01*
X027463Y024846D01*
Y024997D01*
X027647Y025180D01*
X027696Y025160D01*
X027750Y025153D01*
Y025500D01*
X027403D01*
X027410Y025446D01*
X027431Y025397D01*
X027202Y025168D01*
X027169Y025119D01*
X027157Y025060D01*
Y024824D01*
X027107Y024807D01*
X027085Y024835D01*
X027002Y024899D01*
X026904Y024940D01*
X026800Y024953D01*
X026696Y024940D01*
X026647Y024920D01*
X026479Y025088D01*
Y025235D01*
X026529Y025254D01*
X026598Y025201D01*
X026696Y025160D01*
X026750Y025153D01*
Y025550D01*
Y025947D01*
X026696Y025940D01*
X026598Y025899D01*
X026529Y025846D01*
X026479Y025865D01*
Y026235D01*
X026529Y026254D01*
X026598Y026201D01*
X026696Y026160D01*
X026800Y026147D01*
X026904Y026160D01*
X027002Y026201D01*
X027085Y026265D01*
X027149Y026348D01*
X027190Y026446D01*
X027203Y026550D01*
X027190Y026654D01*
X027149Y026752D01*
X027085Y026835D01*
X027002Y026899D01*
X026904Y026940D01*
X026800Y026953D01*
X026696Y026940D01*
X026598Y026899D01*
X026529Y026846D01*
X026479Y026865D01*
Y029035D01*
X026525Y029054D01*
X026892Y028687D01*
D02*
G37*
G36*
X023997Y022902D02*
Y015800D01*
X024009Y015741D01*
X024042Y015692D01*
X025599Y014135D01*
X025584Y014098D01*
X025571Y014000D01*
X025584Y013902D01*
X025622Y013811D01*
X025682Y013732D01*
X025761Y013672D01*
X025852Y013634D01*
X025950Y013621D01*
X026048Y013634D01*
X026139Y013672D01*
X026218Y013732D01*
X026278Y013811D01*
X026316Y013902D01*
X026327Y013987D01*
X026377Y013983D01*
Y013770D01*
X026389Y013711D01*
X026422Y013662D01*
X027834Y012250D01*
X027815Y012203D01*
X027801Y012100D01*
X027815Y011997D01*
X027855Y011901D01*
X027918Y011818D01*
X027938Y011803D01*
X027921Y011753D01*
X027479D01*
X027462Y011803D01*
X027482Y011818D01*
X027545Y011901D01*
X027585Y011997D01*
X027599Y012100D01*
X027585Y012203D01*
X027545Y012299D01*
X027482Y012382D01*
X027399Y012445D01*
X027303Y012485D01*
X027200Y012499D01*
X027097Y012485D01*
X027001Y012445D01*
X026918Y012382D01*
X026855Y012299D01*
X026815Y012203D01*
X026801Y012100D01*
X026815Y011997D01*
X026855Y011901D01*
X026918Y011818D01*
X026938Y011803D01*
X026921Y011753D01*
X026479D01*
X026462Y011803D01*
X026482Y011818D01*
X026545Y011901D01*
X026585Y011997D01*
X026599Y012100D01*
X026585Y012203D01*
X026545Y012299D01*
X026482Y012382D01*
X026399Y012445D01*
X026303Y012485D01*
X026200Y012499D01*
X026097Y012485D01*
X026050Y012466D01*
X023903Y014613D01*
Y022895D01*
X023927Y022904D01*
X023952Y022924D01*
X023997Y022902D01*
D02*
G37*
G36*
X022761Y013672D02*
X022852Y013634D01*
X022950Y013621D01*
X023048Y013634D01*
X023085Y013649D01*
X023297Y013437D01*
Y011964D01*
X023250Y011947D01*
X023226Y011976D01*
X023135Y012051D01*
X023031Y012107D01*
X022953Y012131D01*
Y012330D01*
X022941Y012389D01*
X022908Y012438D01*
X022673Y012673D01*
Y013676D01*
X022723Y013701D01*
X022761Y013672D01*
D02*
G37*
G36*
X024834Y012250D02*
X024815Y012203D01*
X024801Y012100D01*
X024815Y011997D01*
X024855Y011901D01*
X024918Y011818D01*
X024938Y011803D01*
X024921Y011753D01*
X024920D01*
X024861Y011741D01*
X024812Y011708D01*
X023857Y010753D01*
X023338D01*
X023333Y010759D01*
X023319Y010803D01*
X023558Y011042D01*
X023591Y011091D01*
X023593Y011101D01*
X023603Y011150D01*
Y013415D01*
X023649Y013435D01*
X024834Y012250D01*
D02*
G37*
G36*
X025834D02*
X025815Y012203D01*
X025801Y012100D01*
X025815Y011997D01*
X025855Y011901D01*
X025918Y011818D01*
X025938Y011803D01*
X025921Y011753D01*
X025479D01*
X025462Y011803D01*
X025482Y011818D01*
X025545Y011901D01*
X025585Y011997D01*
X025599Y012100D01*
X025585Y012203D01*
X025545Y012299D01*
X025482Y012382D01*
X025399Y012445D01*
X025303Y012485D01*
X025200Y012499D01*
X025097Y012485D01*
X025050Y012466D01*
X023593Y013923D01*
Y014425D01*
X023638Y014441D01*
X023643Y014441D01*
X025834Y012250D01*
D02*
G37*
G36*
X030355Y022568D02*
Y022250D01*
X030750D01*
Y022150D01*
X030355D01*
Y021805D01*
X030547D01*
Y021613D01*
X030235Y021301D01*
X030198Y021316D01*
X030150Y021322D01*
Y021000D01*
X030472D01*
X030466Y021048D01*
X030451Y021085D01*
X030808Y021442D01*
X030841Y021491D01*
X030853Y021550D01*
Y021805D01*
X031097D01*
Y016050D01*
X031109Y015991D01*
X031142Y015942D01*
X032397Y014687D01*
Y011613D01*
X031237Y010453D01*
X024058D01*
X024053Y010459D01*
X024039Y010503D01*
X024776Y011240D01*
X024818Y011211D01*
X024815Y011203D01*
X024808Y011150D01*
X025592D01*
X025585Y011203D01*
X025545Y011299D01*
X025482Y011382D01*
X025462Y011397D01*
X025479Y011447D01*
X025921D01*
X025938Y011397D01*
X025918Y011382D01*
X025855Y011299D01*
X025815Y011203D01*
X025808Y011150D01*
X026592D01*
X026585Y011203D01*
X026545Y011299D01*
X026482Y011382D01*
X026462Y011397D01*
X026479Y011447D01*
X026921D01*
X026938Y011397D01*
X026918Y011382D01*
X026855Y011299D01*
X026815Y011203D01*
X026808Y011150D01*
X027592D01*
X027585Y011203D01*
X027545Y011299D01*
X027482Y011382D01*
X027462Y011397D01*
X027479Y011447D01*
X027921D01*
X027938Y011397D01*
X027918Y011382D01*
X027855Y011299D01*
X027815Y011203D01*
X027808Y011150D01*
X028592D01*
X028585Y011203D01*
X028545Y011299D01*
X028482Y011382D01*
X028462Y011397D01*
X028479Y011447D01*
X028700D01*
X028759Y011459D01*
X028808Y011492D01*
X029021Y011705D01*
X029518D01*
X029538Y011655D01*
X029350Y011466D01*
X029303Y011485D01*
X029200Y011499D01*
X029097Y011485D01*
X029001Y011445D01*
X028918Y011382D01*
X028855Y011299D01*
X028815Y011203D01*
X028801Y011100D01*
X028815Y010997D01*
X028855Y010901D01*
X028918Y010818D01*
X029001Y010755D01*
X029097Y010715D01*
X029200Y010701D01*
X029303Y010715D01*
X029399Y010755D01*
X029482Y010818D01*
X029545Y010901D01*
X029585Y010997D01*
X029599Y011100D01*
X029585Y011203D01*
X029566Y011250D01*
X029828Y011512D01*
X029861Y011561D01*
X029873Y011620D01*
Y012597D01*
X030570Y013294D01*
X030611Y013264D01*
X030593Y013231D01*
X030559Y013118D01*
X030547Y013000D01*
X030559Y012882D01*
X030593Y012769D01*
X030649Y012665D01*
X030724Y012574D01*
X030815Y012499D01*
X030919Y012443D01*
X031032Y012409D01*
X031150Y012397D01*
X031268Y012409D01*
X031381Y012443D01*
X031485Y012499D01*
X031576Y012574D01*
X031651Y012665D01*
X031707Y012769D01*
X031741Y012882D01*
X031753Y013000D01*
X031741Y013118D01*
X031707Y013231D01*
X031651Y013335D01*
X031576Y013426D01*
X031485Y013501D01*
X031381Y013557D01*
X031268Y013591D01*
X031150Y013603D01*
X031032Y013591D01*
X030919Y013557D01*
X030815Y013501D01*
X030773Y013467D01*
X030728Y013494D01*
X030733Y013520D01*
Y020200D01*
X030721Y020259D01*
X030688Y020308D01*
X030448Y020548D01*
X030399Y020581D01*
X030340Y020593D01*
X030334D01*
X030317Y020643D01*
X030368Y020682D01*
X030428Y020761D01*
X030466Y020852D01*
X030472Y020900D01*
X030100D01*
Y020950D01*
X030050D01*
Y021322D01*
X030002Y021316D01*
X029911Y021278D01*
X029873Y021249D01*
X029823Y021274D01*
Y022107D01*
X030305Y022588D01*
X030355Y022568D01*
D02*
G37*
G36*
X024765Y021265D02*
X024848Y021201D01*
X024946Y021160D01*
X025050Y021147D01*
X025154Y021160D01*
X025252Y021201D01*
X025297Y021235D01*
X025347Y021211D01*
Y020930D01*
X025359Y020871D01*
X025392Y020822D01*
X025892Y020322D01*
X025941Y020289D01*
X026000Y020277D01*
X026891D01*
X026903Y020248D01*
X026905Y020227D01*
X026832Y020171D01*
X026772Y020093D01*
X026734Y020002D01*
X026721Y019904D01*
X026734Y019805D01*
X026772Y019714D01*
X026832Y019636D01*
X026911Y019575D01*
X026947Y019560D01*
Y019262D01*
X026911Y019247D01*
X026832Y019187D01*
X026772Y019109D01*
X026734Y019017D01*
X026721Y018919D01*
X026734Y018821D01*
X026772Y018730D01*
X026832Y018651D01*
X026911Y018591D01*
X027002Y018553D01*
X027100Y018540D01*
X027198Y018553D01*
X027289Y018591D01*
X027368Y018651D01*
X027428Y018730D01*
X027466Y018821D01*
X027479Y018919D01*
X027466Y019017D01*
X027428Y019109D01*
X027368Y019187D01*
X027289Y019247D01*
X027253Y019262D01*
Y019560D01*
X027289Y019575D01*
X027368Y019636D01*
X027428Y019714D01*
X027466Y019805D01*
X027479Y019904D01*
X027466Y020002D01*
X027428Y020093D01*
X027368Y020171D01*
X027295Y020227D01*
X027297Y020248D01*
X027309Y020277D01*
X028526D01*
X029749Y019054D01*
X029734Y019017D01*
X029721Y018919D01*
X029734Y018821D01*
X029772Y018730D01*
X029832Y018651D01*
X029911Y018591D01*
X029947Y018576D01*
Y018278D01*
X029911Y018263D01*
X029832Y018203D01*
X029772Y018124D01*
X029734Y018033D01*
X029721Y017935D01*
X029734Y017837D01*
X029772Y017746D01*
X029832Y017667D01*
X029911Y017607D01*
X030002Y017569D01*
X030100Y017556D01*
X030198Y017569D01*
X030289Y017607D01*
X030368Y017667D01*
X030380Y017683D01*
X030427Y017667D01*
Y017219D01*
X030380Y017203D01*
X030368Y017219D01*
X030289Y017279D01*
X030198Y017317D01*
X030100Y017330D01*
X030002Y017317D01*
X029911Y017279D01*
X029832Y017219D01*
X029772Y017140D01*
X029734Y017049D01*
X029721Y016951D01*
X029734Y016853D01*
X029772Y016761D01*
X029832Y016683D01*
X029911Y016623D01*
X030002Y016585D01*
X030100Y016572D01*
X030198Y016585D01*
X030289Y016623D01*
X030368Y016683D01*
X030380Y016698D01*
X030427Y016682D01*
Y016235D01*
X030380Y016219D01*
X030368Y016234D01*
X030289Y016295D01*
X030198Y016332D01*
X030100Y016345D01*
X030002Y016332D01*
X029911Y016295D01*
X029832Y016234D01*
X029772Y016156D01*
X029734Y016065D01*
X029721Y015967D01*
X029734Y015868D01*
X029772Y015777D01*
X029832Y015699D01*
X029911Y015638D01*
X030002Y015601D01*
X030100Y015588D01*
X030198Y015601D01*
X030289Y015638D01*
X030368Y015699D01*
X030380Y015714D01*
X030427Y015698D01*
Y015251D01*
X030380Y015235D01*
X030368Y015250D01*
X030289Y015310D01*
X030198Y015348D01*
X030100Y015361D01*
X030002Y015348D01*
X029911Y015310D01*
X029832Y015250D01*
X029772Y015172D01*
X029734Y015080D01*
X029721Y014982D01*
X029734Y014884D01*
X029772Y014793D01*
X029832Y014714D01*
X029911Y014654D01*
X030002Y014616D01*
X030100Y014603D01*
X030198Y014616D01*
X030289Y014654D01*
X030368Y014714D01*
X030380Y014730D01*
X030427Y014714D01*
Y014274D01*
X030377Y014249D01*
X030339Y014278D01*
X030248Y014316D01*
X030150Y014329D01*
X030052Y014316D01*
X029961Y014278D01*
X029882Y014218D01*
X029822Y014139D01*
X029784Y014048D01*
X029771Y013950D01*
X029784Y013852D01*
X029822Y013761D01*
X029882Y013682D01*
X029961Y013622D01*
X030052Y013584D01*
X030150Y013571D01*
X030248Y013584D01*
X030339Y013622D01*
X030377Y013651D01*
X030419Y013630D01*
X030424Y013580D01*
X029612Y012768D01*
X029579Y012719D01*
X029567Y012660D01*
Y012495D01*
X028805D01*
Y011921D01*
X028637Y011753D01*
X028479D01*
X028462Y011803D01*
X028482Y011818D01*
X028545Y011901D01*
X028585Y011997D01*
X028599Y012100D01*
X028585Y012203D01*
X028545Y012299D01*
X028482Y012382D01*
X028399Y012445D01*
X028303Y012485D01*
X028200Y012499D01*
X028097Y012485D01*
X028050Y012466D01*
X026935Y013581D01*
X026961Y013622D01*
X027052Y013584D01*
X027150Y013571D01*
X027248Y013584D01*
X027339Y013622D01*
X027418Y013682D01*
X027478Y013761D01*
X027516Y013852D01*
X027529Y013950D01*
X027516Y014048D01*
X027478Y014139D01*
X027418Y014218D01*
X027339Y014278D01*
X027248Y014316D01*
X027150Y014329D01*
X027052Y014316D01*
X026961Y014278D01*
X026882Y014218D01*
X026822Y014139D01*
X026784Y014048D01*
X026771Y013950D01*
X026784Y013852D01*
X026822Y013761D01*
X026781Y013735D01*
X026683Y013833D01*
Y014890D01*
X026733Y014893D01*
X026734Y014884D01*
X026772Y014793D01*
X026832Y014714D01*
X026911Y014654D01*
X027002Y014616D01*
X027100Y014603D01*
X027198Y014616D01*
X027289Y014654D01*
X027368Y014714D01*
X027428Y014793D01*
X027466Y014884D01*
X027479Y014982D01*
X027466Y015080D01*
X027428Y015172D01*
X027368Y015250D01*
X027289Y015310D01*
X027198Y015348D01*
X027100Y015361D01*
X027002Y015348D01*
X026911Y015310D01*
X026832Y015250D01*
X026772Y015172D01*
X026734Y015080D01*
X026733Y015072D01*
X026683Y015075D01*
Y015874D01*
X026733Y015877D01*
X026734Y015868D01*
X026772Y015777D01*
X026832Y015699D01*
X026911Y015638D01*
X027002Y015601D01*
X027100Y015588D01*
X027198Y015601D01*
X027289Y015638D01*
X027368Y015699D01*
X027428Y015777D01*
X027466Y015868D01*
X027479Y015967D01*
X027466Y016065D01*
X027428Y016156D01*
X027368Y016234D01*
X027289Y016295D01*
X027198Y016332D01*
X027100Y016345D01*
X027002Y016332D01*
X026911Y016295D01*
X026832Y016234D01*
X026772Y016156D01*
X026734Y016065D01*
X026733Y016056D01*
X026683Y016059D01*
Y016858D01*
X026733Y016861D01*
X026734Y016853D01*
X026772Y016761D01*
X026832Y016683D01*
X026911Y016623D01*
X027002Y016585D01*
X027100Y016572D01*
X027198Y016585D01*
X027289Y016623D01*
X027368Y016683D01*
X027428Y016761D01*
X027466Y016853D01*
X027479Y016951D01*
X027466Y017049D01*
X027428Y017140D01*
X027368Y017219D01*
X027289Y017279D01*
X027198Y017317D01*
X027100Y017330D01*
X027002Y017317D01*
X026911Y017279D01*
X026832Y017219D01*
X026772Y017140D01*
X026734Y017049D01*
X026730Y017019D01*
X026679Y017017D01*
X026671Y017059D01*
X026638Y017108D01*
X026358Y017388D01*
X026309Y017421D01*
X026250Y017433D01*
X026091D01*
X026081Y017483D01*
X026139Y017507D01*
X026218Y017567D01*
X026278Y017646D01*
X026316Y017737D01*
X026329Y017835D01*
X026316Y017933D01*
X026278Y018024D01*
X026218Y018103D01*
X026139Y018163D01*
X026048Y018201D01*
X025950Y018214D01*
X025852Y018201D01*
X025761Y018163D01*
X025682Y018103D01*
X025622Y018024D01*
X025584Y017933D01*
X025571Y017835D01*
X025584Y017737D01*
X025622Y017646D01*
X025682Y017567D01*
X025761Y017507D01*
X025819Y017483D01*
X025809Y017433D01*
X025143D01*
X024703Y017873D01*
Y019317D01*
X024750Y019334D01*
X024765Y019315D01*
X024848Y019251D01*
X024946Y019210D01*
X025050Y019197D01*
X025154Y019210D01*
X025252Y019251D01*
X025335Y019315D01*
X025399Y019398D01*
X025440Y019496D01*
X025453Y019600D01*
X025440Y019704D01*
X025399Y019802D01*
X025335Y019885D01*
X025252Y019949D01*
X025154Y019990D01*
X025050Y020003D01*
X024946Y019990D01*
X024848Y019949D01*
X024765Y019885D01*
X024750Y019866D01*
X024703Y019883D01*
Y021267D01*
X024750Y021284D01*
X024765Y021265D01*
D02*
G37*
G36*
X020947Y031615D02*
Y031173D01*
X019992Y030218D01*
X019959Y030169D01*
X019947Y030110D01*
Y020800D01*
X019959Y020741D01*
X019992Y020692D01*
X020642Y020042D01*
X020691Y020009D01*
X020750Y019997D01*
X021165D01*
X021185Y019951D01*
X020742Y019508D01*
X020709Y019459D01*
X020697Y019400D01*
Y012131D01*
X020619Y012107D01*
X020515Y012051D01*
X020424Y011976D01*
X020349Y011885D01*
X020293Y011781D01*
X020259Y011668D01*
X020247Y011550D01*
X020259Y011432D01*
X020293Y011319D01*
X020349Y011215D01*
X020424Y011124D01*
X020515Y011049D01*
X020619Y010993D01*
X020732Y010959D01*
X020850Y010947D01*
X020968Y010959D01*
X021081Y010993D01*
X021185Y011049D01*
X021276Y011124D01*
X021351Y011215D01*
X021407Y011319D01*
X021441Y011432D01*
X021453Y011550D01*
X021441Y011668D01*
X021407Y011781D01*
X021351Y011885D01*
X021276Y011976D01*
X021185Y012051D01*
X021081Y012107D01*
X021003Y012131D01*
Y019337D01*
X021450Y019784D01*
X021497Y019765D01*
X021600Y019751D01*
X021703Y019765D01*
X021799Y019805D01*
X021882Y019868D01*
X021945Y019951D01*
X021985Y020047D01*
X021999Y020150D01*
X021996Y020171D01*
X022041Y020193D01*
X022097Y020137D01*
Y019965D01*
X022073Y019956D01*
X022000Y019900D01*
X021944Y019827D01*
X021909Y019741D01*
X021897Y019650D01*
X021909Y019559D01*
X021944Y019473D01*
X022000Y019400D01*
X022073Y019344D01*
X022159Y019309D01*
X022250Y019297D01*
X022341Y019309D01*
X022427Y019344D01*
X022492Y019394D01*
X022522Y019380D01*
X022535Y019367D01*
X022522Y019338D01*
X022517Y019300D01*
X022800D01*
Y019583D01*
X022762Y019578D01*
X022680Y019544D01*
X022620Y019497D01*
X022577Y019524D01*
X022591Y019559D01*
X022603Y019650D01*
X022591Y019741D01*
X022556Y019827D01*
X022500Y019900D01*
X022427Y019956D01*
X022403Y019965D01*
Y020200D01*
X022391Y020259D01*
X022358Y020308D01*
X021908Y020758D01*
X021861Y020789D01*
X021858Y020792D01*
X021850Y020844D01*
X021882Y020868D01*
X021910Y020904D01*
X021976Y020908D01*
X022529Y020354D01*
X022522Y020338D01*
X022511Y020250D01*
X022522Y020162D01*
X022556Y020080D01*
X022610Y020010D01*
X022680Y019956D01*
X022762Y019922D01*
X022850Y019911D01*
X022938Y019922D01*
X023020Y019956D01*
X023042Y019974D01*
X023087Y019952D01*
Y019703D01*
X022954Y019571D01*
X022938Y019578D01*
X022900Y019583D01*
Y019300D01*
X023183D01*
X023178Y019338D01*
X023171Y019354D01*
X023241Y019425D01*
X023287Y019405D01*
Y018095D01*
X023237Y018078D01*
X023218Y018103D01*
X023139Y018163D01*
X023048Y018201D01*
X022950Y018214D01*
X022852Y018201D01*
X022761Y018163D01*
X022723Y018134D01*
X022673Y018159D01*
Y018857D01*
X022746Y018929D01*
X022762Y018922D01*
X022800Y018917D01*
Y019200D01*
X022517D01*
X022522Y019162D01*
X022529Y019146D01*
X022412Y019028D01*
X022379Y018979D01*
X022367Y018920D01*
Y012610D01*
X022379Y012551D01*
X022412Y012502D01*
X022647Y012267D01*
Y012131D01*
X022569Y012107D01*
X022465Y012051D01*
X022374Y011976D01*
X022299Y011885D01*
X022253Y011799D01*
X022203Y011812D01*
Y014700D01*
X022191Y014759D01*
X022158Y014808D01*
X021966Y015000D01*
X021985Y015047D01*
X021999Y015150D01*
X021985Y015253D01*
X021945Y015349D01*
X021882Y015432D01*
X021799Y015495D01*
X021703Y015535D01*
X021600Y015549D01*
X021497Y015535D01*
X021401Y015495D01*
X021318Y015432D01*
X021255Y015349D01*
X021215Y015253D01*
X021201Y015150D01*
X021215Y015047D01*
X021255Y014951D01*
X021318Y014868D01*
X021401Y014805D01*
X021497Y014765D01*
X021600Y014751D01*
X021703Y014765D01*
X021750Y014784D01*
X021897Y014637D01*
Y014545D01*
X021205D01*
Y013755D01*
X021897D01*
Y011200D01*
X021909Y011141D01*
X021942Y011092D01*
X022231Y010803D01*
X022217Y010759D01*
X022212Y010753D01*
X018083D01*
X018003Y010833D01*
Y011136D01*
X018050Y011153D01*
X018074Y011124D01*
X018165Y011049D01*
X018269Y010993D01*
X018382Y010959D01*
X018500Y010947D01*
X018618Y010959D01*
X018731Y010993D01*
X018835Y011049D01*
X018926Y011124D01*
X019001Y011215D01*
X019057Y011319D01*
X019091Y011432D01*
X019103Y011550D01*
X019091Y011668D01*
X019057Y011781D01*
X019019Y011852D01*
X019353Y012187D01*
X019387Y012237D01*
X019398Y012295D01*
Y029205D01*
X019387Y029263D01*
X019353Y029313D01*
X019116Y029550D01*
X019135Y029597D01*
X019149Y029700D01*
X019135Y029803D01*
X019116Y029850D01*
X020901Y031635D01*
X020947Y031615D01*
D02*
G37*
G36*
X024373Y023744D02*
X024397Y023735D01*
Y017810D01*
X024409Y017751D01*
X024442Y017702D01*
X024972Y017172D01*
X025021Y017139D01*
X025080Y017127D01*
X025626D01*
X025650Y017077D01*
X025622Y017040D01*
X025584Y016949D01*
X025571Y016851D01*
X025584Y016753D01*
X025622Y016661D01*
X025682Y016583D01*
X025761Y016523D01*
X025852Y016485D01*
X025950Y016472D01*
X026048Y016485D01*
X026139Y016523D01*
X026218Y016583D01*
X026278Y016661D01*
X026316Y016753D01*
X026327Y016837D01*
X026377Y016834D01*
Y015883D01*
X026332Y015880D01*
X026329Y015880D01*
X026327Y015880D01*
X026327Y015880D01*
X026324Y015901D01*
Y015901D01*
X026316Y015965D01*
X026278Y016056D01*
X026218Y016134D01*
X026139Y016195D01*
X026048Y016232D01*
X025950Y016245D01*
X025852Y016232D01*
X025761Y016195D01*
X025682Y016134D01*
X025622Y016056D01*
X025584Y015965D01*
X025571Y015867D01*
X025584Y015768D01*
X025622Y015677D01*
X025682Y015599D01*
X025761Y015538D01*
X025852Y015501D01*
X025950Y015488D01*
X026048Y015501D01*
X026139Y015538D01*
X026218Y015599D01*
X026278Y015677D01*
X026316Y015768D01*
X026324Y015832D01*
Y015832D01*
X026327Y015853D01*
X026327Y015853D01*
X026329Y015853D01*
X026332Y015853D01*
X026377Y015850D01*
Y014967D01*
X026332Y014964D01*
X026329Y014964D01*
X026327Y014963D01*
X026327Y014963D01*
X026324Y014984D01*
Y014984D01*
X026316Y015048D01*
X026278Y015139D01*
X026218Y015218D01*
X026139Y015278D01*
X026048Y015316D01*
X025950Y015329D01*
X025852Y015316D01*
X025761Y015278D01*
X025682Y015218D01*
X025622Y015139D01*
X025584Y015048D01*
X025571Y014950D01*
X025584Y014852D01*
X025622Y014761D01*
X025682Y014682D01*
X025761Y014622D01*
X025852Y014584D01*
X025950Y014571D01*
X026048Y014584D01*
X026139Y014622D01*
X026218Y014682D01*
X026278Y014761D01*
X026316Y014852D01*
X026324Y014916D01*
Y014916D01*
X026327Y014937D01*
X026327Y014937D01*
X026329Y014936D01*
X026332Y014936D01*
X026377Y014933D01*
Y014017D01*
X026327Y014013D01*
X026316Y014098D01*
X026278Y014189D01*
X026218Y014268D01*
X026139Y014328D01*
X026048Y014366D01*
X025950Y014379D01*
X025852Y014366D01*
X025815Y014351D01*
X024303Y015863D01*
Y023742D01*
X024348Y023764D01*
X024373Y023744D01*
D02*
G37*
G36*
X017778Y018381D02*
X017802Y018367D01*
Y017868D01*
X017350Y017416D01*
X017303Y017435D01*
X017200Y017449D01*
X017097Y017435D01*
X017001Y017395D01*
X016918Y017332D01*
X016855Y017249D01*
X016815Y017153D01*
X016801Y017050D01*
X016815Y016947D01*
X016855Y016851D01*
X016918Y016768D01*
X017001Y016705D01*
X017047Y016686D01*
Y015883D01*
X017000Y015866D01*
X016985Y015885D01*
X016902Y015949D01*
X016804Y015990D01*
X016750Y015997D01*
Y015600D01*
X016650D01*
Y015997D01*
X016596Y015990D01*
X016498Y015949D01*
X016415Y015885D01*
X016400Y015866D01*
X016353Y015883D01*
Y016686D01*
X016399Y016705D01*
X016482Y016768D01*
X016545Y016851D01*
X016585Y016947D01*
X016599Y017050D01*
X016585Y017153D01*
X016566Y017200D01*
X017752Y018385D01*
X017778Y018381D01*
D02*
G37*
G36*
X026692Y029592D02*
X026741Y029559D01*
X026751Y029557D01*
X026800Y029547D01*
X026981D01*
Y029305D01*
X027732D01*
Y029305D01*
X027768D01*
Y029305D01*
X027991D01*
Y029045D01*
X027768D01*
Y029045D01*
X027732D01*
Y029045D01*
X026981D01*
X026981Y029045D01*
Y029045D01*
X026942Y029070D01*
X026353Y029659D01*
Y029865D01*
X026399Y029885D01*
X026692Y029592D01*
D02*
G37*
G36*
X024455Y033915D02*
X024455D01*
Y033879D01*
X024455D01*
Y033128D01*
X024718D01*
X024742Y033092D01*
X025492Y032342D01*
X025541Y032309D01*
X025600Y032297D01*
X025937D01*
X026047Y032187D01*
Y032083D01*
X025997Y032059D01*
X025949Y032095D01*
X025853Y032135D01*
X025750Y032149D01*
X025647Y032135D01*
X025551Y032095D01*
X025468Y032032D01*
X025405Y031949D01*
X025365Y031853D01*
X025351Y031750D01*
X025365Y031647D01*
X025384Y031600D01*
X024962Y031178D01*
X024929Y031129D01*
X024917Y031070D01*
Y024800D01*
X024929Y024741D01*
X024962Y024692D01*
X025252Y024402D01*
X025249Y024337D01*
X025232Y024324D01*
X025172Y024246D01*
X025134Y024154D01*
X025121Y024056D01*
X025134Y023958D01*
X025172Y023867D01*
X025232Y023788D01*
X025311Y023728D01*
X025347Y023713D01*
Y023149D01*
X025297Y023145D01*
X025291Y023191D01*
X025256Y023277D01*
X025200Y023350D01*
X025127Y023406D01*
X025041Y023441D01*
X024950Y023453D01*
X024859Y023441D01*
X024773Y023406D01*
X024748Y023386D01*
X024703Y023408D01*
Y023735D01*
X024727Y023744D01*
X024800Y023800D01*
X024856Y023873D01*
X024891Y023959D01*
X024903Y024050D01*
X024891Y024141D01*
X024856Y024227D01*
X024800Y024300D01*
X024727Y024356D01*
X024641Y024391D01*
X024550Y024403D01*
X024459Y024391D01*
X024373Y024356D01*
X024348Y024336D01*
X024303Y024358D01*
Y030050D01*
X024291Y030109D01*
X024258Y030158D01*
X024058Y030358D01*
X024009Y030391D01*
X023950Y030403D01*
X023029D01*
X023012Y030453D01*
X023032Y030468D01*
X023095Y030551D01*
X023135Y030647D01*
X023149Y030750D01*
X023135Y030853D01*
X023095Y030949D01*
X023032Y031032D01*
X022949Y031095D01*
X022853Y031135D01*
X022750Y031149D01*
X022647Y031135D01*
X022551Y031095D01*
X022468Y031032D01*
X022405Y030949D01*
X022365Y030853D01*
X022351Y030750D01*
X022365Y030647D01*
X022405Y030551D01*
X022468Y030468D01*
X022488Y030453D01*
X022471Y030403D01*
X022263D01*
X022116Y030550D01*
X022135Y030597D01*
X022149Y030700D01*
X022135Y030803D01*
X022095Y030899D01*
X022032Y030982D01*
X021949Y031045D01*
X021853Y031085D01*
X021750Y031099D01*
X021647Y031085D01*
X021551Y031045D01*
X021503Y031009D01*
X021453Y031033D01*
Y031367D01*
X021503Y031391D01*
X021551Y031355D01*
X021647Y031315D01*
X021750Y031301D01*
X021853Y031315D01*
X021949Y031355D01*
X022032Y031418D01*
X022095Y031501D01*
X022135Y031597D01*
X022149Y031700D01*
X022135Y031803D01*
X022095Y031899D01*
X022032Y031982D01*
X021949Y032045D01*
X021853Y032085D01*
X021750Y032099D01*
X021647Y032085D01*
X021551Y032045D01*
X021503Y032009D01*
X021453Y032033D01*
Y032137D01*
X023454Y034138D01*
X024455D01*
Y033915D01*
D02*
G37*
G36*
X032297Y035778D02*
Y032913D01*
X031142Y031758D01*
X031109Y031709D01*
X031097Y031650D01*
Y031479D01*
X031047Y031462D01*
X031032Y031482D01*
X030949Y031545D01*
X030853Y031585D01*
X030750Y031599D01*
X030647Y031585D01*
X030551Y031545D01*
X030468Y031482D01*
X030405Y031399D01*
X030365Y031303D01*
X030351Y031200D01*
X030365Y031097D01*
X030405Y031001D01*
X030468Y030918D01*
X030551Y030855D01*
X030647Y030815D01*
X030750Y030801D01*
X030853Y030815D01*
X030949Y030855D01*
X031032Y030918D01*
X031047Y030938D01*
X031097Y030921D01*
Y030479D01*
X031047Y030462D01*
X031032Y030482D01*
X030949Y030545D01*
X030853Y030585D01*
X030750Y030599D01*
X030647Y030585D01*
X030551Y030545D01*
X030468Y030482D01*
X030405Y030399D01*
X030365Y030303D01*
X030351Y030200D01*
X030365Y030097D01*
X030405Y030001D01*
X030468Y029918D01*
X030551Y029855D01*
X030647Y029815D01*
X030750Y029801D01*
X030853Y029815D01*
X030949Y029855D01*
X031032Y029918D01*
X031047Y029938D01*
X031097Y029921D01*
Y029479D01*
X031047Y029462D01*
X031032Y029482D01*
X030949Y029545D01*
X030853Y029585D01*
X030750Y029599D01*
X030647Y029585D01*
X030551Y029545D01*
X030468Y029482D01*
X030405Y029399D01*
X030365Y029303D01*
X030351Y029200D01*
X030365Y029097D01*
X030405Y029001D01*
X030468Y028918D01*
X030551Y028855D01*
X030647Y028815D01*
X030750Y028801D01*
X030853Y028815D01*
X030949Y028855D01*
X031032Y028918D01*
X031047Y028938D01*
X031097Y028921D01*
Y028479D01*
X031047Y028462D01*
X031032Y028482D01*
X030949Y028545D01*
X030853Y028585D01*
X030750Y028599D01*
X030647Y028585D01*
X030551Y028545D01*
X030468Y028482D01*
X030405Y028399D01*
X030365Y028303D01*
X030351Y028200D01*
X030365Y028097D01*
X030405Y028001D01*
X030468Y027918D01*
X030547Y027857D01*
Y027543D01*
X030468Y027482D01*
X030405Y027399D01*
X030365Y027303D01*
X030351Y027200D01*
X030365Y027097D01*
X030405Y027001D01*
X030468Y026918D01*
X030551Y026855D01*
X030647Y026815D01*
X030750Y026801D01*
X030853Y026815D01*
X030949Y026855D01*
X031032Y026918D01*
X031047Y026938D01*
X031097Y026921D01*
Y026479D01*
X031047Y026462D01*
X031032Y026482D01*
X030949Y026545D01*
X030853Y026585D01*
X030750Y026599D01*
X030647Y026585D01*
X030551Y026545D01*
X030468Y026482D01*
X030405Y026399D01*
X030365Y026303D01*
X030351Y026200D01*
X030365Y026097D01*
X030405Y026001D01*
X030468Y025918D01*
X030551Y025855D01*
X030647Y025815D01*
X030750Y025801D01*
X030853Y025815D01*
X030949Y025855D01*
X031032Y025918D01*
X031047Y025938D01*
X031097Y025921D01*
Y025479D01*
X031047Y025462D01*
X031032Y025482D01*
X030949Y025545D01*
X030853Y025585D01*
X030750Y025599D01*
X030647Y025585D01*
X030565Y025551D01*
X028813Y027303D01*
Y035856D01*
X028801Y035914D01*
X028768Y035964D01*
X028524Y036208D01*
X028474Y036241D01*
X028416Y036253D01*
X028084D01*
X028036Y036243D01*
X028026Y036241D01*
X027976Y036208D01*
X027742Y035974D01*
X027709Y035924D01*
X027697Y035866D01*
Y035693D01*
X026942Y034938D01*
X026909Y034889D01*
X026897Y034830D01*
Y034795D01*
X026851Y034775D01*
X026602Y035024D01*
X026552Y035057D01*
X026494Y035069D01*
X021766D01*
X021708Y035057D01*
X021658Y035024D01*
X020792Y034158D01*
X020759Y034109D01*
X020747Y034050D01*
Y031913D01*
X018900Y030066D01*
X018853Y030085D01*
X018750Y030099D01*
X018647Y030085D01*
X018551Y030045D01*
X018468Y029982D01*
X018405Y029899D01*
X018365Y029803D01*
X018351Y029700D01*
X018365Y029597D01*
X018405Y029501D01*
X018468Y029418D01*
X018551Y029355D01*
X018647Y029315D01*
X018750Y029301D01*
X018853Y029315D01*
X018900Y029334D01*
X019092Y029141D01*
Y028981D01*
X019045Y028965D01*
X019032Y028982D01*
X018949Y029045D01*
X018853Y029085D01*
X018750Y029099D01*
X018647Y029085D01*
X018551Y029045D01*
X018468Y028982D01*
X018405Y028899D01*
X018365Y028803D01*
X018351Y028700D01*
X018365Y028597D01*
X018405Y028501D01*
X018468Y028418D01*
X018551Y028355D01*
X018647Y028315D01*
X018750Y028301D01*
X018853Y028315D01*
X018949Y028355D01*
X019032Y028418D01*
X019045Y028435D01*
X019092Y028419D01*
Y012359D01*
X018802Y012069D01*
X018731Y012107D01*
X018618Y012141D01*
X018500Y012153D01*
X018382Y012141D01*
X018269Y012107D01*
X018165Y012051D01*
X018074Y011976D01*
X018050Y011947D01*
X018003Y011964D01*
Y017337D01*
X018263Y017597D01*
X018296Y017646D01*
X018308Y017705D01*
Y017813D01*
X018358Y017838D01*
X018401Y017805D01*
X018497Y017765D01*
X018600Y017751D01*
X018703Y017765D01*
X018799Y017805D01*
X018882Y017868D01*
X018945Y017951D01*
X018985Y018047D01*
X018999Y018150D01*
X018985Y018253D01*
X018945Y018349D01*
X018882Y018432D01*
X018799Y018495D01*
X018703Y018535D01*
X018600Y018549D01*
X018497Y018535D01*
X018401Y018495D01*
X018358Y018462D01*
X018308Y018487D01*
Y018813D01*
X018358Y018838D01*
X018401Y018805D01*
X018497Y018765D01*
X018600Y018751D01*
X018703Y018765D01*
X018799Y018805D01*
X018882Y018868D01*
X018945Y018951D01*
X018985Y019047D01*
X018999Y019150D01*
X018985Y019253D01*
X018945Y019349D01*
X018882Y019432D01*
X018799Y019495D01*
X018703Y019535D01*
X018600Y019549D01*
X018497Y019535D01*
X018401Y019495D01*
X018358Y019462D01*
X018308Y019487D01*
Y019813D01*
X018358Y019838D01*
X018401Y019805D01*
X018497Y019765D01*
X018550Y019758D01*
Y020150D01*
Y020542D01*
X018497Y020535D01*
X018401Y020495D01*
X018358Y020462D01*
X018308Y020487D01*
Y020813D01*
X018358Y020838D01*
X018401Y020805D01*
X018497Y020765D01*
X018600Y020751D01*
X018703Y020765D01*
X018799Y020805D01*
X018882Y020868D01*
X018945Y020951D01*
X018985Y021047D01*
X018999Y021150D01*
X018985Y021253D01*
X018945Y021349D01*
X018882Y021432D01*
X018799Y021495D01*
X018703Y021535D01*
X018600Y021549D01*
X018497Y021535D01*
X018401Y021495D01*
X018358Y021462D01*
X018308Y021487D01*
Y021813D01*
X018358Y021838D01*
X018401Y021805D01*
X018497Y021765D01*
X018600Y021751D01*
X018703Y021765D01*
X018799Y021805D01*
X018882Y021868D01*
X018945Y021951D01*
X018985Y022047D01*
X018999Y022150D01*
X018985Y022253D01*
X018945Y022349D01*
X018882Y022432D01*
X018799Y022495D01*
X018703Y022535D01*
X018600Y022549D01*
X018497Y022535D01*
X018401Y022495D01*
X018358Y022462D01*
X018308Y022487D01*
Y022813D01*
X018358Y022838D01*
X018401Y022805D01*
X018497Y022765D01*
X018600Y022751D01*
X018703Y022765D01*
X018799Y022805D01*
X018882Y022868D01*
X018945Y022951D01*
X018985Y023047D01*
X018999Y023150D01*
X018985Y023253D01*
X018945Y023349D01*
X018882Y023432D01*
X018799Y023495D01*
X018703Y023535D01*
X018600Y023549D01*
X018497Y023535D01*
X018401Y023495D01*
X018358Y023462D01*
X018308Y023487D01*
Y023813D01*
X018358Y023838D01*
X018401Y023805D01*
X018497Y023765D01*
X018600Y023751D01*
X018703Y023765D01*
X018799Y023805D01*
X018882Y023868D01*
X018945Y023951D01*
X018985Y024047D01*
X018999Y024150D01*
X018985Y024253D01*
X018945Y024349D01*
X018882Y024432D01*
X018799Y024495D01*
X018703Y024535D01*
X018614Y024547D01*
X018590Y024594D01*
X018708Y024712D01*
X018741Y024761D01*
X018745Y024782D01*
X018799Y024805D01*
X018882Y024868D01*
X018945Y024951D01*
X018985Y025047D01*
X018999Y025150D01*
X018985Y025253D01*
X018945Y025349D01*
X018882Y025432D01*
X018799Y025495D01*
X018703Y025535D01*
X018600Y025549D01*
X018497Y025535D01*
X018401Y025495D01*
X018318Y025432D01*
X018255Y025349D01*
X018243Y025321D01*
X018193Y025331D01*
Y025969D01*
X018243Y025979D01*
X018255Y025951D01*
X018318Y025868D01*
X018401Y025805D01*
X018497Y025765D01*
X018600Y025751D01*
X018703Y025765D01*
X018799Y025805D01*
X018882Y025868D01*
X018945Y025951D01*
X018985Y026047D01*
X018999Y026150D01*
X018985Y026253D01*
X018945Y026349D01*
X018882Y026432D01*
X018799Y026495D01*
X018703Y026535D01*
X018600Y026549D01*
X018497Y026535D01*
X018401Y026495D01*
X018318Y026432D01*
X018255Y026349D01*
X018243Y026321D01*
X018193Y026331D01*
Y026969D01*
X018243Y026979D01*
X018255Y026951D01*
X018318Y026868D01*
X018401Y026805D01*
X018497Y026765D01*
X018600Y026751D01*
X018703Y026765D01*
X018799Y026805D01*
X018882Y026868D01*
X018945Y026951D01*
X018985Y027047D01*
X018999Y027150D01*
X018985Y027253D01*
X018945Y027349D01*
X018882Y027432D01*
X018799Y027495D01*
X018703Y027535D01*
X018600Y027549D01*
X018497Y027535D01*
X018401Y027495D01*
X018318Y027432D01*
X018255Y027349D01*
X018243Y027321D01*
X018193Y027331D01*
Y027650D01*
X018181Y027709D01*
X018148Y027758D01*
X017648Y028259D01*
X017667Y028305D01*
X018195D01*
Y029095D01*
X017503D01*
Y029367D01*
X017553Y029391D01*
X017601Y029355D01*
X017697Y029315D01*
X017800Y029301D01*
X017903Y029315D01*
X017999Y029355D01*
X018082Y029418D01*
X018145Y029501D01*
X018185Y029597D01*
X018199Y029700D01*
X018185Y029803D01*
X018166Y029850D01*
X018358Y030042D01*
X018391Y030091D01*
X018403Y030150D01*
Y030421D01*
X018453Y030438D01*
X018468Y030418D01*
X018551Y030355D01*
X018647Y030315D01*
X018750Y030301D01*
X018853Y030315D01*
X018949Y030355D01*
X019032Y030418D01*
X019095Y030501D01*
X019135Y030597D01*
X019149Y030700D01*
X019135Y030803D01*
X019095Y030899D01*
X019032Y030982D01*
X018949Y031045D01*
X018853Y031085D01*
X018750Y031099D01*
X018647Y031085D01*
X018551Y031045D01*
X018468Y030982D01*
X018453Y030962D01*
X018403Y030979D01*
Y031421D01*
X018453Y031438D01*
X018468Y031418D01*
X018551Y031355D01*
X018647Y031315D01*
X018750Y031301D01*
X018853Y031315D01*
X018949Y031355D01*
X019032Y031418D01*
X019095Y031501D01*
X019135Y031597D01*
X019149Y031700D01*
X019135Y031803D01*
X019095Y031899D01*
X019032Y031982D01*
X018949Y032045D01*
X018853Y032085D01*
X018750Y032099D01*
X018647Y032085D01*
X018551Y032045D01*
X018468Y031982D01*
X018444Y031950D01*
X018422Y031950D01*
X018393Y031958D01*
X018389Y031961D01*
X018358Y032008D01*
X018108Y032258D01*
X018059Y032291D01*
X018000Y032303D01*
X017350D01*
X017291Y032291D01*
X017242Y032258D01*
X017042Y032058D01*
X017009Y032009D01*
X016997Y031950D01*
Y027150D01*
X017009Y027091D01*
X017042Y027042D01*
X017329Y026754D01*
X017322Y026738D01*
X017311Y026650D01*
X017322Y026562D01*
X017356Y026480D01*
X017410Y026410D01*
X017480Y026356D01*
X017562Y026322D01*
X017650Y026311D01*
X017738Y026322D01*
X017820Y026356D01*
X017842Y026374D01*
X017887Y026352D01*
Y025948D01*
X017842Y025926D01*
X017820Y025944D01*
X017738Y025978D01*
X017650Y025989D01*
X017562Y025978D01*
X017480Y025944D01*
X017410Y025890D01*
X017356Y025820D01*
X017322Y025738D01*
X017311Y025650D01*
X017322Y025562D01*
X017356Y025480D01*
X017410Y025410D01*
X017480Y025356D01*
X017562Y025322D01*
X017650Y025311D01*
X017738Y025322D01*
X017820Y025356D01*
X017842Y025374D01*
X017887Y025352D01*
Y024859D01*
X017847Y024818D01*
X017813Y024769D01*
X017802Y024710D01*
Y022443D01*
X017778Y022429D01*
X017752Y022425D01*
X017511Y022665D01*
X017521Y022689D01*
X017533Y022780D01*
X017521Y022871D01*
X017486Y022957D01*
X017430Y023030D01*
X017357Y023086D01*
X017271Y023121D01*
X017180Y023133D01*
X017089Y023121D01*
X017003Y023086D01*
X016930Y023030D01*
X016874Y022957D01*
X016839Y022871D01*
X016827Y022780D01*
X016839Y022689D01*
X016874Y022603D01*
X016930Y022530D01*
X017003Y022474D01*
X017089Y022439D01*
X017180Y022427D01*
X017271Y022439D01*
X017295Y022449D01*
X017497Y022247D01*
Y020383D01*
X017447Y020359D01*
X017399Y020395D01*
X017303Y020435D01*
X017200Y020449D01*
X017097Y020435D01*
X017001Y020395D01*
X016953Y020359D01*
X016903Y020383D01*
Y021237D01*
X016946Y021279D01*
X016962Y021272D01*
X017050Y021261D01*
X017138Y021272D01*
X017220Y021306D01*
X017290Y021360D01*
X017344Y021430D01*
X017378Y021512D01*
X017389Y021600D01*
X017378Y021688D01*
X017344Y021770D01*
X017290Y021840D01*
X017220Y021894D01*
X017138Y021928D01*
X017050Y021939D01*
X016962Y021928D01*
X016880Y021894D01*
X016810Y021840D01*
X016756Y021770D01*
X016722Y021688D01*
X016711Y021600D01*
X016722Y021512D01*
X016729Y021496D01*
X016642Y021408D01*
X016609Y021359D01*
X016597Y021300D01*
Y020255D01*
X016547Y020245D01*
X016545Y020249D01*
X016482Y020332D01*
X016399Y020395D01*
X016303Y020435D01*
X016200Y020449D01*
X016097Y020435D01*
X016001Y020395D01*
X015918Y020332D01*
X015855Y020249D01*
X015853Y020245D01*
X015803Y020255D01*
Y032465D01*
X015849Y032485D01*
X016637Y031697D01*
Y026616D01*
X015919D01*
Y025884D01*
X016637D01*
Y023860D01*
X016649Y023801D01*
X016682Y023752D01*
X016729Y023704D01*
X016722Y023688D01*
X016717Y023650D01*
X017000D01*
Y023933D01*
X016993Y023932D01*
X016945Y023968D01*
X016943Y023974D01*
Y031760D01*
X016933Y031809D01*
X016931Y031819D01*
X016898Y031868D01*
X015758Y033008D01*
X014969Y033798D01*
X015007Y033869D01*
X015041Y033982D01*
X015048Y034050D01*
X014500D01*
Y033502D01*
X014568Y033509D01*
X014681Y033543D01*
X014752Y033581D01*
X015497Y032837D01*
Y029285D01*
X015451Y029265D01*
X015166Y029550D01*
X015185Y029597D01*
X015199Y029700D01*
X015185Y029803D01*
X015145Y029899D01*
X015082Y029982D01*
X014999Y030045D01*
X014903Y030085D01*
X014800Y030099D01*
X014697Y030085D01*
X014601Y030045D01*
X014518Y029982D01*
X014455Y029899D01*
X014415Y029803D01*
X014401Y029700D01*
X014415Y029597D01*
X014455Y029501D01*
X014518Y029418D01*
X014601Y029355D01*
X014697Y029315D01*
X014800Y029301D01*
X014903Y029315D01*
X014950Y029334D01*
X015247Y029037D01*
Y028716D01*
X015202Y028713D01*
X015199Y028712D01*
X015197Y028712D01*
X015197Y028712D01*
X015194Y028735D01*
Y028735D01*
X015185Y028803D01*
X015145Y028899D01*
X015082Y028982D01*
X014999Y029045D01*
X014903Y029085D01*
X014800Y029099D01*
X014697Y029085D01*
X014601Y029045D01*
X014518Y028982D01*
X014455Y028899D01*
X014415Y028803D01*
X014401Y028700D01*
X014415Y028597D01*
X014455Y028501D01*
X014518Y028418D01*
X014601Y028355D01*
X014697Y028315D01*
X014800Y028301D01*
X014903Y028315D01*
X014999Y028355D01*
X015082Y028418D01*
X015145Y028501D01*
X015185Y028597D01*
X015194Y028665D01*
Y028665D01*
X015197Y028688D01*
X015197Y028688D01*
X015199Y028688D01*
X015202Y028687D01*
X015247Y028684D01*
Y024104D01*
X015197Y024094D01*
X015178Y024139D01*
X015118Y024218D01*
X015039Y024278D01*
X014948Y024316D01*
X014850Y024329D01*
X014752Y024316D01*
X014661Y024278D01*
X014582Y024218D01*
X014522Y024139D01*
X014484Y024048D01*
X014471Y023950D01*
X014484Y023852D01*
X014522Y023761D01*
X014582Y023682D01*
X014661Y023622D01*
X014752Y023584D01*
X014850Y023571D01*
X014948Y023584D01*
X015039Y023622D01*
X015118Y023682D01*
X015178Y023761D01*
X015197Y023806D01*
X015247Y023796D01*
Y021104D01*
X015197Y021094D01*
X015178Y021139D01*
X015118Y021218D01*
X015039Y021278D01*
X014948Y021316D01*
X014900Y021322D01*
Y020950D01*
X014850D01*
Y020900D01*
X014478D01*
X014484Y020852D01*
X014497Y020821D01*
Y020383D01*
X014447Y020359D01*
X014399Y020395D01*
X014303Y020435D01*
X014200Y020449D01*
X014097Y020435D01*
X014001Y020395D01*
X013918Y020332D01*
X013855Y020249D01*
X013815Y020153D01*
X013801Y020050D01*
X013815Y019947D01*
X013855Y019851D01*
X013918Y019768D01*
X014001Y019705D01*
X014097Y019665D01*
X014200Y019651D01*
X014303Y019665D01*
X014399Y019705D01*
X014456Y019748D01*
X014475Y019746D01*
X014515Y019732D01*
X014542Y019692D01*
X014742Y019492D01*
X014791Y019459D01*
X014850Y019447D01*
X015450D01*
X015509Y019459D01*
X015558Y019492D01*
X015758Y019692D01*
X015791Y019741D01*
X015803Y019800D01*
Y019845D01*
X015853Y019855D01*
X015855Y019851D01*
X015918Y019768D01*
X016001Y019705D01*
X016097Y019665D01*
X016200Y019651D01*
X016303Y019665D01*
X016399Y019705D01*
X016482Y019768D01*
X016545Y019851D01*
X016547Y019855D01*
X016597Y019845D01*
Y019465D01*
X016573Y019456D01*
X016500Y019400D01*
X016444Y019327D01*
X016409Y019241D01*
X016397Y019150D01*
X016409Y019059D01*
X016444Y018973D01*
X016500Y018900D01*
X016573Y018844D01*
X016659Y018809D01*
X016750Y018797D01*
X016841Y018809D01*
X016927Y018844D01*
X017000Y018900D01*
X017056Y018973D01*
X017091Y019059D01*
X017103Y019150D01*
X017091Y019241D01*
X017056Y019327D01*
X017000Y019400D01*
X016927Y019456D01*
X016903Y019465D01*
Y019717D01*
X016953Y019741D01*
X017001Y019705D01*
X017097Y019665D01*
X017200Y019651D01*
X017303Y019665D01*
X017399Y019705D01*
X017447Y019741D01*
X017497Y019717D01*
Y018563D01*
X016350Y017416D01*
X016303Y017435D01*
X016200Y017449D01*
X016097Y017435D01*
X016001Y017395D01*
X015918Y017332D01*
X015855Y017249D01*
X015815Y017153D01*
X015801Y017050D01*
X015815Y016947D01*
X015855Y016851D01*
X015918Y016768D01*
X016001Y016705D01*
X016047Y016686D01*
Y015883D01*
X016000Y015866D01*
X015985Y015885D01*
X015902Y015949D01*
X015804Y015990D01*
X015700Y016003D01*
X015596Y015990D01*
X015547Y015970D01*
X015353Y016163D01*
Y016686D01*
X015399Y016705D01*
X015482Y016768D01*
X015545Y016851D01*
X015585Y016947D01*
X015599Y017050D01*
X015585Y017153D01*
X015545Y017249D01*
X015482Y017332D01*
X015399Y017395D01*
X015303Y017435D01*
X015200Y017449D01*
X015097Y017435D01*
X015001Y017395D01*
X014918Y017332D01*
X014855Y017249D01*
X014815Y017153D01*
X014801Y017050D01*
X014815Y016947D01*
X014855Y016851D01*
X014918Y016768D01*
X015001Y016705D01*
X015047Y016686D01*
Y016100D01*
X015059Y016041D01*
X015092Y015992D01*
X015330Y015753D01*
X015310Y015704D01*
X015297Y015600D01*
X015310Y015496D01*
X015351Y015398D01*
X015415Y015315D01*
X015498Y015251D01*
X015547Y015230D01*
Y014970D01*
X015498Y014949D01*
X015415Y014885D01*
X015351Y014802D01*
X015310Y014704D01*
X015297Y014600D01*
X015310Y014496D01*
X015351Y014398D01*
X015415Y014315D01*
X015498Y014251D01*
X015596Y014210D01*
X015700Y014197D01*
X015804Y014210D01*
X015902Y014251D01*
X015985Y014315D01*
X016000Y014334D01*
X016047Y014317D01*
Y013663D01*
X014452Y012069D01*
X014381Y012107D01*
X014268Y012141D01*
X014150Y012153D01*
X014032Y012141D01*
X013919Y012107D01*
X013815Y012051D01*
X013724Y011976D01*
X013649Y011885D01*
X013593Y011781D01*
X013559Y011668D01*
X013547Y011550D01*
X013559Y011432D01*
X013593Y011319D01*
X013649Y011215D01*
X013724Y011124D01*
X013815Y011049D01*
X013919Y010993D01*
X014032Y010959D01*
X014150Y010947D01*
X014268Y010959D01*
X014381Y010993D01*
X014485Y011049D01*
X014576Y011124D01*
X014651Y011215D01*
X014707Y011319D01*
X014741Y011432D01*
X014753Y011550D01*
X014741Y011668D01*
X014707Y011781D01*
X014669Y011852D01*
X016308Y013492D01*
X016341Y013541D01*
X016353Y013600D01*
Y014317D01*
X016400Y014334D01*
X016415Y014315D01*
X016498Y014251D01*
X016596Y014210D01*
X016650Y014203D01*
Y014600D01*
X016750D01*
Y014203D01*
X016804Y014210D01*
X016902Y014251D01*
X016985Y014315D01*
X017000Y014334D01*
X017047Y014317D01*
Y012263D01*
X016852Y012069D01*
X016781Y012107D01*
X016668Y012141D01*
X016550Y012153D01*
X016432Y012141D01*
X016319Y012107D01*
X016215Y012051D01*
X016124Y011976D01*
X016049Y011885D01*
X015993Y011781D01*
X015959Y011668D01*
X015947Y011550D01*
X015959Y011432D01*
X015993Y011319D01*
X016049Y011215D01*
X016124Y011124D01*
X016215Y011049D01*
X016319Y010993D01*
X016432Y010959D01*
X016550Y010947D01*
X016668Y010959D01*
X016781Y010993D01*
X016885Y011049D01*
X016976Y011124D01*
X017051Y011215D01*
X017107Y011319D01*
X017141Y011432D01*
X017153Y011550D01*
X017141Y011668D01*
X017107Y011781D01*
X017069Y011852D01*
X017308Y012092D01*
X017341Y012141D01*
X017353Y012200D01*
Y016686D01*
X017399Y016705D01*
X017482Y016768D01*
X017545Y016851D01*
X017585Y016947D01*
X017599Y017050D01*
X017585Y017153D01*
X017566Y017200D01*
X017651Y017285D01*
X017697Y017265D01*
Y010770D01*
X017709Y010711D01*
X017742Y010662D01*
X017901Y010503D01*
X017887Y010459D01*
X017882Y010453D01*
X009913D01*
X008828Y011538D01*
Y014415D01*
X010407Y015995D01*
X010441Y016044D01*
X010452Y016103D01*
Y026155D01*
X010502Y026159D01*
X010509Y026105D01*
X010546Y026016D01*
X010605Y025939D01*
X010681Y025881D01*
X010770Y025844D01*
X010866Y025831D01*
X010897Y025804D01*
Y024293D01*
X010861Y024278D01*
X010782Y024218D01*
X010722Y024139D01*
X010684Y024048D01*
X010671Y023950D01*
X010684Y023852D01*
X010722Y023761D01*
X010782Y023682D01*
X010861Y023622D01*
X010952Y023584D01*
X011050Y023571D01*
X011148Y023584D01*
X011239Y023622D01*
X011318Y023682D01*
X011378Y023761D01*
X011416Y023852D01*
X011429Y023950D01*
X011416Y024048D01*
X011378Y024139D01*
X011318Y024218D01*
X011239Y024278D01*
X011203Y024293D01*
Y026016D01*
X011197Y026045D01*
X011222Y026105D01*
X011235Y026200D01*
X011222Y026295D01*
X011185Y026384D01*
X011127Y026461D01*
X011050Y026519D01*
X010961Y026556D01*
X010866Y026569D01*
X010770Y026556D01*
X010681Y026519D01*
X010605Y026461D01*
X010546Y026384D01*
X010509Y026295D01*
X010502Y026241D01*
X010452Y026245D01*
Y028497D01*
X010502Y028507D01*
X010505Y028501D01*
X010568Y028418D01*
X010651Y028355D01*
X010747Y028315D01*
X010850Y028301D01*
X010953Y028315D01*
X011049Y028355D01*
X011132Y028418D01*
X011195Y028501D01*
X011235Y028597D01*
X011249Y028700D01*
X011235Y028803D01*
X011195Y028899D01*
X011132Y028982D01*
X011049Y029045D01*
X010953Y029085D01*
X010850Y029099D01*
X010747Y029085D01*
X010651Y029045D01*
X010568Y028982D01*
X010505Y028899D01*
X010502Y028893D01*
X010452Y028903D01*
Y029497D01*
X010502Y029507D01*
X010505Y029501D01*
X010568Y029418D01*
X010651Y029355D01*
X010747Y029315D01*
X010850Y029301D01*
X010953Y029315D01*
X011049Y029355D01*
X011132Y029418D01*
X011195Y029501D01*
X011235Y029597D01*
X011249Y029700D01*
X011235Y029803D01*
X011195Y029899D01*
X011132Y029982D01*
X011049Y030045D01*
X010953Y030085D01*
X010850Y030099D01*
X010747Y030085D01*
X010651Y030045D01*
X010568Y029982D01*
X010505Y029899D01*
X010502Y029893D01*
X010452Y029903D01*
Y030497D01*
X010502Y030507D01*
X010505Y030501D01*
X010568Y030418D01*
X010651Y030355D01*
X010747Y030315D01*
X010850Y030301D01*
X010953Y030315D01*
X011049Y030355D01*
X011132Y030418D01*
X011195Y030501D01*
X011235Y030597D01*
X011249Y030700D01*
X011235Y030803D01*
X011195Y030899D01*
X011132Y030982D01*
X011049Y031045D01*
X010953Y031085D01*
X010850Y031099D01*
X010747Y031085D01*
X010651Y031045D01*
X010568Y030982D01*
X010505Y030899D01*
X010502Y030893D01*
X010452Y030903D01*
Y031501D01*
X010501Y031509D01*
X010505Y031501D01*
X010568Y031418D01*
X010651Y031355D01*
X010747Y031315D01*
X010850Y031301D01*
X010953Y031315D01*
X011049Y031355D01*
X011132Y031418D01*
X011195Y031501D01*
X011235Y031597D01*
X011249Y031700D01*
X011235Y031803D01*
X011195Y031899D01*
X011132Y031982D01*
X011049Y032045D01*
X010953Y032085D01*
X010850Y032099D01*
X010747Y032085D01*
X010651Y032045D01*
X010568Y031982D01*
X010505Y031899D01*
X010465Y031803D01*
X010451Y031700D01*
X010462Y031617D01*
X010414Y031599D01*
X010407Y031609D01*
X009153Y032863D01*
Y035637D01*
X010413Y036897D01*
X013237D01*
X014442Y035692D01*
X014491Y035659D01*
X014550Y035647D01*
X026950D01*
X027009Y035659D01*
X027058Y035692D01*
X028263Y036897D01*
X031178D01*
X032297Y035778D01*
D02*
G37*
G36*
X028507Y032195D02*
X028194D01*
Y031800D01*
X028094D01*
Y032195D01*
X027768D01*
Y032195D01*
X027732D01*
Y032195D01*
X027515D01*
X027512Y032245D01*
X028258Y032992D01*
X028291Y033041D01*
X028303Y033100D01*
Y033131D01*
X028507D01*
Y032195D01*
D02*
G37*
G36*
X027974Y035485D02*
X028000Y035450D01*
X028073Y035394D01*
X028097Y035385D01*
Y034669D01*
X027755D01*
Y033918D01*
X027755D01*
Y033882D01*
X027755D01*
Y033131D01*
X027899D01*
X027918Y033085D01*
X027248Y032414D01*
X027215Y032365D01*
X027203Y032306D01*
Y032195D01*
X027053D01*
Y032537D01*
X027158Y032642D01*
X027191Y032691D01*
X027203Y032750D01*
Y033131D01*
X027445D01*
Y033882D01*
X027445D01*
Y033918D01*
X027445D01*
Y034669D01*
X027203D01*
Y034767D01*
X027924Y035488D01*
X027974Y035485D01*
D02*
G37*
G36*
X022271Y034717D02*
X021099Y033545D01*
X021053Y033565D01*
Y033987D01*
X021830Y034763D01*
X022252D01*
X022271Y034717D01*
D02*
G37*
G36*
X025555Y033918D02*
X025555D01*
Y033882D01*
X025555D01*
Y033131D01*
X025797D01*
Y032783D01*
X025809Y032724D01*
X025842Y032675D01*
X025867Y032649D01*
X025848Y032603D01*
X025663D01*
X025185Y033081D01*
X025204Y033128D01*
X025245D01*
Y033879D01*
X025245D01*
Y033915D01*
X025245D01*
Y034563D01*
X025555D01*
Y033918D01*
D02*
G37*
G36*
X024455Y034444D02*
X023391D01*
X023332Y034432D01*
X023282Y034399D01*
X021299Y032415D01*
X021253Y032435D01*
Y033267D01*
X022550Y034563D01*
X024455D01*
Y034444D01*
D02*
G37*
G36*
X026047Y031417D02*
Y031083D01*
X025997Y031059D01*
X025949Y031095D01*
X025853Y031135D01*
X025750Y031149D01*
X025647Y031135D01*
X025551Y031095D01*
X025468Y031032D01*
X025405Y030949D01*
X025365Y030853D01*
X025351Y030750D01*
X025365Y030647D01*
X025384Y030600D01*
X025269Y030485D01*
X025223Y030505D01*
Y031007D01*
X025600Y031384D01*
X025647Y031365D01*
X025750Y031351D01*
X025853Y031365D01*
X025949Y031405D01*
X025997Y031441D01*
X026047Y031417D01*
D02*
G37*
G36*
X026655Y034539D02*
Y033918D01*
X026655D01*
Y033882D01*
X026655D01*
Y033131D01*
X026897D01*
Y032813D01*
X026792Y032708D01*
X026759Y032659D01*
X026747Y032600D01*
Y030850D01*
X026759Y030791D01*
X026792Y030742D01*
X026892Y030642D01*
X026941Y030609D01*
X026981Y030601D01*
Y030355D01*
X027732D01*
Y030355D01*
X027768D01*
Y030355D01*
X027991D01*
Y030095D01*
X027768D01*
Y030095D01*
X027732D01*
Y030095D01*
X026981D01*
Y029853D01*
X026863D01*
X026553Y030163D01*
Y032333D01*
X026541Y032391D01*
X026508Y032441D01*
X026103Y032846D01*
Y033131D01*
X026345D01*
Y033882D01*
X026345D01*
Y033918D01*
X026345D01*
Y034669D01*
X025947D01*
X025899Y034717D01*
X025918Y034763D01*
X026430D01*
X026655Y034539D01*
D02*
G37*
%LPC*%
G36*
X025592Y011050D02*
X025250D01*
Y010708D01*
X025303Y010715D01*
X025399Y010755D01*
X025482Y010818D01*
X025545Y010901D01*
X025585Y010997D01*
X025592Y011050D01*
D02*
G37*
G36*
X018600Y015549D02*
X018497Y015535D01*
X018401Y015495D01*
X018318Y015432D01*
X018255Y015349D01*
X018215Y015253D01*
X018201Y015150D01*
X018215Y015047D01*
X018255Y014951D01*
X018318Y014868D01*
X018401Y014805D01*
X018497Y014765D01*
X018600Y014751D01*
X018703Y014765D01*
X018799Y014805D01*
X018882Y014868D01*
X018945Y014951D01*
X018985Y015047D01*
X018999Y015150D01*
X018985Y015253D01*
X018945Y015349D01*
X018882Y015432D01*
X018799Y015495D01*
X018703Y015535D01*
X018600Y015549D01*
D02*
G37*
G36*
X025150Y011050D02*
X024808D01*
X024815Y010997D01*
X024855Y010901D01*
X024918Y010818D01*
X025001Y010755D01*
X025097Y010715D01*
X025150Y010708D01*
Y011050D01*
D02*
G37*
G36*
X018600Y014549D02*
X018497Y014535D01*
X018401Y014495D01*
X018318Y014432D01*
X018255Y014349D01*
X018215Y014253D01*
X018201Y014150D01*
X018215Y014047D01*
X018255Y013951D01*
X018318Y013868D01*
X018401Y013805D01*
X018497Y013765D01*
X018600Y013751D01*
X018703Y013765D01*
X018799Y013805D01*
X018882Y013868D01*
X018945Y013951D01*
X018985Y014047D01*
X018999Y014150D01*
X018985Y014253D01*
X018945Y014349D01*
X018882Y014432D01*
X018799Y014495D01*
X018703Y014535D01*
X018600Y014549D01*
D02*
G37*
G36*
X011900Y016103D02*
X011796Y016090D01*
X011698Y016049D01*
X011615Y015985D01*
X011551Y015902D01*
X011510Y015804D01*
X011497Y015700D01*
X011510Y015596D01*
X011551Y015498D01*
X011615Y015415D01*
X011697Y015352D01*
Y014498D01*
X011615Y014435D01*
X011551Y014352D01*
X011510Y014254D01*
X011500Y014180D01*
X011450D01*
X011438Y014267D01*
X011393Y014377D01*
X011321Y014471D01*
X011227Y014543D01*
X011117Y014588D01*
X011000Y014604D01*
X010883Y014588D01*
X010773Y014543D01*
X010679Y014471D01*
X010607Y014377D01*
X010562Y014267D01*
X010546Y014150D01*
X010562Y014033D01*
X010607Y013923D01*
X010679Y013829D01*
X010773Y013757D01*
X010883Y013712D01*
X011000Y013696D01*
X011117Y013712D01*
X011227Y013757D01*
X011321Y013829D01*
X011393Y013923D01*
X011438Y014033D01*
X011450Y014121D01*
X011500D01*
X011510Y014046D01*
X011551Y013948D01*
X011615Y013865D01*
X011698Y013801D01*
X011796Y013760D01*
X011900Y013747D01*
X012004Y013760D01*
X012102Y013801D01*
X012185Y013865D01*
X012249Y013948D01*
X012290Y014046D01*
X012300Y014121D01*
X012350D01*
X012362Y014033D01*
X012407Y013923D01*
X012479Y013829D01*
X012573Y013757D01*
X012683Y013712D01*
X012800Y013696D01*
X012917Y013712D01*
X013027Y013757D01*
X013121Y013829D01*
X013193Y013923D01*
X013238Y014033D01*
X013254Y014150D01*
X013238Y014267D01*
X013193Y014377D01*
X013121Y014471D01*
X013027Y014543D01*
X012917Y014588D01*
X012800Y014604D01*
X012683Y014588D01*
X012573Y014543D01*
X012479Y014471D01*
X012407Y014377D01*
X012362Y014267D01*
X012350Y014180D01*
X012300D01*
X012290Y014254D01*
X012249Y014352D01*
X012185Y014435D01*
X012102Y014499D01*
X012004Y014540D01*
X012003Y014540D01*
Y015310D01*
X012004Y015310D01*
X012102Y015351D01*
X012185Y015415D01*
X012249Y015498D01*
X012290Y015596D01*
X012303Y015700D01*
X012290Y015804D01*
X012249Y015902D01*
X012185Y015985D01*
X012102Y016049D01*
X012004Y016090D01*
X011900Y016103D01*
D02*
G37*
G36*
X014700Y015003D02*
X014596Y014990D01*
X014498Y014949D01*
X014415Y014885D01*
X014351Y014802D01*
X014310Y014704D01*
X014297Y014600D01*
X014310Y014496D01*
X014351Y014398D01*
X014415Y014315D01*
X014498Y014251D01*
X014596Y014210D01*
X014700Y014197D01*
X014804Y014210D01*
X014902Y014251D01*
X014985Y014315D01*
X015049Y014398D01*
X015090Y014496D01*
X015103Y014600D01*
X015090Y014704D01*
X015049Y014802D01*
X014985Y014885D01*
X014902Y014949D01*
X014804Y014990D01*
X014700Y015003D01*
D02*
G37*
G36*
X014595Y017445D02*
X013805D01*
Y016655D01*
X014595D01*
Y017445D01*
D02*
G37*
G36*
X018600Y017549D02*
X018497Y017535D01*
X018401Y017495D01*
X018318Y017432D01*
X018255Y017349D01*
X018215Y017253D01*
X018201Y017150D01*
X018215Y017047D01*
X018255Y016951D01*
X018318Y016868D01*
X018401Y016805D01*
X018497Y016765D01*
X018600Y016751D01*
X018703Y016765D01*
X018799Y016805D01*
X018882Y016868D01*
X018945Y016951D01*
X018985Y017047D01*
X018999Y017150D01*
X018985Y017253D01*
X018945Y017349D01*
X018882Y017432D01*
X018799Y017495D01*
X018703Y017535D01*
X018600Y017549D01*
D02*
G37*
G36*
X021600D02*
X021497Y017535D01*
X021401Y017495D01*
X021318Y017432D01*
X021255Y017349D01*
X021215Y017253D01*
X021201Y017150D01*
X021215Y017047D01*
X021255Y016951D01*
X021318Y016868D01*
X021401Y016805D01*
X021497Y016765D01*
X021600Y016751D01*
X021703Y016765D01*
X021799Y016805D01*
X021882Y016868D01*
X021945Y016951D01*
X021985Y017047D01*
X021999Y017150D01*
X021985Y017253D01*
X021945Y017349D01*
X021882Y017432D01*
X021799Y017495D01*
X021703Y017535D01*
X021600Y017549D01*
D02*
G37*
G36*
X010800Y034400D02*
X010252D01*
X010259Y034332D01*
X010293Y034219D01*
X010349Y034115D01*
X010424Y034024D01*
X010515Y033949D01*
X010619Y033893D01*
X010732Y033859D01*
X010800Y033852D01*
Y034400D01*
D02*
G37*
G36*
X014700Y016003D02*
X014596Y015990D01*
X014498Y015949D01*
X014415Y015885D01*
X014351Y015802D01*
X014310Y015704D01*
X014297Y015600D01*
X014310Y015496D01*
X014351Y015398D01*
X014415Y015315D01*
X014498Y015251D01*
X014596Y015210D01*
X014700Y015197D01*
X014804Y015210D01*
X014902Y015251D01*
X014985Y015315D01*
X015049Y015398D01*
X015090Y015496D01*
X015103Y015600D01*
X015090Y015704D01*
X015049Y015802D01*
X014985Y015885D01*
X014902Y015949D01*
X014804Y015990D01*
X014700Y016003D01*
D02*
G37*
G36*
X018600Y016549D02*
X018497Y016535D01*
X018401Y016495D01*
X018318Y016432D01*
X018255Y016349D01*
X018215Y016253D01*
X018201Y016150D01*
X018215Y016047D01*
X018255Y015951D01*
X018318Y015868D01*
X018401Y015805D01*
X018497Y015765D01*
X018600Y015751D01*
X018703Y015765D01*
X018799Y015805D01*
X018882Y015868D01*
X018945Y015951D01*
X018985Y016047D01*
X018999Y016150D01*
X018985Y016253D01*
X018945Y016349D01*
X018882Y016432D01*
X018799Y016495D01*
X018703Y016535D01*
X018600Y016549D01*
D02*
G37*
G36*
X021600D02*
X021497Y016535D01*
X021401Y016495D01*
X021318Y016432D01*
X021255Y016349D01*
X021215Y016253D01*
X021201Y016150D01*
X021215Y016047D01*
X021255Y015951D01*
X021318Y015868D01*
X021401Y015805D01*
X021497Y015765D01*
X021600Y015751D01*
X021703Y015765D01*
X021799Y015805D01*
X021882Y015868D01*
X021945Y015951D01*
X021985Y016047D01*
X021999Y016150D01*
X021985Y016253D01*
X021945Y016349D01*
X021882Y016432D01*
X021799Y016495D01*
X021703Y016535D01*
X021600Y016549D01*
D02*
G37*
G36*
X026592Y011050D02*
X026250D01*
Y010708D01*
X026303Y010715D01*
X026399Y010755D01*
X026482Y010818D01*
X026545Y010901D01*
X026585Y010997D01*
X026592Y011050D01*
D02*
G37*
G36*
X012150Y011500D02*
X011602D01*
X011609Y011432D01*
X011643Y011319D01*
X011699Y011215D01*
X011774Y011124D01*
X011865Y011049D01*
X011969Y010993D01*
X012082Y010959D01*
X012150Y010952D01*
Y011500D01*
D02*
G37*
G36*
X012798D02*
X012250D01*
Y010952D01*
X012318Y010959D01*
X012431Y010993D01*
X012535Y011049D01*
X012626Y011124D01*
X012701Y011215D01*
X012757Y011319D01*
X012791Y011432D01*
X012798Y011500D01*
D02*
G37*
G36*
X027150Y011050D02*
X026808D01*
X026815Y010997D01*
X026855Y010901D01*
X026918Y010818D01*
X027001Y010755D01*
X027097Y010715D01*
X027150Y010708D01*
Y011050D01*
D02*
G37*
G36*
X027592D02*
X027250D01*
Y010708D01*
X027303Y010715D01*
X027399Y010755D01*
X027482Y010818D01*
X027545Y010901D01*
X027585Y010997D01*
X027592Y011050D01*
D02*
G37*
G36*
X028150D02*
X027808D01*
X027815Y010997D01*
X027855Y010901D01*
X027918Y010818D01*
X028001Y010755D01*
X028097Y010715D01*
X028150Y010708D01*
Y011050D01*
D02*
G37*
G36*
X028592D02*
X028250D01*
Y010708D01*
X028303Y010715D01*
X028399Y010755D01*
X028482Y010818D01*
X028545Y010901D01*
X028585Y010997D01*
X028592Y011050D01*
D02*
G37*
G36*
X012150Y012148D02*
X012082Y012141D01*
X011969Y012107D01*
X011865Y012051D01*
X011774Y011976D01*
X011699Y011885D01*
X011643Y011781D01*
X011609Y011668D01*
X011602Y011600D01*
X012150D01*
Y012148D01*
D02*
G37*
G36*
X030450Y035253D02*
X030332Y035241D01*
X030219Y035207D01*
X030115Y035151D01*
X030024Y035076D01*
X029949Y034985D01*
X029893Y034881D01*
X029859Y034768D01*
X029847Y034650D01*
X029859Y034532D01*
X029893Y034419D01*
X029949Y034315D01*
X030024Y034224D01*
X030115Y034149D01*
X030219Y034093D01*
X030332Y034059D01*
X030450Y034047D01*
X030568Y034059D01*
X030681Y034093D01*
X030785Y034149D01*
X030876Y034224D01*
X030951Y034315D01*
X031007Y034419D01*
X031041Y034532D01*
X031053Y034650D01*
X031041Y034768D01*
X031007Y034881D01*
X030951Y034985D01*
X030876Y035076D01*
X030785Y035151D01*
X030681Y035207D01*
X030568Y035241D01*
X030450Y035253D01*
D02*
G37*
G36*
X009800Y013503D02*
X009682Y013491D01*
X009569Y013457D01*
X009465Y013401D01*
X009374Y013326D01*
X009299Y013235D01*
X009243Y013131D01*
X009209Y013018D01*
X009197Y012900D01*
X009209Y012782D01*
X009243Y012669D01*
X009299Y012565D01*
X009374Y012474D01*
X009465Y012399D01*
X009569Y012343D01*
X009682Y012309D01*
X009800Y012297D01*
X009918Y012309D01*
X010031Y012343D01*
X010135Y012399D01*
X010226Y012474D01*
X010301Y012565D01*
X010357Y012669D01*
X010391Y012782D01*
X010403Y012900D01*
X010391Y013018D01*
X010357Y013131D01*
X010301Y013235D01*
X010226Y013326D01*
X010135Y013401D01*
X010031Y013457D01*
X009918Y013491D01*
X009800Y013503D01*
D02*
G37*
G36*
X011448Y034400D02*
X010900D01*
Y033852D01*
X010968Y033859D01*
X011081Y033893D01*
X011185Y033949D01*
X011276Y034024D01*
X011351Y034115D01*
X011407Y034219D01*
X011441Y034332D01*
X011448Y034400D01*
D02*
G37*
G36*
X026150Y011050D02*
X025808D01*
X025815Y010997D01*
X025855Y010901D01*
X025918Y010818D01*
X026001Y010755D01*
X026097Y010715D01*
X026150Y010708D01*
Y011050D01*
D02*
G37*
G36*
X012250Y012148D02*
Y011600D01*
X012798D01*
X012791Y011668D01*
X012757Y011781D01*
X012701Y011885D01*
X012626Y011976D01*
X012535Y012051D01*
X012431Y012107D01*
X012318Y012141D01*
X012250Y012148D01*
D02*
G37*
G36*
X010900Y035048D02*
Y034500D01*
X011448D01*
X011441Y034568D01*
X011407Y034681D01*
X011351Y034785D01*
X011276Y034876D01*
X011185Y034951D01*
X011081Y035007D01*
X010968Y035041D01*
X010900Y035048D01*
D02*
G37*
G36*
X010800D02*
X010732Y035041D01*
X010619Y035007D01*
X010515Y034951D01*
X010424Y034876D01*
X010349Y034785D01*
X010293Y034681D01*
X010259Y034568D01*
X010252Y034500D01*
X010800D01*
Y035048D01*
D02*
G37*
G36*
X027100Y018314D02*
X027002Y018301D01*
X026911Y018263D01*
X026832Y018203D01*
X026772Y018124D01*
X026734Y018033D01*
X026721Y017935D01*
X026734Y017837D01*
X026772Y017746D01*
X026832Y017667D01*
X026911Y017607D01*
X027002Y017569D01*
X027100Y017556D01*
X027198Y017569D01*
X027289Y017607D01*
X027368Y017667D01*
X027428Y017746D01*
X027466Y017837D01*
X027479Y017935D01*
X027466Y018033D01*
X027428Y018124D01*
X027368Y018203D01*
X027289Y018263D01*
X027198Y018301D01*
X027100Y018314D01*
D02*
G37*
G36*
X013900Y024329D02*
X013802Y024316D01*
X013711Y024278D01*
X013632Y024218D01*
X013572Y024139D01*
X013534Y024048D01*
X013521Y023950D01*
X013534Y023852D01*
X013549Y023815D01*
X011892Y022158D01*
X011859Y022109D01*
X011847Y022050D01*
Y021293D01*
X011811Y021278D01*
X011732Y021218D01*
X011672Y021139D01*
X011634Y021048D01*
X011621Y020950D01*
X011634Y020852D01*
X011672Y020761D01*
X011732Y020682D01*
X011811Y020622D01*
X011902Y020584D01*
X012000Y020571D01*
X012098Y020584D01*
X012189Y020622D01*
X012223Y020647D01*
X012273Y020623D01*
Y020523D01*
X011065Y019316D01*
X010550D01*
Y018584D01*
X010763D01*
Y017634D01*
X010774Y017576D01*
X010808Y017526D01*
X011141Y017192D01*
X011118Y017145D01*
X011050Y017154D01*
X010933Y017138D01*
X010823Y017093D01*
X010729Y017021D01*
X010657Y016927D01*
X010612Y016817D01*
X010596Y016700D01*
X010612Y016583D01*
X010657Y016473D01*
X010729Y016379D01*
X010823Y016307D01*
X010933Y016262D01*
X011050Y016246D01*
X011167Y016262D01*
X011277Y016307D01*
X011371Y016379D01*
X011443Y016473D01*
X011475Y016550D01*
X011529D01*
X011551Y016498D01*
X011615Y016415D01*
X011698Y016351D01*
X011796Y016310D01*
X011900Y016297D01*
X012004Y016310D01*
X012102Y016351D01*
X012185Y016415D01*
X012249Y016498D01*
X012290Y016596D01*
X012300Y016671D01*
X012350D01*
X012362Y016583D01*
X012407Y016473D01*
X012479Y016379D01*
X012573Y016307D01*
X012683Y016262D01*
X012800Y016246D01*
X012917Y016262D01*
X013027Y016307D01*
X013121Y016379D01*
X013193Y016473D01*
X013238Y016583D01*
X013254Y016700D01*
X013238Y016817D01*
X013193Y016927D01*
X013121Y017021D01*
X013027Y017093D01*
X012917Y017138D01*
X012800Y017154D01*
X012683Y017138D01*
X012573Y017093D01*
X012479Y017021D01*
X012407Y016927D01*
X012362Y016817D01*
X012350Y016730D01*
X012300D01*
X012290Y016804D01*
X012249Y016902D01*
X012185Y016985D01*
X012102Y017049D01*
X012004Y017090D01*
X011900Y017103D01*
X011796Y017090D01*
X011711Y017055D01*
X011069Y017698D01*
Y018584D01*
X011281D01*
Y019099D01*
X012534Y020352D01*
X012567Y020401D01*
X012579Y020460D01*
Y020739D01*
X012594Y020747D01*
X012629Y020752D01*
X012682Y020682D01*
X012731Y020644D01*
Y019283D01*
X012700Y019269D01*
X012623Y019211D01*
X012565Y019134D01*
X012528Y019045D01*
X012522Y019000D01*
X013247D01*
X013241Y019045D01*
X013204Y019134D01*
X013145Y019211D01*
X013069Y019269D01*
X013037Y019283D01*
Y020583D01*
X013048Y020584D01*
X013139Y020622D01*
X013218Y020682D01*
X013278Y020761D01*
X013316Y020852D01*
X013322Y020900D01*
X012950D01*
Y021000D01*
X013322D01*
X013316Y021048D01*
X013278Y021139D01*
X013249Y021177D01*
X013274Y021227D01*
X013407D01*
X013549Y021085D01*
X013534Y021048D01*
X013521Y020950D01*
X013534Y020852D01*
X013572Y020761D01*
X013632Y020682D01*
X013711Y020622D01*
X013802Y020584D01*
X013900Y020571D01*
X013998Y020584D01*
X014089Y020622D01*
X014168Y020682D01*
X014228Y020761D01*
X014266Y020852D01*
X014279Y020950D01*
X014266Y021048D01*
X014228Y021139D01*
X014168Y021218D01*
X014089Y021278D01*
X013998Y021316D01*
X013900Y021329D01*
X013802Y021316D01*
X013765Y021301D01*
X013578Y021488D01*
X013529Y021521D01*
X013470Y021533D01*
X012700D01*
X012641Y021521D01*
X012592Y021488D01*
X012327Y021223D01*
X012276Y021218D01*
X012263Y021222D01*
X012189Y021278D01*
X012153Y021293D01*
Y021987D01*
X013765Y023599D01*
X013802Y023584D01*
X013900Y023571D01*
X013998Y023584D01*
X014089Y023622D01*
X014168Y023682D01*
X014228Y023761D01*
X014266Y023852D01*
X014279Y023950D01*
X014266Y024048D01*
X014228Y024139D01*
X014168Y024218D01*
X014089Y024278D01*
X013998Y024316D01*
X013900Y024329D01*
D02*
G37*
G36*
X017100Y023933D02*
Y023650D01*
X017383D01*
X017378Y023688D01*
X017344Y023770D01*
X017290Y023840D01*
X017220Y023894D01*
X017138Y023928D01*
X017100Y023933D01*
D02*
G37*
G36*
X022500Y024435D02*
X022402Y024422D01*
X022311Y024384D01*
X022232Y024324D01*
X022172Y024246D01*
X022134Y024154D01*
X022121Y024056D01*
X022134Y023958D01*
X022172Y023867D01*
X022232Y023788D01*
X022311Y023728D01*
X022402Y023690D01*
X022500Y023677D01*
X022598Y023690D01*
X022689Y023728D01*
X022768Y023788D01*
X022828Y023867D01*
X022866Y023958D01*
X022879Y024056D01*
X022866Y024154D01*
X022828Y024246D01*
X022768Y024324D01*
X022689Y024384D01*
X022598Y024422D01*
X022500Y024435D01*
D02*
G37*
G36*
X013200Y026566D02*
X012469D01*
Y025834D01*
X012797D01*
Y024293D01*
X012761Y024278D01*
X012682Y024218D01*
X012622Y024139D01*
X012584Y024048D01*
X012571Y023950D01*
X012584Y023852D01*
X012622Y023761D01*
X012682Y023682D01*
X012761Y023622D01*
X012852Y023584D01*
X012950Y023571D01*
X013048Y023584D01*
X013139Y023622D01*
X013218Y023682D01*
X013278Y023761D01*
X013316Y023852D01*
X013329Y023950D01*
X013316Y024048D01*
X013278Y024139D01*
X013218Y024218D01*
X013139Y024278D01*
X013103Y024293D01*
Y025834D01*
X013200D01*
Y026566D01*
D02*
G37*
G36*
X017000Y023550D02*
X016717D01*
X016722Y023512D01*
X016756Y023430D01*
X016810Y023360D01*
X016880Y023306D01*
X016962Y023272D01*
X017000Y023267D01*
Y023550D01*
D02*
G37*
G36*
X017383D02*
X017100D01*
Y023267D01*
X017138Y023272D01*
X017220Y023306D01*
X017290Y023360D01*
X017344Y023430D01*
X017378Y023512D01*
X017383Y023550D01*
D02*
G37*
G36*
X012000Y024329D02*
X011902Y024316D01*
X011811Y024278D01*
X011732Y024218D01*
X011672Y024139D01*
X011634Y024048D01*
X011621Y023950D01*
X011634Y023852D01*
X011672Y023761D01*
X011732Y023682D01*
X011811Y023622D01*
X011902Y023584D01*
X012000Y023571D01*
X012098Y023584D01*
X012189Y023622D01*
X012268Y023682D01*
X012328Y023761D01*
X012366Y023852D01*
X012379Y023950D01*
X012366Y024048D01*
X012328Y024139D01*
X012268Y024218D01*
X012189Y024278D01*
X012098Y024316D01*
X012000Y024329D01*
D02*
G37*
G36*
X027197Y025500D02*
X026850D01*
Y025153D01*
X026904Y025160D01*
X027002Y025201D01*
X027085Y025265D01*
X027149Y025348D01*
X027190Y025446D01*
X027197Y025500D01*
D02*
G37*
G36*
X021600Y026549D02*
X021497Y026535D01*
X021401Y026495D01*
X021318Y026432D01*
X021255Y026349D01*
X021215Y026253D01*
X021201Y026150D01*
X021215Y026047D01*
X021255Y025951D01*
X021318Y025868D01*
X021401Y025805D01*
X021497Y025765D01*
X021600Y025751D01*
X021703Y025765D01*
X021799Y025805D01*
X021882Y025868D01*
X021945Y025951D01*
X021985Y026047D01*
X021999Y026150D01*
X021985Y026253D01*
X021945Y026349D01*
X021882Y026432D01*
X021799Y026495D01*
X021703Y026535D01*
X021600Y026549D01*
D02*
G37*
G36*
X022750Y032149D02*
X022647Y032135D01*
X022551Y032095D01*
X022468Y032032D01*
X022405Y031949D01*
X022365Y031853D01*
X022351Y031750D01*
X022365Y031647D01*
X022405Y031551D01*
X022468Y031468D01*
X022551Y031405D01*
X022647Y031365D01*
X022750Y031351D01*
X022853Y031365D01*
X022949Y031405D01*
X023032Y031468D01*
X023095Y031551D01*
X023135Y031647D01*
X023149Y031750D01*
X023135Y031853D01*
X023095Y031949D01*
X023032Y032032D01*
X022949Y032095D01*
X022853Y032135D01*
X022750Y032149D01*
D02*
G37*
G36*
X014800Y032099D02*
X014697Y032085D01*
X014601Y032045D01*
X014518Y031982D01*
X014455Y031899D01*
X014415Y031803D01*
X014401Y031700D01*
X014415Y031597D01*
X014455Y031501D01*
X014518Y031418D01*
X014601Y031355D01*
X014697Y031315D01*
X014800Y031301D01*
X014903Y031315D01*
X014999Y031355D01*
X015082Y031418D01*
X015145Y031501D01*
X015185Y031597D01*
X015199Y031700D01*
X015185Y031803D01*
X015145Y031899D01*
X015082Y031982D01*
X014999Y032045D01*
X014903Y032085D01*
X014800Y032099D01*
D02*
G37*
G36*
X022500Y026404D02*
X022402Y026391D01*
X022311Y026353D01*
X022232Y026293D01*
X022172Y026214D01*
X022134Y026123D01*
X022121Y026025D01*
X022134Y025927D01*
X022172Y025835D01*
X022232Y025757D01*
X022311Y025697D01*
X022402Y025659D01*
X022500Y025646D01*
X022598Y025659D01*
X022689Y025697D01*
X022768Y025757D01*
X022828Y025835D01*
X022866Y025927D01*
X022879Y026025D01*
X022866Y026123D01*
X022828Y026214D01*
X022768Y026293D01*
X022689Y026353D01*
X022598Y026391D01*
X022500Y026404D01*
D02*
G37*
G36*
X028197Y025500D02*
X027850D01*
Y025153D01*
X027904Y025160D01*
X028002Y025201D01*
X028085Y025265D01*
X028149Y025348D01*
X028190Y025446D01*
X028197Y025500D01*
D02*
G37*
G36*
X026850Y025947D02*
Y025600D01*
X027197D01*
X027190Y025654D01*
X027149Y025752D01*
X027085Y025835D01*
X027002Y025899D01*
X026904Y025940D01*
X026850Y025947D01*
D02*
G37*
G36*
X027750D02*
X027696Y025940D01*
X027598Y025899D01*
X027515Y025835D01*
X027451Y025752D01*
X027410Y025654D01*
X027403Y025600D01*
X027750D01*
Y025947D01*
D02*
G37*
G36*
X023183Y019200D02*
X022900D01*
Y018917D01*
X022938Y018922D01*
X023020Y018956D01*
X023090Y019010D01*
X023144Y019080D01*
X023178Y019162D01*
X023183Y019200D01*
D02*
G37*
G36*
X014400Y034050D02*
X013852D01*
X013859Y033982D01*
X013893Y033869D01*
X013949Y033765D01*
X014024Y033674D01*
X014115Y033599D01*
X014219Y033543D01*
X014332Y033509D01*
X014400Y033502D01*
Y034050D01*
D02*
G37*
G36*
X015720Y034933D02*
X013800D01*
X013751Y034923D01*
X013741Y034921D01*
X013692Y034888D01*
X013292Y034488D01*
X013259Y034439D01*
X013247Y034380D01*
Y027166D01*
X013259Y027107D01*
X013292Y027058D01*
X013972Y026377D01*
X013959Y026345D01*
X013947Y026250D01*
X013959Y026155D01*
X013996Y026066D01*
X014055Y025989D01*
X014131Y025931D01*
X014220Y025894D01*
X014316Y025881D01*
X014411Y025894D01*
X014500Y025931D01*
X014577Y025989D01*
X014635Y026066D01*
X014672Y026155D01*
X014685Y026250D01*
X014672Y026345D01*
X014635Y026434D01*
X014577Y026511D01*
X014500Y026569D01*
X014411Y026606D01*
X014316Y026619D01*
X014220Y026606D01*
X014189Y026593D01*
X013553Y027229D01*
Y028305D01*
X014245D01*
Y029095D01*
X013553D01*
Y029367D01*
X013603Y029391D01*
X013651Y029355D01*
X013747Y029315D01*
X013850Y029301D01*
X013953Y029315D01*
X014049Y029355D01*
X014132Y029418D01*
X014195Y029501D01*
X014235Y029597D01*
X014249Y029700D01*
X014235Y029803D01*
X014216Y029850D01*
X014686Y030319D01*
X014697Y030315D01*
X014800Y030301D01*
X014903Y030315D01*
X014999Y030355D01*
X015082Y030418D01*
X015145Y030501D01*
X015185Y030597D01*
X015199Y030700D01*
X015185Y030803D01*
X015145Y030899D01*
X015082Y030982D01*
X014999Y031045D01*
X014903Y031085D01*
X014800Y031099D01*
X014697Y031085D01*
X014601Y031045D01*
X014518Y030982D01*
X014455Y030899D01*
X014415Y030803D01*
X014401Y030700D01*
X014415Y030597D01*
X014449Y030515D01*
X014000Y030066D01*
X013953Y030085D01*
X013850Y030099D01*
X013747Y030085D01*
X013651Y030045D01*
X013603Y030009D01*
X013553Y030033D01*
Y030367D01*
X013603Y030391D01*
X013651Y030355D01*
X013747Y030315D01*
X013850Y030301D01*
X013953Y030315D01*
X014049Y030355D01*
X014132Y030418D01*
X014195Y030501D01*
X014235Y030597D01*
X014249Y030700D01*
X014235Y030803D01*
X014195Y030899D01*
X014132Y030982D01*
X014049Y031045D01*
X013953Y031085D01*
X013850Y031099D01*
X013747Y031085D01*
X013651Y031045D01*
X013603Y031009D01*
X013553Y031033D01*
Y031367D01*
X013603Y031391D01*
X013651Y031355D01*
X013747Y031315D01*
X013850Y031301D01*
X013953Y031315D01*
X014049Y031355D01*
X014132Y031418D01*
X014195Y031501D01*
X014235Y031597D01*
X014249Y031700D01*
X014235Y031803D01*
X014195Y031899D01*
X014132Y031982D01*
X014049Y032045D01*
X013953Y032085D01*
X013850Y032099D01*
X013747Y032085D01*
X013651Y032045D01*
X013603Y032009D01*
X013553Y032033D01*
Y034317D01*
X013863Y034627D01*
X014068D01*
X014086Y034577D01*
X014024Y034526D01*
X013949Y034435D01*
X013893Y034331D01*
X013859Y034218D01*
X013852Y034150D01*
X015048D01*
X015041Y034218D01*
X015007Y034331D01*
X014951Y034435D01*
X014876Y034526D01*
X014814Y034577D01*
X014832Y034627D01*
X015657D01*
X015881Y034402D01*
X015843Y034331D01*
X015809Y034218D01*
X015797Y034100D01*
X015809Y033982D01*
X015843Y033869D01*
X015899Y033765D01*
X015974Y033674D01*
X016065Y033599D01*
X016169Y033543D01*
X016282Y033509D01*
X016400Y033497D01*
X016518Y033509D01*
X016631Y033543D01*
X016735Y033599D01*
X016826Y033674D01*
X016901Y033765D01*
X016957Y033869D01*
X016991Y033982D01*
X017003Y034100D01*
X016991Y034218D01*
X016957Y034331D01*
X016901Y034435D01*
X016826Y034526D01*
X016735Y034601D01*
X016631Y034657D01*
X016518Y034691D01*
X016400Y034703D01*
X016282Y034691D01*
X016169Y034657D01*
X016098Y034619D01*
X015828Y034888D01*
X015779Y034921D01*
X015720Y034933D01*
D02*
G37*
G36*
X021600Y019549D02*
X021497Y019535D01*
X021401Y019495D01*
X021318Y019432D01*
X021255Y019349D01*
X021215Y019253D01*
X021201Y019150D01*
X021215Y019047D01*
X021255Y018951D01*
X021318Y018868D01*
X021401Y018805D01*
X021497Y018765D01*
X021600Y018751D01*
X021703Y018765D01*
X021799Y018805D01*
X021882Y018868D01*
X021945Y018951D01*
X021985Y019047D01*
X021999Y019150D01*
X021985Y019253D01*
X021945Y019349D01*
X021882Y019432D01*
X021799Y019495D01*
X021703Y019535D01*
X021600Y019549D01*
D02*
G37*
G36*
Y018549D02*
X021497Y018535D01*
X021401Y018495D01*
X021318Y018432D01*
X021255Y018349D01*
X021215Y018253D01*
X021201Y018150D01*
X021215Y018047D01*
X021255Y017951D01*
X021318Y017868D01*
X021401Y017805D01*
X021497Y017765D01*
X021600Y017751D01*
X021703Y017765D01*
X021799Y017805D01*
X021882Y017868D01*
X021945Y017951D01*
X021985Y018047D01*
X021999Y018150D01*
X021985Y018253D01*
X021945Y018349D01*
X021882Y018432D01*
X021799Y018495D01*
X021703Y018535D01*
X021600Y018549D01*
D02*
G37*
G36*
X012834Y018900D02*
X012522D01*
X012528Y018855D01*
X012565Y018766D01*
X012623Y018689D01*
X012700Y018631D01*
X012789Y018594D01*
X012834Y018588D01*
Y018900D01*
D02*
G37*
G36*
X013247D02*
X012934D01*
Y018588D01*
X012980Y018594D01*
X013069Y018631D01*
X013145Y018689D01*
X013204Y018766D01*
X013241Y018855D01*
X013247Y018900D01*
D02*
G37*
G36*
X018992Y020100D02*
X018650D01*
Y019758D01*
X018703Y019765D01*
X018799Y019805D01*
X018882Y019868D01*
X018945Y019951D01*
X018985Y020047D01*
X018992Y020100D01*
D02*
G37*
G36*
X027950Y022250D02*
X027667D01*
X027672Y022212D01*
X027706Y022130D01*
X027760Y022060D01*
X027830Y022006D01*
X027912Y021972D01*
X027950Y021967D01*
Y022250D01*
D02*
G37*
G36*
X028333D02*
X028050D01*
Y021967D01*
X028088Y021972D01*
X028170Y022006D01*
X028240Y022060D01*
X028294Y022130D01*
X028328Y022212D01*
X028333Y022250D01*
D02*
G37*
G36*
X028050Y022633D02*
Y022350D01*
X028333D01*
X028328Y022388D01*
X028294Y022470D01*
X028240Y022540D01*
X028170Y022594D01*
X028088Y022628D01*
X028050Y022633D01*
D02*
G37*
G36*
X022800Y022133D02*
X022762Y022128D01*
X022680Y022094D01*
X022610Y022040D01*
X022556Y021970D01*
X022522Y021888D01*
X022517Y021850D01*
X022800D01*
Y022133D01*
D02*
G37*
G36*
X018650Y020542D02*
Y020200D01*
X018992D01*
X018985Y020253D01*
X018945Y020349D01*
X018882Y020432D01*
X018799Y020495D01*
X018703Y020535D01*
X018650Y020542D01*
D02*
G37*
G36*
X011050Y021329D02*
X010952Y021316D01*
X010861Y021278D01*
X010782Y021218D01*
X010722Y021139D01*
X010684Y021048D01*
X010671Y020950D01*
X010684Y020852D01*
X010722Y020761D01*
X010782Y020682D01*
X010861Y020622D01*
X010952Y020584D01*
X011050Y020571D01*
X011148Y020584D01*
X011239Y020622D01*
X011318Y020682D01*
X011378Y020761D01*
X011416Y020852D01*
X011429Y020950D01*
X011416Y021048D01*
X011378Y021139D01*
X011318Y021218D01*
X011239Y021278D01*
X011148Y021316D01*
X011050Y021329D01*
D02*
G37*
G36*
X014800Y021322D02*
X014752Y021316D01*
X014661Y021278D01*
X014582Y021218D01*
X014522Y021139D01*
X014484Y021048D01*
X014478Y021000D01*
X014800D01*
Y021322D01*
D02*
G37*
%LPD*%
D10*
X025950Y034294D02*
D03*
Y033506D02*
D03*
X027050Y034294D02*
D03*
Y033506D02*
D03*
X028150D02*
D03*
Y034294D02*
D03*
X024850Y034291D02*
D03*
Y033503D02*
D03*
D11*
X028144Y031800D02*
D03*
X027356D02*
D03*
X028144Y030750D02*
D03*
X027356D02*
D03*
X028144Y029700D02*
D03*
X027356D02*
D03*
X028144Y028650D02*
D03*
X027356D02*
D03*
D12*
X030580Y013520D02*
Y020200D01*
X029720Y012660D02*
X030580Y013520D01*
X021730Y023700D02*
X022350Y023080D01*
Y022660D02*
Y023080D01*
Y022660D02*
X022600Y022410D01*
X024550Y017810D02*
X025080Y017280D01*
X024150Y015800D02*
Y030050D01*
X022890Y022410D02*
X023440Y021860D01*
Y013860D02*
Y021860D01*
X022850Y021220D02*
X023240Y020830D01*
Y019640D02*
Y020830D01*
X022850Y019250D02*
X023240Y019640D01*
X022850Y021220D02*
Y021800D01*
X023440Y013860D02*
X025200Y012100D01*
X023750Y014550D02*
X026200Y012100D01*
X026850Y034294D02*
Y034560D01*
X015650Y032900D02*
X016790Y031760D01*
X014450Y034100D02*
X015650Y032900D01*
X024850Y033200D02*
Y033503D01*
Y033200D02*
X025600Y032450D01*
X026000D01*
X026200Y032250D01*
Y029595D02*
Y032250D01*
Y029595D02*
X027000Y028795D01*
X027356Y028650D01*
X018750Y029700D02*
X019245Y029205D01*
Y012295D02*
Y029205D01*
X018500Y011550D02*
X019245Y012295D01*
X026850Y034294D02*
X027050D01*
X026494Y034916D02*
X026850Y034560D01*
X021766Y034916D02*
X026494D01*
X020900Y034050D02*
X021766Y034916D01*
X020900Y031850D02*
Y034050D01*
X018750Y029700D02*
X020900Y031850D01*
X022950Y014000D02*
X023450Y013500D01*
Y011150D02*
Y013500D01*
X023200Y010900D02*
X023450Y011150D01*
X022350Y010900D02*
X023200D01*
X022050Y011200D02*
X022350Y010900D01*
X022050Y011200D02*
Y014700D01*
X021600Y015150D02*
X022050Y014700D01*
X015200Y016100D02*
Y017050D01*
Y016100D02*
X015700Y015600D01*
X017180Y022780D02*
X017650Y022310D01*
Y018500D02*
Y022310D01*
X016200Y017050D02*
X017650Y018500D01*
X020750Y020150D02*
X021600D01*
X020100Y020800D02*
X020750Y020150D01*
X020100Y020800D02*
Y030110D01*
X021100Y031110D01*
Y033330D01*
X022486Y034716D01*
X012000Y020950D02*
Y022050D01*
X013900Y023950D01*
X021600Y021830D02*
Y022150D01*
X021150Y021380D02*
X021600Y021830D01*
X021150Y020900D02*
Y021380D01*
Y020900D02*
X021400Y020650D01*
X021800D01*
X022250Y020200D01*
Y019650D02*
Y020200D01*
X014800Y030650D02*
Y030700D01*
X013850Y029700D02*
X014800Y030650D01*
X025080Y017280D02*
X026250D01*
X026530Y017000D01*
Y013770D02*
Y017000D01*
Y013770D02*
X028200Y012100D01*
X022600Y022410D02*
X022890D01*
X020950Y023700D02*
X021730D01*
X020700Y023950D02*
X020950Y023700D01*
X028144Y027666D02*
Y028650D01*
Y027666D02*
X028290Y027520D01*
Y026040D02*
Y027520D01*
X027800Y025550D02*
X028290Y026040D01*
X027310Y022990D02*
X028000Y022300D01*
X027310Y022990D02*
Y025060D01*
X027800Y025550D01*
X030700Y021550D02*
Y022200D01*
X030100Y020950D02*
X030700Y021550D01*
X025676Y024482D02*
X025926Y024233D01*
X025388Y024482D02*
X025676D01*
X025070Y024800D02*
X025388Y024482D01*
X025070Y024800D02*
Y031070D01*
X025750Y031750D01*
X027000Y030750D02*
X027356D01*
X026900Y030850D02*
X027000Y030750D01*
X026900Y030850D02*
Y032600D01*
X027050Y032750D01*
Y033506D01*
X025950Y032783D02*
Y033506D01*
Y032783D02*
X026400Y032333D01*
Y030100D02*
Y032333D01*
Y030100D02*
X026800Y029700D01*
X027356D01*
X027050Y034294D02*
Y034830D01*
X028660Y027240D02*
X030700Y025200D01*
X025750Y029750D02*
X026326Y029174D01*
Y025024D02*
Y029174D01*
Y025024D02*
X026800Y024550D01*
X028589Y020430D02*
X030100Y018919D01*
X026126Y024754D02*
X026326Y024554D01*
X026126Y024754D02*
Y026524D01*
X025500Y027150D02*
X026126Y026524D01*
X025500Y026025D02*
X025926Y025599D01*
Y024554D02*
Y025599D01*
Y024554D02*
X026126Y024354D01*
X026310Y021740D02*
X027100Y020950D01*
X014650Y019800D02*
X014850Y019600D01*
X015450D01*
X015650Y019800D01*
Y032900D01*
X017200Y017050D02*
X017955Y017805D01*
Y024710D01*
X018040Y024795D01*
Y027650D01*
X017350Y028340D02*
X018040Y027650D01*
X017350Y028340D02*
Y031250D01*
X017800Y031700D01*
X018600Y024820D02*
Y025150D01*
X018155Y024375D02*
X018600Y024820D01*
X018155Y017705D02*
Y024375D01*
X017850Y017400D02*
X018155Y017705D01*
X017850Y010770D02*
Y017400D01*
Y010770D02*
X018020Y010600D01*
X023920D01*
X024920Y011600D01*
X028700D01*
X029200Y012100D01*
X016750Y019150D02*
Y021300D01*
X017050Y021600D01*
X015720Y034780D02*
X016400Y034100D01*
X013800Y034780D02*
X015720D01*
X013400Y034380D02*
X013800Y034780D01*
X013400Y027166D02*
Y034380D01*
Y027166D02*
X014316Y026250D01*
X029200Y011100D02*
X029720Y011620D01*
Y012660D01*
X030340Y020440D02*
X030580Y020200D01*
X030000Y020440D02*
X030340D01*
X029670Y020770D02*
X030000Y020440D01*
X029670Y020770D02*
Y022170D01*
X030700Y023200D01*
X023391Y034291D02*
X024850D01*
X021300Y032200D02*
X023391Y034291D01*
X021300Y027450D02*
Y032200D01*
Y027450D02*
X021600Y027150D01*
X012700Y021380D02*
X013470D01*
X013900Y020950D01*
X020300Y021450D02*
X020670Y021080D01*
X020300Y021450D02*
Y024210D01*
X020790Y024700D01*
X022159D01*
X022500Y025041D01*
X022053Y021047D02*
X022850Y020250D01*
X022053Y021047D02*
Y022697D01*
X021600Y023150D02*
X022053Y022697D01*
X017150Y027150D02*
X017650Y026650D01*
X017150Y027150D02*
Y031950D01*
X017350Y032150D01*
X018000D01*
X018250Y031900D01*
Y030150D02*
Y031900D01*
X017800Y029700D02*
X018250Y030150D01*
X010916Y017634D02*
X011850Y016700D01*
X010916Y017634D02*
Y018950D01*
X014150Y011550D02*
X016200Y013600D01*
Y017050D01*
X022250Y027400D02*
X022500Y027150D01*
X022250Y027400D02*
Y029200D01*
X021750Y029700D02*
X022250Y029200D01*
X021750Y030700D02*
X022200Y030250D01*
X023950D01*
X024150Y030050D01*
Y015800D02*
X025950Y014000D01*
X016790Y023860D02*
X017050Y023600D01*
X016790Y023860D02*
Y031760D01*
X017200Y012200D02*
Y017050D01*
X016550Y011550D02*
X017200Y012200D01*
X020850Y011550D02*
Y019400D01*
X021600Y020150D01*
X025300Y027350D02*
X025500Y027150D01*
X025300Y027350D02*
Y030300D01*
X025750Y030750D01*
X022800Y011550D02*
Y012330D01*
X022520Y012610D02*
X022800Y012330D01*
X022520Y012610D02*
Y018920D01*
X022850Y019250D01*
X011850Y014150D02*
Y015700D01*
X027100Y018919D02*
Y019904D01*
X030100Y017935D02*
Y018919D01*
X015700Y014600D02*
Y015600D01*
X030700Y027200D02*
Y028200D01*
X016700Y014600D02*
Y015600D01*
X028144Y028650D02*
Y029700D01*
Y030750D01*
Y031800D01*
X027356D02*
Y032306D01*
X028150Y033100D01*
Y033506D01*
Y034294D02*
X028250Y034394D01*
Y035700D01*
X027850Y035866D02*
X028084Y036100D01*
X028416D01*
X028660Y035856D01*
X027850Y035630D02*
Y035866D01*
X027050Y034830D02*
X027850Y035630D01*
X028660Y027240D02*
Y035856D01*
X023750Y014550D02*
Y023210D01*
X024950Y021750D02*
Y023100D01*
X026000Y020430D02*
X028589D01*
X025500Y020930D02*
X026000Y020430D01*
X024550Y017810D02*
Y024050D01*
X025500Y020930D02*
Y024056D01*
X026310Y021740D02*
Y022470D01*
X026126Y022654D02*
X026310Y022470D01*
X026126Y022654D02*
Y022934D01*
X026326Y023134D01*
Y023466D01*
X026126Y023666D02*
X026326Y023466D01*
X026126Y023666D02*
Y024354D01*
X026326Y023749D02*
X026526Y023549D01*
X026326Y023749D02*
Y024554D01*
X026526Y022774D02*
X027000Y022300D01*
X026526Y022774D02*
Y023549D01*
X025926Y023300D02*
Y024233D01*
X022486Y034716D02*
X025684D01*
X026106Y034294D01*
X025950D02*
X026106D01*
X014850Y020950D02*
X014950D01*
X014650Y019800D02*
Y020950D01*
X012426Y020460D02*
Y021106D01*
X012700Y021380D01*
X010916Y018950D02*
X012426Y020460D01*
X012884Y018950D02*
Y020950D01*
X012950Y023950D02*
Y026084D01*
X012834Y026200D02*
X012950Y026084D01*
X011050Y023950D02*
Y026016D01*
X010866Y026200D02*
X011050Y026016D01*
X015200Y020050D02*
X015400Y020250D01*
Y029100D01*
X014800Y029700D02*
X015400Y029100D01*
D13*
X017050Y023600D02*
D03*
Y021600D02*
D03*
X017650Y025650D02*
D03*
Y026650D02*
D03*
X022850Y020250D02*
D03*
Y019250D02*
D03*
Y022800D02*
D03*
Y021800D02*
D03*
X027000Y022300D02*
D03*
X028000D02*
D03*
D14*
X031150Y013000D02*
D03*
X009800Y012900D02*
D03*
X010850Y034450D02*
D03*
X030450Y034650D02*
D03*
D15*
X010850Y031700D02*
D03*
Y030700D02*
D03*
Y029700D02*
D03*
Y028700D02*
D03*
X013850Y031700D02*
D03*
Y030700D02*
D03*
Y029700D02*
D03*
X030750Y024200D02*
D03*
Y031200D02*
D03*
Y030200D02*
D03*
Y029200D02*
D03*
Y028200D02*
D03*
Y027200D02*
D03*
Y026200D02*
D03*
Y025200D02*
D03*
Y023200D02*
D03*
X017200Y020050D02*
D03*
X016200D02*
D03*
X015200D02*
D03*
X014200D02*
D03*
X017200Y017050D02*
D03*
X016200D02*
D03*
X015200D02*
D03*
X018750Y031700D02*
D03*
Y030700D02*
D03*
Y029700D02*
D03*
Y028700D02*
D03*
X021750Y031700D02*
D03*
Y030700D02*
D03*
Y029700D02*
D03*
X022750Y031750D02*
D03*
Y030750D02*
D03*
Y029750D02*
D03*
Y028750D02*
D03*
X025750Y031750D02*
D03*
Y030750D02*
D03*
Y029750D02*
D03*
X014800Y031700D02*
D03*
Y030700D02*
D03*
Y029700D02*
D03*
Y028700D02*
D03*
X017800Y031700D02*
D03*
Y030700D02*
D03*
Y029700D02*
D03*
X021600Y015150D02*
D03*
Y016150D02*
D03*
Y017150D02*
D03*
Y018150D02*
D03*
Y019150D02*
D03*
Y020150D02*
D03*
Y021150D02*
D03*
Y022150D02*
D03*
Y023150D02*
D03*
Y024150D02*
D03*
Y025150D02*
D03*
Y026150D02*
D03*
Y027150D02*
D03*
X018600Y014150D02*
D03*
Y015150D02*
D03*
Y016150D02*
D03*
Y017150D02*
D03*
Y018150D02*
D03*
Y019150D02*
D03*
Y020150D02*
D03*
Y021150D02*
D03*
Y022150D02*
D03*
Y023150D02*
D03*
Y024150D02*
D03*
Y025150D02*
D03*
Y026150D02*
D03*
Y027150D02*
D03*
X029200Y011100D02*
D03*
X028200Y012100D02*
D03*
Y011100D02*
D03*
X027200Y012100D02*
D03*
Y011100D02*
D03*
X026200Y012100D02*
D03*
Y011100D02*
D03*
X025200Y012100D02*
D03*
Y011100D02*
D03*
D16*
X013850Y028700D02*
D03*
X021750D02*
D03*
X025750Y028750D02*
D03*
X017800Y028700D02*
D03*
X021600Y014150D02*
D03*
X029200Y012100D02*
D03*
D17*
X014450Y034100D02*
D03*
X016400D02*
D03*
X022800Y011550D02*
D03*
X020850D02*
D03*
X018500D02*
D03*
X016550D02*
D03*
X014150D02*
D03*
X012200D02*
D03*
D18*
X030750Y022200D02*
D03*
X014200Y017050D02*
D03*
D19*
X010866Y026200D02*
D03*
X012884Y018950D02*
D03*
X014316Y026250D02*
D03*
D20*
X012834Y026200D02*
D03*
X010916Y018950D02*
D03*
X016284Y026250D02*
D03*
D21*
X011050Y020950D02*
D03*
Y023950D02*
D03*
X012000D02*
D03*
Y020950D02*
D03*
X012950D02*
D03*
Y023950D02*
D03*
X022950Y016851D02*
D03*
X025950D02*
D03*
X022950Y017835D02*
D03*
X025950D02*
D03*
X022500Y024056D02*
D03*
X025500D02*
D03*
Y025041D02*
D03*
X022500D02*
D03*
Y026025D02*
D03*
X025500D02*
D03*
X030100Y016951D02*
D03*
X027100D02*
D03*
X030100Y017935D02*
D03*
X027100D02*
D03*
Y018919D02*
D03*
X030100D02*
D03*
Y019904D02*
D03*
X027100D02*
D03*
X030100Y020950D02*
D03*
X027100D02*
D03*
X014850D02*
D03*
Y023950D02*
D03*
X013900D02*
D03*
Y020950D02*
D03*
X022950Y014000D02*
D03*
X025950D02*
D03*
X022950Y014950D02*
D03*
X025950D02*
D03*
X022950Y015867D02*
D03*
X025950D02*
D03*
X030150Y013950D02*
D03*
X027150D02*
D03*
X030100Y014982D02*
D03*
X027100D02*
D03*
X030100Y015967D02*
D03*
X027100D02*
D03*
X025500Y027150D02*
D03*
X022500D02*
D03*
D22*
X026800Y024550D02*
D03*
X027800D02*
D03*
Y025550D02*
D03*
X026800D02*
D03*
X027800Y026550D02*
D03*
X026800D02*
D03*
X016700Y014600D02*
D03*
Y015600D02*
D03*
X015700D02*
D03*
Y014600D02*
D03*
X014700Y015600D02*
D03*
Y014600D02*
D03*
X025050Y019600D02*
D03*
Y021550D02*
D03*
X011900Y015700D02*
D03*
Y016700D02*
D03*
Y014150D02*
D03*
D23*
X012800D02*
D03*
X011050Y016700D02*
D03*
X012800D02*
D03*
X011000Y014150D02*
D03*
D24*
X024550Y024050D02*
D03*
X017180Y022780D02*
D03*
X022250Y019650D02*
D03*
X020700Y023950D02*
D03*
X016750Y019150D02*
D03*
X020670Y021080D02*
D03*
X028250Y035700D02*
D03*
X024950Y023100D02*
D03*
X023750Y023210D02*
D03*
X025926Y023300D02*
D03*
M02*
