M48
;Layer_Color=9474304
;FILE_FORMAT=2:4
INCH
;TYPE=PLATED
T1F00S00C0.0276
T2F00S00C0.0280
T3F00S00C0.0300
T5F00S00C0.0315
T6F00S00C0.0335
T7F00S00C0.0350
T9F00S00C0.0354
T10F00S00C0.0500
T11F00S00C0.1000
%
T01
X017050Y021600
Y023600
X017650Y025650
Y026650
X022850Y022800
Y021800
Y020250
Y019250
X027000Y022300
X028000
T02
X016750Y019150
X017180Y022780
X020700Y023950
X020670Y021080
X022250Y019650
X023750Y023210
X024950Y023100
X025926Y023300
X024550Y024050
X028250Y035700
T03
X014700Y014600
Y015600
X015700
Y014600
X025050Y019600
Y021550
X026800Y025550
X027800
Y026550
X026800
X011900Y016700
T05
X016284Y026250
X014316
X012834Y026200
X010866
X010916Y018950
X012884
T06
X022950Y014000
Y014950
X025950
Y014000
X027150Y013950
X027100Y014982
X030100
X030150Y013950
X030100Y015967
Y016951
Y017935
Y018919
Y019904
Y020950
X027100
Y019904
Y018919
Y017935
Y016951
Y015967
X025950Y015867
Y016851
Y017835
X022950
Y016851
Y015867
X022500Y024056
Y025041
Y026025
Y027150
X025500
Y026025
Y025041
Y024056
X014850Y023950
X013900
X012950
X012000
X011050
Y020950
X012000
X012950
X013900
X014850
T07
X012800Y014150
Y016700
X011050
T09
X018600Y014150
Y015150
X021600
Y014150
X025200Y012100
X026200
X027200
X028200
X029200
Y011100
X028200
X027200
X026200
X025200
X021600Y016150
Y017150
Y018150
Y019150
Y020150
Y021150
Y022150
Y023150
Y024150
Y025150
Y026150
Y027150
X021750Y028700
Y029700
Y030700
X022750Y030750
Y029750
Y028750
X025750
Y029750
Y030750
X030750Y031200
Y030200
Y029200
Y028200
Y027200
Y026200
Y025200
Y024200
Y023200
Y022200
X018600Y022150
Y021150
Y020150
Y019150
Y018150
Y017150
Y016150
X017200Y017050
X016200
Y020050
X017200
X018600Y023150
Y024150
Y025150
Y026150
Y027150
X018750Y028700
X017800
Y029700
X018750
Y030700
X017800
X014800
X013850
Y029700
X014800
Y028700
X013850
X010850
Y029700
Y030700
X014200Y020050
X015200
Y017050
X014200
X013850Y031700
X014800
X010850
X017800
X018750
X021750
X022750Y031750
X025750
T10
X012200Y011550
X014150
X016550
X018500
X020850
X022800
X014450Y034100
X016400
T11
X009800Y012900
X031150Y013000
X010850Y034450
X030450Y034650
M30
