M48
;Layer_Color=9474304
;FILE_FORMAT=2:4
INCH,LZ
;TYPE=PLATED
T1F00S00C0.0276
T2F00S00C0.0280
T3F00S00C0.0300
T5F00S00C0.0315
T6F00S00C0.0335
T7F00S00C0.0350
T9F00S00C0.0354
T10F00S00C0.0500
T11F00S00C0.1000
%
T01
X01705Y0216
Y0236
X01765Y02565
Y02665
X02285Y0228
Y0218
Y02025
Y01925
X027Y0223
X028
T02
X01675Y01915
X01718Y02278
X0207Y02395
X02067Y02108
X02225Y01965
X02375Y02321
X02495Y0231
X025926Y0233
X02455Y02405
X02825Y0357
T03
X0147Y0146
Y0156
X0157
Y0146
X02505Y0196
Y02155
X0268Y02555
X0278
Y02655
X0268
X0119Y0167
T05
X016284Y02625
X014316
X012834Y0262
X010866
X010916Y01895
X012884
T06
X02295Y014
Y01495
X02595
Y014
X02715Y01395
X0271Y014982
X0301
X03015Y01395
X0301Y015967
Y016951
Y017935
Y018919
Y019904
Y02095
X0271
Y019904
Y018919
Y017935
Y016951
Y015967
X02595Y015867
Y016851
Y017835
X02295
Y016851
Y015867
X0225Y024056
Y025041
Y026025
Y02715
X0255
Y026025
Y025041
Y024056
X01485Y02395
X0139
X01295
X012
X01105
Y02095
X012
X01295
X0139
X01485
T07
X0128Y01415
Y0167
X01105
T09
X0186Y01415
Y01515
X0216
Y01415
X0252Y0121
X0262
X0272
X0282
X0292
Y0111
X0282
X0272
X0262
X0252
X0216Y01615
Y01715
Y01815
Y01915
Y02015
Y02115
Y02215
Y02315
Y02415
Y02515
Y02615
Y02715
X02175Y0287
Y0297
Y0307
X02275Y03075
Y02975
Y02875
X02575
Y02975
Y03075
X03075Y0312
Y0302
Y0292
Y0282
Y0272
Y0262
Y0252
Y0242
Y0232
Y0222
X0186Y02215
Y02115
Y02015
Y01915
Y01815
Y01715
Y01615
X0172Y01705
X0162
Y02005
X0172
X0186Y02315
Y02415
Y02515
Y02615
Y02715
X01875Y0287
X0178
Y0297
X01875
Y0307
X0178
X0148
X01385
Y0297
X0148
Y0287
X01385
X01085
Y0297
Y0307
X0142Y02005
X0152
Y01705
X0142
X01385Y0317
X0148
X01085
X0178
X01875
X02175
X02275Y03175
X02575
T10
X0122Y01155
X01415
X01655
X0185
X02085
X0228
X01445Y0341
X0164
T11
X0098Y0129
X03115Y013
X01085Y03445
X03045Y03465
M30
