M48
;Layer_Color=9474304
;FILE_FORMAT=2:4
INCH,TZ
T12F00S00C0.2000
%
G90
G05
T12
G00X31250Y9300
M15
G01X31449Y9320
G01X31640Y9379
G01X31815Y9475
G01X31957Y9593
G01X33207Y10843
G01X33334Y10998
G01X33427Y11174
G01X33483Y11366
G01X33500Y11550
G01X33500Y14750
G01X33480Y14949
G01X33421Y15140
G01X33325Y15315
G01X33207Y15457
G01X32200Y16464
G01X32200Y31136
G01X33157Y32093
G01X33284Y32248
G01X33377Y32424
G01X33433Y32616
G01X33450Y32800
G01X33450Y35800
G01X33430Y35999
G01X33371Y36190
G01X33275Y36365
G01X33157Y36507
G01X31907Y37757
G01X31752Y37884
G01X31576Y37977
G01X31384Y38033
G01X31200Y38050
G01X28200Y38050
G01X28001Y38030
G01X27810Y37971
G01X27635Y37875
G01X27493Y37757
G01X26536Y36800
G01X14914Y36800
G01X13957Y37757
G01X13802Y37884
G01X13626Y37977
G01X13434Y38033
G01X13250Y38050
G01X10350Y38050
G01X10151Y38030
G01X9960Y37971
G01X9785Y37875
G01X9643Y37757
G01X8293Y36407
G01X8166Y36252
G01X8073Y36076
G01X8017Y35884
G01X8000Y35700
G01X8000Y32800
G01X8020Y32601
G01X8079Y32410
G01X8175Y32235
G01X8293Y32093
G01X9300Y31086
G01X9300Y16514
G01X7943Y15157
G01X7816Y15002
G01X7723Y14826
G01X7667Y14634
G01X7650Y14450
G01X7650Y11500
G01X7670Y11301
G01X7729Y11110
G01X7825Y10935
G01X7943Y10793
G01X9143Y9593
G01X9298Y9466
G01X9474Y9373
G01X9666Y9317
G01X9850Y9300
G01X31250Y9300
M16
M17
M30
