%FSAX24Y24*%
%MOIN*%
G70*
G01*
G75*
G04 Layer_Physical_Order=2*
G04 Layer_Color=16711680*
%ADD10R,0.0591X0.0551*%
%ADD11R,0.0551X0.0591*%
%ADD12C,0.0100*%
%ADD13C,0.0472*%
%ADD14C,0.0400*%
%ADD15C,0.0591*%
%ADD16R,0.0591X0.0591*%
%ADD17C,0.1000*%
%ADD18R,0.0591X0.0591*%
%ADD19C,0.0532*%
%ADD20R,0.0532X0.0532*%
%ADD21C,0.0551*%
%ADD22C,0.0600*%
%ADD23C,0.0700*%
%ADD24C,0.0500*%
G36*
X025072Y030142D02*
X025121Y030109D01*
X025180Y030097D01*
X025471D01*
X025488Y030047D01*
X025468Y030032D01*
X025405Y029949D01*
X025386Y029903D01*
X023813D01*
X023116Y030600D01*
X023135Y030647D01*
X023149Y030750D01*
X023135Y030853D01*
X023095Y030949D01*
X023059Y030997D01*
X023083Y031047D01*
X024167D01*
X025072Y030142D01*
D02*
G37*
G36*
X030369Y030314D02*
X030365Y030303D01*
X030351Y030200D01*
X030365Y030097D01*
X030405Y030001D01*
X030468Y029918D01*
X030551Y029855D01*
X030647Y029815D01*
X030750Y029801D01*
X030853Y029815D01*
X030949Y029855D01*
X031032Y029918D01*
X031047Y029938D01*
X031097Y029921D01*
Y029479D01*
X031047Y029462D01*
X031032Y029482D01*
X030949Y029545D01*
X030853Y029585D01*
X030750Y029599D01*
X030647Y029585D01*
X030565Y029551D01*
X029258Y030858D01*
X029209Y030891D01*
X029150Y030903D01*
X026114D01*
X026095Y030949D01*
X026059Y030997D01*
X026083Y031047D01*
X029637D01*
X030369Y030314D01*
D02*
G37*
G36*
X010505Y030501D02*
X010568Y030418D01*
X010651Y030355D01*
X010747Y030315D01*
X010850Y030301D01*
X010953Y030315D01*
X011000Y030334D01*
X011242Y030092D01*
X011291Y030059D01*
X011350Y030047D01*
X013571D01*
X013588Y029997D01*
X013568Y029982D01*
X013505Y029899D01*
X013465Y029803D01*
X013451Y029700D01*
X013465Y029597D01*
X013505Y029501D01*
X013541Y029453D01*
X013517Y029403D01*
X011363D01*
X011216Y029550D01*
X011235Y029597D01*
X011249Y029700D01*
X011235Y029803D01*
X011195Y029899D01*
X011132Y029982D01*
X011049Y030045D01*
X010953Y030085D01*
X010850Y030099D01*
X010747Y030085D01*
X010651Y030045D01*
X010568Y029982D01*
X010505Y029899D01*
X010502Y029893D01*
X010452Y029903D01*
Y030497D01*
X010502Y030507D01*
X010505Y030501D01*
D02*
G37*
G36*
X017434Y029850D02*
X017415Y029803D01*
X017401Y029700D01*
X017415Y029597D01*
X017455Y029501D01*
X017491Y029453D01*
X017467Y029403D01*
X015313D01*
X015166Y029550D01*
X015185Y029597D01*
X015199Y029700D01*
X015185Y029803D01*
X015145Y029899D01*
X015082Y029982D01*
X014999Y030045D01*
X014903Y030085D01*
X014800Y030099D01*
X014697Y030085D01*
X014601Y030045D01*
X014518Y029982D01*
X014455Y029899D01*
X014415Y029803D01*
X014401Y029700D01*
X014415Y029597D01*
X014434Y029550D01*
X014287Y029403D01*
X014183D01*
X014159Y029453D01*
X014195Y029501D01*
X014235Y029597D01*
X014249Y029700D01*
X014235Y029803D01*
X014216Y029850D01*
X014686Y030319D01*
X014697Y030315D01*
X014800Y030301D01*
X014903Y030315D01*
X014999Y030355D01*
X015082Y030418D01*
X015104Y030447D01*
X016837D01*
X017434Y029850D01*
D02*
G37*
G36*
X025441Y030997D02*
X025405Y030949D01*
X025365Y030853D01*
X025351Y030750D01*
X025365Y030647D01*
X025405Y030551D01*
X025468Y030468D01*
X025488Y030453D01*
X025471Y030403D01*
X025243D01*
X024645Y031001D01*
X024665Y031047D01*
X025417D01*
X025441Y030997D01*
D02*
G37*
G36*
X022441D02*
X022405Y030949D01*
X022365Y030853D01*
X022351Y030750D01*
X022365Y030647D01*
X022405Y030551D01*
X022468Y030468D01*
X022551Y030405D01*
X022647Y030365D01*
X022750Y030351D01*
X022853Y030365D01*
X022900Y030384D01*
X023642Y029642D01*
X023691Y029609D01*
X023750Y029597D01*
X025386D01*
X025405Y029551D01*
X025468Y029468D01*
X025551Y029405D01*
X025647Y029365D01*
X025750Y029351D01*
X025853Y029365D01*
X025949Y029405D01*
X026032Y029468D01*
X026095Y029551D01*
X026135Y029647D01*
X026149Y029750D01*
X026135Y029853D01*
X026095Y029949D01*
X026032Y030032D01*
X026012Y030047D01*
X026029Y030097D01*
X027137D01*
X027647Y029587D01*
Y026920D01*
X027598Y026899D01*
X027515Y026835D01*
X027451Y026752D01*
X027430Y026703D01*
X027170D01*
X027149Y026752D01*
X027085Y026835D01*
X027002Y026899D01*
X026904Y026940D01*
X026800Y026953D01*
X026696Y026940D01*
X026598Y026899D01*
X026515Y026835D01*
X026451Y026752D01*
X026410Y026654D01*
X026397Y026550D01*
X026410Y026446D01*
X026451Y026348D01*
X026485Y026303D01*
X026461Y026253D01*
X026413D01*
X025958Y026708D01*
X025909Y026741D01*
X025850Y026753D01*
X025654D01*
X025644Y026803D01*
X025689Y026822D01*
X025768Y026882D01*
X025828Y026961D01*
X025866Y027052D01*
X025879Y027150D01*
X025866Y027248D01*
X025828Y027339D01*
X025768Y027418D01*
X025689Y027478D01*
X025598Y027516D01*
X025500Y027529D01*
X025402Y027516D01*
X025311Y027478D01*
X025232Y027418D01*
X025172Y027339D01*
X025134Y027248D01*
X025121Y027150D01*
X025134Y027052D01*
X025172Y026961D01*
X025232Y026882D01*
X025311Y026822D01*
X025356Y026803D01*
X025346Y026753D01*
X022654D01*
X022644Y026803D01*
X022689Y026822D01*
X022768Y026882D01*
X022828Y026961D01*
X022866Y027052D01*
X022879Y027150D01*
X022866Y027248D01*
X022828Y027339D01*
X022768Y027418D01*
X022689Y027478D01*
X022598Y027516D01*
X022500Y027529D01*
X022402Y027516D01*
X022311Y027478D01*
X022232Y027418D01*
X022172Y027339D01*
X022134Y027248D01*
X022121Y027150D01*
X022134Y027052D01*
X022172Y026961D01*
X022232Y026882D01*
X022311Y026822D01*
X022356Y026803D01*
X022346Y026753D01*
X021805D01*
X021795Y026803D01*
X021799Y026805D01*
X021882Y026868D01*
X021945Y026951D01*
X021985Y027047D01*
X021999Y027150D01*
X021985Y027253D01*
X021945Y027349D01*
X021882Y027432D01*
X021799Y027495D01*
X021703Y027535D01*
X021600Y027549D01*
X021497Y027535D01*
X021401Y027495D01*
X021318Y027432D01*
X021255Y027349D01*
X021215Y027253D01*
X021201Y027150D01*
X021215Y027047D01*
X021255Y026951D01*
X021318Y026868D01*
X021401Y026805D01*
X021405Y026803D01*
X021395Y026753D01*
X018805D01*
X018795Y026803D01*
X018799Y026805D01*
X018882Y026868D01*
X018945Y026951D01*
X018985Y027047D01*
X018999Y027150D01*
X018985Y027253D01*
X018945Y027349D01*
X018882Y027432D01*
X018799Y027495D01*
X018703Y027535D01*
X018600Y027549D01*
X018497Y027535D01*
X018401Y027495D01*
X018318Y027432D01*
X018255Y027349D01*
X018215Y027253D01*
X018201Y027150D01*
X018215Y027047D01*
X018255Y026951D01*
X018318Y026868D01*
X018401Y026805D01*
X018405Y026803D01*
X018395Y026753D01*
X018150D01*
X018091Y026741D01*
X018042Y026708D01*
X018028Y026695D01*
X017981Y026711D01*
X017978Y026738D01*
X017944Y026820D01*
X017890Y026890D01*
X017820Y026944D01*
X017738Y026978D01*
X017650Y026989D01*
X017562Y026978D01*
X017480Y026944D01*
X017410Y026890D01*
X017356Y026820D01*
X017349Y026803D01*
X016684D01*
X016635Y026793D01*
X016626Y026791D01*
X016576Y026758D01*
X016434Y026616D01*
X015919D01*
Y025983D01*
X014635D01*
X014610Y026033D01*
X014635Y026066D01*
X014672Y026155D01*
X014685Y026250D01*
X014672Y026345D01*
X014635Y026434D01*
X014577Y026511D01*
X014500Y026569D01*
X014411Y026606D01*
X014316Y026619D01*
X014220Y026606D01*
X014131Y026569D01*
X014055Y026511D01*
X013996Y026434D01*
X013959Y026345D01*
X013947Y026250D01*
X013959Y026155D01*
X013996Y026066D01*
X014021Y026033D01*
X013997Y025983D01*
X013268D01*
X013200Y026051D01*
Y026566D01*
X012469D01*
Y025834D01*
X012984D01*
X013096Y025722D01*
X013146Y025689D01*
X013204Y025677D01*
X017130D01*
X017189Y025689D01*
X017238Y025722D01*
X017275Y025758D01*
X017319Y025739D01*
X017322Y025735D01*
X017311Y025650D01*
X017322Y025562D01*
X017329Y025546D01*
X015887Y024103D01*
X015193D01*
X015178Y024139D01*
X015118Y024218D01*
X015039Y024278D01*
X014948Y024316D01*
X014850Y024329D01*
X014752Y024316D01*
X014661Y024278D01*
X014582Y024218D01*
X014522Y024139D01*
X014503Y024094D01*
X014491Y024091D01*
X014442Y024058D01*
X014409Y024009D01*
X014397Y023950D01*
X014409Y023891D01*
X014442Y023842D01*
X014491Y023809D01*
X014503Y023806D01*
X014522Y023761D01*
X014582Y023682D01*
X014661Y023622D01*
X014752Y023584D01*
X014850Y023571D01*
X014948Y023584D01*
X015039Y023622D01*
X015118Y023682D01*
X015178Y023761D01*
X015193Y023797D01*
X015950D01*
X016009Y023809D01*
X016058Y023842D01*
X017546Y025329D01*
X017562Y025322D01*
X017650Y025311D01*
X017738Y025322D01*
X017820Y025356D01*
X017890Y025410D01*
X017944Y025480D01*
X017978Y025562D01*
X017989Y025650D01*
X017978Y025738D01*
X017944Y025820D01*
X017890Y025890D01*
X017820Y025944D01*
X017773Y025963D01*
X017771Y025971D01*
X017772Y026018D01*
X017808Y026042D01*
X018213Y026447D01*
X018267D01*
X018291Y026397D01*
X018255Y026349D01*
X018215Y026253D01*
X018201Y026150D01*
X018215Y026047D01*
X018255Y025951D01*
X018318Y025868D01*
X018401Y025805D01*
X018497Y025765D01*
X018600Y025751D01*
X018703Y025765D01*
X018750Y025784D01*
X019992Y024542D01*
X020041Y024509D01*
X020100Y024497D01*
X021321D01*
X021338Y024447D01*
X021318Y024432D01*
X021255Y024349D01*
X021215Y024253D01*
X021201Y024150D01*
X021215Y024047D01*
X021255Y023951D01*
X021318Y023868D01*
X021351Y023843D01*
X021334Y023793D01*
X021100D01*
X021065Y023786D01*
X021028Y023828D01*
X021041Y023859D01*
X021053Y023950D01*
X021041Y024041D01*
X021006Y024127D01*
X020950Y024200D01*
X020877Y024256D01*
X020791Y024291D01*
X020700Y024303D01*
X020609Y024291D01*
X020578Y024278D01*
X020559Y024291D01*
X020500Y024303D01*
X018964D01*
X018945Y024349D01*
X018882Y024432D01*
X018799Y024495D01*
X018703Y024535D01*
X018600Y024549D01*
X018497Y024535D01*
X018401Y024495D01*
X018318Y024432D01*
X018255Y024349D01*
X018215Y024253D01*
X018201Y024150D01*
X018215Y024047D01*
X018255Y023951D01*
X018318Y023868D01*
X018401Y023805D01*
X018497Y023765D01*
X018600Y023751D01*
X018703Y023765D01*
X018799Y023805D01*
X018882Y023868D01*
X018945Y023951D01*
X018964Y023997D01*
X020315D01*
X020348Y023959D01*
X020347Y023950D01*
X020359Y023859D01*
X020394Y023773D01*
X020450Y023700D01*
X020523Y023644D01*
X020609Y023609D01*
X020700Y023597D01*
X020781Y023608D01*
X020801Y023579D01*
X020807Y023563D01*
X020547Y023303D01*
X018964D01*
X018945Y023349D01*
X018882Y023432D01*
X018799Y023495D01*
X018703Y023535D01*
X018600Y023549D01*
X018497Y023535D01*
X018401Y023495D01*
X018318Y023432D01*
X018255Y023349D01*
X018215Y023253D01*
X018201Y023150D01*
X018215Y023047D01*
X018255Y022951D01*
X018318Y022868D01*
X018338Y022853D01*
X018321Y022803D01*
X017530D01*
X017521Y022871D01*
X017486Y022957D01*
X017430Y023030D01*
X017357Y023086D01*
X017271Y023121D01*
X017180Y023133D01*
X017089Y023121D01*
X017003Y023086D01*
X016930Y023030D01*
X016874Y022957D01*
X016839Y022871D01*
X016827Y022780D01*
X016839Y022689D01*
X016874Y022603D01*
X016930Y022530D01*
X017003Y022474D01*
X017089Y022439D01*
X017180Y022427D01*
X017271Y022439D01*
X017357Y022474D01*
X017386Y022497D01*
X018321D01*
X018338Y022447D01*
X018318Y022432D01*
X018255Y022349D01*
X018236Y022303D01*
X015463D01*
X014147Y023619D01*
X014151Y023669D01*
X014168Y023682D01*
X014228Y023761D01*
X014266Y023852D01*
X014279Y023950D01*
X014266Y024048D01*
X014228Y024139D01*
X014168Y024218D01*
X014089Y024278D01*
X013998Y024316D01*
X013900Y024329D01*
X013802Y024316D01*
X013711Y024278D01*
X013632Y024218D01*
X013572Y024139D01*
X013553Y024094D01*
X013541Y024091D01*
X013492Y024058D01*
X013459Y024009D01*
X013447Y023950D01*
X013459Y023891D01*
X013492Y023842D01*
X013571Y023763D01*
X013572Y023761D01*
X013632Y023682D01*
X013711Y023622D01*
X013713Y023621D01*
X015292Y022042D01*
X015341Y022009D01*
X015351Y022007D01*
X015400Y021997D01*
X018236D01*
X018255Y021951D01*
X018318Y021868D01*
X018401Y021805D01*
X018497Y021765D01*
X018600Y021751D01*
X018703Y021765D01*
X018799Y021805D01*
X018882Y021868D01*
X018945Y021951D01*
X018985Y022047D01*
X018999Y022150D01*
X018985Y022253D01*
X018945Y022349D01*
X018882Y022432D01*
X018862Y022447D01*
X018879Y022497D01*
X019597D01*
X020414Y021679D01*
X020395Y021633D01*
X019930D01*
X019872Y021622D01*
X019822Y021588D01*
X018750Y020516D01*
X018703Y020535D01*
X018650Y020542D01*
Y020200D01*
X018992D01*
X018985Y020253D01*
X018966Y020300D01*
X019994Y021327D01*
X020362D01*
X020384Y021282D01*
X020364Y021257D01*
X020329Y021171D01*
X020317Y021080D01*
X020329Y020989D01*
X020364Y020903D01*
X020420Y020830D01*
X020493Y020774D01*
X020579Y020739D01*
X020670Y020727D01*
X020761Y020739D01*
X020785Y020749D01*
X020942Y020592D01*
X020991Y020559D01*
X021050Y020547D01*
X021395D01*
X021405Y020497D01*
X021401Y020495D01*
X021318Y020432D01*
X021255Y020349D01*
X021215Y020253D01*
X021201Y020150D01*
X021215Y020047D01*
X021234Y020000D01*
X020987Y019753D01*
X018805D01*
X018795Y019803D01*
X018799Y019805D01*
X018882Y019868D01*
X018945Y019951D01*
X018985Y020047D01*
X018992Y020100D01*
X018208D01*
X018215Y020047D01*
X018255Y019951D01*
X018318Y019868D01*
X018401Y019805D01*
X018405Y019803D01*
X018395Y019753D01*
X017533D01*
X017509Y019803D01*
X017545Y019851D01*
X017585Y019947D01*
X017599Y020050D01*
X017585Y020153D01*
X017545Y020249D01*
X017482Y020332D01*
X017399Y020395D01*
X017303Y020435D01*
X017200Y020449D01*
X017097Y020435D01*
X017001Y020395D01*
X016918Y020332D01*
X016855Y020249D01*
X016815Y020153D01*
X016801Y020050D01*
X016815Y019947D01*
X016855Y019851D01*
X016891Y019803D01*
X016867Y019753D01*
X016533D01*
X016509Y019803D01*
X016545Y019851D01*
X016585Y019947D01*
X016599Y020050D01*
X016585Y020153D01*
X016545Y020249D01*
X016482Y020332D01*
X016399Y020395D01*
X016303Y020435D01*
X016200Y020449D01*
X016097Y020435D01*
X016050Y020416D01*
X015838Y020628D01*
X015789Y020661D01*
X015730Y020673D01*
X015174D01*
X015149Y020723D01*
X015178Y020761D01*
X015193Y020797D01*
X017737D01*
X018234Y020300D01*
X018215Y020253D01*
X018208Y020200D01*
X018550D01*
Y020542D01*
X018497Y020535D01*
X018450Y020516D01*
X017908Y021058D01*
X017859Y021091D01*
X017800Y021103D01*
X015193D01*
X015178Y021139D01*
X015118Y021218D01*
X015039Y021278D01*
X014948Y021316D01*
X014900Y021322D01*
Y020950D01*
X014800D01*
Y021322D01*
X014752Y021316D01*
X014715Y021301D01*
X014488Y021528D01*
X014439Y021561D01*
X014380Y021573D01*
X013420D01*
X013361Y021561D01*
X013312Y021528D01*
X013085Y021301D01*
X013048Y021316D01*
X013000Y021322D01*
Y020950D01*
X012900D01*
Y021322D01*
X012852Y021316D01*
X012761Y021278D01*
X012682Y021218D01*
X012653Y021180D01*
X012603Y021197D01*
Y022550D01*
X012591Y022609D01*
X012558Y022658D01*
X011401Y023815D01*
X011416Y023852D01*
X011429Y023950D01*
X011416Y024048D01*
X011378Y024139D01*
X011318Y024218D01*
X011239Y024278D01*
X011148Y024316D01*
X011050Y024329D01*
X010952Y024316D01*
X010861Y024278D01*
X010782Y024218D01*
X010722Y024139D01*
X010684Y024048D01*
X010671Y023950D01*
X010684Y023852D01*
X010722Y023761D01*
X010782Y023682D01*
X010861Y023622D01*
X010952Y023584D01*
X011050Y023571D01*
X011148Y023584D01*
X011185Y023599D01*
X012297Y022487D01*
Y021258D01*
X012247Y021234D01*
X012189Y021278D01*
X012098Y021316D01*
X012000Y021329D01*
X011902Y021316D01*
X011811Y021278D01*
X011732Y021218D01*
X011672Y021139D01*
X011634Y021048D01*
X011621Y020950D01*
X011634Y020852D01*
X011672Y020761D01*
X011732Y020682D01*
X011747Y020671D01*
Y020485D01*
X011701Y020465D01*
X011386Y020780D01*
X011416Y020852D01*
X011429Y020950D01*
X011416Y021048D01*
X011378Y021139D01*
X011318Y021218D01*
X011239Y021278D01*
X011148Y021316D01*
X011050Y021329D01*
X010952Y021316D01*
X010861Y021278D01*
X010782Y021218D01*
X010722Y021139D01*
X010684Y021048D01*
X010671Y020950D01*
X010684Y020852D01*
X010722Y020761D01*
X010782Y020682D01*
X010861Y020622D01*
X010952Y020584D01*
X011050Y020571D01*
X011148Y020584D01*
X011149Y020585D01*
X012272Y019462D01*
X012321Y019429D01*
X012331Y019427D01*
X012380Y019417D01*
X013287D01*
X015047Y017657D01*
Y017414D01*
X015001Y017395D01*
X014918Y017332D01*
X014855Y017249D01*
X014815Y017153D01*
X014801Y017050D01*
X014815Y016947D01*
X014855Y016851D01*
X014918Y016768D01*
X015001Y016705D01*
X015097Y016665D01*
X015200Y016651D01*
X015303Y016665D01*
X015399Y016705D01*
X015482Y016768D01*
X015545Y016851D01*
X015585Y016947D01*
X015599Y017050D01*
X015585Y017153D01*
X015545Y017249D01*
X015482Y017332D01*
X015399Y017395D01*
X015353Y017414D01*
Y017720D01*
X015341Y017779D01*
X015308Y017828D01*
X013545Y019591D01*
X013565Y019637D01*
X013687D01*
X013832Y019492D01*
X013881Y019459D01*
X013940Y019447D01*
X016484D01*
X016496Y019414D01*
X016498Y019397D01*
X016444Y019327D01*
X016409Y019241D01*
X016397Y019150D01*
X016409Y019059D01*
X016444Y018973D01*
X016500Y018900D01*
X016573Y018844D01*
X016659Y018809D01*
X016750Y018797D01*
X016841Y018809D01*
X016927Y018844D01*
X017000Y018900D01*
X017056Y018973D01*
X017065Y018997D01*
X018236D01*
X018255Y018951D01*
X018318Y018868D01*
X018401Y018805D01*
X018497Y018765D01*
X018600Y018751D01*
X018703Y018765D01*
X018799Y018805D01*
X018882Y018868D01*
X018945Y018951D01*
X018985Y019047D01*
X018999Y019150D01*
X018985Y019253D01*
X018945Y019349D01*
X018909Y019397D01*
X018933Y019447D01*
X021050D01*
X021109Y019459D01*
X021158Y019492D01*
X021450Y019784D01*
X021497Y019765D01*
X021600Y019751D01*
X021703Y019765D01*
X021799Y019805D01*
X021882Y019868D01*
X021945Y019951D01*
X021985Y020047D01*
X021999Y020150D01*
X021985Y020253D01*
X021945Y020349D01*
X021882Y020432D01*
X021799Y020495D01*
X021795Y020497D01*
X021805Y020547D01*
X022603D01*
X022620Y020497D01*
X022610Y020490D01*
X022556Y020420D01*
X022522Y020338D01*
X022511Y020250D01*
X022522Y020162D01*
X022556Y020080D01*
X022610Y020010D01*
X022680Y019956D01*
X022762Y019922D01*
X022850Y019911D01*
X022938Y019922D01*
X023020Y019956D01*
X023090Y020010D01*
X023144Y020080D01*
X023178Y020162D01*
X023189Y020250D01*
X023178Y020338D01*
X023144Y020420D01*
X023090Y020490D01*
X023080Y020497D01*
X023097Y020547D01*
X026240D01*
X026749Y020038D01*
X026734Y020002D01*
X026721Y019904D01*
X026734Y019805D01*
X026772Y019714D01*
X026832Y019636D01*
X026911Y019575D01*
X027002Y019538D01*
X027100Y019525D01*
X027198Y019538D01*
X027289Y019575D01*
X027368Y019636D01*
X027428Y019714D01*
X027466Y019805D01*
X027479Y019904D01*
X027466Y020002D01*
X027428Y020093D01*
X027368Y020171D01*
X027289Y020232D01*
X027198Y020269D01*
X027100Y020282D01*
X027002Y020269D01*
X026965Y020254D01*
X026412Y020808D01*
X026362Y020841D01*
X026304Y020853D01*
X021933D01*
X021909Y020903D01*
X021945Y020951D01*
X021964Y020997D01*
X022200D01*
X022259Y021009D01*
X022308Y021042D01*
X022746Y021479D01*
X022762Y021472D01*
X022800Y021467D01*
Y021800D01*
X022850D01*
Y021850D01*
X023216D01*
X023220Y021855D01*
X024716D01*
X024741Y021805D01*
X024701Y021752D01*
X024660Y021654D01*
X024647Y021550D01*
X024660Y021446D01*
X024701Y021348D01*
X024765Y021265D01*
X024848Y021201D01*
X024946Y021160D01*
X025050Y021147D01*
X025154Y021160D01*
X025252Y021201D01*
X025335Y021265D01*
X025399Y021348D01*
X025440Y021446D01*
X025452Y021541D01*
X025479Y021557D01*
X025502Y021561D01*
X025551Y021529D01*
X025610Y021517D01*
X027370D01*
X027429Y021529D01*
X027478Y021562D01*
X027896Y021979D01*
X027912Y021972D01*
X027950Y021967D01*
Y022250D01*
X027667D01*
X027672Y022212D01*
X027679Y022196D01*
X027307Y021823D01*
X025673D01*
X025399Y022097D01*
X025402Y022119D01*
X025418Y022149D01*
X025465Y022159D01*
X025514Y022192D01*
X025634Y022311D01*
X025667Y022361D01*
X025679Y022419D01*
Y022992D01*
X025723Y023014D01*
X025749Y022994D01*
X025834Y022959D01*
X025926Y022947D01*
X026017Y022959D01*
X026102Y022994D01*
X026175Y023050D01*
X026231Y023123D01*
X026241Y023147D01*
X027201D01*
X027206Y023144D01*
X027265Y023132D01*
X027324Y023144D01*
X027373Y023177D01*
X027563Y023367D01*
X030020D01*
X030079Y023379D01*
X030128Y023412D01*
X030565Y023849D01*
X030647Y023815D01*
X030750Y023801D01*
X030853Y023815D01*
X030949Y023855D01*
X031032Y023918D01*
X031047Y023938D01*
X031097Y023921D01*
Y023479D01*
X031047Y023462D01*
X031032Y023482D01*
X030949Y023545D01*
X030853Y023585D01*
X030750Y023599D01*
X030647Y023585D01*
X030551Y023545D01*
X030468Y023482D01*
X030405Y023399D01*
X030365Y023303D01*
X030351Y023200D01*
X030365Y023097D01*
X030405Y023001D01*
X030468Y022918D01*
X030551Y022855D01*
X030647Y022815D01*
X030750Y022801D01*
X030853Y022815D01*
X030949Y022855D01*
X031032Y022918D01*
X031047Y022938D01*
X031097Y022921D01*
Y022595D01*
X030800D01*
Y022200D01*
Y021805D01*
X031097D01*
Y016050D01*
X031109Y015991D01*
X031142Y015942D01*
X032397Y014687D01*
Y011613D01*
X031237Y010453D01*
X009913D01*
X008828Y011538D01*
Y014415D01*
X010407Y015995D01*
X010441Y016044D01*
X010452Y016103D01*
Y026155D01*
X010502Y026159D01*
X010509Y026105D01*
X010546Y026016D01*
X010605Y025939D01*
X010681Y025881D01*
X010770Y025844D01*
X010866Y025831D01*
X010961Y025844D01*
X011050Y025881D01*
X011127Y025939D01*
X011185Y026016D01*
X011222Y026105D01*
X011235Y026200D01*
X011222Y026295D01*
X011185Y026384D01*
X011127Y026461D01*
X011050Y026519D01*
X010961Y026556D01*
X010866Y026569D01*
X010770Y026556D01*
X010681Y026519D01*
X010605Y026461D01*
X010546Y026384D01*
X010509Y026295D01*
X010502Y026241D01*
X010452Y026245D01*
Y028497D01*
X010502Y028507D01*
X010505Y028501D01*
X010568Y028418D01*
X010651Y028355D01*
X010747Y028315D01*
X010850Y028301D01*
X010953Y028315D01*
X011049Y028355D01*
X011132Y028418D01*
X011195Y028501D01*
X011235Y028597D01*
X011249Y028700D01*
X011235Y028803D01*
X011195Y028899D01*
X011132Y028982D01*
X011049Y029045D01*
X010953Y029085D01*
X010850Y029099D01*
X010747Y029085D01*
X010651Y029045D01*
X010568Y028982D01*
X010505Y028899D01*
X010502Y028893D01*
X010452Y028903D01*
Y029497D01*
X010502Y029507D01*
X010505Y029501D01*
X010568Y029418D01*
X010651Y029355D01*
X010747Y029315D01*
X010850Y029301D01*
X010953Y029315D01*
X011000Y029334D01*
X011192Y029142D01*
X011241Y029109D01*
X011300Y029097D01*
X013405D01*
X013455Y029095D01*
X013455Y029047D01*
Y028305D01*
X014245D01*
Y029047D01*
X014245Y029095D01*
X014295Y029097D01*
X014350D01*
X014409Y029109D01*
X014458Y029142D01*
X014650Y029334D01*
X014697Y029315D01*
X014800Y029301D01*
X014903Y029315D01*
X014950Y029334D01*
X015142Y029142D01*
X015191Y029109D01*
X015250Y029097D01*
X017355D01*
X017405Y029095D01*
X017405Y029047D01*
Y028305D01*
X018195D01*
Y029047D01*
X018195Y029095D01*
X018245Y029097D01*
X018300D01*
X018359Y029109D01*
X018408Y029142D01*
X018600Y029334D01*
X018647Y029315D01*
X018750Y029301D01*
X018853Y029315D01*
X018900Y029334D01*
X019132Y029102D01*
X019181Y029069D01*
X019240Y029057D01*
X021355D01*
Y028305D01*
X022145D01*
Y029057D01*
X022210D01*
X022269Y029069D01*
X022318Y029102D01*
X022600Y029384D01*
X022647Y029365D01*
X022750Y029351D01*
X022853Y029365D01*
X022949Y029405D01*
X023032Y029468D01*
X023095Y029551D01*
X023135Y029647D01*
X023149Y029750D01*
X023135Y029853D01*
X023095Y029949D01*
X023032Y030032D01*
X022949Y030095D01*
X022853Y030135D01*
X022750Y030149D01*
X022647Y030135D01*
X022551Y030095D01*
X022468Y030032D01*
X022405Y029949D01*
X022365Y029853D01*
X022351Y029750D01*
X022365Y029647D01*
X022384Y029600D01*
X022147Y029363D01*
X022038D01*
X022022Y029410D01*
X022032Y029418D01*
X022095Y029501D01*
X022135Y029597D01*
X022149Y029700D01*
X022135Y029803D01*
X022095Y029899D01*
X022032Y029982D01*
X021949Y030045D01*
X021853Y030085D01*
X021750Y030099D01*
X021647Y030085D01*
X021551Y030045D01*
X021468Y029982D01*
X021405Y029899D01*
X021386Y029853D01*
X019813D01*
X019116Y030550D01*
X019135Y030597D01*
X019149Y030700D01*
X019135Y030803D01*
X019095Y030899D01*
X019032Y030982D01*
X019012Y030997D01*
X019029Y031047D01*
X021471D01*
X021488Y030997D01*
X021468Y030982D01*
X021405Y030899D01*
X021365Y030803D01*
X021351Y030700D01*
X021365Y030597D01*
X021405Y030501D01*
X021468Y030418D01*
X021551Y030355D01*
X021647Y030315D01*
X021750Y030301D01*
X021853Y030315D01*
X021949Y030355D01*
X022032Y030418D01*
X022095Y030501D01*
X022135Y030597D01*
X022149Y030700D01*
X022135Y030803D01*
X022095Y030899D01*
X022032Y030982D01*
X022012Y030997D01*
X022029Y031047D01*
X022417D01*
X022441Y030997D01*
D02*
G37*
G36*
X018488D02*
X018468Y030982D01*
X018405Y030899D01*
X018365Y030803D01*
X018351Y030700D01*
X018365Y030597D01*
X018405Y030501D01*
X018468Y030418D01*
X018551Y030355D01*
X018647Y030315D01*
X018750Y030301D01*
X018853Y030315D01*
X018900Y030334D01*
X019642Y029592D01*
X019691Y029559D01*
X019750Y029547D01*
X021386D01*
X021405Y029501D01*
X021468Y029418D01*
X021478Y029410D01*
X021462Y029363D01*
X019303D01*
X019116Y029550D01*
X019135Y029597D01*
X019149Y029700D01*
X019135Y029803D01*
X019095Y029899D01*
X019032Y029982D01*
X018949Y030045D01*
X018853Y030085D01*
X018750Y030099D01*
X018647Y030085D01*
X018551Y030045D01*
X018468Y029982D01*
X018405Y029899D01*
X018365Y029803D01*
X018351Y029700D01*
X018365Y029597D01*
X018384Y029550D01*
X018237Y029403D01*
X018133D01*
X018109Y029453D01*
X018145Y029501D01*
X018185Y029597D01*
X018199Y029700D01*
X018185Y029803D01*
X018145Y029899D01*
X018082Y029982D01*
X017999Y030045D01*
X017903Y030085D01*
X017800Y030099D01*
X017697Y030085D01*
X017650Y030066D01*
X017008Y030708D01*
X016959Y030741D01*
X016900Y030753D01*
X015192D01*
X015185Y030803D01*
X015145Y030899D01*
X015109Y030947D01*
X015133Y030997D01*
X017287D01*
X017434Y030850D01*
X017415Y030803D01*
X017401Y030700D01*
X017415Y030597D01*
X017455Y030501D01*
X017518Y030418D01*
X017601Y030355D01*
X017697Y030315D01*
X017800Y030301D01*
X017903Y030315D01*
X017999Y030355D01*
X018082Y030418D01*
X018145Y030501D01*
X018185Y030597D01*
X018199Y030700D01*
X018185Y030803D01*
X018166Y030850D01*
X018363Y031047D01*
X018471D01*
X018488Y030997D01*
D02*
G37*
G36*
X030369Y029314D02*
X030365Y029303D01*
X030351Y029200D01*
X030365Y029097D01*
X030405Y029001D01*
X030468Y028918D01*
X030551Y028855D01*
X030647Y028815D01*
X030750Y028801D01*
X030853Y028815D01*
X030949Y028855D01*
X031032Y028918D01*
X031047Y028938D01*
X031097Y028921D01*
Y028479D01*
X031047Y028462D01*
X031032Y028482D01*
X030949Y028545D01*
X030853Y028585D01*
X030750Y028599D01*
X030647Y028585D01*
X030551Y028545D01*
X030468Y028482D01*
X030405Y028399D01*
X030365Y028303D01*
X030351Y028200D01*
X030365Y028097D01*
X030405Y028001D01*
X030468Y027918D01*
X030551Y027855D01*
X030647Y027815D01*
X030750Y027801D01*
X030853Y027815D01*
X030949Y027855D01*
X031032Y027918D01*
X031047Y027938D01*
X031097Y027921D01*
Y027479D01*
X031047Y027462D01*
X031032Y027482D01*
X030949Y027545D01*
X030853Y027585D01*
X030750Y027599D01*
X030647Y027585D01*
X030551Y027545D01*
X030468Y027482D01*
X030405Y027399D01*
X030365Y027303D01*
X030351Y027200D01*
X030365Y027097D01*
X030369Y027086D01*
X029537Y026253D01*
X028139D01*
X028115Y026303D01*
X028149Y026348D01*
X028190Y026446D01*
X028203Y026550D01*
X028190Y026654D01*
X028149Y026752D01*
X028085Y026835D01*
X028002Y026899D01*
X027953Y026920D01*
Y029650D01*
X027941Y029709D01*
X027908Y029758D01*
X027308Y030358D01*
X027259Y030391D01*
X027200Y030403D01*
X026029D01*
X026012Y030453D01*
X026032Y030468D01*
X026095Y030551D01*
X026114Y030597D01*
X029087D01*
X030369Y029314D01*
D02*
G37*
G36*
X021328Y023440D02*
X021318Y023432D01*
X021255Y023349D01*
X021215Y023253D01*
X021201Y023150D01*
X021215Y023047D01*
X021255Y022951D01*
X021318Y022868D01*
X021401Y022805D01*
X021497Y022765D01*
X021600Y022751D01*
X021703Y022765D01*
X021799Y022805D01*
X021882Y022868D01*
X021945Y022951D01*
X021983Y023042D01*
X022269Y023077D01*
X022582D01*
X022600Y023027D01*
X022556Y022970D01*
X022549Y022953D01*
X022250D01*
X022191Y022941D01*
X022142Y022908D01*
X021750Y022516D01*
X021703Y022535D01*
X021600Y022549D01*
X021497Y022535D01*
X021401Y022495D01*
X021318Y022432D01*
X021255Y022349D01*
X021215Y022253D01*
X021201Y022150D01*
X021215Y022047D01*
X021255Y021951D01*
X021291Y021903D01*
X021267Y021853D01*
X020673D01*
X019768Y022758D01*
X019719Y022791D01*
X019660Y022803D01*
X018879D01*
X018862Y022853D01*
X018882Y022868D01*
X018945Y022951D01*
X018964Y022997D01*
X020610D01*
X020669Y023009D01*
X020718Y023042D01*
X021163Y023487D01*
X021312D01*
X021328Y023440D01*
D02*
G37*
G36*
X023669Y022464D02*
X023651Y022418D01*
X022602Y022363D01*
X022577Y022356D01*
X022551Y022351D01*
X022548Y022349D01*
X022544Y022348D01*
X022523Y022333D01*
X022502Y022318D01*
X022037Y021853D01*
X021933D01*
X021909Y021903D01*
X021945Y021951D01*
X021985Y022047D01*
X021999Y022150D01*
X021985Y022253D01*
X021966Y022300D01*
X022313Y022647D01*
X022549D01*
X022556Y022630D01*
X022610Y022560D01*
X022680Y022506D01*
X022762Y022472D01*
X022850Y022461D01*
X022938Y022472D01*
X023020Y022506D01*
X023090Y022560D01*
X023144Y022630D01*
X023178Y022712D01*
X023189Y022800D01*
X023178Y022885D01*
X023181Y022889D01*
X023225Y022908D01*
X023669Y022464D01*
D02*
G37*
G36*
X012278Y020656D02*
X012299Y020643D01*
X012309Y020591D01*
X012342Y020542D01*
X012467Y020416D01*
X012467Y020416D01*
X012484Y020405D01*
X012517Y020383D01*
X012527Y020381D01*
X012576Y020371D01*
X013058D01*
X013080Y020367D01*
X013887D01*
X013907Y020317D01*
X013855Y020249D01*
X013815Y020153D01*
X013801Y020050D01*
X013810Y019982D01*
X013766Y019940D01*
X013750Y019943D01*
X012506D01*
X012053Y020396D01*
Y020578D01*
X012098Y020584D01*
X012189Y020622D01*
X012247Y020666D01*
X012278Y020656D01*
D02*
G37*
G36*
X021291Y026397D02*
X021255Y026349D01*
X021215Y026253D01*
X021201Y026150D01*
X021215Y026047D01*
X021255Y025951D01*
X021318Y025868D01*
X021401Y025805D01*
X021497Y025765D01*
X021600Y025751D01*
X021703Y025765D01*
X021799Y025805D01*
X021882Y025868D01*
X021922Y025921D01*
X021987Y025927D01*
X021997Y025917D01*
X022047Y025884D01*
X022105Y025872D01*
X022157D01*
X022172Y025835D01*
X022232Y025757D01*
X022289Y025713D01*
X022272Y025663D01*
X021960D01*
X021901Y025651D01*
X021852Y025618D01*
X021750Y025516D01*
X021703Y025535D01*
X021600Y025549D01*
X021497Y025535D01*
X021401Y025495D01*
X021318Y025432D01*
X021255Y025349D01*
X021215Y025253D01*
X021201Y025150D01*
X021215Y025047D01*
X021255Y024951D01*
X021318Y024868D01*
X021338Y024853D01*
X021321Y024803D01*
X020163D01*
X018966Y026000D01*
X018985Y026047D01*
X018999Y026150D01*
X018985Y026253D01*
X018945Y026349D01*
X018909Y026397D01*
X018933Y026447D01*
X021267D01*
X021291Y026397D01*
D02*
G37*
G36*
X031097Y026921D02*
Y026479D01*
X031047Y026462D01*
X031032Y026482D01*
X030949Y026545D01*
X030853Y026585D01*
X030750Y026599D01*
X030647Y026585D01*
X030551Y026545D01*
X030468Y026482D01*
X030405Y026399D01*
X030365Y026303D01*
X030351Y026200D01*
X030365Y026097D01*
X030369Y026086D01*
X028437Y024153D01*
X028030D01*
X028005Y024198D01*
X028005Y024203D01*
X028085Y024265D01*
X028149Y024348D01*
X028190Y024446D01*
X028203Y024550D01*
X028190Y024654D01*
X028149Y024752D01*
X028085Y024835D01*
X028002Y024899D01*
X027904Y024940D01*
X027800Y024953D01*
X027696Y024940D01*
X027598Y024899D01*
X027515Y024835D01*
X027451Y024752D01*
X027430Y024703D01*
X027170D01*
X027149Y024752D01*
X027085Y024835D01*
X027002Y024899D01*
X026904Y024940D01*
X026800Y024953D01*
X026696Y024940D01*
X026598Y024899D01*
X026515Y024835D01*
X026451Y024752D01*
X026410Y024654D01*
X026397Y024550D01*
X026410Y024446D01*
X026451Y024348D01*
X026515Y024265D01*
X026595Y024203D01*
X026595Y024198D01*
X026570Y024153D01*
X026060D01*
X026001Y024141D01*
X025952Y024108D01*
X025926Y024082D01*
X025873Y024100D01*
X025866Y024154D01*
X025828Y024246D01*
X025768Y024324D01*
X025689Y024384D01*
X025598Y024422D01*
X025500Y024435D01*
X025402Y024422D01*
X025311Y024384D01*
X025232Y024324D01*
X025172Y024246D01*
X025134Y024154D01*
X025121Y024056D01*
X025134Y023958D01*
X025172Y023867D01*
X025232Y023788D01*
X025311Y023728D01*
X025402Y023690D01*
X025456Y023683D01*
X025474Y023630D01*
X025417Y023574D01*
X025384Y023524D01*
X025373Y023466D01*
Y022483D01*
X025343Y022453D01*
X024585D01*
X024565Y022499D01*
X024835Y022769D01*
X024859Y022759D01*
X024950Y022747D01*
X025041Y022759D01*
X025127Y022794D01*
X025200Y022850D01*
X025256Y022923D01*
X025291Y023009D01*
X025303Y023100D01*
X025291Y023191D01*
X025256Y023277D01*
X025200Y023350D01*
X025127Y023406D01*
X025041Y023441D01*
X024950Y023453D01*
X024859Y023441D01*
X024773Y023406D01*
X024700Y023350D01*
X024644Y023277D01*
X024609Y023191D01*
X024597Y023100D01*
X024609Y023009D01*
X024619Y022985D01*
X024289Y022655D01*
X023911D01*
X023759Y022808D01*
X023777Y022860D01*
X023841Y022869D01*
X023927Y022904D01*
X024000Y022960D01*
X024056Y023033D01*
X024091Y023119D01*
X024103Y023210D01*
X024091Y023301D01*
X024056Y023387D01*
X024000Y023460D01*
X023927Y023516D01*
X023841Y023551D01*
X023750Y023563D01*
X023659Y023551D01*
X023635Y023541D01*
X023488Y023688D01*
X023439Y023721D01*
X023380Y023733D01*
X022773D01*
X022757Y023780D01*
X022768Y023788D01*
X022828Y023867D01*
X022866Y023958D01*
X022879Y024056D01*
X022866Y024154D01*
X022828Y024246D01*
X022796Y024287D01*
X022821Y024337D01*
X023737D01*
X024132Y023942D01*
X024181Y023909D01*
X024234Y023898D01*
X024244Y023873D01*
X024300Y023800D01*
X024373Y023744D01*
X024459Y023709D01*
X024550Y023697D01*
X024641Y023709D01*
X024727Y023744D01*
X024800Y023800D01*
X024856Y023873D01*
X024891Y023959D01*
X024903Y024050D01*
X024891Y024141D01*
X024856Y024227D01*
X024800Y024300D01*
X024727Y024356D01*
X024641Y024391D01*
X024550Y024403D01*
X024459Y024391D01*
X024373Y024356D01*
X024300Y024300D01*
X024283Y024277D01*
X024233Y024273D01*
X023908Y024598D01*
X023859Y024631D01*
X023800Y024643D01*
X022652D01*
X022642Y024693D01*
X022689Y024712D01*
X022768Y024773D01*
X022828Y024851D01*
X022866Y024943D01*
X022879Y025041D01*
X022866Y025139D01*
X022828Y025230D01*
X022769Y025307D01*
X022772Y025325D01*
X022782Y025357D01*
X024967D01*
X025149Y025175D01*
X025134Y025139D01*
X025121Y025041D01*
X025134Y024943D01*
X025172Y024851D01*
X025232Y024773D01*
X025311Y024712D01*
X025402Y024675D01*
X025500Y024662D01*
X025598Y024675D01*
X025689Y024712D01*
X025768Y024773D01*
X025828Y024851D01*
X025866Y024943D01*
X025879Y025041D01*
X025866Y025139D01*
X025828Y025230D01*
X025768Y025308D01*
X025689Y025369D01*
X025598Y025406D01*
X025500Y025419D01*
X025402Y025406D01*
X025365Y025391D01*
X025139Y025618D01*
X025089Y025651D01*
X025031Y025663D01*
X022728D01*
X022711Y025713D01*
X022768Y025757D01*
X022828Y025835D01*
X022866Y025927D01*
X022879Y026025D01*
X022866Y026123D01*
X022828Y026214D01*
X022768Y026293D01*
X022689Y026353D01*
X022598Y026391D01*
X022550Y026397D01*
X022553Y026447D01*
X025447D01*
X025450Y026397D01*
X025402Y026391D01*
X025311Y026353D01*
X025232Y026293D01*
X025172Y026214D01*
X025134Y026123D01*
X025121Y026025D01*
X025134Y025927D01*
X025172Y025835D01*
X025232Y025757D01*
X025311Y025697D01*
X025402Y025659D01*
X025500Y025646D01*
X025598Y025659D01*
X025689Y025697D01*
X025768Y025757D01*
X025828Y025835D01*
X025866Y025927D01*
X025879Y026025D01*
X025866Y026123D01*
X025828Y026214D01*
X025768Y026293D01*
X025689Y026353D01*
X025598Y026391D01*
X025550Y026397D01*
X025553Y026447D01*
X025787D01*
X026242Y025992D01*
X026291Y025959D01*
X026350Y025947D01*
X026570D01*
X026595Y025902D01*
X026595Y025897D01*
X026515Y025835D01*
X026451Y025752D01*
X026410Y025654D01*
X026403Y025600D01*
X026800D01*
Y025550D01*
X026850D01*
Y025153D01*
X026904Y025160D01*
X027002Y025201D01*
X027085Y025265D01*
X027149Y025348D01*
X027170Y025397D01*
X027430D01*
X027451Y025348D01*
X027515Y025265D01*
X027598Y025201D01*
X027696Y025160D01*
X027750Y025153D01*
Y025550D01*
X027800D01*
Y025600D01*
X028197D01*
X028190Y025654D01*
X028149Y025752D01*
X028085Y025835D01*
X028005Y025897D01*
X028005Y025902D01*
X028030Y025947D01*
X029600D01*
X029659Y025959D01*
X029708Y025992D01*
X030565Y026849D01*
X030647Y026815D01*
X030750Y026801D01*
X030853Y026815D01*
X030949Y026855D01*
X031032Y026918D01*
X031047Y026938D01*
X031097Y026921D01*
D02*
G37*
G36*
X017356Y026480D02*
X017410Y026410D01*
X017480Y026356D01*
X017489Y026353D01*
X017479Y026303D01*
X017450D01*
X017391Y026291D01*
X017342Y026258D01*
X017067Y025983D01*
X016650D01*
Y026399D01*
X016748Y026497D01*
X017349D01*
X017356Y026480D01*
D02*
G37*
G36*
X031097Y025921D02*
Y025479D01*
X031047Y025462D01*
X031032Y025482D01*
X030949Y025545D01*
X030853Y025585D01*
X030750Y025599D01*
X030647Y025585D01*
X030551Y025545D01*
X030468Y025482D01*
X030405Y025399D01*
X030365Y025303D01*
X030351Y025200D01*
X030365Y025097D01*
X030405Y025001D01*
X030468Y024918D01*
X030551Y024855D01*
X030647Y024815D01*
X030750Y024801D01*
X030853Y024815D01*
X030949Y024855D01*
X031032Y024918D01*
X031047Y024938D01*
X031097Y024921D01*
Y024479D01*
X031047Y024462D01*
X031032Y024482D01*
X030949Y024545D01*
X030853Y024585D01*
X030750Y024599D01*
X030647Y024585D01*
X030551Y024545D01*
X030468Y024482D01*
X030405Y024399D01*
X030365Y024303D01*
X030351Y024200D01*
X030365Y024097D01*
X030369Y024086D01*
X029957Y023673D01*
X027500D01*
X027441Y023661D01*
X027392Y023628D01*
X027217Y023453D01*
X026241D01*
X026231Y023477D01*
X026175Y023550D01*
X026102Y023606D01*
X026017Y023641D01*
X025985Y023645D01*
X025969Y023693D01*
X026123Y023847D01*
X028500D01*
X028559Y023859D01*
X028608Y023892D01*
X030565Y025849D01*
X030647Y025815D01*
X030750Y025801D01*
X030853Y025815D01*
X030949Y025855D01*
X031032Y025918D01*
X031047Y025938D01*
X031097Y025921D01*
D02*
G37*
G36*
X014442Y035692D02*
X014491Y035659D01*
X014550Y035647D01*
X016766D01*
X016770Y035597D01*
X016741Y035591D01*
X016692Y035558D01*
X015642Y034508D01*
X015609Y034459D01*
X015597Y034400D01*
Y033750D01*
X015609Y033691D01*
X015642Y033642D01*
X016935Y032349D01*
X016915Y032303D01*
X014300D01*
X014241Y032291D01*
X014192Y032258D01*
X014000Y032066D01*
X013953Y032085D01*
X013850Y032099D01*
X013747Y032085D01*
X013651Y032045D01*
X013568Y031982D01*
X013505Y031899D01*
X013465Y031803D01*
X013451Y031700D01*
X013465Y031597D01*
X013505Y031501D01*
X013568Y031418D01*
X013651Y031355D01*
X013747Y031315D01*
X013850Y031301D01*
X013953Y031315D01*
X014049Y031355D01*
X014132Y031418D01*
X014195Y031501D01*
X014235Y031597D01*
X014249Y031700D01*
X014235Y031803D01*
X014216Y031850D01*
X014363Y031997D01*
X014467D01*
X014491Y031947D01*
X014455Y031899D01*
X014415Y031803D01*
X014401Y031700D01*
X014415Y031597D01*
X014455Y031501D01*
X014518Y031418D01*
X014601Y031355D01*
X014605Y031353D01*
X014595Y031303D01*
X014300D01*
X014241Y031291D01*
X014192Y031258D01*
X014000Y031066D01*
X013953Y031085D01*
X013850Y031099D01*
X013747Y031085D01*
X013651Y031045D01*
X013568Y030982D01*
X013505Y030899D01*
X013465Y030803D01*
X013451Y030700D01*
X013465Y030597D01*
X013505Y030501D01*
X013568Y030418D01*
X013588Y030403D01*
X013571Y030353D01*
X011413D01*
X011216Y030550D01*
X011235Y030597D01*
X011249Y030700D01*
X011235Y030803D01*
X011195Y030899D01*
X011132Y030982D01*
X011049Y031045D01*
X010953Y031085D01*
X010850Y031099D01*
X010747Y031085D01*
X010651Y031045D01*
X010568Y030982D01*
X010505Y030899D01*
X010502Y030893D01*
X010452Y030903D01*
Y031501D01*
X010501Y031509D01*
X010505Y031501D01*
X010568Y031418D01*
X010651Y031355D01*
X010747Y031315D01*
X010850Y031301D01*
X010953Y031315D01*
X011049Y031355D01*
X011132Y031418D01*
X011195Y031501D01*
X011235Y031597D01*
X011249Y031700D01*
X011235Y031803D01*
X011195Y031899D01*
X011132Y031982D01*
X011049Y032045D01*
X010953Y032085D01*
X010850Y032099D01*
X010747Y032085D01*
X010651Y032045D01*
X010568Y031982D01*
X010505Y031899D01*
X010465Y031803D01*
X010451Y031700D01*
X010462Y031617D01*
X010414Y031599D01*
X010407Y031609D01*
X009153Y032863D01*
Y035637D01*
X010413Y036897D01*
X013237D01*
X014442Y035692D01*
D02*
G37*
G36*
X030369Y031314D02*
X030365Y031303D01*
X030351Y031200D01*
X030365Y031097D01*
X030405Y031001D01*
X030468Y030918D01*
X030551Y030855D01*
X030647Y030815D01*
X030750Y030801D01*
X030853Y030815D01*
X030949Y030855D01*
X031032Y030918D01*
X031047Y030938D01*
X031097Y030921D01*
Y030479D01*
X031047Y030462D01*
X031032Y030482D01*
X030949Y030545D01*
X030853Y030585D01*
X030750Y030599D01*
X030647Y030585D01*
X030565Y030551D01*
X029808Y031308D01*
X029759Y031341D01*
X029700Y031353D01*
X025955D01*
X025945Y031403D01*
X025949Y031405D01*
X026032Y031468D01*
X026095Y031551D01*
X026135Y031647D01*
X026149Y031750D01*
X026135Y031853D01*
X026095Y031949D01*
X026032Y032032D01*
X025949Y032095D01*
X025853Y032135D01*
X025750Y032149D01*
X025647Y032135D01*
X025600Y032116D01*
X025368Y032348D01*
X025319Y032381D01*
X025260Y032393D01*
X022290D01*
X022231Y032381D01*
X022182Y032348D01*
X021900Y032066D01*
X021853Y032085D01*
X021750Y032099D01*
X021647Y032085D01*
X021600Y032066D01*
X021408Y032258D01*
X021359Y032291D01*
X021300Y032303D01*
X018250D01*
X018191Y032291D01*
X018142Y032258D01*
X017950Y032066D01*
X017903Y032085D01*
X017800Y032099D01*
X017697Y032085D01*
X017650Y032066D01*
X017458Y032258D01*
X016248Y033468D01*
X016274Y033511D01*
X016282Y033509D01*
X016400Y033497D01*
X016518Y033509D01*
X016631Y033543D01*
X016735Y033599D01*
X016826Y033674D01*
X016901Y033765D01*
X016957Y033869D01*
X016981Y033947D01*
X027737D01*
X030369Y031314D01*
D02*
G37*
G36*
X032297Y035778D02*
Y032913D01*
X031142Y031758D01*
X031109Y031709D01*
X031097Y031650D01*
Y031479D01*
X031047Y031462D01*
X031032Y031482D01*
X030949Y031545D01*
X030853Y031585D01*
X030750Y031599D01*
X030647Y031585D01*
X030565Y031551D01*
X027908Y034208D01*
X027859Y034241D01*
X027800Y034253D01*
X016981D01*
X016957Y034331D01*
X016901Y034435D01*
X016826Y034526D01*
X016735Y034601D01*
X016631Y034657D01*
X016518Y034691D01*
X016400Y034703D01*
X016333Y034696D01*
X016311Y034744D01*
X016863Y035297D01*
X028000D01*
X028059Y035309D01*
X028108Y035342D01*
X028135Y035369D01*
X028159Y035359D01*
X028250Y035347D01*
X028341Y035359D01*
X028427Y035394D01*
X028500Y035450D01*
X028556Y035523D01*
X028591Y035609D01*
X028603Y035700D01*
X028591Y035791D01*
X028556Y035877D01*
X028500Y035950D01*
X028427Y036006D01*
X028341Y036041D01*
X028250Y036053D01*
X028159Y036041D01*
X028073Y036006D01*
X028000Y035950D01*
X027944Y035877D01*
X027909Y035791D01*
X027897Y035700D01*
X027903Y035653D01*
X027859Y035603D01*
X026984D01*
X026980Y035653D01*
X027009Y035659D01*
X027058Y035692D01*
X028263Y036897D01*
X031178D01*
X032297Y035778D01*
D02*
G37*
G36*
X018441Y031947D02*
X018405Y031899D01*
X018365Y031803D01*
X018351Y031700D01*
X018365Y031597D01*
X018405Y031501D01*
X018468Y031418D01*
X018488Y031403D01*
X018471Y031353D01*
X018300D01*
X018241Y031341D01*
X018192Y031308D01*
X017950Y031066D01*
X017903Y031085D01*
X017800Y031099D01*
X017697Y031085D01*
X017650Y031066D01*
X017458Y031258D01*
X017409Y031291D01*
X017350Y031303D01*
X015005D01*
X014995Y031353D01*
X014999Y031355D01*
X015082Y031418D01*
X015145Y031501D01*
X015185Y031597D01*
X015199Y031700D01*
X015185Y031803D01*
X015145Y031899D01*
X015109Y031947D01*
X015133Y031997D01*
X017287D01*
X017434Y031850D01*
X017415Y031803D01*
X017401Y031700D01*
X017415Y031597D01*
X017455Y031501D01*
X017518Y031418D01*
X017601Y031355D01*
X017697Y031315D01*
X017800Y031301D01*
X017903Y031315D01*
X017999Y031355D01*
X018082Y031418D01*
X018145Y031501D01*
X018185Y031597D01*
X018199Y031700D01*
X018185Y031803D01*
X018166Y031850D01*
X018313Y031997D01*
X018417D01*
X018441Y031947D01*
D02*
G37*
G36*
X021384Y031850D02*
X021365Y031803D01*
X021351Y031700D01*
X021365Y031597D01*
X021405Y031501D01*
X021468Y031418D01*
X021488Y031403D01*
X021471Y031353D01*
X019029D01*
X019012Y031403D01*
X019032Y031418D01*
X019095Y031501D01*
X019135Y031597D01*
X019149Y031700D01*
X019135Y031803D01*
X019095Y031899D01*
X019059Y031947D01*
X019083Y031997D01*
X021237D01*
X021384Y031850D01*
D02*
G37*
G36*
X025384Y031900D02*
X025365Y031853D01*
X025351Y031750D01*
X025365Y031647D01*
X025405Y031551D01*
X025468Y031468D01*
X025551Y031405D01*
X025555Y031403D01*
X025545Y031353D01*
X022955D01*
X022945Y031403D01*
X022949Y031405D01*
X023032Y031468D01*
X023095Y031551D01*
X023135Y031647D01*
X023149Y031750D01*
X023135Y031853D01*
X023095Y031949D01*
X023032Y032032D01*
X023022Y032040D01*
X023038Y032087D01*
X025197D01*
X025384Y031900D01*
D02*
G37*
%LPC*%
G36*
X017200Y017449D02*
X017097Y017435D01*
X017001Y017395D01*
X016918Y017332D01*
X016855Y017249D01*
X016815Y017153D01*
X016801Y017050D01*
X016815Y016947D01*
X016855Y016851D01*
X016918Y016768D01*
X017001Y016705D01*
X017097Y016665D01*
X017200Y016651D01*
X017303Y016665D01*
X017399Y016705D01*
X017482Y016768D01*
X017545Y016851D01*
X017585Y016947D01*
X017599Y017050D01*
X017585Y017153D01*
X017545Y017249D01*
X017482Y017332D01*
X017399Y017395D01*
X017303Y017435D01*
X017200Y017449D01*
D02*
G37*
G36*
X027100Y017330D02*
X027002Y017317D01*
X026911Y017279D01*
X026832Y017219D01*
X026772Y017140D01*
X026734Y017049D01*
X026728Y017004D01*
X026293D01*
X026278Y017040D01*
X026218Y017119D01*
X026139Y017179D01*
X026048Y017217D01*
X025950Y017230D01*
X025852Y017217D01*
X025761Y017179D01*
X025682Y017119D01*
X025622Y017040D01*
X025584Y016949D01*
X025571Y016851D01*
X025584Y016753D01*
X025622Y016661D01*
X025682Y016583D01*
X025761Y016523D01*
X025852Y016485D01*
X025950Y016472D01*
X026048Y016485D01*
X026139Y016523D01*
X026218Y016583D01*
X026278Y016661D01*
X026293Y016698D01*
X026821D01*
X026832Y016683D01*
X026911Y016623D01*
X027002Y016585D01*
X027100Y016572D01*
X027198Y016585D01*
X027235Y016600D01*
X027976Y015858D01*
X028026Y015825D01*
X028084Y015814D01*
X029757D01*
X029772Y015777D01*
X029832Y015699D01*
X029911Y015638D01*
X030002Y015601D01*
X030100Y015588D01*
X030198Y015601D01*
X030289Y015638D01*
X030368Y015699D01*
X030428Y015777D01*
X030466Y015868D01*
X030479Y015967D01*
X030466Y016065D01*
X030428Y016156D01*
X030368Y016234D01*
X030289Y016295D01*
X030198Y016332D01*
X030100Y016345D01*
X030002Y016332D01*
X029911Y016295D01*
X029832Y016234D01*
X029772Y016156D01*
X029757Y016119D01*
X028148D01*
X027451Y016816D01*
X027466Y016853D01*
X027479Y016951D01*
X027466Y017049D01*
X027428Y017140D01*
X027368Y017219D01*
X027289Y017279D01*
X027198Y017317D01*
X027100Y017330D01*
D02*
G37*
G36*
X018600Y017549D02*
X018497Y017535D01*
X018401Y017495D01*
X018318Y017432D01*
X018255Y017349D01*
X018215Y017253D01*
X018201Y017150D01*
X018215Y017047D01*
X018255Y016951D01*
X018318Y016868D01*
X018401Y016805D01*
X018497Y016765D01*
X018600Y016751D01*
X018703Y016765D01*
X018799Y016805D01*
X018882Y016868D01*
X018945Y016951D01*
X018985Y017047D01*
X018999Y017150D01*
X018985Y017253D01*
X018945Y017349D01*
X018882Y017432D01*
X018799Y017495D01*
X018703Y017535D01*
X018600Y017549D01*
D02*
G37*
G36*
X016200Y017449D02*
X016097Y017435D01*
X016001Y017395D01*
X015918Y017332D01*
X015855Y017249D01*
X015815Y017153D01*
X015801Y017050D01*
X015815Y016947D01*
X015855Y016851D01*
X015918Y016768D01*
X016001Y016705D01*
X016097Y016665D01*
X016200Y016651D01*
X016303Y016665D01*
X016399Y016705D01*
X016482Y016768D01*
X016545Y016851D01*
X016585Y016947D01*
X016599Y017050D01*
X016585Y017153D01*
X016545Y017249D01*
X016482Y017332D01*
X016399Y017395D01*
X016303Y017435D01*
X016200Y017449D01*
D02*
G37*
G36*
X012150Y011500D02*
X011602D01*
X011609Y011432D01*
X011643Y011319D01*
X011699Y011215D01*
X011774Y011124D01*
X011865Y011049D01*
X011969Y010993D01*
X012082Y010959D01*
X012150Y010952D01*
Y011500D01*
D02*
G37*
G36*
X027100Y016345D02*
X027002Y016332D01*
X026911Y016295D01*
X026832Y016234D01*
X026772Y016156D01*
X026734Y016065D01*
X026728Y016019D01*
X026293D01*
X026278Y016056D01*
X026218Y016134D01*
X026139Y016195D01*
X026048Y016232D01*
X025950Y016245D01*
X025852Y016232D01*
X025761Y016195D01*
X025682Y016134D01*
X025622Y016056D01*
X025584Y015965D01*
X025571Y015867D01*
X025584Y015768D01*
X025622Y015677D01*
X025682Y015599D01*
X025761Y015538D01*
X025852Y015501D01*
X025950Y015488D01*
X026048Y015501D01*
X026139Y015538D01*
X026218Y015599D01*
X026278Y015677D01*
X026293Y015714D01*
X026821D01*
X026832Y015699D01*
X026911Y015638D01*
X027002Y015601D01*
X027100Y015588D01*
X027198Y015601D01*
X027235Y015616D01*
X027976Y014874D01*
X028026Y014841D01*
X028084Y014829D01*
X029757D01*
X029772Y014793D01*
X029832Y014714D01*
X029911Y014654D01*
X030002Y014616D01*
X030100Y014603D01*
X030198Y014616D01*
X030289Y014654D01*
X030368Y014714D01*
X030428Y014793D01*
X030466Y014884D01*
X030479Y014982D01*
X030466Y015080D01*
X030428Y015172D01*
X030368Y015250D01*
X030289Y015310D01*
X030198Y015348D01*
X030100Y015361D01*
X030002Y015348D01*
X029911Y015310D01*
X029832Y015250D01*
X029772Y015172D01*
X029757Y015135D01*
X028148D01*
X027451Y015832D01*
X027466Y015868D01*
X027479Y015967D01*
X027466Y016065D01*
X027428Y016156D01*
X027368Y016234D01*
X027289Y016295D01*
X027198Y016332D01*
X027100Y016345D01*
D02*
G37*
G36*
X021600Y018549D02*
X021497Y018535D01*
X021401Y018495D01*
X021318Y018432D01*
X021255Y018349D01*
X021215Y018253D01*
X021201Y018150D01*
X021215Y018047D01*
X021255Y017951D01*
X021318Y017868D01*
X021401Y017805D01*
X021497Y017765D01*
X021600Y017751D01*
X021703Y017765D01*
X021750Y017784D01*
X022584Y016949D01*
X022584Y016949D01*
X022571Y016851D01*
X022584Y016753D01*
X022622Y016661D01*
X022682Y016583D01*
X022761Y016523D01*
X022852Y016485D01*
X022950Y016472D01*
X023048Y016485D01*
X023139Y016523D01*
X023218Y016583D01*
X023278Y016661D01*
X023316Y016753D01*
X023329Y016851D01*
X023316Y016949D01*
X023278Y017040D01*
X023218Y017119D01*
X023139Y017179D01*
X023048Y017217D01*
X022950Y017230D01*
X022852Y017217D01*
X022780Y017187D01*
X021966Y018000D01*
X021985Y018047D01*
X021999Y018150D01*
X021985Y018253D01*
X021945Y018349D01*
X021882Y018432D01*
X021799Y018495D01*
X021703Y018535D01*
X021600Y018549D01*
D02*
G37*
G36*
X028592Y011050D02*
X028250D01*
Y010708D01*
X028303Y010715D01*
X028399Y010755D01*
X028482Y010818D01*
X028545Y010901D01*
X028585Y010997D01*
X028592Y011050D01*
D02*
G37*
G36*
X013247Y018900D02*
X012522D01*
X012528Y018855D01*
X012565Y018766D01*
X012623Y018689D01*
X012700Y018631D01*
X012731Y018617D01*
Y017366D01*
X012743Y017307D01*
X012776Y017258D01*
X012837Y017197D01*
X012815Y017152D01*
X012800Y017154D01*
X012683Y017138D01*
X012573Y017093D01*
X012479Y017021D01*
X012407Y016927D01*
X012376Y016853D01*
X012270D01*
X012249Y016902D01*
X012185Y016985D01*
X012102Y017049D01*
X012004Y017090D01*
X011900Y017103D01*
X011796Y017090D01*
X011698Y017049D01*
X011615Y016985D01*
X011551Y016902D01*
X011529Y016850D01*
X011475D01*
X011443Y016927D01*
X011371Y017021D01*
X011277Y017093D01*
X011167Y017138D01*
X011050Y017154D01*
X010933Y017138D01*
X010823Y017093D01*
X010729Y017021D01*
X010657Y016927D01*
X010612Y016817D01*
X010596Y016700D01*
X010612Y016583D01*
X010657Y016473D01*
X010729Y016379D01*
X010823Y016307D01*
X010933Y016262D01*
X011050Y016246D01*
X011167Y016262D01*
X011277Y016307D01*
X011371Y016379D01*
X011443Y016473D01*
X011475Y016550D01*
X011529D01*
X011551Y016498D01*
X011615Y016415D01*
X011698Y016351D01*
X011796Y016310D01*
X011900Y016297D01*
X012004Y016310D01*
X012102Y016351D01*
X012185Y016415D01*
X012249Y016498D01*
X012270Y016547D01*
X012376D01*
X012407Y016473D01*
X012479Y016379D01*
X012573Y016307D01*
X012683Y016262D01*
X012800Y016246D01*
X012917Y016262D01*
X013027Y016307D01*
X013121Y016379D01*
X013193Y016473D01*
X013238Y016583D01*
X013254Y016700D01*
X013252Y016715D01*
X013297Y016737D01*
X013812Y016222D01*
X013861Y016189D01*
X013920Y016177D01*
X015907D01*
X016330Y015753D01*
X016310Y015704D01*
X016303Y015650D01*
X016650D01*
Y015997D01*
X016596Y015990D01*
X016547Y015970D01*
X016078Y016438D01*
X016029Y016471D01*
X015970Y016483D01*
X013983D01*
X013858Y016609D01*
X013877Y016655D01*
X014595D01*
Y017445D01*
X013805D01*
Y016727D01*
X013759Y016708D01*
X013037Y017429D01*
Y018617D01*
X013069Y018631D01*
X013145Y018689D01*
X013204Y018766D01*
X013241Y018855D01*
X013247Y018900D01*
D02*
G37*
G36*
X030100Y019298D02*
X030002Y019285D01*
X029911Y019247D01*
X029832Y019187D01*
X029772Y019109D01*
X029734Y019017D01*
X029721Y018919D01*
X029734Y018821D01*
X029772Y018730D01*
X029832Y018651D01*
X029911Y018591D01*
X030002Y018553D01*
X030100Y018540D01*
X030198Y018553D01*
X030289Y018591D01*
X030368Y018651D01*
X030428Y018730D01*
X030466Y018821D01*
X030479Y018919D01*
X030466Y019017D01*
X030428Y019109D01*
X030368Y019187D01*
X030289Y019247D01*
X030198Y019285D01*
X030100Y019298D01*
D02*
G37*
G36*
X027100D02*
X027002Y019285D01*
X026911Y019247D01*
X026832Y019187D01*
X026772Y019109D01*
X026734Y019017D01*
X026721Y018919D01*
X026734Y018821D01*
X026772Y018730D01*
X026832Y018651D01*
X026911Y018591D01*
X027002Y018553D01*
X027100Y018540D01*
X027198Y018553D01*
X027289Y018591D01*
X027368Y018651D01*
X027428Y018730D01*
X027466Y018821D01*
X027479Y018919D01*
X027466Y019017D01*
X027428Y019109D01*
X027368Y019187D01*
X027289Y019247D01*
X027198Y019285D01*
X027100Y019298D01*
D02*
G37*
G36*
X022800Y019200D02*
X022517D01*
X022522Y019162D01*
X022556Y019080D01*
X022610Y019010D01*
X022680Y018956D01*
X022762Y018922D01*
X022800Y018917D01*
Y019200D01*
D02*
G37*
G36*
X011281Y019316D02*
X010550D01*
Y018584D01*
X011281D01*
Y019316D01*
D02*
G37*
G36*
X030100Y018314D02*
X030002Y018301D01*
X029911Y018263D01*
X029832Y018203D01*
X029772Y018124D01*
X029734Y018033D01*
X029721Y017935D01*
X029734Y017837D01*
X029772Y017746D01*
X029832Y017667D01*
X029911Y017607D01*
X030002Y017569D01*
X030100Y017556D01*
X030198Y017569D01*
X030289Y017607D01*
X030368Y017667D01*
X030428Y017746D01*
X030466Y017837D01*
X030479Y017935D01*
X030466Y018033D01*
X030428Y018124D01*
X030368Y018203D01*
X030289Y018263D01*
X030198Y018301D01*
X030100Y018314D01*
D02*
G37*
G36*
X021600Y019549D02*
X021497Y019535D01*
X021401Y019495D01*
X021318Y019432D01*
X021255Y019349D01*
X021215Y019253D01*
X021201Y019150D01*
X021215Y019047D01*
X021255Y018951D01*
X021318Y018868D01*
X021401Y018805D01*
X021497Y018765D01*
X021600Y018751D01*
X021703Y018765D01*
X021750Y018784D01*
X022589Y017945D01*
X022584Y017933D01*
X022571Y017835D01*
X022584Y017737D01*
X022622Y017646D01*
X022682Y017567D01*
X022761Y017507D01*
X022852Y017469D01*
X022950Y017456D01*
X023048Y017469D01*
X023139Y017507D01*
X023218Y017567D01*
X023278Y017646D01*
X023316Y017737D01*
X023329Y017835D01*
X023316Y017933D01*
X023278Y018024D01*
X023218Y018103D01*
X023139Y018163D01*
X023048Y018201D01*
X022950Y018214D01*
X022852Y018201D01*
X022791Y018176D01*
X021966Y019000D01*
X021985Y019047D01*
X021999Y019150D01*
X021985Y019253D01*
X021945Y019349D01*
X021882Y019432D01*
X021799Y019495D01*
X021703Y019535D01*
X021600Y019549D01*
D02*
G37*
G36*
X027100Y018314D02*
X027002Y018301D01*
X026911Y018263D01*
X026832Y018203D01*
X026772Y018124D01*
X026734Y018033D01*
X026728Y017988D01*
X026293D01*
X026278Y018024D01*
X026218Y018103D01*
X026139Y018163D01*
X026048Y018201D01*
X025950Y018214D01*
X025852Y018201D01*
X025761Y018163D01*
X025682Y018103D01*
X025622Y018024D01*
X025584Y017933D01*
X025571Y017835D01*
X025584Y017737D01*
X025622Y017646D01*
X025682Y017567D01*
X025761Y017507D01*
X025852Y017469D01*
X025950Y017456D01*
X026048Y017469D01*
X026139Y017507D01*
X026218Y017567D01*
X026278Y017646D01*
X026293Y017682D01*
X026821D01*
X026832Y017667D01*
X026911Y017607D01*
X027002Y017569D01*
X027100Y017556D01*
X027198Y017569D01*
X027235Y017584D01*
X027976Y016843D01*
X028026Y016809D01*
X028084Y016798D01*
X029757D01*
X029772Y016761D01*
X029832Y016683D01*
X029911Y016623D01*
X030002Y016585D01*
X030100Y016572D01*
X030198Y016585D01*
X030289Y016623D01*
X030368Y016683D01*
X030428Y016761D01*
X030466Y016853D01*
X030479Y016951D01*
X030466Y017049D01*
X030428Y017140D01*
X030368Y017219D01*
X030289Y017279D01*
X030198Y017317D01*
X030100Y017330D01*
X030002Y017317D01*
X029911Y017279D01*
X029832Y017219D01*
X029772Y017140D01*
X029757Y017104D01*
X028148D01*
X027451Y017801D01*
X027466Y017837D01*
X027479Y017935D01*
X027466Y018033D01*
X027428Y018124D01*
X027368Y018203D01*
X027289Y018263D01*
X027198Y018301D01*
X027100Y018314D01*
D02*
G37*
G36*
X018600Y018549D02*
X018497Y018535D01*
X018401Y018495D01*
X018318Y018432D01*
X018255Y018349D01*
X018215Y018253D01*
X018201Y018150D01*
X018215Y018047D01*
X018255Y017951D01*
X018318Y017868D01*
X018401Y017805D01*
X018497Y017765D01*
X018600Y017751D01*
X018703Y017765D01*
X018799Y017805D01*
X018882Y017868D01*
X018945Y017951D01*
X018985Y018047D01*
X018999Y018150D01*
X018985Y018253D01*
X018945Y018349D01*
X018882Y018432D01*
X018799Y018495D01*
X018703Y018535D01*
X018600Y018549D01*
D02*
G37*
G36*
X027100Y015361D02*
X027002Y015348D01*
X026911Y015310D01*
X026832Y015250D01*
X026772Y015172D01*
X026743Y015103D01*
X026293D01*
X026278Y015139D01*
X026218Y015218D01*
X026139Y015278D01*
X026048Y015316D01*
X025950Y015329D01*
X025852Y015316D01*
X025761Y015278D01*
X025682Y015218D01*
X025622Y015139D01*
X025584Y015048D01*
X025571Y014950D01*
X025584Y014852D01*
X025622Y014761D01*
X025682Y014682D01*
X025761Y014622D01*
X025852Y014584D01*
X025950Y014571D01*
X026048Y014584D01*
X026139Y014622D01*
X026218Y014682D01*
X026278Y014761D01*
X026293Y014797D01*
X026770D01*
X026772Y014793D01*
X026832Y014714D01*
X026911Y014654D01*
X027002Y014616D01*
X027100Y014603D01*
X027198Y014616D01*
X027235Y014631D01*
X028024Y013842D01*
X028074Y013809D01*
X028132Y013797D01*
X029807D01*
X029822Y013761D01*
X029882Y013682D01*
X029961Y013622D01*
X030052Y013584D01*
X030150Y013571D01*
X030248Y013584D01*
X030339Y013622D01*
X030418Y013682D01*
X030478Y013761D01*
X030516Y013852D01*
X030529Y013950D01*
X030516Y014048D01*
X030478Y014139D01*
X030418Y014218D01*
X030339Y014278D01*
X030248Y014316D01*
X030150Y014329D01*
X030052Y014316D01*
X029961Y014278D01*
X029882Y014218D01*
X029822Y014139D01*
X029807Y014103D01*
X028196D01*
X027451Y014848D01*
X027466Y014884D01*
X027479Y014982D01*
X027466Y015080D01*
X027428Y015172D01*
X027368Y015250D01*
X027289Y015310D01*
X027198Y015348D01*
X027100Y015361D01*
D02*
G37*
G36*
X021600Y015549D02*
X021497Y015535D01*
X021401Y015495D01*
X021318Y015432D01*
X021255Y015349D01*
X021215Y015253D01*
X021201Y015150D01*
X021215Y015047D01*
X021255Y014951D01*
X021318Y014868D01*
X021401Y014805D01*
X021497Y014765D01*
X021600Y014751D01*
X021703Y014765D01*
X021799Y014805D01*
X021882Y014868D01*
X021945Y014951D01*
X021985Y015047D01*
X021999Y015150D01*
X021985Y015253D01*
X021945Y015349D01*
X021882Y015432D01*
X021799Y015495D01*
X021703Y015535D01*
X021600Y015549D01*
D02*
G37*
G36*
X022750Y012148D02*
X022682Y012141D01*
X022569Y012107D01*
X022465Y012051D01*
X022374Y011976D01*
X022299Y011885D01*
X022243Y011781D01*
X022209Y011668D01*
X022202Y011600D01*
X022750D01*
Y012148D01*
D02*
G37*
G36*
X022850D02*
Y011600D01*
X023398D01*
X023391Y011668D01*
X023357Y011781D01*
X023301Y011885D01*
X023226Y011976D01*
X023135Y012051D01*
X023031Y012107D01*
X022918Y012141D01*
X022850Y012148D01*
D02*
G37*
G36*
X016750Y014997D02*
Y014650D01*
X017097D01*
X017090Y014704D01*
X017049Y014802D01*
X016985Y014885D01*
X016902Y014949D01*
X016804Y014990D01*
X016750Y014997D01*
D02*
G37*
G36*
X031150Y013603D02*
X031032Y013591D01*
X030919Y013557D01*
X030815Y013501D01*
X030724Y013426D01*
X030649Y013335D01*
X030593Y013231D01*
X030559Y013118D01*
X030547Y013000D01*
X030559Y012882D01*
X030593Y012769D01*
X030649Y012665D01*
X030724Y012574D01*
X030815Y012499D01*
X030919Y012443D01*
X031032Y012409D01*
X031150Y012397D01*
X031268Y012409D01*
X031381Y012443D01*
X031485Y012499D01*
X031576Y012574D01*
X031651Y012665D01*
X031707Y012769D01*
X031741Y012882D01*
X031753Y013000D01*
X031741Y013118D01*
X031707Y013231D01*
X031651Y013335D01*
X031576Y013426D01*
X031485Y013501D01*
X031381Y013557D01*
X031268Y013591D01*
X031150Y013603D01*
D02*
G37*
G36*
X021600Y016549D02*
X021497Y016535D01*
X021401Y016495D01*
X021318Y016432D01*
X021255Y016349D01*
X021215Y016253D01*
X021201Y016150D01*
X021215Y016047D01*
X021255Y015951D01*
X021318Y015868D01*
X021401Y015805D01*
X021497Y015765D01*
X021600Y015751D01*
X021703Y015765D01*
X021750Y015784D01*
X022573Y014961D01*
X022571Y014950D01*
X022584Y014852D01*
X022622Y014761D01*
X022682Y014682D01*
X022698Y014670D01*
X022681Y014623D01*
X021920D01*
X021861Y014611D01*
X021812Y014578D01*
X021779Y014545D01*
X021421D01*
X021258Y014708D01*
X021209Y014741D01*
X021150Y014753D01*
X018805D01*
X018795Y014803D01*
X018799Y014805D01*
X018882Y014868D01*
X018945Y014951D01*
X018985Y015047D01*
X018999Y015150D01*
X018985Y015253D01*
X018945Y015349D01*
X018882Y015432D01*
X018799Y015495D01*
X018703Y015535D01*
X018600Y015549D01*
X018497Y015535D01*
X018401Y015495D01*
X018318Y015432D01*
X018255Y015349D01*
X018215Y015253D01*
X018201Y015150D01*
X018215Y015047D01*
X018255Y014951D01*
X018318Y014868D01*
X018401Y014805D01*
X018405Y014803D01*
X018395Y014753D01*
X017600D01*
X017541Y014741D01*
X017492Y014708D01*
X017087Y014303D01*
X017039D01*
X017015Y014353D01*
X017049Y014398D01*
X017090Y014496D01*
X017097Y014550D01*
X016303D01*
X016310Y014496D01*
X016351Y014398D01*
X016385Y014353D01*
X016361Y014303D01*
X016039D01*
X016015Y014353D01*
X016049Y014398D01*
X016090Y014496D01*
X016103Y014600D01*
X016090Y014704D01*
X016049Y014802D01*
X015985Y014885D01*
X015902Y014949D01*
X015804Y014990D01*
X015700Y015003D01*
X015596Y014990D01*
X015498Y014949D01*
X015415Y014885D01*
X015351Y014802D01*
X015330Y014753D01*
X015070D01*
X015049Y014802D01*
X014985Y014885D01*
X014902Y014949D01*
X014804Y014990D01*
X014700Y015003D01*
X014596Y014990D01*
X014498Y014949D01*
X014415Y014885D01*
X014351Y014802D01*
X014310Y014704D01*
X014297Y014600D01*
X014310Y014496D01*
X014351Y014398D01*
X014385Y014353D01*
X014361Y014303D01*
X013813D01*
X013078Y015038D01*
X013029Y015071D01*
X012970Y015083D01*
X012630D01*
X012571Y015071D01*
X012522Y015038D01*
X012018Y014534D01*
X012004Y014540D01*
X011900Y014553D01*
X011796Y014540D01*
X011698Y014499D01*
X011615Y014435D01*
X011551Y014352D01*
X011530Y014303D01*
X011424D01*
X011393Y014377D01*
X011321Y014471D01*
X011227Y014543D01*
X011117Y014588D01*
X011000Y014604D01*
X010883Y014588D01*
X010773Y014543D01*
X010679Y014471D01*
X010607Y014377D01*
X010562Y014267D01*
X010546Y014150D01*
X010562Y014033D01*
X010607Y013923D01*
X010679Y013829D01*
X010773Y013757D01*
X010883Y013712D01*
X011000Y013696D01*
X011117Y013712D01*
X011227Y013757D01*
X011321Y013829D01*
X011393Y013923D01*
X011424Y013997D01*
X011530D01*
X011551Y013948D01*
X011615Y013865D01*
X011698Y013801D01*
X011796Y013760D01*
X011900Y013747D01*
X012004Y013760D01*
X012102Y013801D01*
X012185Y013865D01*
X012249Y013948D01*
X012290Y014046D01*
X012300Y014121D01*
X012350D01*
X012362Y014033D01*
X012407Y013923D01*
X012479Y013829D01*
X012573Y013757D01*
X012683Y013712D01*
X012800Y013696D01*
X012917Y013712D01*
X013027Y013757D01*
X013121Y013829D01*
X013193Y013923D01*
X013238Y014033D01*
X013254Y014150D01*
X013238Y014267D01*
X013193Y014377D01*
X013121Y014471D01*
X013027Y014543D01*
X012917Y014588D01*
X012800Y014604D01*
X012683Y014588D01*
X012573Y014543D01*
X012479Y014471D01*
X012407Y014377D01*
X012362Y014267D01*
X012350Y014180D01*
X012300D01*
X012290Y014254D01*
X012255Y014339D01*
X012693Y014777D01*
X012907D01*
X013642Y014042D01*
X013691Y014009D01*
X013750Y013997D01*
X017150D01*
X017209Y014009D01*
X017258Y014042D01*
X017663Y014447D01*
X018267D01*
X018291Y014397D01*
X018255Y014349D01*
X018215Y014253D01*
X018201Y014150D01*
X018215Y014047D01*
X018255Y013951D01*
X018318Y013868D01*
X018401Y013805D01*
X018497Y013765D01*
X018600Y013751D01*
X018703Y013765D01*
X018799Y013805D01*
X018882Y013868D01*
X018945Y013951D01*
X018985Y014047D01*
X018999Y014150D01*
X018985Y014253D01*
X018945Y014349D01*
X018909Y014397D01*
X018933Y014447D01*
X021087D01*
X021205Y014329D01*
Y013755D01*
X021995D01*
Y014317D01*
X022668D01*
X022679Y014286D01*
X022682Y014267D01*
X022622Y014189D01*
X022584Y014098D01*
X022571Y014000D01*
X022584Y013902D01*
X022622Y013811D01*
X022682Y013732D01*
X022761Y013672D01*
X022852Y013634D01*
X022950Y013621D01*
X023048Y013634D01*
X023139Y013672D01*
X023218Y013732D01*
X023278Y013811D01*
X023316Y013902D01*
X023329Y014000D01*
X023316Y014098D01*
X023278Y014189D01*
X023219Y014267D01*
X023221Y014286D01*
X023232Y014317D01*
X024767D01*
X026834Y012250D01*
X026815Y012203D01*
X026801Y012100D01*
X026815Y011997D01*
X026855Y011901D01*
X026918Y011818D01*
X026938Y011803D01*
X026921Y011753D01*
X026479D01*
X026462Y011803D01*
X026482Y011818D01*
X026545Y011901D01*
X026585Y011997D01*
X026599Y012100D01*
X026585Y012203D01*
X026545Y012299D01*
X026482Y012382D01*
X026399Y012445D01*
X026303Y012485D01*
X026200Y012499D01*
X026097Y012485D01*
X026001Y012445D01*
X025918Y012382D01*
X025855Y012299D01*
X025815Y012203D01*
X025801Y012100D01*
X025815Y011997D01*
X025855Y011901D01*
X025918Y011818D01*
X025938Y011803D01*
X025921Y011753D01*
X025479D01*
X025462Y011803D01*
X025482Y011818D01*
X025545Y011901D01*
X025585Y011997D01*
X025599Y012100D01*
X025585Y012203D01*
X025545Y012299D01*
X025482Y012382D01*
X025399Y012445D01*
X025303Y012485D01*
X025200Y012499D01*
X025097Y012485D01*
X025001Y012445D01*
X024918Y012382D01*
X024855Y012299D01*
X024815Y012203D01*
X024801Y012100D01*
X024815Y011997D01*
X024855Y011901D01*
X024918Y011818D01*
X024938Y011803D01*
X024921Y011753D01*
X024703D01*
X023678Y012778D01*
X023629Y012811D01*
X023570Y012823D01*
X021970D01*
X021911Y012811D01*
X021862Y012778D01*
X021152Y012069D01*
X021081Y012107D01*
X020968Y012141D01*
X020850Y012153D01*
X020732Y012141D01*
X020619Y012107D01*
X020515Y012051D01*
X020424Y011976D01*
X020349Y011885D01*
X020293Y011781D01*
X020259Y011668D01*
X020247Y011550D01*
X020259Y011432D01*
X020293Y011319D01*
X020349Y011215D01*
X020424Y011124D01*
X020515Y011049D01*
X020619Y010993D01*
X020685Y010973D01*
X020678Y010923D01*
X018672D01*
X018665Y010973D01*
X018731Y010993D01*
X018835Y011049D01*
X018926Y011124D01*
X019001Y011215D01*
X019057Y011319D01*
X019091Y011432D01*
X019103Y011550D01*
X019091Y011668D01*
X019057Y011781D01*
X019001Y011885D01*
X018926Y011976D01*
X018835Y012051D01*
X018731Y012107D01*
X018618Y012141D01*
X018500Y012153D01*
X018382Y012141D01*
X018269Y012107D01*
X018165Y012051D01*
X018074Y011976D01*
X017999Y011885D01*
X017943Y011781D01*
X017909Y011668D01*
X017897Y011550D01*
X017909Y011432D01*
X017943Y011319D01*
X017999Y011215D01*
X018074Y011124D01*
X018165Y011049D01*
X018269Y010993D01*
X018335Y010973D01*
X018328Y010923D01*
X016722D01*
X016715Y010973D01*
X016781Y010993D01*
X016885Y011049D01*
X016976Y011124D01*
X017051Y011215D01*
X017107Y011319D01*
X017141Y011432D01*
X017153Y011550D01*
X017141Y011668D01*
X017107Y011781D01*
X017051Y011885D01*
X016976Y011976D01*
X016885Y012051D01*
X016781Y012107D01*
X016668Y012141D01*
X016550Y012153D01*
X016432Y012141D01*
X016319Y012107D01*
X016215Y012051D01*
X016124Y011976D01*
X016049Y011885D01*
X015993Y011781D01*
X015959Y011668D01*
X015947Y011550D01*
X015959Y011432D01*
X015993Y011319D01*
X016049Y011215D01*
X016124Y011124D01*
X016215Y011049D01*
X016319Y010993D01*
X016385Y010973D01*
X016378Y010923D01*
X014322D01*
X014315Y010973D01*
X014381Y010993D01*
X014485Y011049D01*
X014576Y011124D01*
X014651Y011215D01*
X014707Y011319D01*
X014741Y011432D01*
X014753Y011550D01*
X014741Y011668D01*
X014707Y011781D01*
X014651Y011885D01*
X014576Y011976D01*
X014485Y012051D01*
X014381Y012107D01*
X014268Y012141D01*
X014150Y012153D01*
X014032Y012141D01*
X013919Y012107D01*
X013815Y012051D01*
X013724Y011976D01*
X013649Y011885D01*
X013593Y011781D01*
X013559Y011668D01*
X013547Y011550D01*
X013559Y011432D01*
X013593Y011319D01*
X013649Y011215D01*
X013724Y011124D01*
X013815Y011049D01*
X013919Y010993D01*
X013985Y010973D01*
X013978Y010923D01*
X013043D01*
X012719Y011248D01*
X012757Y011319D01*
X012791Y011432D01*
X012798Y011500D01*
X012250D01*
Y010952D01*
X012318Y010959D01*
X012431Y010993D01*
X012502Y011031D01*
X012872Y010662D01*
X012921Y010629D01*
X012980Y010617D01*
X022020D01*
X022079Y010629D01*
X022128Y010662D01*
X022498Y011031D01*
X022569Y010993D01*
X022682Y010959D01*
X022750Y010952D01*
Y011500D01*
X022202D01*
X022209Y011432D01*
X022243Y011319D01*
X022281Y011248D01*
X021957Y010923D01*
X021022D01*
X021015Y010973D01*
X021081Y010993D01*
X021185Y011049D01*
X021276Y011124D01*
X021351Y011215D01*
X021407Y011319D01*
X021441Y011432D01*
X021453Y011550D01*
X021441Y011668D01*
X021407Y011781D01*
X021369Y011852D01*
X022033Y012517D01*
X023507D01*
X024532Y011492D01*
X024581Y011459D01*
X024640Y011447D01*
X024921D01*
X024938Y011397D01*
X024918Y011382D01*
X024855Y011299D01*
X024836Y011253D01*
X023370D01*
X023344Y011296D01*
X023357Y011319D01*
X023391Y011432D01*
X023398Y011500D01*
X022850D01*
Y010952D01*
X022918Y010959D01*
X023031Y010993D01*
X023102Y011031D01*
X023142Y010992D01*
X023191Y010959D01*
X023250Y010947D01*
X024836D01*
X024855Y010901D01*
X024918Y010818D01*
X025001Y010755D01*
X025097Y010715D01*
X025150Y010708D01*
Y011100D01*
X025250D01*
Y010708D01*
X025303Y010715D01*
X025399Y010755D01*
X025482Y010818D01*
X025545Y010901D01*
X025564Y010947D01*
X025836D01*
X025855Y010901D01*
X025918Y010818D01*
X026001Y010755D01*
X026097Y010715D01*
X026150Y010708D01*
Y011100D01*
X026250D01*
Y010708D01*
X026303Y010715D01*
X026399Y010755D01*
X026482Y010818D01*
X026545Y010901D01*
X026564Y010947D01*
X026836D01*
X026855Y010901D01*
X026918Y010818D01*
X027001Y010755D01*
X027097Y010715D01*
X027150Y010708D01*
Y011100D01*
X027250D01*
Y010708D01*
X027303Y010715D01*
X027399Y010755D01*
X027482Y010818D01*
X027545Y010901D01*
X027564Y010947D01*
X027836D01*
X027855Y010901D01*
X027918Y010818D01*
X028001Y010755D01*
X028097Y010715D01*
X028150Y010708D01*
Y011100D01*
X028200D01*
Y011150D01*
X028592D01*
X028585Y011203D01*
X028545Y011299D01*
X028482Y011382D01*
X028462Y011397D01*
X028479Y011447D01*
X028637D01*
X028834Y011250D01*
X028815Y011203D01*
X028801Y011100D01*
X028815Y010997D01*
X028855Y010901D01*
X028918Y010818D01*
X029001Y010755D01*
X029097Y010715D01*
X029200Y010701D01*
X029303Y010715D01*
X029399Y010755D01*
X029482Y010818D01*
X029545Y010901D01*
X029585Y010997D01*
X029599Y011100D01*
X029585Y011203D01*
X029545Y011299D01*
X029482Y011382D01*
X029399Y011445D01*
X029303Y011485D01*
X029200Y011499D01*
X029097Y011485D01*
X029050Y011466D01*
X028858Y011659D01*
X028877Y011705D01*
X029595D01*
Y012495D01*
X028805D01*
Y011763D01*
X028766Y011743D01*
X028755Y011742D01*
X028700Y011753D01*
X028479D01*
X028462Y011803D01*
X028482Y011818D01*
X028545Y011901D01*
X028585Y011997D01*
X028599Y012100D01*
X028585Y012203D01*
X028545Y012299D01*
X028482Y012382D01*
X028399Y012445D01*
X028303Y012485D01*
X028200Y012499D01*
X028097Y012485D01*
X028001Y012445D01*
X027918Y012382D01*
X027855Y012299D01*
X027815Y012203D01*
X027801Y012100D01*
X027815Y011997D01*
X027855Y011901D01*
X027918Y011818D01*
X027938Y011803D01*
X027921Y011753D01*
X027479D01*
X027462Y011803D01*
X027482Y011818D01*
X027545Y011901D01*
X027585Y011997D01*
X027599Y012100D01*
X027585Y012203D01*
X027545Y012299D01*
X027482Y012382D01*
X027399Y012445D01*
X027303Y012485D01*
X027200Y012499D01*
X027097Y012485D01*
X027050Y012466D01*
X025940Y013576D01*
X025964Y013623D01*
X026048Y013634D01*
X026139Y013672D01*
X026218Y013732D01*
X026278Y013811D01*
X026293Y013847D01*
X026786D01*
X026822Y013761D01*
X026882Y013682D01*
X026961Y013622D01*
X027052Y013584D01*
X027150Y013571D01*
X027248Y013584D01*
X027339Y013622D01*
X027418Y013682D01*
X027478Y013761D01*
X027516Y013852D01*
X027529Y013950D01*
X027516Y014048D01*
X027478Y014139D01*
X027418Y014218D01*
X027339Y014278D01*
X027248Y014316D01*
X027150Y014329D01*
X027052Y014316D01*
X026961Y014278D01*
X026882Y014218D01*
X026832Y014153D01*
X026293D01*
X026278Y014189D01*
X026218Y014268D01*
X026139Y014328D01*
X026048Y014366D01*
X025950Y014379D01*
X025852Y014366D01*
X025761Y014328D01*
X025682Y014268D01*
X025622Y014189D01*
X025584Y014098D01*
X025573Y014014D01*
X025526Y013990D01*
X024938Y014578D01*
X024889Y014611D01*
X024830Y014623D01*
X023219D01*
X023202Y014670D01*
X023218Y014682D01*
X023278Y014761D01*
X023316Y014852D01*
X023329Y014950D01*
X023316Y015048D01*
X023278Y015139D01*
X023218Y015218D01*
X023139Y015278D01*
X023048Y015316D01*
X022950Y015329D01*
X022852Y015316D01*
X022761Y015278D01*
X022720Y015247D01*
X021966Y016000D01*
X021985Y016047D01*
X021999Y016150D01*
X021985Y016253D01*
X021945Y016349D01*
X021882Y016432D01*
X021799Y016495D01*
X021703Y016535D01*
X021600Y016549D01*
D02*
G37*
G36*
X016650Y014997D02*
X016596Y014990D01*
X016498Y014949D01*
X016415Y014885D01*
X016351Y014802D01*
X016310Y014704D01*
X016303Y014650D01*
X016650D01*
Y014997D01*
D02*
G37*
G36*
X009800Y013503D02*
X009682Y013491D01*
X009569Y013457D01*
X009465Y013401D01*
X009374Y013326D01*
X009299Y013235D01*
X009243Y013131D01*
X009209Y013018D01*
X009197Y012900D01*
X009209Y012782D01*
X009243Y012669D01*
X009299Y012565D01*
X009374Y012474D01*
X009465Y012399D01*
X009569Y012343D01*
X009682Y012309D01*
X009800Y012297D01*
X009918Y012309D01*
X010031Y012343D01*
X010135Y012399D01*
X010226Y012474D01*
X010301Y012565D01*
X010357Y012669D01*
X010391Y012782D01*
X010403Y012900D01*
X010391Y013018D01*
X010357Y013131D01*
X010301Y013235D01*
X010226Y013326D01*
X010135Y013401D01*
X010031Y013457D01*
X009918Y013491D01*
X009800Y013503D01*
D02*
G37*
G36*
X016750Y015997D02*
Y015650D01*
X017097D01*
X017090Y015704D01*
X017049Y015802D01*
X016985Y015885D01*
X016902Y015949D01*
X016804Y015990D01*
X016750Y015997D01*
D02*
G37*
G36*
X021600Y017549D02*
X021497Y017535D01*
X021401Y017495D01*
X021318Y017432D01*
X021255Y017349D01*
X021215Y017253D01*
X021201Y017150D01*
X021215Y017047D01*
X021255Y016951D01*
X021318Y016868D01*
X021401Y016805D01*
X021497Y016765D01*
X021600Y016751D01*
X021703Y016765D01*
X021750Y016784D01*
X022582Y015951D01*
X022571Y015867D01*
X022584Y015768D01*
X022622Y015677D01*
X022682Y015599D01*
X022761Y015538D01*
X022852Y015501D01*
X022950Y015488D01*
X023048Y015501D01*
X023139Y015538D01*
X023218Y015599D01*
X023278Y015677D01*
X023316Y015768D01*
X023329Y015867D01*
X023316Y015965D01*
X023278Y016056D01*
X023218Y016134D01*
X023139Y016195D01*
X023048Y016232D01*
X022950Y016245D01*
X022852Y016232D01*
X022768Y016198D01*
X021966Y017000D01*
X021985Y017047D01*
X021999Y017150D01*
X021985Y017253D01*
X021945Y017349D01*
X021882Y017432D01*
X021799Y017495D01*
X021703Y017535D01*
X021600Y017549D01*
D02*
G37*
G36*
X015700Y016003D02*
X015596Y015990D01*
X015498Y015949D01*
X015415Y015885D01*
X015351Y015802D01*
X015330Y015753D01*
X015070D01*
X015049Y015802D01*
X014985Y015885D01*
X014902Y015949D01*
X014804Y015990D01*
X014700Y016003D01*
X014596Y015990D01*
X014498Y015949D01*
X014415Y015885D01*
X014351Y015802D01*
X014310Y015704D01*
X014297Y015600D01*
X014310Y015496D01*
X014351Y015398D01*
X014415Y015315D01*
X014498Y015251D01*
X014596Y015210D01*
X014700Y015197D01*
X014804Y015210D01*
X014902Y015251D01*
X014985Y015315D01*
X015049Y015398D01*
X015070Y015447D01*
X015330D01*
X015351Y015398D01*
X015415Y015315D01*
X015498Y015251D01*
X015596Y015210D01*
X015700Y015197D01*
X015804Y015210D01*
X015902Y015251D01*
X015985Y015315D01*
X016049Y015398D01*
X016090Y015496D01*
X016103Y015600D01*
X016090Y015704D01*
X016049Y015802D01*
X015985Y015885D01*
X015902Y015949D01*
X015804Y015990D01*
X015700Y016003D01*
D02*
G37*
G36*
X018600Y016549D02*
X018497Y016535D01*
X018401Y016495D01*
X018318Y016432D01*
X018255Y016349D01*
X018215Y016253D01*
X018201Y016150D01*
X018215Y016047D01*
X018255Y015951D01*
X018318Y015868D01*
X018401Y015805D01*
X018497Y015765D01*
X018600Y015751D01*
X018703Y015765D01*
X018799Y015805D01*
X018882Y015868D01*
X018945Y015951D01*
X018985Y016047D01*
X018999Y016150D01*
X018985Y016253D01*
X018945Y016349D01*
X018882Y016432D01*
X018799Y016495D01*
X018703Y016535D01*
X018600Y016549D01*
D02*
G37*
G36*
X011900Y016103D02*
X011796Y016090D01*
X011698Y016049D01*
X011615Y015985D01*
X011551Y015902D01*
X011510Y015804D01*
X011497Y015700D01*
X011510Y015596D01*
X011551Y015498D01*
X011615Y015415D01*
X011698Y015351D01*
X011796Y015310D01*
X011900Y015297D01*
X012004Y015310D01*
X012102Y015351D01*
X012185Y015415D01*
X012249Y015498D01*
X012290Y015596D01*
X012303Y015700D01*
X012290Y015804D01*
X012249Y015902D01*
X012185Y015985D01*
X012102Y016049D01*
X012004Y016090D01*
X011900Y016103D01*
D02*
G37*
G36*
X012150Y012148D02*
X012082Y012141D01*
X011969Y012107D01*
X011865Y012051D01*
X011774Y011976D01*
X011699Y011885D01*
X011643Y011781D01*
X011609Y011668D01*
X011602Y011600D01*
X012150D01*
Y012148D01*
D02*
G37*
G36*
X012250D02*
Y011600D01*
X012798D01*
X012791Y011668D01*
X012757Y011781D01*
X012701Y011885D01*
X012626Y011976D01*
X012535Y012051D01*
X012431Y012107D01*
X012318Y012141D01*
X012250Y012148D01*
D02*
G37*
G36*
X017097Y015550D02*
X016750D01*
Y015203D01*
X016804Y015210D01*
X016902Y015251D01*
X016985Y015315D01*
X017049Y015398D01*
X017090Y015496D01*
X017097Y015550D01*
D02*
G37*
G36*
X016650D02*
X016303D01*
X016310Y015496D01*
X016351Y015398D01*
X016415Y015315D01*
X016498Y015251D01*
X016596Y015210D01*
X016650Y015203D01*
Y015550D01*
D02*
G37*
G36*
X018750Y029099D02*
X018647Y029085D01*
X018551Y029045D01*
X018468Y028982D01*
X018405Y028899D01*
X018365Y028803D01*
X018351Y028700D01*
X018365Y028597D01*
X018405Y028501D01*
X018468Y028418D01*
X018551Y028355D01*
X018647Y028315D01*
X018750Y028301D01*
X018853Y028315D01*
X018949Y028355D01*
X019032Y028418D01*
X019095Y028501D01*
X019135Y028597D01*
X019149Y028700D01*
X019135Y028803D01*
X019095Y028899D01*
X019032Y028982D01*
X018949Y029045D01*
X018853Y029085D01*
X018750Y029099D01*
D02*
G37*
G36*
X014800D02*
X014697Y029085D01*
X014601Y029045D01*
X014518Y028982D01*
X014455Y028899D01*
X014415Y028803D01*
X014401Y028700D01*
X014415Y028597D01*
X014455Y028501D01*
X014518Y028418D01*
X014601Y028355D01*
X014697Y028315D01*
X014800Y028301D01*
X014903Y028315D01*
X014999Y028355D01*
X015082Y028418D01*
X015145Y028501D01*
X015185Y028597D01*
X015199Y028700D01*
X015185Y028803D01*
X015145Y028899D01*
X015082Y028982D01*
X014999Y029045D01*
X014903Y029085D01*
X014800Y029099D01*
D02*
G37*
G36*
X026145Y029145D02*
X025355D01*
Y028355D01*
X026145D01*
Y029145D01*
D02*
G37*
G36*
X022750Y029149D02*
X022647Y029135D01*
X022551Y029095D01*
X022468Y029032D01*
X022405Y028949D01*
X022365Y028853D01*
X022351Y028750D01*
X022365Y028647D01*
X022405Y028551D01*
X022468Y028468D01*
X022551Y028405D01*
X022647Y028365D01*
X022750Y028351D01*
X022853Y028365D01*
X022949Y028405D01*
X023032Y028468D01*
X023095Y028551D01*
X023135Y028647D01*
X023149Y028750D01*
X023135Y028853D01*
X023095Y028949D01*
X023032Y029032D01*
X022949Y029095D01*
X022853Y029135D01*
X022750Y029149D01*
D02*
G37*
G36*
X018600Y025549D02*
X018497Y025535D01*
X018401Y025495D01*
X018318Y025432D01*
X018255Y025349D01*
X018215Y025253D01*
X018201Y025150D01*
X018215Y025047D01*
X018255Y024951D01*
X018318Y024868D01*
X018401Y024805D01*
X018497Y024765D01*
X018600Y024751D01*
X018703Y024765D01*
X018799Y024805D01*
X018882Y024868D01*
X018945Y024951D01*
X018985Y025047D01*
X018999Y025150D01*
X018985Y025253D01*
X018945Y025349D01*
X018882Y025432D01*
X018799Y025495D01*
X018703Y025535D01*
X018600Y025549D01*
D02*
G37*
G36*
X012950Y024329D02*
X012852Y024316D01*
X012761Y024278D01*
X012682Y024218D01*
X012622Y024139D01*
X012607Y024103D01*
X012343D01*
X012328Y024139D01*
X012268Y024218D01*
X012189Y024278D01*
X012098Y024316D01*
X012000Y024329D01*
X011902Y024316D01*
X011811Y024278D01*
X011732Y024218D01*
X011672Y024139D01*
X011634Y024048D01*
X011621Y023950D01*
X011634Y023852D01*
X011672Y023761D01*
X011732Y023682D01*
X011811Y023622D01*
X011902Y023584D01*
X012000Y023571D01*
X012098Y023584D01*
X012189Y023622D01*
X012268Y023682D01*
X012328Y023761D01*
X012343Y023797D01*
X012607D01*
X012622Y023761D01*
X012682Y023682D01*
X012761Y023622D01*
X012852Y023584D01*
X012950Y023571D01*
X013048Y023584D01*
X013085Y023599D01*
X015192Y021492D01*
X015241Y021459D01*
X015300Y021447D01*
X016749D01*
X016756Y021430D01*
X016810Y021360D01*
X016880Y021306D01*
X016962Y021272D01*
X017050Y021261D01*
X017138Y021272D01*
X017220Y021306D01*
X017290Y021360D01*
X017344Y021430D01*
X017378Y021512D01*
X017389Y021600D01*
X017378Y021688D01*
X017344Y021770D01*
X017290Y021840D01*
X017220Y021894D01*
X017138Y021928D01*
X017050Y021939D01*
X016962Y021928D01*
X016880Y021894D01*
X016810Y021840D01*
X016756Y021770D01*
X016749Y021753D01*
X015363D01*
X013301Y023815D01*
X013316Y023852D01*
X013329Y023950D01*
X013316Y024048D01*
X013278Y024139D01*
X013218Y024218D01*
X013139Y024278D01*
X013048Y024316D01*
X012950Y024329D01*
D02*
G37*
G36*
X028197Y025500D02*
X027850D01*
Y025153D01*
X027904Y025160D01*
X028002Y025201D01*
X028085Y025265D01*
X028149Y025348D01*
X028190Y025446D01*
X028197Y025500D01*
D02*
G37*
G36*
X026750D02*
X026403D01*
X026410Y025446D01*
X026451Y025348D01*
X026515Y025265D01*
X026598Y025201D01*
X026696Y025160D01*
X026750Y025153D01*
Y025500D01*
D02*
G37*
G36*
X014400Y034050D02*
X013852D01*
X013859Y033982D01*
X013893Y033869D01*
X013949Y033765D01*
X014024Y033674D01*
X014115Y033599D01*
X014219Y033543D01*
X014332Y033509D01*
X014400Y033502D01*
Y034050D01*
D02*
G37*
G36*
X014500Y034698D02*
Y034150D01*
X015048D01*
X015041Y034218D01*
X015007Y034331D01*
X014951Y034435D01*
X014876Y034526D01*
X014785Y034601D01*
X014681Y034657D01*
X014568Y034691D01*
X014500Y034698D01*
D02*
G37*
G36*
X014400D02*
X014332Y034691D01*
X014219Y034657D01*
X014115Y034601D01*
X014024Y034526D01*
X013949Y034435D01*
X013893Y034331D01*
X013859Y034218D01*
X013852Y034150D01*
X014400D01*
Y034698D01*
D02*
G37*
G36*
X010900Y035048D02*
Y034500D01*
X011448D01*
X011441Y034568D01*
X011407Y034681D01*
X011351Y034785D01*
X011276Y034876D01*
X011185Y034951D01*
X011081Y035007D01*
X010968Y035041D01*
X010900Y035048D01*
D02*
G37*
G36*
X010800D02*
X010732Y035041D01*
X010619Y035007D01*
X010515Y034951D01*
X010424Y034876D01*
X010349Y034785D01*
X010293Y034681D01*
X010259Y034568D01*
X010252Y034500D01*
X010800D01*
Y035048D01*
D02*
G37*
G36*
Y034400D02*
X010252D01*
X010259Y034332D01*
X010293Y034219D01*
X010349Y034115D01*
X010424Y034024D01*
X010515Y033949D01*
X010619Y033893D01*
X010732Y033859D01*
X010800Y033852D01*
Y034400D01*
D02*
G37*
G36*
X015048Y034050D02*
X014500D01*
Y033502D01*
X014568Y033509D01*
X014681Y033543D01*
X014785Y033599D01*
X014876Y033674D01*
X014951Y033765D01*
X015007Y033869D01*
X015041Y033982D01*
X015048Y034050D01*
D02*
G37*
G36*
X030450Y035253D02*
X030332Y035241D01*
X030219Y035207D01*
X030115Y035151D01*
X030024Y035076D01*
X029949Y034985D01*
X029893Y034881D01*
X029859Y034768D01*
X029847Y034650D01*
X029859Y034532D01*
X029893Y034419D01*
X029949Y034315D01*
X030024Y034224D01*
X030115Y034149D01*
X030219Y034093D01*
X030332Y034059D01*
X030450Y034047D01*
X030568Y034059D01*
X030681Y034093D01*
X030785Y034149D01*
X030876Y034224D01*
X030951Y034315D01*
X031007Y034419D01*
X031041Y034532D01*
X031053Y034650D01*
X031041Y034768D01*
X031007Y034881D01*
X030951Y034985D01*
X030876Y035076D01*
X030785Y035151D01*
X030681Y035207D01*
X030568Y035241D01*
X030450Y035253D01*
D02*
G37*
G36*
X011448Y034400D02*
X010900D01*
Y033852D01*
X010968Y033859D01*
X011081Y033893D01*
X011185Y033949D01*
X011276Y034024D01*
X011351Y034115D01*
X011407Y034219D01*
X011441Y034332D01*
X011448Y034400D01*
D02*
G37*
G36*
X017100Y023933D02*
Y023650D01*
X017383D01*
X017378Y023688D01*
X017344Y023770D01*
X017290Y023840D01*
X017220Y023894D01*
X017138Y023928D01*
X017100Y023933D01*
D02*
G37*
G36*
X030050Y020900D02*
X029728D01*
X029734Y020852D01*
X029772Y020761D01*
X029832Y020682D01*
X029911Y020622D01*
X030002Y020584D01*
X030050Y020578D01*
Y020900D01*
D02*
G37*
G36*
X025050Y020003D02*
X024946Y019990D01*
X024848Y019949D01*
X024765Y019885D01*
X024702Y019803D01*
X022565D01*
X022556Y019827D01*
X022500Y019900D01*
X022427Y019956D01*
X022341Y019991D01*
X022250Y020003D01*
X022159Y019991D01*
X022073Y019956D01*
X022000Y019900D01*
X021944Y019827D01*
X021909Y019741D01*
X021897Y019650D01*
X021909Y019559D01*
X021944Y019473D01*
X022000Y019400D01*
X022073Y019344D01*
X022159Y019309D01*
X022250Y019297D01*
X022341Y019309D01*
X022427Y019344D01*
X022492Y019394D01*
X022522Y019380D01*
X022535Y019367D01*
X022522Y019338D01*
X022517Y019300D01*
X023183D01*
X023178Y019338D01*
X023144Y019420D01*
X023123Y019447D01*
X023147Y019497D01*
X024660D01*
X024660Y019496D01*
X024701Y019398D01*
X024765Y019315D01*
X024848Y019251D01*
X024946Y019210D01*
X025050Y019197D01*
X025154Y019210D01*
X025252Y019251D01*
X025335Y019315D01*
X025399Y019398D01*
X025440Y019496D01*
X025453Y019600D01*
X025440Y019704D01*
X025399Y019802D01*
X025335Y019885D01*
X025252Y019949D01*
X025154Y019990D01*
X025050Y020003D01*
D02*
G37*
G36*
X018600Y021549D02*
X018497Y021535D01*
X018401Y021495D01*
X018318Y021432D01*
X018255Y021349D01*
X018215Y021253D01*
X018201Y021150D01*
X018215Y021047D01*
X018255Y020951D01*
X018318Y020868D01*
X018401Y020805D01*
X018497Y020765D01*
X018600Y020751D01*
X018703Y020765D01*
X018799Y020805D01*
X018882Y020868D01*
X018945Y020951D01*
X018985Y021047D01*
X018999Y021150D01*
X018985Y021253D01*
X018945Y021349D01*
X018882Y021432D01*
X018799Y021495D01*
X018703Y021535D01*
X018600Y021549D01*
D02*
G37*
G36*
X030472Y020900D02*
X030150D01*
Y020578D01*
X030198Y020584D01*
X030289Y020622D01*
X030368Y020682D01*
X030428Y020761D01*
X030466Y020852D01*
X030472Y020900D01*
D02*
G37*
G36*
X012834Y019312D02*
X012789Y019306D01*
X012700Y019269D01*
X012623Y019211D01*
X012565Y019134D01*
X012528Y019045D01*
X012522Y019000D01*
X012834D01*
Y019312D01*
D02*
G37*
G36*
X023183Y019200D02*
X022900D01*
Y018917D01*
X022938Y018922D01*
X023020Y018956D01*
X023090Y019010D01*
X023144Y019080D01*
X023178Y019162D01*
X023183Y019200D01*
D02*
G37*
G36*
X027100Y021329D02*
X027002Y021316D01*
X026911Y021278D01*
X026832Y021218D01*
X026772Y021139D01*
X026734Y021048D01*
X026721Y020950D01*
X026734Y020852D01*
X026772Y020761D01*
X026832Y020682D01*
X026911Y020622D01*
X027002Y020584D01*
X027100Y020571D01*
X027198Y020584D01*
X027235Y020599D01*
X028038Y019795D01*
X028088Y019762D01*
X028146Y019751D01*
X029757D01*
X029772Y019714D01*
X029832Y019636D01*
X029911Y019575D01*
X030002Y019538D01*
X030100Y019525D01*
X030198Y019538D01*
X030289Y019575D01*
X030368Y019636D01*
X030428Y019714D01*
X030466Y019805D01*
X030479Y019904D01*
X030466Y020002D01*
X030428Y020093D01*
X030368Y020171D01*
X030289Y020232D01*
X030198Y020269D01*
X030100Y020282D01*
X030002Y020269D01*
X029911Y020232D01*
X029832Y020171D01*
X029772Y020093D01*
X029757Y020056D01*
X028210D01*
X027451Y020815D01*
X027466Y020852D01*
X027479Y020950D01*
X027466Y021048D01*
X027428Y021139D01*
X027368Y021218D01*
X027289Y021278D01*
X027198Y021316D01*
X027100Y021329D01*
D02*
G37*
G36*
X012934Y019312D02*
Y019000D01*
X013247D01*
X013241Y019045D01*
X013204Y019134D01*
X013145Y019211D01*
X013069Y019269D01*
X012980Y019306D01*
X012934Y019312D01*
D02*
G37*
G36*
X030050Y021322D02*
X030002Y021316D01*
X029911Y021278D01*
X029832Y021218D01*
X029772Y021139D01*
X029734Y021048D01*
X029728Y021000D01*
X030050D01*
Y021322D01*
D02*
G37*
G36*
X017000Y023550D02*
X016717D01*
X016722Y023512D01*
X016756Y023430D01*
X016810Y023360D01*
X016880Y023306D01*
X016962Y023272D01*
X017000Y023267D01*
Y023550D01*
D02*
G37*
G36*
X027950Y022633D02*
X027912Y022628D01*
X027830Y022594D01*
X027760Y022540D01*
X027706Y022470D01*
X027672Y022388D01*
X027667Y022350D01*
X027950D01*
Y022633D01*
D02*
G37*
G36*
X017000Y023933D02*
X016962Y023928D01*
X016880Y023894D01*
X016810Y023840D01*
X016756Y023770D01*
X016722Y023688D01*
X016717Y023650D01*
X017000D01*
Y023933D01*
D02*
G37*
G36*
X017383Y023550D02*
X017100D01*
Y023267D01*
X017138Y023272D01*
X017220Y023306D01*
X017290Y023360D01*
X017344Y023430D01*
X017378Y023512D01*
X017383Y023550D01*
D02*
G37*
G36*
X023183Y021750D02*
X022900D01*
Y021467D01*
X022938Y021472D01*
X023020Y021506D01*
X023090Y021560D01*
X023144Y021630D01*
X023178Y021712D01*
X023183Y021750D01*
D02*
G37*
G36*
X030150Y021322D02*
Y021000D01*
X030472D01*
X030466Y021048D01*
X030428Y021139D01*
X030368Y021218D01*
X030289Y021278D01*
X030198Y021316D01*
X030150Y021322D01*
D02*
G37*
G36*
X027000Y022639D02*
X026912Y022628D01*
X026830Y022594D01*
X026760Y022540D01*
X026706Y022470D01*
X026672Y022388D01*
X026661Y022300D01*
X026672Y022212D01*
X026706Y022130D01*
X026760Y022060D01*
X026830Y022006D01*
X026912Y021972D01*
X027000Y021961D01*
X027088Y021972D01*
X027170Y022006D01*
X027240Y022060D01*
X027294Y022130D01*
X027328Y022212D01*
X027339Y022300D01*
X027328Y022388D01*
X027294Y022470D01*
X027240Y022540D01*
X027170Y022594D01*
X027088Y022628D01*
X027000Y022639D01*
D02*
G37*
G36*
X028050Y022633D02*
Y022300D01*
Y021967D01*
X028088Y021972D01*
X028170Y022006D01*
X028240Y022060D01*
X028294Y022130D01*
X028301Y022147D01*
X029237D01*
X029292Y022092D01*
X029341Y022059D01*
X029400Y022047D01*
X030355D01*
Y021805D01*
X030700D01*
Y022200D01*
Y022595D01*
X030355D01*
Y022353D01*
X029463D01*
X029408Y022408D01*
X029359Y022441D01*
X029300Y022453D01*
X028301D01*
X028294Y022470D01*
X028240Y022540D01*
X028170Y022594D01*
X028088Y022628D01*
X028050Y022633D01*
D02*
G37*
%LPD*%
D12*
X024240Y024050D02*
X024550D01*
X023800Y024490D02*
X024240Y024050D01*
X024230Y031200D02*
X029700D01*
X017350Y032150D02*
X017800Y031700D01*
X015750Y033750D02*
X017350Y032150D01*
X018300Y029250D02*
X018750Y029700D01*
X015250Y029250D02*
X018300D01*
X014800Y029700D02*
X015250Y029250D01*
X010850Y029700D02*
X011300Y029250D01*
X014350D01*
X014800Y029700D01*
X028146Y019904D02*
X030100D01*
X027100Y020950D02*
X028146Y019904D01*
X021600Y025150D02*
X021960Y025510D01*
X025031D01*
X025500Y025041D01*
X028084Y016951D02*
X030100D01*
X027100Y017935D02*
X028084Y016951D01*
X028084Y015967D02*
X030100D01*
X027100Y016951D02*
X028084Y015967D01*
X028084Y014982D02*
X030100D01*
X027100Y015967D02*
X028084Y014982D01*
X029700Y031200D02*
X030700Y030200D01*
X013850Y030700D02*
X014300Y031150D01*
X017350D01*
X017800Y030700D01*
X023750Y029750D02*
X025750D01*
X022750Y030750D02*
X023750Y029750D01*
X028500Y024000D02*
X030700Y026200D01*
X020610Y021700D02*
X022100D01*
X019660Y022650D02*
X020610Y021700D01*
X017310Y022650D02*
X019660D01*
X017180Y022780D02*
X017310Y022650D01*
X022250Y019650D02*
X024885D01*
X021600Y023150D02*
X022260Y023230D01*
X015950Y023950D02*
X017650Y025650D01*
X014550Y023950D02*
X015950D01*
X016684Y026650D02*
X017650D01*
X016284Y026250D02*
X016684Y026650D01*
X027800Y034100D02*
X030700Y031200D01*
X016400Y034100D02*
X027800D01*
X015730Y020520D02*
X016200Y020050D01*
X018600Y026150D02*
X020100Y024650D01*
X021930D01*
X022090Y024490D01*
X023800D01*
X020500Y024150D02*
X020700Y023950D01*
X018600Y024150D02*
X020500D01*
X023250Y011100D02*
X025200D01*
X022800Y011550D02*
X023250Y011100D01*
X012950Y020950D02*
X013420Y021420D01*
X014380D01*
X014850Y020950D01*
X014850D02*
X017800D01*
X018600Y020150D01*
X021600Y021150D02*
X022200D01*
X022850Y021800D01*
X030020Y023520D02*
X030700Y024200D01*
X027500Y023520D02*
X030020D01*
X015750Y033750D02*
Y034400D01*
X021750Y031700D02*
X022290Y032240D01*
X025260D01*
X025750Y031750D01*
X017800Y031700D02*
X018250Y032150D01*
X021300D01*
X021750Y031700D01*
X013850D02*
X014300Y032150D01*
X017350D01*
X015200Y017050D02*
Y017720D01*
X013350Y019570D02*
X015200Y017720D01*
X015970Y016330D02*
X016700Y015600D01*
X013920Y016330D02*
X015970D01*
X012884Y017366D02*
X013920Y016330D01*
X012884Y017366D02*
Y018950D01*
X022020Y010770D02*
X022800Y011550D01*
X012980Y010770D02*
X022020D01*
X012200Y011550D02*
X012980Y010770D01*
X016750Y019150D02*
X018600D01*
X013750Y019790D02*
X013940Y019600D01*
X021050D01*
X021600Y020150D01*
X027800Y026550D02*
Y029650D01*
X027200Y030250D02*
X027800Y029650D01*
X025180Y030250D02*
X027200D01*
X024230Y031200D02*
X025180Y030250D01*
X018300Y031200D02*
X024230D01*
X017800Y030700D02*
X018300Y031200D01*
X018600Y023150D02*
X020610D01*
X021100Y023640D01*
X022290D01*
X022350Y023580D01*
X023380D01*
X021270Y021480D02*
X021600Y021150D01*
X019930Y021480D02*
X021270D01*
X018600Y020150D02*
X019930Y021480D01*
X026304Y020700D02*
X027100Y019904D01*
X020670Y021080D02*
X021050Y020700D01*
X019750Y029700D02*
X021750D01*
X018750Y030700D02*
X019750Y029700D01*
X018750D02*
X019240Y029210D01*
X022210D01*
X022750Y029750D01*
X015300Y021600D02*
X017050D01*
X012950Y023950D02*
X015300Y021600D01*
X028132Y013950D02*
X030150D01*
X027100Y014982D02*
X028132Y013950D01*
X021600Y014150D02*
X021920Y014470D01*
X024830D01*
X027200Y012100D01*
X013600Y023950D02*
X015400Y022150D01*
X018600D01*
X025750Y030750D02*
X029150D01*
X030700Y029200D01*
X029600Y026100D02*
X030700Y027200D01*
X026350Y026100D02*
X029600D01*
X025850Y026600D02*
X026350Y026100D01*
X018150Y026600D02*
X025850D01*
X017700Y026150D02*
X018150Y026600D01*
X017450Y026150D02*
X017700D01*
X017130Y025830D02*
X017450Y026150D01*
X013204Y025830D02*
X017130D01*
X012834Y026200D02*
X013204Y025830D01*
X020850Y011550D02*
X021970Y012670D01*
X023570D01*
X024640Y011600D01*
X028700D01*
X029200Y011100D01*
X011850Y014150D02*
X012630Y014930D01*
X012970D01*
X013750Y014150D01*
X017150D01*
X017600Y014600D01*
X021150D01*
X021600Y014150D01*
X010950D02*
X011850D01*
X022105Y026025D02*
X022500D01*
X021980Y026150D02*
X022105Y026025D01*
X021600Y026150D02*
X021980D01*
X022094Y024056D02*
X022500D01*
X022000Y024150D02*
X022094Y024056D01*
X021600Y024150D02*
X022000D01*
X026800Y026550D02*
X027800D01*
X026800Y024550D02*
X027800D01*
X025950Y014000D02*
X027100D01*
X011850Y016700D02*
X012750D01*
X014700Y014600D02*
X015700D01*
X014700Y015600D02*
X015700D01*
X012000Y023950D02*
X012950D01*
X025200Y011100D02*
X026200D01*
X027200D01*
X028200D01*
X026800Y025550D02*
X027800D01*
X029400Y022200D02*
X030700D01*
X029300Y022300D02*
X029400Y022200D01*
X028000Y022300D02*
X029300D01*
X015750Y034400D02*
X016800Y035450D01*
X028000D01*
X028250Y035700D01*
X021600Y022150D02*
X022250Y022800D01*
X022850D01*
X022100Y021700D02*
X022610Y022210D01*
X023380Y023580D02*
X023750Y023210D01*
X022260Y023230D02*
X023120D01*
X021050Y020700D02*
X026304D01*
X022610Y022210D02*
X024329Y022300D01*
X023120Y023230D02*
X023847Y022503D01*
X024353D01*
X024950Y023100D01*
X022850Y021800D02*
X023057Y022007D01*
X025273D01*
X027370Y021670D02*
X028000Y022300D01*
X025610Y021670D02*
X027370D01*
X024329Y022300D02*
X025406D01*
X025526Y022419D01*
Y023466D01*
X026060Y024000D01*
X028500D01*
X025926Y023300D02*
X027250D01*
X027265Y023285D01*
X027500Y023520D01*
X025273Y022007D02*
X025610Y021670D01*
X027100Y014000D02*
X027150Y013950D01*
X025950Y014950D02*
X027068D01*
X027100Y014982D01*
X025950Y015867D02*
X027000D01*
X027100Y015967D01*
X025950Y016851D02*
X027000D01*
X027100Y016951D01*
X025950Y017835D02*
X027000D01*
X027100Y017935D01*
X022796Y014950D02*
X022950D01*
X022796D02*
Y014954D01*
X021600Y016150D02*
X022796Y014954D01*
X022950Y015800D02*
Y015867D01*
X021600Y017150D02*
X022950Y015800D01*
X021600Y018150D02*
X022899Y016851D01*
X022950D01*
X021600Y019150D02*
X022915Y017835D01*
X022950D01*
X013850Y029700D02*
X014750Y030600D01*
X016900D01*
X017800Y029700D01*
X010850Y030700D02*
X011350Y030200D01*
X014300D01*
X014800Y030700D01*
X010875Y021075D02*
X012380Y019570D01*
X013350D01*
X012443Y019790D02*
X013750D01*
X011900Y020333D02*
X012443Y019790D01*
X011900Y020333D02*
Y020950D01*
X013080Y020520D02*
X015730D01*
X013076Y020524D02*
X013080Y020520D01*
X012576Y020524D02*
X013076D01*
X012520Y020580D02*
X012576Y020524D01*
X012450Y020650D02*
Y022550D01*
X011050Y023950D02*
X012450Y022550D01*
Y020650D02*
X012576Y020524D01*
D13*
X017050Y023600D02*
D03*
Y021600D02*
D03*
X017650Y025650D02*
D03*
Y026650D02*
D03*
X022850Y020250D02*
D03*
Y019250D02*
D03*
Y022800D02*
D03*
Y021800D02*
D03*
X027000Y022300D02*
D03*
X028000D02*
D03*
D14*
X031150Y013000D02*
D03*
X009800Y012900D02*
D03*
X010850Y034450D02*
D03*
X030450Y034650D02*
D03*
D15*
X010850Y031700D02*
D03*
Y030700D02*
D03*
Y029700D02*
D03*
Y028700D02*
D03*
X013850Y031700D02*
D03*
Y030700D02*
D03*
Y029700D02*
D03*
X030750Y024200D02*
D03*
Y031200D02*
D03*
Y030200D02*
D03*
Y029200D02*
D03*
Y028200D02*
D03*
Y027200D02*
D03*
Y026200D02*
D03*
Y025200D02*
D03*
Y023200D02*
D03*
X017200Y020050D02*
D03*
X016200D02*
D03*
X015200D02*
D03*
X014200D02*
D03*
X017200Y017050D02*
D03*
X016200D02*
D03*
X015200D02*
D03*
X018750Y031700D02*
D03*
Y030700D02*
D03*
Y029700D02*
D03*
Y028700D02*
D03*
X021750Y031700D02*
D03*
Y030700D02*
D03*
Y029700D02*
D03*
X022750Y031750D02*
D03*
Y030750D02*
D03*
Y029750D02*
D03*
Y028750D02*
D03*
X025750Y031750D02*
D03*
Y030750D02*
D03*
Y029750D02*
D03*
X014800Y031700D02*
D03*
Y030700D02*
D03*
Y029700D02*
D03*
Y028700D02*
D03*
X017800Y031700D02*
D03*
Y030700D02*
D03*
Y029700D02*
D03*
X021600Y015150D02*
D03*
Y016150D02*
D03*
Y017150D02*
D03*
Y018150D02*
D03*
Y019150D02*
D03*
Y020150D02*
D03*
Y021150D02*
D03*
Y022150D02*
D03*
Y023150D02*
D03*
Y024150D02*
D03*
Y025150D02*
D03*
Y026150D02*
D03*
Y027150D02*
D03*
X018600Y014150D02*
D03*
Y015150D02*
D03*
Y016150D02*
D03*
Y017150D02*
D03*
Y018150D02*
D03*
Y019150D02*
D03*
Y020150D02*
D03*
Y021150D02*
D03*
Y022150D02*
D03*
Y023150D02*
D03*
Y024150D02*
D03*
Y025150D02*
D03*
Y026150D02*
D03*
Y027150D02*
D03*
X029200Y011100D02*
D03*
X028200Y012100D02*
D03*
Y011100D02*
D03*
X027200Y012100D02*
D03*
Y011100D02*
D03*
X026200Y012100D02*
D03*
Y011100D02*
D03*
X025200Y012100D02*
D03*
Y011100D02*
D03*
D16*
X013850Y028700D02*
D03*
X021750D02*
D03*
X025750Y028750D02*
D03*
X017800Y028700D02*
D03*
X021600Y014150D02*
D03*
X029200Y012100D02*
D03*
D17*
X014450Y034100D02*
D03*
X016400D02*
D03*
X022800Y011550D02*
D03*
X020850D02*
D03*
X018500D02*
D03*
X016550D02*
D03*
X014150D02*
D03*
X012200D02*
D03*
D18*
X030750Y022200D02*
D03*
X014200Y017050D02*
D03*
D19*
X010866Y026200D02*
D03*
X012884Y018950D02*
D03*
X014316Y026250D02*
D03*
D20*
X012834Y026200D02*
D03*
X010916Y018950D02*
D03*
X016284Y026250D02*
D03*
D21*
X011050Y020950D02*
D03*
Y023950D02*
D03*
X012000D02*
D03*
Y020950D02*
D03*
X012950D02*
D03*
Y023950D02*
D03*
X022950Y016851D02*
D03*
X025950D02*
D03*
X022950Y017835D02*
D03*
X025950D02*
D03*
X022500Y024056D02*
D03*
X025500D02*
D03*
Y025041D02*
D03*
X022500D02*
D03*
Y026025D02*
D03*
X025500D02*
D03*
X030100Y016951D02*
D03*
X027100D02*
D03*
X030100Y017935D02*
D03*
X027100D02*
D03*
Y018919D02*
D03*
X030100D02*
D03*
Y019904D02*
D03*
X027100D02*
D03*
X030100Y020950D02*
D03*
X027100D02*
D03*
X014850D02*
D03*
Y023950D02*
D03*
X013900D02*
D03*
Y020950D02*
D03*
X022950Y014000D02*
D03*
X025950D02*
D03*
X022950Y014950D02*
D03*
X025950D02*
D03*
X022950Y015867D02*
D03*
X025950D02*
D03*
X030150Y013950D02*
D03*
X027150D02*
D03*
X030100Y014982D02*
D03*
X027100D02*
D03*
X030100Y015967D02*
D03*
X027100D02*
D03*
X025500Y027150D02*
D03*
X022500D02*
D03*
D22*
X026800Y024550D02*
D03*
X027800D02*
D03*
Y025550D02*
D03*
X026800D02*
D03*
X027800Y026550D02*
D03*
X026800D02*
D03*
X016700Y014600D02*
D03*
Y015600D02*
D03*
X015700D02*
D03*
Y014600D02*
D03*
X014700Y015600D02*
D03*
Y014600D02*
D03*
X025050Y019600D02*
D03*
Y021550D02*
D03*
X011900Y015700D02*
D03*
Y016700D02*
D03*
Y014150D02*
D03*
D23*
X012800D02*
D03*
X011050Y016700D02*
D03*
X012800D02*
D03*
X011000Y014150D02*
D03*
D24*
X024550Y024050D02*
D03*
X017180Y022780D02*
D03*
X022250Y019650D02*
D03*
X020700Y023950D02*
D03*
X016750Y019150D02*
D03*
X020670Y021080D02*
D03*
X028250Y035700D02*
D03*
X024950Y023100D02*
D03*
X023750Y023210D02*
D03*
X025926Y023300D02*
D03*
M02*
