M48
;Layer_Color=9474304
;FILE_FORMAT=2:4
INCH,TZ
;TYPE=PLATED
T1F00S00C0.0276
T2F00S00C0.0280
T3F00S00C0.0300
T5F00S00C0.0315
T6F00S00C0.0335
T7F00S00C0.0350
T9F00S00C0.0354
T10F00S00C0.0500
T11F00S00C0.1000
%
T01
X17050Y21600
Y23600
X17650Y25650
Y26650
X22850Y22800
Y21800
Y20250
Y19250
X27000Y22300
X28000
T02
X16750Y19150
X17180Y22780
X20700Y23950
X20670Y21080
X22250Y19650
X23750Y23210
X24950Y23100
X25926Y23300
X24550Y24050
X28250Y35700
T03
X14700Y14600
Y15600
X15700
Y14600
X25050Y19600
Y21550
X26800Y25550
Y26550
X27800
Y25550
X11900Y16700
T05
X16284Y26250
X14316
X12834Y26200
X10866
X10916Y18950
X12884
T06
X22950Y14000
Y14950
X25950
Y14000
X27150Y13950
X27100Y14982
X30100
X30150Y13950
X30100Y15967
Y16951
Y17935
Y18919
Y19904
Y20950
X27100
Y19904
Y18919
Y17935
Y16951
Y15967
X25950Y15867
Y16851
Y17835
X22950
Y16851
Y15867
X22500Y24056
Y25041
Y26025
Y27150
X25500
Y26025
Y25041
Y24056
X14850Y23950
X13900
X12950
X12000
X11050
Y20950
X12000
X12950
X13900
X14850
T07
X12800Y14150
Y16700
X11050
T09
X18600Y14150
Y15150
X21600
Y14150
X25200Y12100
Y11100
X26200
Y12100
X27200
Y11100
X28200
Y12100
X29200
Y11100
X21600Y16150
Y17150
Y18150
Y19150
Y20150
Y21150
Y22150
Y23150
Y24150
Y25150
Y26150
Y27150
X21750Y28700
Y29700
Y30700
X22750Y30750
Y29750
Y28750
X25750
Y29750
Y30750
X30750Y31200
Y30200
Y29200
Y28200
Y27200
Y26200
Y25200
Y24200
Y23200
Y22200
X18600Y22150
Y23150
Y24150
Y25150
Y26150
Y27150
X18750Y28700
X17800
Y29700
X18750
Y30700
X17800
X18600Y21150
Y20150
Y19150
Y18150
Y17150
Y16150
X17200Y17050
X16200
Y20050
X17200
X15200
X14200
Y17050
X15200
X14800Y28700
X13850
Y29700
X14800
Y30700
X13850
X10850
Y29700
Y28700
Y31700
X13850
X14800
X17800
X18750
X21750
X22750Y31750
X25750
T10
X12200Y11550
X14150
X16550
X18500
X20850
X22800
X14450Y34100
X16400
T11
X9800Y12900
X31150Y13000
X10850Y34450
X30450Y34650
M30
