%FSTAX23Y23*%
%MOIN*%
%SFA1B1*%

%IPPOS*%
%ADD28R,0.067100X0.063100*%
%ADD29R,0.063100X0.067100*%
%ADD30C,0.055200*%
%ADD31C,0.048000*%
%ADD32C,0.067100*%
%ADD33R,0.067100X0.067100*%
%ADD34C,0.108000*%
%ADD35R,0.067100X0.067100*%
%ADD36C,0.061200*%
%ADD37R,0.061200X0.061200*%
%ADD38C,0.063100*%
%ADD39C,0.068000*%
%ADD40C,0.078000*%
%ADD41C,0.058000*%
%LNaudio_adc-1*%
%LPD*%
G54D28*
X02595Y03429D03*
Y0335D03*
X02705Y03429D03*
Y0335D03*
X02815D03*
Y03429D03*
X02485Y03429D03*
Y0335D03*
G54D29*
X02814Y0318D03*
X02735D03*
X02814Y03075D03*
X02735D03*
X02814Y0297D03*
X02735D03*
X02814Y02865D03*
X02735D03*
G54D30*
X01705Y0236D03*
Y0216D03*
X01765Y02565D03*
Y02665D03*
X02285Y02025D03*
Y01925D03*
Y0228D03*
Y0218D03*
X027Y0223D03*
X028D03*
G54D31*
X03115Y013D03*
X0098Y0129D03*
X01085Y03445D03*
X03045Y03465D03*
G54D32*
X01085Y0317D03*
Y0307D03*
Y0297D03*
Y0287D03*
X01385Y0317D03*
Y0307D03*
Y0297D03*
X03075Y0242D03*
Y0312D03*
Y0302D03*
Y0292D03*
Y0282D03*
Y0272D03*
Y0262D03*
Y0252D03*
Y0232D03*
X0172Y02005D03*
X0162D03*
X0152D03*
X0142D03*
X0172Y01705D03*
X0162D03*
X0152D03*
X01875Y0317D03*
Y0307D03*
Y0297D03*
Y0287D03*
X02175Y0317D03*
Y0307D03*
Y0297D03*
X02275Y03175D03*
Y03075D03*
Y02975D03*
Y02875D03*
X02575Y03175D03*
Y03075D03*
Y02975D03*
X0148Y0317D03*
Y0307D03*
Y0297D03*
Y0287D03*
X0178Y0317D03*
Y0307D03*
Y0297D03*
X0216Y01515D03*
Y01615D03*
Y01715D03*
Y01815D03*
Y01915D03*
Y02015D03*
Y02115D03*
Y02215D03*
Y02315D03*
Y02415D03*
Y02515D03*
Y02615D03*
Y02715D03*
X0186Y01415D03*
Y01515D03*
Y01615D03*
Y01715D03*
Y01815D03*
Y01915D03*
Y02015D03*
Y02115D03*
Y02215D03*
Y02315D03*
Y02415D03*
Y02515D03*
Y02615D03*
Y02715D03*
X0292Y0111D03*
X0282Y0121D03*
Y0111D03*
X0272Y0121D03*
Y0111D03*
X0262Y0121D03*
Y0111D03*
X0252Y0121D03*
Y0111D03*
G54D33*
X01385Y0287D03*
X02175D03*
X02575Y02875D03*
X0178Y0287D03*
X0216Y01415D03*
X0292Y0121D03*
G54D34*
X01445Y0341D03*
X0164D03*
X0228Y01155D03*
X02085D03*
X0185D03*
X01655D03*
X01415D03*
X0122D03*
G54D35*
X03075Y0222D03*
X0142Y01705D03*
G54D36*
X01086Y0262D03*
X01288Y01895D03*
X01431Y02625D03*
G54D37*
X01283Y0262D03*
X01091Y01895D03*
X01628Y02625D03*
G54D38*
X01105Y02095D03*
Y02395D03*
X012D03*
Y02095D03*
X01295D03*
Y02395D03*
X02295Y01685D03*
X02595D03*
X02295Y01783D03*
X02595D03*
X0225Y02405D03*
X0255D03*
Y02504D03*
X0225D03*
Y02602D03*
X0255D03*
X0301Y01695D03*
X0271D03*
X0301Y01793D03*
X0271D03*
Y01891D03*
X0301D03*
Y0199D03*
X0271D03*
X0301Y02095D03*
X0271D03*
X01485D03*
Y02395D03*
X0139D03*
Y02095D03*
X02295Y014D03*
X02595D03*
X02295Y01495D03*
X02595D03*
X02295Y01586D03*
X02595D03*
X03015Y01395D03*
X02715D03*
X0301Y01498D03*
X0271D03*
X0301Y01596D03*
X0271D03*
X0255Y02715D03*
X0225D03*
G54D39*
X0268Y02455D03*
X0278D03*
Y02555D03*
X0268D03*
X0278Y02655D03*
X0268D03*
X0167Y0146D03*
Y0156D03*
X0157D03*
Y0146D03*
X0147Y0156D03*
Y0146D03*
X02505Y0196D03*
Y02155D03*
X0119Y0157D03*
Y0167D03*
Y01415D03*
G54D40*
X0128Y01415D03*
X01105Y0167D03*
X0128D03*
X011Y01415D03*
G54D41*
X02455Y02405D03*
X01718Y02278D03*
X02225Y01965D03*
X0207Y02395D03*
X01675Y01915D03*
X02067Y02108D03*
X02825Y0357D03*
X02495Y0231D03*
X02375Y02321D03*
X02592Y0233D03*
M02*