%FSTAX23Y23*%
%MOIN*%
%SFA1B1*%

%IPPOS*%
%ADD12C,0.010000*%
%ADD25C,0.023600*%
%ADD26C,0.009800*%
%ADD27C,0.007900*%
%LNaudio_adc-1*%
%LPD*%
G36*
X02082Y03372D02*
X02082D01*
X02084Y03372*
X02085Y03372*
X02087Y03371*
X02089Y03371*
X02091Y0337*
X02091*
X02091*
X02091Y0337*
X02092Y03369*
X02093Y03368*
X02094Y03368*
X02095Y03367*
X02096Y03365*
X02097Y03364*
Y03364*
X02097Y03364*
X02097Y03363*
X02097Y03363*
X02097Y03362*
X02098Y03361*
X02098Y0336*
X02098Y03358*
X02099Y03356*
X02099Y03354*
Y03352*
X02074*
Y03352*
X02075Y03352*
Y03351*
X02075Y03351*
X02075Y03349*
X02076Y03349*
X02076Y03348*
X02076Y03348*
X02076Y03348*
X02077Y03347*
X02077Y03347*
X02078Y03347*
X02079Y03346*
X02079Y03346*
X02081Y03346*
X02081*
X02081Y03346*
X02082*
X02083Y03346*
X02084Y03347*
X02084*
X02084Y03347*
X02085Y03347*
X02085Y03348*
X02086Y03349*
X02098Y03348*
Y03348*
X02098Y03347*
X02098Y03347*
X02097Y03346*
X02096Y03345*
X02095Y03344*
X02094Y03343*
X02093Y03342*
X02091Y03341*
X02091*
X02091Y03341*
X02091Y03341*
X02091Y03341*
X0209Y0334*
X0209Y0334*
X02089Y0334*
X02089Y0334*
X02088Y0334*
X02087Y03339*
X02085Y03339*
X02083Y03339*
X0208Y03339*
X02079*
X02079Y03339*
X02078*
X02077Y03339*
X02075Y03339*
X02073Y0334*
X02072Y0334*
X0207Y03341*
X0207Y03341*
X0207Y03341*
X02069Y03341*
X02068Y03342*
X02067Y03343*
X02066Y03344*
X02065Y03345*
X02064Y03346*
Y03346*
X02064Y03346*
X02064Y03347*
X02064Y03348*
X02063Y03349*
X02063Y0335*
X02062Y03352*
X02062Y03354*
Y03355*
Y03355*
Y03356*
Y03356*
Y03357*
X02062Y03357*
X02062Y03358*
X02063Y0336*
X02063Y03362*
X02064Y03364*
X02065Y03365*
X02065Y03366*
X02066Y03367*
X02067Y03367*
X02067Y03368*
X02067Y03368*
X02067Y03368*
X02068Y03368*
X02068Y03369*
X02069Y03369*
X02069Y03369*
X0207Y0337*
X02071Y0337*
X02072Y03371*
X02073Y03371*
X02074Y03371*
X02076Y03372*
X02077Y03372*
X02078Y03372*
X0208Y03372*
X02081*
X02082Y03372*
G37*
G36*
X01926D02*
X01927Y03372D01*
X01928Y03372*
X0193Y03372*
X01931Y03371*
X01931*
X01932Y03371*
X01932Y03371*
X01933Y03371*
X01934Y03371*
X01935Y0337*
X01936Y0337*
X01937Y03369*
X01937*
X01937Y03369*
X01937Y03368*
X01938Y03368*
X01938Y03367*
X01939Y03367*
X01939Y03366*
X01939Y03365*
Y03365*
X01939Y03365*
X0194Y03364*
X0194Y03363*
X0194Y03363*
X0194Y03362*
X0194Y03361*
Y0336*
Y03346*
Y03346*
Y03346*
Y03346*
Y03345*
X0194Y03344*
X0194Y03343*
Y03343*
X01941Y03343*
X01941Y03342*
X01941Y03342*
X01941Y03341*
X01941Y03341*
X01942Y0334*
X0193*
Y0334*
X0193Y0334*
X0193Y0334*
X0193Y03341*
X01929Y03341*
Y03342*
X01929Y03342*
X01929Y03343*
X01929Y03343*
X01929Y03343*
X01929Y03343*
X01928Y03343*
X01927Y03342*
X01927Y03342*
X01926Y03341*
X01925Y03341*
X01924Y0334*
X01924Y0334*
X01924*
X01923Y0334*
X01922Y03339*
X01921Y03339*
X0192Y03339*
X01918*
X01917Y03339*
X01916*
X01916Y03339*
X01915*
X01915*
X01914Y03339*
X01912Y03339*
X01911Y0334*
X01909Y03341*
X01908Y03341*
X01908Y03342*
X01908Y03342*
X01907Y03342*
X01907Y03343*
X01906Y03344*
X01906Y03345*
X01905Y03347*
X01905Y03348*
Y03348*
Y03348*
Y03349*
X01905Y03349*
X01905Y0335*
X01906Y03351*
X01906Y03352*
X01907Y03353*
X01907Y03354*
X01907Y03354*
X01908Y03354*
X01908Y03355*
X01909Y03355*
X0191Y03356*
X01911Y03356*
X01913Y03357*
X01915Y03357*
X01915*
X01915Y03357*
X01916*
X01916Y03358*
X01917Y03358*
X01917Y03358*
X01919Y03358*
X0192Y03358*
X01922Y03359*
X01923Y03359*
X01924Y03359*
X01924Y03359*
X01924*
X01924Y03359*
X01925Y0336*
X01925Y0336*
X01926Y0336*
X01927Y0336*
X01928Y03361*
Y03361*
Y03361*
X01928Y03362*
Y03362*
X01928Y03363*
X01928Y03363*
X01927Y03364*
X01927Y03364*
X01927Y03364*
X01927Y03364*
X01926Y03365*
X01926Y03365*
X01925Y03365*
X01924*
X01923Y03365*
X01922*
X01921Y03364*
X0192Y03364*
X0192Y03364*
X0192*
X01919Y03364*
X01919Y03363*
X01919Y03363*
X01919Y03363*
X01918Y03362*
X01918Y03362*
X01918Y03361*
X01906Y03362*
Y03362*
Y03363*
X01906Y03363*
X01907Y03364*
X01907Y03366*
X01908Y03366*
X01908Y03367*
X01908Y03367*
X01908Y03367*
X01908Y03368*
X01909Y03368*
X01909Y03369*
X0191Y03369*
X01911Y0337*
X01912Y0337*
Y0337*
X01912Y0337*
X01912Y0337*
X01913Y03371*
X01913Y03371*
X01914Y03371*
X01915Y03371*
X01916Y03372*
X01916*
X01917Y03372*
X01917*
X01918Y03372*
X01919Y03372*
X0192Y03372*
X01921Y03372*
X01924*
X01926Y03372*
G37*
G36*
X02111Y03315D02*
X02112D01*
X02113Y03315*
X02113*
X02114Y03315*
X02116Y03315*
X02117Y03314*
X02119Y03313*
X0212Y03313*
X0212Y03313*
X02121*
X02121Y03312*
X02121Y03312*
X02122Y03311*
X02122Y03311*
X02123Y0331*
X02124Y03308*
X02124Y03307*
X02124Y03307*
X02125Y03306*
X02125Y03305*
X02115Y03304*
Y03304*
Y03305*
X02114Y03305*
X02114Y03305*
X02114Y03306*
X02114Y03307*
X02113Y03307*
X02113Y03308*
X02113*
X02113Y03308*
X02112Y03308*
X02112Y03308*
X02111Y03308*
X02111Y03308*
X0211Y03309*
X02109Y03309*
X02109*
X02109Y03309*
X02108*
X02107Y03308*
X02107Y03308*
X02107Y03308*
X02106Y03308*
X02106Y03308*
X02106Y03307*
X02106Y03307*
X02106Y03306*
X02106Y03306*
Y03306*
X02106Y03305*
X02106Y03305*
X02106Y03305*
X02106Y03304*
X02106Y03304*
X02107Y03304*
X02107Y03304*
X02108Y03304*
X02108Y03304*
X02109Y03303*
X0211Y03303*
X0211*
X0211Y03303*
X02111Y03303*
X02111Y03303*
X02112Y03303*
X02112Y03302*
X02113Y03302*
X02114Y03302*
X02115Y03302*
X02117Y03301*
X02119Y03301*
X02119Y033*
X0212Y033*
X0212*
Y033*
X0212Y033*
X02121Y03299*
X02122Y03299*
X02122Y03298*
X02123Y03298*
X02124Y03297*
X02124Y03296*
X02125Y03296*
X02125Y03296*
X02125Y03295*
X02125Y03295*
X02125Y03294*
X02126Y03293*
X02126Y03292*
X02126Y03291*
Y03291*
Y03291*
Y03291*
Y0329*
X02126Y0329*
X02126Y03289*
X02125Y03288*
X02125Y03287*
X02125Y03286*
X02124Y03285*
Y03285*
X02124Y03284*
X02123Y03284*
X02123Y03283*
X02122Y03282*
X02121Y03282*
X0212Y03281*
X02119Y0328*
X02119*
X02118Y0328*
X02118Y0328*
X02118Y0328*
X02117Y0328*
X02116Y0328*
X02115Y03279*
X02114Y03279*
X02112Y03279*
X0211Y03279*
X0211*
X02109Y03279*
X02108Y03279*
X02107*
X02107Y03279*
X02106Y03279*
X02103Y0328*
X02101Y0328*
X02101Y03281*
X021Y03281*
X02099Y03282*
X02098Y03282*
X02098*
X02098Y03282*
X02098Y03283*
X02098Y03283*
X02097Y03283*
X02097Y03284*
X02096Y03285*
X02096Y03286*
X02095Y03287*
X02095Y03289*
X02094Y0329*
X02094Y03291*
X02105Y03292*
Y03292*
X02105Y03291*
Y03291*
X02105Y0329*
X02105Y03289*
X02106Y03288*
X02106Y03288*
Y03288*
X02106Y03288*
X02107Y03287*
X02107Y03287*
X02108Y03286*
X02109Y03286*
X0211Y03286*
X02111*
X02111*
X02111*
X02112Y03286*
X02112Y03286*
X02113Y03286*
X02114Y03287*
X02114Y03287*
X02114Y03287*
X02115Y03287*
X02115Y03288*
X02115Y03288*
X02115Y03289*
Y03289*
Y03289*
Y0329*
Y0329*
X02115Y0329*
X02115Y03291*
X02115Y03291*
X02115Y03291*
X02114Y03292*
X02114Y03292*
X02114Y03292*
X02113Y03292*
X02112Y03293*
X02111Y03293*
X0211Y03293*
X02109Y03294*
X02109Y03294*
X02109*
X02108*
X02108Y03294*
X02108*
X02107Y03294*
X02106Y03294*
X02106Y03295*
X02105Y03295*
X02103Y03296*
X02101Y03296*
X021Y03297*
X02099Y03298*
X02099Y03298*
X02098Y03298*
X02098Y03299*
X02098Y03299*
X02097Y033*
X02096Y03301*
X02096Y03302*
X02096Y03303*
Y03304*
X02096Y03305*
Y03305*
Y03305*
X02096Y03306*
X02096Y03307*
X02096Y03307*
X02096Y03308*
X02097Y03309*
X02097Y0331*
Y0331*
X02097Y0331*
X02098Y03311*
X02098Y03311*
X02099Y03312*
X021Y03313*
X02101Y03313*
X02102Y03314*
X02102*
X02102Y03314*
X02102Y03314*
X02103Y03314*
X02103Y03314*
X02104Y03314*
X02105Y03315*
X02107Y03315*
X02108Y03315*
X0211Y03315*
X02111*
X02111Y03315*
G37*
G36*
X01995Y03372D02*
X01995Y03372D01*
X01996Y03372*
X01997Y03372*
X01998Y03371*
X01999Y03371*
X01999Y03371*
X02Y0337*
X02Y0337*
X02001Y0337*
X02001Y03369*
X02002Y03368*
X02003Y03368*
X02004Y03367*
Y03371*
X02015*
Y03327*
X02003*
Y03343*
X02003Y03343*
X02003Y03342*
X02002Y03342*
X02002Y03342*
X02001Y03341*
X02Y03341*
X01999Y0334*
X01999Y0334*
X01999*
X01998Y0334*
X01998Y03339*
X01997Y03339*
X01996Y03339*
X01996Y03339*
X01995*
X01994Y03339*
X01993*
X01993Y03339*
X01992*
X01992Y03339*
X0199Y03339*
X01989Y0334*
X01987Y03341*
X01986Y03341*
X01985Y03342*
X01985Y03342*
X01984Y03343*
Y03343*
X01984Y03343*
X01984Y03343*
X01983Y03344*
X01983Y03344*
X01983Y03345*
X01982Y03345*
X01982Y03346*
X01982Y03347*
X01981Y03348*
X01981Y03349*
X01981Y0335*
X01981Y03351*
X0198Y03352*
X0198Y03354*
Y03355*
Y03355*
Y03355*
Y03355*
Y03356*
Y03356*
Y03357*
X0198Y03358*
X01981Y0336*
X01981Y03361*
X01981Y03363*
X01982Y03364*
Y03364*
Y03364*
X01982Y03365*
X01983Y03366*
X01983Y03366*
X01984Y03367*
X01985Y03368*
X01986Y03369*
X01987Y0337*
X01987Y0337*
X01987Y0337*
X01988Y03371*
X01989Y03371*
X0199Y03371*
X01991Y03372*
X01992Y03372*
X01993Y03372*
X01994*
X01995Y03372*
G37*
G36*
X02223Y0334D02*
X0221D01*
Y03352*
X02223*
Y0334*
G37*
G36*
X02288Y03374D02*
X02265D01*
Y03367*
X02287*
Y03358*
X02265*
Y0335*
X02289*
Y0334*
X02252*
Y03384*
X02288*
Y03374*
G37*
G36*
X01976Y03364D02*
X0196Y03348D01*
X01977*
Y0334*
X01945*
Y03347*
X0196Y03363*
X01946*
Y03371*
X01976*
Y03364*
G37*
G36*
X02132D02*
X02116Y03348D01*
X02133*
Y0334*
X02102*
Y03347*
X02117Y03363*
X02103*
Y03371*
X02132*
Y03364*
G37*
G36*
X02035Y0328D02*
X02025D01*
Y03289*
X02035*
Y0328*
G37*
G36*
X02059Y03314D02*
X0206D01*
X02061Y03314*
X02062Y03314*
X02063Y03314*
X02065Y03314*
X02066Y03313*
X02066*
X02066Y03313*
X02067Y03313*
X02067Y03312*
X02068Y03312*
X02069Y03311*
X0207Y0331*
X0207Y03309*
X02071Y03309*
X02071Y03309*
X02071Y03309*
X02072Y03308*
X02072Y03307*
X02073Y03306*
X02073Y03305*
X02073Y03304*
Y03304*
Y03304*
X02073Y03303*
X02074Y03303*
X02074Y03302*
X02074Y03301*
X02074Y033*
X02074Y03298*
Y03297*
Y03297*
Y03297*
Y03297*
Y03296*
Y03296*
Y03295*
X02074Y03294*
X02074Y03293*
X02074Y03291*
X02073Y0329*
X02073Y03288*
X02073Y03288*
X02073Y03288*
X02072Y03287*
X02072Y03287*
X02071Y03286*
X02071Y03285*
X0207Y03284*
X02069Y03283*
X02069*
X02069Y03283*
X02068Y03283*
X02068Y03282*
X02067Y03282*
X02066Y03281*
X02065Y03281*
X02064Y03281*
X02064*
Y0328*
X02064*
X02064Y0328*
X02063Y0328*
X02062Y0328*
X02061Y0328*
X0206Y0328*
X02059Y0328*
X02058Y0328*
X02042*
Y03315*
X02059*
X02059Y03314*
G37*
G36*
X02194Y03315D02*
X02195Y03315D01*
X02196*
X02197Y03315*
X02198Y03315*
X02199Y03314*
X02199Y03314*
X02199*
X022Y03314*
X022Y03314*
X02201Y03313*
X02202Y03313*
X02202Y03312*
X02203*
X02203Y03312*
X02203Y03311*
X02203Y03311*
X02204Y03311*
X02204Y0331*
X02205Y03309*
X02205Y03309*
X02205Y03309*
X02205Y03308*
X02205Y03308*
X02205Y03307*
X02206Y03307*
X02206Y03306*
X02206Y03305*
Y03305*
Y03305*
Y03305*
X02206Y03305*
X02206Y03304*
Y03304*
X02207Y03303*
X02207Y03302*
X02207Y033*
Y03299*
X02207Y03297*
Y03297*
Y03297*
Y03296*
X02207Y03296*
Y03295*
Y03294*
X02207Y03293*
X02207Y03292*
X02206Y0329*
X02206Y03287*
X02205Y03286*
X02205Y03285*
X02204Y03284*
X02204Y03283*
X02204Y03283*
X02204Y03283*
X02203Y03283*
X02203Y03283*
X02203Y03282*
X02202Y03282*
X02202Y03282*
X02201Y03281*
X02201Y03281*
X022Y0328*
X02199Y0328*
X02198Y0328*
X02197Y03279*
X02195Y03279*
X02194Y03279*
X02193Y03279*
X02192*
X02192Y03279*
X02191*
X0219Y03279*
X02189Y03279*
X02188Y0328*
X02187Y0328*
X02186Y0328*
X02185*
X02185Y03281*
X02185Y03281*
X02184Y03281*
X02183Y03282*
X02183Y03283*
X02182Y03284*
X02181Y03284*
Y03285*
X02181Y03285*
X02181Y03285*
X0218Y03286*
X0218Y03287*
X0218Y03288*
X02179Y03289*
X02179Y0329*
Y0329*
X02179Y0329*
X02179Y0329*
Y03291*
X02179Y03292*
X02179Y03293*
X02179Y03294*
X02179Y03296*
Y03297*
Y03297*
Y03298*
Y03298*
X02179Y03299*
Y033*
X02179Y03301*
X02179Y03302*
X02179Y03303*
X02179Y03305*
X0218Y03307*
X0218Y03308*
X02181Y03309*
X02182Y0331*
X02182Y03311*
Y03311*
X02182Y03311*
X02183Y03311*
X02183Y03312*
X02183Y03312*
X02184Y03312*
X02184Y03313*
X02185Y03313*
X02186Y03314*
X02186Y03314*
X02187Y03314*
X02188Y03315*
X02189Y03315*
X0219Y03315*
X02192Y03315*
X02193Y03315*
X02194*
X02194Y03315*
G37*
G36*
X02009Y03314D02*
X0201D01*
X0201Y03314*
X02011Y03314*
X02013Y03314*
X02014Y03313*
X02016Y03313*
X02016Y03312*
X02017Y03312*
X02017*
X02017Y03312*
X02017Y03311*
X02018Y03311*
X02018Y0331*
X02019Y03309*
X02019Y03307*
X0202Y03306*
X0202Y03305*
Y03304*
Y03304*
Y03303*
X0202Y03303*
Y03302*
Y03302*
X0202Y03301*
X02019Y03299*
X02019Y03298*
X02018Y03297*
X02017Y03296*
X02017Y03296*
X02017*
X02017Y03295*
X02016Y03295*
X02016Y03295*
X02016Y03295*
X02015Y03295*
X02015Y03294*
X02014Y03294*
X02014Y03294*
X02013Y03293*
X02012Y03293*
X02011Y03293*
X0201Y03293*
X02009Y03293*
X02008*
X02007Y03293*
X02001*
Y0328*
X0199*
Y03315*
X02009*
X02009Y03314*
G37*
G36*
X02233Y0328D02*
X02223D01*
Y03303*
X02223Y03303*
X02223Y03303*
X02222Y03302*
X02222Y03302*
X02221Y03301*
X0222Y03301*
X02219Y033*
X02218Y033*
X02218Y03299*
X02217Y03299*
X02216Y03299*
X02215Y03299*
X02214Y03298*
X02213Y03298*
Y03306*
X02213*
X02213Y03306*
X02214Y03306*
X02214Y03306*
X02215Y03306*
X02216Y03307*
X02217Y03307*
X02218Y03308*
X0222Y03309*
X02221Y03309*
X02221Y0331*
X02221Y0331*
X02222Y0331*
X02222Y03311*
X02223Y03312*
X02224Y03313*
X02224Y03314*
X02225Y03315*
X02233*
Y0328*
G37*
G36*
X02271Y03307D02*
X02255D01*
X02254Y03302*
X02254Y03302*
X02254*
X02255Y03302*
X02255Y03302*
X02256Y03302*
X02256Y03302*
X02257Y03303*
X02258Y03303*
X02258Y03303*
X02258*
X02259Y03303*
X02259Y03303*
X0226*
X02261*
X02261*
X02262*
X02262Y03303*
X02263Y03303*
X02265Y03302*
X02266Y03302*
X02268Y03301*
X02268Y033*
X02269Y033*
X02269Y033*
X02269Y033*
X02269Y03299*
X0227Y03299*
X02271Y03298*
X02271Y03297*
X02272Y03295*
X02272Y03294*
X02272Y03293*
X02272Y03292*
Y03292*
Y03292*
Y03291*
X02272Y03291*
X02272Y0329*
X02272Y03289*
X02271Y03288*
X02271Y03287*
X02271Y03285*
X0227Y03285*
X0227Y03285*
X0227Y03284*
X02269Y03284*
X02269Y03283*
X02268Y03282*
X02267Y03281*
X02266Y03281*
X02266*
X02265Y0328*
X02265Y0328*
X02265Y0328*
X02264Y0328*
X02262Y0328*
X02261Y03279*
X0226Y03279*
X02258Y03279*
X02257*
X02257Y03279*
X02256*
X02255Y03279*
X02254Y03279*
X02253Y03279*
X02252Y0328*
X02252*
X02252Y0328*
X02251Y0328*
X0225Y0328*
X0225Y0328*
X02249Y03281*
X02248Y03281*
X02248Y03282*
X02247Y03282*
X02247Y03282*
X02247Y03282*
X02246Y03283*
X02246Y03283*
X02245Y03284*
X02245Y03285*
X02245Y03285*
X02245Y03285*
X02244Y03286*
X02244Y03286*
X02244Y03287*
X02243Y03288*
X02243Y03289*
X02253Y0329*
Y0329*
Y03289*
X02253Y03289*
X02253Y03288*
X02254Y03288*
X02254Y03287*
X02254Y03287*
X02255Y03286*
X02255Y03286*
X02255Y03286*
X02255Y03285*
X02256Y03285*
X02256Y03285*
X02257Y03285*
X02258Y03285*
X02258*
X02259Y03285*
X02259Y03285*
X02259Y03285*
X0226Y03286*
X02261Y03286*
X02261Y03286*
X02261*
X02261Y03287*
X02262Y03287*
X02262Y03288*
X02262Y03288*
X02262Y03289*
X02262Y0329*
Y03291*
Y03291*
Y03292*
Y03292*
X02262Y03293*
X02262Y03294*
X02262Y03294*
X02262Y03295*
X02261Y03296*
X02261Y03296*
X02261Y03296*
X02261Y03296*
X0226Y03296*
X0226Y03297*
X02259Y03297*
X02258Y03297*
X02258Y03297*
X02257*
X02257Y03297*
X02257*
X02256Y03297*
X02255Y03297*
X02255Y03296*
X02255*
X02255*
X02254Y03296*
X02254Y03296*
X02254Y03296*
X02254Y03295*
X02253Y03295*
X02253Y03295*
X02244Y03296*
X02248Y03315*
X02271*
Y03307*
G37*
G36*
X0209Y0328D02*
X02079D01*
Y03289*
X0209*
Y0328*
G37*
G36*
X02161Y03315D02*
X02162D01*
X02163Y03315*
X02164Y03315*
X02166Y03315*
X02167Y03314*
X02168Y03314*
X02168*
X02168Y03314*
X02168Y03314*
X02169Y03313*
X0217Y03313*
X0217Y03313*
X02171Y03312*
X02172Y03311*
X02172Y0331*
X02173Y0331*
X02173Y0331*
X02173Y03309*
X02173Y03309*
X02174Y03308*
X02174Y03307*
X02174Y03306*
Y03305*
Y03305*
Y03305*
Y03304*
Y03304*
X02174Y03303*
X02174Y03302*
X02173Y03301*
X02173Y033*
X02172Y03299*
Y03299*
X02172Y03298*
X02171Y03298*
X02171Y03297*
X0217Y03296*
X02169Y03295*
X02168Y03294*
X02167Y03294*
X02166Y03293*
X02165Y03292*
X02165Y03292*
X02165Y03292*
X02165Y03292*
X02164Y03291*
X02163Y0329*
X02162Y0329*
X02162Y0329*
X02161*
X02161Y03289*
X02161Y03289*
X02161Y03289*
X0216Y03288*
X02159Y03288*
X02174*
Y0328*
X02145*
Y0328*
Y0328*
X02145Y0328*
X02145Y0328*
Y03281*
X02146Y03281*
X02146Y03282*
X02146Y03283*
X02147Y03285*
X02147Y03286*
X02148Y03288*
Y03288*
X02148Y03288*
X02149Y03288*
X02149Y03288*
X02149Y03289*
X02149Y03289*
X0215Y0329*
X0215Y0329*
X02151Y03291*
X02152Y03292*
X02153Y03292*
X02153Y03293*
X02154Y03294*
X02155Y03295*
X02157Y03296*
X02158Y03297*
X02158Y03297*
X02158*
X02158Y03297*
X02158Y03297*
X02159Y03298*
X0216Y03298*
X02161Y03299*
X02162Y033*
X02163Y03301*
X02163Y03301*
X02163Y03301*
X02163*
X02163Y03302*
X02164Y03302*
X02164Y03302*
X02164Y03303*
X02164Y03303*
X02164Y03304*
X02165Y03305*
Y03305*
Y03305*
X02164Y03305*
X02164Y03306*
X02164Y03306*
X02164Y03306*
X02164Y03307*
X02163Y03307*
X02163Y03308*
X02163Y03308*
X02162Y03308*
X02162Y03308*
X02162Y03308*
X02161Y03308*
X0216*
X0216*
X0216*
X02159Y03308*
X02159Y03308*
X02158Y03308*
X02158Y03308*
X02157Y03307*
X02157Y03307*
X02157Y03307*
X02157Y03307*
X02157Y03306*
X02156Y03306*
X02156Y03305*
X02156Y03304*
X02156Y03303*
X02146Y03304*
Y03304*
Y03304*
X02146Y03305*
X02146Y03305*
X02146Y03306*
X02147Y03307*
X02147Y03308*
X02148Y03309*
X02148Y0331*
X02148Y0331*
X02148Y03311*
X02149Y03311*
X02149Y03312*
X0215Y03312*
X02151Y03313*
X02151Y03313*
X02152Y03314*
X02152Y03314*
X02153Y03314*
X02153Y03314*
X02154Y03315*
X02155Y03315*
X02157Y03315*
X02158Y03315*
X0216Y03315*
X02161*
X02161Y03315*
G37*
G36*
X02335Y0334D02*
X02323D01*
Y03371*
X02335*
Y0334*
G37*
G36*
X0197Y0352D02*
Y03519D01*
X01971*
Y03517*
Y03516*
Y03514*
Y03513*
Y03512*
Y0351*
Y03509*
Y03507*
Y03506*
Y03505*
Y03503*
Y03502*
Y035*
Y03499*
Y03498*
Y03496*
Y03495*
Y03493*
Y03492*
X0197*
Y03491*
Y03489*
Y03488*
X01915*
Y03486*
X01914*
Y03485*
Y03484*
X01912*
Y03482*
X01911*
Y03481*
Y03479*
X0197*
Y03478*
Y03477*
X01971*
Y03475*
Y03474*
Y03472*
Y03471*
Y0347*
Y03468*
Y03467*
Y03465*
Y03464*
Y03463*
Y03461*
Y0346*
Y03458*
Y03457*
Y03456*
Y03454*
Y03453*
Y03451*
X0197*
Y0345*
Y03449*
Y03447*
X01896*
Y03446*
X01894*
Y03444*
Y03443*
X01893*
Y03442*
Y0344*
Y03439*
Y03437*
Y03436*
X0197*
Y03435*
Y03433*
Y03432*
X01971*
Y0343*
Y03429*
Y03428*
Y03426*
Y03425*
Y03423*
Y03422*
Y03421*
Y03419*
Y03418*
Y03416*
Y03415*
Y03414*
Y03412*
Y03411*
Y03409*
Y03408*
Y03407*
X0197*
Y03405*
Y03404*
X01968*
Y03402*
X01853*
Y03404*
X01852*
Y03405*
X01851*
Y03407*
Y03408*
Y03409*
Y03411*
X01852*
Y03412*
Y03414*
Y03415*
Y03416*
Y03418*
Y03419*
Y03421*
X01853*
Y03422*
Y03423*
Y03425*
Y03426*
Y03428*
X01855*
Y03429*
Y0343*
Y03432*
Y03433*
Y03435*
Y03436*
X01856*
Y03437*
Y03439*
Y0344*
X01858*
Y03442*
Y03443*
Y03444*
Y03446*
Y03447*
X01859*
Y03449*
Y0345*
Y03451*
X0186*
Y03453*
Y03454*
Y03456*
X01862*
Y03457*
Y03458*
Y0346*
X01863*
Y03461*
Y03463*
Y03464*
X01865*
Y03465*
Y03467*
Y03468*
X01866*
Y0347*
Y03471*
X01867*
Y03472*
Y03474*
X01869*
Y03475*
Y03477*
X0187*
Y03478*
Y03479*
Y03481*
X01872*
Y03482*
Y03484*
X01873*
Y03485*
Y03486*
X01875*
Y03488*
Y03489*
X01876*
Y03491*
Y03492*
X01877*
Y03493*
Y03495*
X01879*
Y03496*
Y03498*
X0188*
Y03499*
X01882*
Y035*
Y03502*
X01883*
Y03503*
X01884*
Y03505*
Y03506*
X01886*
Y03507*
Y03509*
X01887*
Y0351*
X01889*
Y03512*
Y03513*
X0189*
Y03514*
X01891*
Y03516*
Y03517*
X01893*
Y03519*
X01894*
Y0352*
X01896*
Y03521*
X0197*
Y0352*
G37*
G36*
X02086D02*
Y03519D01*
X02087*
Y03517*
Y03516*
Y03514*
Y03513*
Y03512*
Y0351*
Y03509*
Y03507*
Y03506*
Y03505*
Y03503*
Y03502*
Y035*
Y03499*
Y03498*
Y03496*
Y03495*
Y03493*
Y03492*
Y03491*
X02086*
Y03489*
X02085*
Y03488*
X02024*
Y03486*
Y03485*
Y03484*
Y03482*
Y03481*
Y03479*
X02085*
Y03478*
X02086*
Y03477*
X02087*
Y03475*
Y03474*
Y03472*
Y03471*
Y0347*
Y03468*
Y03467*
Y03465*
Y03464*
Y03463*
Y03461*
Y0346*
Y03458*
Y03457*
Y03456*
Y03454*
Y03453*
Y03451*
Y0345*
Y03449*
Y03447*
Y03446*
Y03444*
Y03443*
Y03442*
Y0344*
Y03439*
Y03437*
Y03436*
Y03435*
Y03433*
Y03432*
Y0343*
Y03429*
Y03428*
Y03426*
Y03425*
Y03423*
Y03422*
Y03421*
Y03419*
Y03418*
Y03416*
Y03415*
Y03414*
Y03412*
Y03411*
Y03409*
Y03408*
Y03407*
Y03405*
X02086*
Y03404*
X02085*
Y03402*
X01991*
Y03404*
X01989*
Y03405*
X01988*
Y03407*
Y03408*
Y03409*
Y03411*
Y03412*
Y03414*
Y03415*
Y03416*
Y03418*
Y03419*
Y03421*
Y03422*
Y03423*
Y03425*
Y03426*
Y03428*
Y03429*
Y0343*
Y03432*
Y03433*
Y03435*
X01989*
Y03436*
X02052*
Y03437*
Y03439*
Y0344*
Y03442*
Y03443*
Y03444*
Y03446*
X01989*
Y03447*
X01988*
Y03449*
Y0345*
Y03451*
Y03453*
Y03454*
Y03456*
Y03457*
Y03458*
Y0346*
Y03461*
Y03463*
Y03464*
Y03465*
Y03467*
Y03468*
Y0347*
Y03471*
Y03472*
Y03474*
Y03475*
Y03477*
Y03478*
Y03479*
Y03481*
Y03482*
Y03484*
Y03485*
Y03486*
Y03488*
Y03489*
Y03491*
Y03492*
Y03493*
Y03495*
Y03496*
Y03498*
Y03499*
Y035*
Y03502*
Y03503*
Y03505*
Y03506*
Y03507*
Y03509*
Y0351*
Y03512*
Y03513*
Y03514*
Y03516*
Y03517*
Y03519*
Y0352*
X01989*
Y03521*
X02086*
Y0352*
G37*
G36*
X02316Y03372D02*
X02316Y03372D01*
X02317Y03372*
X02318Y03371*
X02319Y03371*
X0232Y0337*
X02317Y03362*
X02317Y03362*
X02316*
X02316Y03362*
X02315Y03362*
X02314Y03362*
X02314Y03363*
X02313*
X02312Y03363*
X02312Y03362*
X02311Y03362*
X02311Y03362*
X0231Y03361*
X0231Y03361*
X02309Y0336*
X02309Y0336*
X02309Y03359*
X02309Y03359*
X02309Y03358*
X02308Y03358*
X02308Y03357*
X02308Y03356*
X02308Y03355*
X02308Y03354*
X02308Y03353*
X02308Y03352*
Y0335*
Y0334*
X02295*
Y03371*
X02307*
Y03366*
Y03366*
X02307Y03367*
X02307Y03367*
X02308Y03368*
X02309Y03369*
X0231Y0337*
X0231Y03371*
X0231Y03371*
X0231Y03371*
X02311Y03371*
X02311Y03371*
X02312Y03372*
X02313Y03372*
X02314Y03372*
X02314Y03372*
X02315*
X02316Y03372*
G37*
G36*
X02335Y03375D02*
X02323D01*
Y03384*
X02335*
Y03375*
G37*
G36*
X02184Y03384D02*
X02186D01*
X02188Y03384*
X02189Y03384*
X02191Y03383*
X02192Y03383*
X02193Y03383*
X02193*
X02193Y03383*
X02193Y03383*
X02194Y03382*
X02195Y03382*
X02196Y03381*
X02197Y03381*
X02198Y0338*
X02199Y03379*
X02199Y03379*
X02199Y03378*
X02199Y03378*
X022Y03377*
X02201Y03376*
X02201Y03375*
X02202Y03373*
X02202Y03372*
X02189Y03369*
Y0337*
X02189Y0337*
X02189Y0337*
X02189Y03371*
X02188Y03372*
X02188Y03372*
X02187Y03373*
X02186Y03373*
Y03373*
X02186Y03374*
X02186Y03374*
X02185Y03374*
X02184Y03374*
X02183Y03374*
X02183Y03375*
X02181Y03375*
X02181*
X02181Y03375*
X0218Y03374*
X02179Y03374*
X02178Y03374*
X02177Y03373*
X02175Y03373*
X02174Y03372*
X02174Y03371*
X02174Y03371*
X02173Y0337*
X02173Y03369*
X02173Y03368*
X02172Y03366*
X02172Y03364*
X02172Y03363*
Y03362*
Y03362*
Y03361*
Y03361*
X02172Y0336*
Y0336*
X02172Y03359*
X02172Y03358*
X02172Y03356*
X02173Y03354*
X02173Y03353*
X02174Y03352*
X02174Y03351*
X02174Y03351*
X02175Y03351*
X02175Y03351*
X02176Y0335*
X02177Y03349*
X02179Y03349*
X0218Y03349*
X02182Y03348*
X02183*
X02183Y03349*
X02184Y03349*
X02185Y03349*
X02186Y03349*
X02186*
X02186Y03349*
X02187Y03349*
X02188Y0335*
X02188Y0335*
X02189Y0335*
X0219Y03351*
X02191Y03351*
Y03356*
X02182*
Y03365*
X02203*
Y03346*
X02203Y03346*
X02203Y03346*
X02202Y03345*
X02202Y03345*
X02201Y03345*
X02201Y03344*
X02199Y03344*
X02198Y03343*
X02196Y03342*
X02194Y03341*
X02192Y0334*
X02192*
X02192Y0334*
X02192Y0334*
X02191Y0334*
X02191*
X0219Y0334*
X02189Y0334*
X02187Y03339*
X02186Y03339*
X02183Y03339*
X02181Y03339*
X0218*
X0218Y03339*
X02179*
X02178*
X02178Y03339*
X02177Y03339*
X02175Y03339*
X02173Y0334*
X0217Y03341*
X02168Y03341*
X02168Y03342*
X02168*
X02168Y03342*
X02167Y03343*
X02166Y03343*
X02164Y03345*
X02163Y03346*
X02162Y03348*
X02161Y03349*
Y03349*
Y0335*
X02161Y0335*
X0216Y0335*
X0216Y03351*
X0216Y03351*
X0216Y03352*
X02159Y03353*
X02159Y03355*
X02159Y03357*
X02158Y03359*
X02158Y03362*
Y03362*
Y03362*
Y03362*
X02158Y03363*
Y03363*
X02158Y03364*
X02158Y03365*
X02158Y03366*
X02159Y03368*
X02159Y0337*
X0216Y03372*
X02161Y03374*
Y03374*
X02161Y03374*
X02161Y03375*
X02162Y03375*
X02162Y03376*
X02163Y03377*
X02165Y03378*
X02166Y0338*
X02168Y03381*
X0217Y03382*
X0217*
X0217Y03382*
X0217Y03382*
X02171Y03382*
X02171Y03383*
X02172Y03383*
X02172Y03383*
X02173Y03383*
X02174Y03383*
X02175Y03384*
X02177Y03384*
X02179Y03384*
X02182Y03384*
X02184*
X02184Y03384*
G37*
G36*
X01924Y03375D02*
X01918D01*
X01923Y03384*
X01934*
X01924Y03375*
G37*
G36*
X02362Y03372D02*
X02363Y03372D01*
X02364Y03372*
X02366Y03371*
X02368Y03371*
X0237Y0337*
X02371Y0337*
X02372Y03369*
X02372*
X02372Y03369*
X02372Y03369*
X02373Y03368*
X02374Y03367*
X02375Y03366*
X02376Y03365*
X02377Y03363*
X02378Y03361*
X02366Y0336*
Y0336*
X02366Y0336*
X02366Y0336*
X02366Y03361*
X02365Y03362*
X02365Y03362*
X02364Y03363*
Y03363*
X02364Y03363*
X02364Y03363*
X02363Y03363*
X02363Y03363*
X02362Y03364*
X02361Y03364*
X0236Y03364*
X0236*
X02359Y03364*
X02359Y03363*
X02358Y03363*
X02357Y03363*
X02356Y03362*
X02355Y03362*
X02355Y03361*
X02355Y03361*
X02355Y03361*
X02355Y0336*
X02354Y03359*
X02354Y03358*
X02354Y03356*
X02354Y03355*
Y03355*
Y03354*
X02354Y03354*
X02354Y03353*
X02354Y03352*
X02354Y03351*
X02355Y0335*
X02355Y03349*
X02355Y03349*
X02356Y03349*
X02356Y03348*
X02357Y03348*
X02357Y03348*
X02358Y03347*
X02359Y03347*
X0236*
X02361*
X02361*
X02361Y03347*
X02363Y03348*
X02364Y03348*
X02364Y03348*
X02364Y03348*
X02364Y03348*
X02365Y03349*
X02365Y03349*
X02365Y0335*
X02366Y0335*
X02366Y03351*
X02367Y03352*
X02378Y03351*
X02378Y0335*
X02378Y0335*
X02378Y03349*
X02377Y03349*
X02377Y03348*
X02376Y03346*
X02376Y03345*
X02375Y03344*
Y03344*
X02375Y03344*
X02374Y03343*
X02373Y03343*
X02373Y03342*
X02372Y03342*
X02371Y03341*
X02369Y0334*
X02369Y0334*
X02369Y0334*
X02368Y0334*
X02367Y0334*
X02366Y03339*
X02364Y03339*
X02363Y03339*
X02361Y03339*
X0236*
X02359Y03339*
X02358*
X02356Y03339*
X02355Y03339*
X02354Y03339*
X02352Y0334*
X02352Y0334*
X02352Y0334*
X02351Y0334*
X0235Y03341*
X02349Y03341*
X02348Y03341*
X02347Y03342*
X02347Y03343*
X02346Y03343*
X02346Y03343*
X02346Y03344*
X02345Y03344*
X02345Y03345*
X02344Y03346*
X02343Y03347*
X02343Y03348*
X02343Y03348*
X02343Y03348*
X02342Y03349*
X02342Y0335*
X02342Y03351*
X02342Y03352*
X02342Y03354*
X02341Y03355*
Y03355*
Y03356*
Y03356*
Y03356*
X02342Y03357*
X02342Y03358*
X02342Y03359*
X02342Y03361*
X02343Y03362*
X02343Y03363*
X02343Y03364*
X02343Y03364*
X02344Y03364*
X02344Y03365*
X02344Y03366*
X02345Y03366*
X02346Y03367*
X02346Y03368*
X02347*
X02347Y03368*
X02347Y03368*
X02348Y03369*
X02348Y03369*
X02349Y0337*
X0235Y0337*
X02351Y03371*
X02351Y03371*
X02352Y03371*
X02352Y03371*
X02353Y03371*
X02355Y03372*
X02356Y03372*
X02358Y03372*
X0236Y03372*
X02361*
X02362Y03372*
G37*
G36*
X02373Y03521D02*
X02376D01*
Y0352*
Y03519*
X02377*
Y03517*
X02379*
Y03516*
Y03514*
X0238*
Y03513*
X02382*
Y03512*
Y0351*
X02383*
Y03509*
X02384*
Y03507*
Y03506*
X02386*
Y03505*
Y03503*
X02387*
Y03502*
X02389*
Y035*
Y03499*
X0239*
Y03498*
Y03496*
X02391*
Y03495*
X02393*
Y03493*
Y03492*
Y03491*
Y03489*
Y03488*
X02337*
Y03486*
X02335*
Y03485*
Y03484*
Y03482*
Y03481*
X02397*
Y03479*
X024*
Y03478*
Y03477*
X02401*
Y03475*
Y03474*
Y03472*
X02403*
Y03471*
Y0347*
X02404*
Y03468*
Y03467*
X02406*
Y03465*
Y03464*
Y03463*
X02407*
Y03461*
Y0346*
Y03458*
X02408*
Y03457*
Y03456*
Y03454*
X0241*
Y03453*
Y03451*
Y0345*
Y03449*
X02411*
Y03447*
Y03446*
X02408*
Y03444*
X02335*
Y03443*
Y03442*
Y0344*
Y03439*
X02337*
Y03437*
X02414*
Y03436*
Y03435*
X02415*
Y03433*
Y03432*
Y0343*
Y03429*
Y03428*
Y03426*
X02417*
Y03425*
Y03423*
Y03422*
Y03421*
Y03419*
X02418*
Y03418*
Y03416*
Y03415*
Y03414*
Y03412*
Y03411*
X0242*
Y03409*
Y03408*
Y03407*
Y03405*
X02418*
Y03404*
X02417*
Y03402*
X02302*
Y03404*
X023*
Y03405*
X02299*
Y03407*
Y03408*
Y03409*
Y03411*
Y03412*
Y03414*
Y03415*
Y03416*
Y03418*
Y03419*
Y03421*
Y03422*
Y03423*
Y03425*
Y03426*
Y03428*
Y03429*
Y0343*
Y03432*
Y03433*
Y03435*
Y03436*
Y03437*
Y03439*
Y0344*
Y03442*
Y03443*
Y03444*
Y03446*
Y03447*
Y03449*
Y0345*
Y03451*
Y03453*
Y03454*
Y03456*
Y03457*
Y03458*
Y0346*
Y03461*
Y03463*
Y03464*
Y03465*
Y03467*
Y03468*
Y0347*
Y03471*
Y03472*
Y03474*
Y03475*
Y03477*
Y03478*
Y03479*
Y03481*
Y03482*
Y03484*
Y03485*
Y03486*
Y03488*
Y03489*
Y03491*
Y03492*
Y03493*
Y03495*
Y03496*
Y03498*
Y03499*
Y035*
Y03502*
Y03503*
Y03505*
Y03506*
Y03507*
Y03509*
Y0351*
Y03512*
Y03513*
Y03514*
Y03516*
Y03517*
Y03519*
Y0352*
X023*
Y03521*
X02302*
Y03523*
X02373*
Y03521*
G37*
G36*
X02279Y0352D02*
X02281D01*
Y03519*
Y03517*
Y03516*
Y03514*
Y03513*
Y03512*
Y0351*
Y03509*
Y03507*
Y03506*
Y03505*
Y03503*
Y03502*
Y035*
Y03499*
Y03498*
Y03496*
Y03495*
Y03493*
Y03492*
Y03491*
Y03489*
Y03488*
Y03486*
Y03485*
Y03484*
Y03482*
Y03481*
Y03479*
Y03478*
Y03477*
Y03475*
Y03474*
Y03472*
Y03471*
Y0347*
Y03468*
Y03467*
Y03465*
Y03464*
Y03463*
Y03461*
Y0346*
Y03458*
Y03457*
Y03456*
Y03454*
Y03453*
Y03451*
Y0345*
Y03449*
Y03447*
Y03446*
Y03444*
Y03443*
Y03442*
Y0344*
Y03439*
Y03437*
Y03436*
Y03435*
Y03433*
Y03432*
Y0343*
Y03429*
Y03428*
Y03426*
Y03425*
Y03423*
Y03422*
Y03421*
Y03419*
Y03418*
Y03416*
Y03415*
Y03414*
Y03412*
Y03411*
Y03409*
Y03408*
Y03407*
Y03405*
X02279*
Y03404*
X02278*
Y03402*
X02249*
Y03404*
X02247*
Y03405*
Y03407*
X02246*
Y03408*
Y03409*
Y03411*
Y03412*
Y03414*
Y03415*
Y03416*
Y03418*
Y03419*
Y03421*
Y03422*
Y03423*
Y03425*
Y03426*
Y03428*
Y03429*
Y0343*
Y03432*
X02247*
Y03433*
X02244*
Y03432*
X02243*
Y0343*
X02242*
Y03429*
Y03428*
X0224*
Y03426*
X02239*
Y03425*
Y03423*
X02237*
Y03422*
X02236*
Y03421*
X02235*
Y03419*
Y03418*
X02233*
Y03416*
X02232*
Y03415*
Y03414*
X0223*
Y03412*
X02229*
Y03411*
Y03409*
X02228*
Y03408*
X02226*
Y03407*
Y03405*
X02225*
Y03404*
X02223*
Y03402*
X02221*
Y03404*
X02219*
Y03405*
X02218*
Y03407*
Y03408*
X02216*
Y03409*
X02215*
Y03411*
X02214*
Y03412*
Y03414*
X02212*
Y03415*
X02211*
Y03416*
Y03418*
X02209*
Y03419*
X02208*
Y03421*
Y03422*
X02207*
Y03423*
X02205*
Y03425*
Y03426*
X02204*
Y03428*
X02202*
Y03429*
Y0343*
X02201*
Y03432*
X022*
Y03433*
Y03435*
X02197*
Y03433*
Y03432*
Y0343*
Y03429*
X02198*
Y03428*
X02197*
Y03426*
Y03425*
Y03423*
Y03422*
Y03421*
Y03419*
Y03418*
Y03416*
Y03415*
Y03414*
Y03412*
Y03411*
Y03409*
Y03408*
Y03407*
Y03405*
Y03404*
X02194*
Y03402*
X02163*
Y03404*
X02162*
Y03405*
X0216*
Y03407*
Y03408*
Y03409*
Y03411*
Y03412*
Y03414*
Y03415*
Y03416*
Y03418*
Y03419*
Y03421*
Y03422*
Y03423*
Y03425*
Y03426*
Y03428*
Y03429*
Y0343*
Y03432*
Y03433*
Y03435*
Y03436*
Y03437*
Y03439*
Y0344*
Y03442*
Y03443*
Y03444*
Y03446*
Y03447*
Y03449*
Y0345*
Y03451*
Y03453*
Y03454*
Y03456*
Y03457*
Y03458*
Y0346*
Y03461*
Y03463*
Y03464*
Y03465*
Y03467*
Y03468*
Y0347*
Y03471*
Y03472*
Y03474*
Y03475*
Y03477*
Y03478*
Y03479*
Y03481*
Y03482*
Y03484*
Y03485*
Y03486*
Y03488*
Y03489*
Y03491*
Y03492*
Y03493*
Y03495*
Y03496*
Y03498*
Y03499*
Y035*
Y03502*
Y03503*
Y03505*
Y03506*
Y03507*
Y03509*
Y0351*
Y03512*
Y03513*
Y03514*
Y03516*
Y03517*
Y03519*
X02162*
Y0352*
Y03521*
X02195*
Y0352*
X02197*
Y03519*
Y03517*
X02198*
Y03516*
X022*
Y03514*
X02201*
Y03513*
Y03512*
X02202*
Y0351*
X02204*
Y03509*
Y03507*
X02205*
Y03506*
Y03505*
X02207*
Y03503*
X02208*
Y03502*
X02209*
Y035*
Y03499*
X02211*
Y03498*
X02212*
Y03496*
Y03495*
X02214*
Y03493*
X02215*
Y03492*
Y03491*
X02216*
Y03489*
X02218*
Y03488*
Y03486*
X02219*
Y03485*
X02221*
Y03484*
X02223*
Y03485*
X02225*
Y03486*
Y03488*
X02226*
Y03489*
X02228*
Y03491*
Y03492*
X02229*
Y03493*
X0223*
Y03495*
Y03496*
X02232*
Y03498*
X02233*
Y03499*
Y035*
X02235*
Y03502*
X02236*
Y03503*
Y03505*
X02237*
Y03506*
X02239*
Y03507*
Y03509*
X0224*
Y0351*
X02242*
Y03512*
Y03513*
X02243*
Y03514*
X02244*
Y03516*
Y03517*
X02246*
Y03519*
X02247*
Y0352*
Y03521*
X02279*
Y0352*
G37*
G36*
X02396Y03361D02*
X02405Y03371D01*
X0242*
X02409Y0336*
X02421Y0334*
X02407*
X02401Y03352*
X02396Y03348*
Y0334*
X02384*
Y03384*
X02396*
Y03361*
G37*
G36*
X02141Y0352D02*
Y03519D01*
Y03517*
Y03516*
Y03514*
Y03513*
Y03512*
Y0351*
Y03509*
Y03507*
Y03506*
Y03505*
Y03503*
Y03502*
Y035*
Y03499*
Y03498*
Y03496*
Y03495*
Y03493*
Y03492*
Y03491*
Y03489*
Y03488*
Y03486*
Y03485*
Y03484*
Y03482*
Y03481*
Y03479*
Y03478*
Y03477*
Y03475*
Y03474*
Y03472*
Y03471*
Y0347*
Y03468*
Y03467*
Y03465*
Y03464*
Y03463*
Y03461*
Y0346*
Y03458*
Y03457*
Y03456*
Y03454*
Y03453*
Y03451*
Y0345*
Y03449*
Y03447*
Y03446*
Y03444*
Y03443*
Y03442*
Y0344*
Y03439*
Y03437*
Y03436*
Y03435*
Y03433*
Y03432*
Y0343*
Y03429*
Y03428*
Y03426*
Y03425*
Y03423*
Y03422*
Y03421*
Y03419*
Y03418*
Y03416*
Y03415*
Y03414*
Y03412*
Y03411*
Y03409*
Y03408*
Y03407*
Y03405*
Y03404*
X02139*
Y03402*
X02108*
Y03404*
X02107*
Y03405*
X02106*
Y03407*
X02107*
Y03408*
Y03409*
Y03411*
Y03412*
Y03414*
Y03415*
Y03416*
Y03418*
Y03419*
Y03421*
Y03422*
Y03423*
Y03425*
Y03426*
Y03428*
Y03429*
Y0343*
Y03432*
Y03433*
Y03435*
Y03436*
Y03437*
Y03439*
Y0344*
Y03442*
Y03443*
Y03444*
Y03446*
Y03447*
Y03449*
Y0345*
Y03451*
Y03453*
Y03454*
Y03456*
Y03457*
Y03458*
Y0346*
Y03461*
Y03463*
Y03464*
Y03465*
Y03467*
Y03468*
Y0347*
Y03471*
Y03472*
Y03474*
Y03475*
Y03477*
Y03478*
Y03479*
Y03481*
Y03482*
Y03484*
Y03485*
Y03486*
Y03488*
Y03489*
Y03491*
Y03492*
Y03493*
Y03495*
Y03496*
Y03498*
Y03499*
Y035*
Y03502*
Y03503*
Y03505*
Y03506*
Y03507*
Y03509*
Y0351*
Y03512*
Y03513*
Y03514*
Y03516*
Y03517*
Y03519*
Y0352*
Y03521*
X02141*
Y0352*
G37*
G36*
X01887Y0334D02*
X01872D01*
X01855Y03384*
X01869*
X01879Y03352*
X01889Y03384*
X01903*
X01887Y0334*
G37*
G36*
X02056D02*
X02045D01*
Y03345*
X02045Y03344*
X02044Y03344*
X02044Y03344*
X02043Y03343*
X02042Y03342*
X02041Y03341*
X02041Y03341*
X0204Y0334*
X02039Y0334*
X02039Y0334*
X02039Y0334*
X02038Y03339*
X02037Y03339*
X02036Y03339*
X02035Y03339*
X02033Y03339*
X02033*
X02032Y03339*
X02031*
X0203Y03339*
X02029Y0334*
X02028Y0334*
X02026Y03341*
X02025Y03342*
X02025Y03342*
X02025Y03342*
X02024Y03343*
X02024Y03344*
X02023Y03345*
X02023Y03347*
X02023Y03349*
X02022Y03351*
Y03371*
X02035*
Y03354*
Y03354*
Y03353*
Y03353*
X02035Y03352*
X02035Y03351*
X02035Y0335*
X02036Y0335*
Y03349*
X02036Y03349*
X02036Y03349*
X02037Y03349*
X02037Y03349*
X02038Y03349*
X02038Y03348*
X02039Y03348*
X02039*
X0204Y03348*
X0204Y03349*
X02041Y03349*
X02041Y03349*
X02042Y03349*
X02042Y0335*
X02043Y0335*
X02043Y0335*
X02043Y03351*
X02043Y03351*
X02044Y03352*
X02044Y03353*
X02044Y03355*
X02044Y03356*
Y03371*
X02056*
Y0334*
G37*
%LNaudio_adc-2*%
%LPC*%
G36*
X0208Y03365D02*
X0208D01*
X02079Y03365*
X02079Y03365*
X02078Y03364*
X02077Y03364*
X02076Y03363*
X02076Y03363*
X02076Y03362*
Y03362*
X02075Y03362*
X02075Y03361*
X02075Y03361*
X02075Y0336*
X02075Y03359*
X02074Y03358*
X02086*
Y03358*
X02086Y03359*
X02086Y03359*
X02086Y0336*
X02086Y03361*
X02085Y03362*
X02085Y03363*
X02084Y03363*
Y03363*
X02084Y03364*
X02084Y03364*
X02083Y03364*
X02083Y03364*
X02082Y03365*
X02081Y03365*
X0208Y03365*
G37*
G36*
X01997Y03363D02*
X01997D01*
X01997Y03363*
X01996Y03363*
X01996Y03363*
X01995Y03362*
X01994Y03362*
X01994Y03361*
X01994*
X01994Y03361*
X01993Y03361*
X01993Y0336*
X01993Y03359*
X01993Y03358*
X01992Y03357*
X01992Y03355*
Y03355*
Y03355*
X01992Y03354*
X01993Y03353*
X01993Y03352*
X01993Y03351*
X01993Y0335*
X01994Y0335*
Y0335*
X01994Y03349*
X01994Y03349*
X01995Y03349*
X01995Y03348*
X01996Y03348*
X01997Y03348*
X01997Y03348*
X01998*
X01998Y03348*
X01999Y03348*
X01999Y03348*
X02Y03349*
X02001Y03349*
X02001Y0335*
X02001Y0335*
X02002Y0335*
X02002Y0335*
X02002Y03351*
X02002Y03352*
X02003Y03353*
X02003Y03354*
X02003Y03355*
Y03355*
Y03356*
Y03356*
X02003Y03357*
X02003Y03358*
X02003Y03359*
X02002Y0336*
X02002Y03361*
X02001Y03361*
X02001Y03361*
X02001Y03362*
X02001Y03362*
X02Y03362*
X02Y03363*
X01999Y03363*
X01998Y03363*
X01997Y03363*
G37*
G36*
X01928Y03355D02*
X01928D01*
X01928Y03354*
X01927Y03354*
X01927Y03354*
X01926Y03354*
X01925Y03354*
X01923Y03353*
X01923Y03353*
X01922Y03353*
X01922Y03353*
X01921Y03352*
X0192Y03352*
X0192Y03352*
X01919Y03351*
X01918Y03351*
Y03351*
X01918*
X01918Y0335*
X01918Y0335*
Y03349*
X01917Y03349*
Y03349*
X01918Y03348*
Y03348*
X01918Y03347*
X01918Y03347*
X01918Y03346*
X01918*
X01919Y03346*
X01919Y03346*
X01919Y03346*
X0192Y03346*
X0192Y03346*
X01921Y03346*
X01922*
X01922Y03346*
X01923*
X01924Y03346*
X01924Y03346*
X01925Y03347*
X01925*
X01925Y03347*
X01926Y03347*
X01926Y03347*
X01927Y03348*
X01927Y03348*
X01928Y03349*
Y03349*
X01928Y03349*
X01928Y0335*
X01928Y0335*
X01928Y0335*
X01928Y03351*
X01928Y03352*
Y03353*
Y03355*
G37*
G36*
X02193Y03309D02*
X02193D01*
X02192*
X02192Y03309*
X02191Y03308*
X02191Y03308*
X0219Y03308*
X0219Y03307*
X02189Y03306*
X02189Y03306*
Y03306*
X02189Y03305*
X02189Y03305*
X02189Y03305*
X02189Y03304*
X02189Y03304*
X02188Y03303*
Y03302*
X02188Y03301*
Y033*
Y03299*
X02188Y03298*
Y03297*
Y03297*
Y03297*
Y03296*
X02188Y03296*
Y03295*
Y03294*
X02188Y03292*
X02189Y0329*
X02189Y0329*
X02189Y03289*
X02189Y03289*
X02189Y03288*
X02189Y03288*
X0219Y03288*
X0219Y03287*
X0219Y03287*
X02191Y03286*
X02191Y03286*
X02192Y03286*
X02193Y03286*
X02193*
X02193*
X02194Y03286*
X02194Y03286*
X02194Y03286*
X02195Y03286*
X02195Y03287*
X02195Y03287*
X02196Y03287*
X02196Y03287*
X02196Y03288*
X02196Y03288*
X02197Y03289*
X02197Y0329*
Y0329*
Y0329*
X02197Y03291*
Y03292*
X02197Y03293*
Y03294*
X02197Y03295*
Y03297*
Y03297*
Y03298*
Y03298*
X02197Y03299*
Y03299*
Y03301*
X02197Y03302*
X02197Y03304*
X02197Y03305*
X02197Y03305*
X02196Y03306*
X02196Y03306*
X02196Y03306*
X02196Y03307*
X02196Y03307*
X02195Y03307*
X02195Y03308*
X02194Y03308*
X02193Y03309*
X02193Y03309*
G37*
G36*
X02056Y03307D02*
X02053D01*
Y03288*
X02056*
X02057*
X02057*
X02059Y03288*
X0206Y03288*
X0206Y03288*
X0206Y03288*
X02061*
X02061Y03289*
X02061Y03289*
X02061Y03289*
X02062Y0329*
X02062Y0329*
X02062Y03291*
X02063Y03291*
X02063Y03291*
X02063Y03292*
X02063Y03292*
X02063Y03293*
X02063Y03294*
Y03295*
X02063Y03297*
Y03297*
Y03297*
Y03298*
X02063Y03298*
Y03299*
X02063Y033*
X02063Y03301*
X02063Y03302*
X02062Y03304*
X02062Y03304*
X02061Y03305*
X02061Y03305*
X02061Y03305*
X0206Y03306*
X02059Y03306*
X02058Y03306*
X02057Y03307*
X02056*
G37*
G36*
X02004Y03307D02*
X02001D01*
Y033*
X02004*
X02005*
X02006Y033*
X02006Y033*
X02007Y033*
X02008Y033*
X02008Y03301*
X02008Y03301*
X02008Y03301*
X02009Y03301*
X02009Y03301*
X02009Y03302*
X02009Y03302*
X02009Y03303*
Y03303*
Y03304*
Y03304*
Y03304*
X02009Y03304*
X02009Y03305*
X02009Y03305*
X02009Y03306*
X02008Y03306*
X02008Y03306*
X02008Y03306*
X02008Y03307*
X02007Y03307*
X02007Y03307*
X02006Y03307*
X02005Y03307*
X02004*
G37*
%LNaudio_adc-3*%
%LPD*%
G54D12*
X01345Y03535D02*
X0176D01*
X01345Y0325D02*
Y0357D01*
X0176*
Y0325D02*
Y0357D01*
X01345Y0325D02*
X0176D01*
X01405Y03535D02*
Y0357D01*
Y03535D02*
X0148D01*
X01485Y0354*
Y0357*
X0161Y03535D02*
Y03565D01*
Y03535D02*
X0169D01*
X01695Y0354*
Y0357*
X01345Y03335D02*
X0176D01*
X01965Y0103D02*
X0238D01*
Y00995D02*
Y01315D01*
X01965Y00995D02*
X0238D01*
X01965D02*
Y01315D01*
X0238*
X0232Y00995D02*
Y0103D01*
X02245D02*
X0232D01*
X0224Y01025D02*
X02245Y0103D01*
X0224Y00995D02*
Y01025D01*
X02115Y01D02*
Y0103D01*
X02035D02*
X02115D01*
X0203Y01025D02*
X02035Y0103D01*
X0203Y00995D02*
Y01025D01*
X01965Y0123D02*
X0238D01*
X01535Y0103D02*
X0195D01*
Y00995D02*
Y01315D01*
X01535Y00995D02*
X0195D01*
X01535D02*
Y01315D01*
X0195*
X0189Y00995D02*
Y0103D01*
X01815D02*
X0189D01*
X0181Y01025D02*
X01815Y0103D01*
X0181Y00995D02*
Y01025D01*
X01685Y01D02*
Y0103D01*
X01605D02*
X01685D01*
X016Y01025D02*
X01605Y0103D01*
X016Y00995D02*
Y01025D01*
X01535Y0123D02*
X0195D01*
X011Y0103D02*
X01515D01*
Y00995D02*
Y01315D01*
X011Y00995D02*
X01515D01*
X011D02*
Y01315D01*
X01515*
X01455Y00995D02*
Y0103D01*
X0138D02*
X01455D01*
X01375Y01025D02*
X0138Y0103D01*
X01375Y00995D02*
Y01025D01*
X0125Y01D02*
Y0103D01*
X0117D02*
X0125D01*
X01165Y01025D02*
X0117Y0103D01*
X01165Y00995D02*
Y01025D01*
X011Y0123D02*
X01515D01*
X02995Y0121D02*
X03025Y0118D01*
X02995Y0121D02*
X03025Y0124D01*
Y0118D02*
Y0124D01*
X0263Y0237D02*
X0283D01*
X0263D02*
Y02745D01*
X0283*
Y0237D02*
Y02745D01*
X01755Y0141D02*
Y0161D01*
X0138Y0141D02*
X01755D01*
X0138D02*
Y0161D01*
X01755*
X026Y01845D02*
Y02285D01*
X02595Y0184D02*
X026Y01845D01*
X0242Y0184D02*
X02595D01*
X02415Y01845D02*
X0242Y0184D01*
X02415Y02285D02*
X026D01*
X02415Y01845D02*
Y02285D01*
X0114Y0147D02*
Y01625D01*
X0124Y0147D02*
Y01625D01*
X02675Y0293D02*
Y0294D01*
Y02935*
X02644*
X02649Y0293*
Y02955D02*
X02644Y02961D01*
Y02971*
X02649Y02976*
X02654*
X02659Y02971*
X02664Y02976*
X02669*
X02675Y02971*
Y02961*
X02669Y02955*
X02664*
X02659Y02961*
X02654Y02955*
X02649*
X02659Y02961D02*
Y02971D01*
X02649Y02986D02*
X02644Y02992D01*
Y03002*
X02649Y03007*
X02669*
X02675Y03002*
Y02992*
X02669Y02986*
X02649*
X02675Y03045D02*
X02644D01*
X02659Y0303*
Y0305*
X02644Y03061D02*
Y03081D01*
X02649*
X02669Y03061*
X02675*
X02649Y03092D02*
X02644Y03097D01*
Y03107*
X02649Y03112*
X02669*
X02675Y03107*
Y03097*
X02669Y03092*
X02649*
X02675Y03155D02*
X02644D01*
X02659Y0314*
Y0316*
X02644Y03171D02*
Y03191D01*
X02649*
X02669Y03171*
X02675*
X02649Y03202D02*
X02644Y03207D01*
Y03217*
X02649Y03222*
X02669*
X02675Y03217*
Y03207*
X02669Y03202*
X02649*
X02595Y03536D02*
X02575D01*
Y0352*
X02585Y03525*
X0259*
X02595Y0352*
Y0351*
X0259Y03505*
X0258*
X02575Y0351*
X02606Y03525D02*
X02616Y03505D01*
X02626Y03525*
X02665Y03505D02*
X02675D01*
X0267*
Y03536*
X02665Y0353*
X0269D02*
X02696Y03536D01*
X02706*
X02711Y0353*
Y0351*
X02706Y03505*
X02696*
X0269Y0351*
Y0353*
X02721Y03525D02*
X02732Y03505D01*
X02742Y03525*
X02775Y03495D02*
X02795D01*
X02806Y0348D02*
X02816D01*
X02811*
Y03511*
X02806Y03505*
X02831D02*
X02837Y03511D01*
X02847*
X02852Y03505*
Y03485*
X02847Y0348*
X02837*
X02831Y03485*
Y03505*
X02862Y035D02*
X02873Y0348D01*
X02883Y035*
X01166Y03047D02*
X01205D01*
Y03037*
X01166Y02997*
Y02988*
X01254D02*
Y03047D01*
X01225Y03017*
X01264*
X01284Y02988D02*
X01303D01*
X01293*
Y03047*
X01284Y03037*
X0144Y03325D02*
Y03285D01*
X0146Y03265*
X0148Y03285*
Y03325*
X0151Y03265D02*
X0153D01*
X0154Y03275*
Y03295*
X0153Y03305*
X0151*
X015Y03295*
Y03275*
X0151Y03265*
X0156Y03305D02*
Y03275D01*
X0157Y03265*
X01599*
Y03305*
X01629Y03315D02*
Y03305D01*
X01619*
X01639*
X01629*
Y03275*
X01639Y03265*
X01395Y01356D02*
Y01335D01*
X01405Y01325*
X01416Y01335*
Y01356*
X01426Y01325D02*
X01437D01*
X01431*
Y01346*
X01426*
X01452Y01325D02*
Y01346D01*
X01468*
X01473Y0134*
Y01325*
X02905Y0327D02*
X02945D01*
X02925*
Y0321*
X02995D02*
X02975D01*
X02965Y0322*
Y0324*
X02975Y0325*
X02995*
X03005Y0324*
Y0323*
X02965*
X03025Y0321D02*
X03055D01*
X03064Y0322*
X03055Y0323*
X03035*
X03025Y0324*
X03035Y0325*
X03064*
X03094Y0326D02*
Y0325D01*
X03084*
X03104*
X03094*
Y0322*
X03104Y0321*
X02675Y02825D02*
Y02835D01*
Y0283*
X02643*
X02648Y02825*
Y02851D02*
X02643Y02856D01*
Y02867*
X02648Y02872*
X02654*
X02659Y02867*
X02664Y02872*
X02669*
X02675Y02867*
Y02856*
X02669Y02851*
X02664*
X02659Y02856*
X02654Y02851*
X02648*
X02659Y02856D02*
Y02867D01*
X02648Y02882D02*
X02643Y02888D01*
Y02898*
X02648Y02903*
X02669*
X02675Y02898*
Y02888*
X02669Y02882*
X02648*
X01146Y02604D02*
X01156D01*
X01151*
Y02635*
X01146Y0263*
X01172D02*
X01177Y02635D01*
X01188*
X01193Y0263*
Y02609*
X01188Y02604*
X01177*
X01172Y02609*
Y0263*
X01203Y02625D02*
Y02609D01*
X01209Y02604*
X01224*
Y02625*
X01595Y0223D02*
X01564D01*
X01579Y02215*
Y02235*
X01564Y02246D02*
Y02266D01*
X01569*
X01589Y02246*
X01595*
Y02277D02*
X01574D01*
Y02292*
X01579Y02297*
X01595*
X01761Y02799D02*
X01751Y02809D01*
X01731*
X01721Y02799*
Y02759*
X01731Y02749*
X01751*
X01761Y02759*
X01811Y02749D02*
Y02809D01*
X01781Y02779*
X01821*
X0238Y01956D02*
Y01935D01*
X02359Y01956*
X02353*
X02348Y0195*
Y0194*
X02353Y01935*
X0238Y01987D02*
Y01966D01*
X02359Y01987*
X02353*
X02348Y01982*
Y01971*
X02353Y01966*
X0238Y01998D02*
X02359D01*
Y02013*
X02364Y02019*
X0238*
Y02206D02*
Y02185D01*
X02359Y02206*
X02353*
X02348Y022*
Y0219*
X02353Y02185*
X0238Y02237D02*
Y02216D01*
X02359Y02237*
X02353*
X02348Y02232*
Y02221*
X02353Y02216*
X0238Y02248D02*
X02359D01*
Y02263*
X02364Y02269*
X0238*
X01151Y01879D02*
X01161D01*
X01156*
Y0191*
X01151Y01905*
X01177D02*
X01182Y0191D01*
X01193*
X01198Y01905*
Y01884*
X01193Y01879*
X01182*
X01177Y01884*
Y01905*
X01208Y01879D02*
Y019D01*
X01224*
X01229Y01894*
Y01879*
X01493Y02609D02*
X01472D01*
X01493Y0263*
Y02635*
X01487Y0264*
X01477*
X01472Y02635*
X01524Y02609D02*
X01503D01*
X01524Y0263*
Y02635*
X01519Y0264*
X01508*
X01503Y02635*
X01535D02*
X0154Y0264D01*
X0155*
X01556Y02635*
Y02614*
X0155Y02609*
X0154*
X01535Y02614*
Y02635*
X01566Y0263D02*
Y02614D01*
X01571Y02609*
X01587*
Y0263*
X0112Y02185D02*
Y02195D01*
Y0219*
X01088*
X01093Y02185*
Y02211D02*
X01088Y02216D01*
Y02227*
X01093Y02232*
X01114*
X0112Y02227*
Y02216*
X01114Y02211*
X01093*
Y02242D02*
X01088Y02248D01*
Y02258*
X01093Y02263*
X01114*
X0112Y02258*
Y02248*
X01114Y02242*
X01093*
X0112Y02274D02*
X01088D01*
X01109D02*
X01099Y0229D01*
X01109Y02274D02*
X0112Y0229D01*
X01215Y0219D02*
Y022D01*
Y02195*
X01183*
X01188Y0219*
Y02216D02*
X01183Y02221D01*
Y02232*
X01188Y02237*
X01209*
X01215Y02232*
Y02221*
X01209Y02216*
X01188*
Y02247D02*
X01183Y02253D01*
Y02263*
X01188Y02268*
X01209*
X01215Y02263*
Y02253*
X01209Y02247*
X01188*
X01215Y02279D02*
X01183D01*
X01204D02*
X01194Y02295D01*
X01204Y02279D02*
X01215Y02295D01*
X0131Y02191D02*
Y02201D01*
Y02196*
X01278*
X01283Y02191*
Y02217D02*
X01278Y02222D01*
Y02233*
X01283Y02238*
X01304*
X0131Y02233*
Y02222*
X01304Y02217*
X01283*
Y02248D02*
X01278Y02254D01*
Y02264*
X01283Y02269*
X01304*
X0131Y02264*
Y02254*
X01304Y02248*
X01283*
X0131Y0228D02*
X01278D01*
X01299D02*
X01289Y02296D01*
X01299Y0228D02*
X0131Y02296D01*
X02427Y01669D02*
X02406D01*
X02427Y0169*
Y01695*
X02421Y017*
X02411*
X02406Y01695*
X02437D02*
X02442Y017D01*
X02453*
X02458Y01695*
Y01674*
X02453Y01669*
X02442*
X02437Y01674*
Y01695*
X02469Y01669D02*
Y017D01*
Y01679D02*
X02484Y0169D01*
X02469Y01679D02*
X02484Y01669D01*
X02427Y01768D02*
X02406D01*
X02427Y01789*
Y01794*
X02421Y01799*
X02411*
X02406Y01794*
X02437D02*
X02442Y01799D01*
X02453*
X02458Y01794*
Y01773*
X02453Y01768*
X02442*
X02437Y01773*
Y01794*
X02469Y01768D02*
Y01799D01*
Y01778D02*
X02484Y01789D01*
X02469Y01778D02*
X02484Y01768D01*
X02382Y0239D02*
X02361D01*
X02382Y02411*
Y02416*
X02376Y02421*
X02366*
X02361Y02416*
X02392D02*
X02397Y02421D01*
X02408*
X02413Y02416*
Y02395*
X02408Y0239*
X02397*
X02392Y02395*
Y02416*
X02424Y0239D02*
Y02421D01*
Y024D02*
X02439Y02411D01*
X02424Y024D02*
X02439Y0239D01*
X02382Y02488D02*
X02361D01*
X02382Y02509*
Y02514*
X02376Y02519*
X02366*
X02361Y02514*
X02392D02*
X02397Y02519D01*
X02408*
X02413Y02514*
Y02493*
X02408Y02488*
X02397*
X02392Y02493*
Y02514*
X02424Y02488D02*
Y02519D01*
Y02498D02*
X02439Y02509D01*
X02424Y02498D02*
X02439Y02488D01*
X02379Y02585D02*
X02356D01*
X02379Y02608*
Y02614*
X02373Y0262*
X02361*
X02356Y02614*
X02391D02*
X02397Y0262D01*
X02409*
X02415Y02614*
Y0259*
X02409Y02585*
X02397*
X02391Y0259*
Y02614*
X02426Y02585D02*
Y0262D01*
Y02596D02*
X02444Y02608D01*
X02426Y02596D02*
X02444Y02585D01*
X02823Y01679D02*
X02833D01*
X02828*
Y0171*
X02823Y01705*
X02849D02*
X02854Y0171D01*
X02865*
X0287Y01705*
Y01684*
X02865Y01679*
X02854*
X02849Y01684*
Y01705*
X0288Y01679D02*
Y0171D01*
Y01689D02*
X02896Y017D01*
X0288Y01689D02*
X02896Y01679D01*
X02823Y01778D02*
X02833D01*
X02828*
Y01809*
X02823Y01804*
X02849D02*
X02854Y01809D01*
X02865*
X0287Y01804*
Y01783*
X02865Y01778*
X02854*
X02849Y01783*
Y01804*
X0288Y01778D02*
Y01809D01*
Y01788D02*
X02896Y01799D01*
X0288Y01788D02*
X02896Y01778D01*
X02823Y01876D02*
X02833D01*
X02828*
Y01907*
X02823Y01902*
X02849D02*
X02854Y01907D01*
X02865*
X0287Y01902*
Y01881*
X02865Y01876*
X02854*
X02849Y01881*
Y01902*
X0288Y01876D02*
Y01907D01*
Y01886D02*
X02896Y01897D01*
X0288Y01886D02*
X02896Y01876D01*
X02823Y01975D02*
X02833D01*
X02828*
Y02006*
X02823Y02001*
X02849D02*
X02854Y02006D01*
X02865*
X0287Y02001*
Y0198*
X02865Y01975*
X02854*
X02849Y0198*
Y02001*
X0288Y01975D02*
Y02006D01*
Y01985D02*
X02896Y01996D01*
X0288Y01985D02*
X02896Y01975D01*
X02841Y0208D02*
X0282D01*
X02841Y02101*
Y02106*
X02835Y02111*
X02825*
X0282Y02106*
X02851D02*
X02856Y02111D01*
X02867*
X02872Y02106*
Y02085*
X02867Y0208*
X02856*
X02851Y02085*
Y02106*
X02883Y0208D02*
Y02111D01*
Y0209D02*
X02898Y02101D01*
X02883Y0209D02*
X02898Y0208D01*
X015Y0222D02*
Y0223D01*
Y02225*
X01468*
X01473Y0222*
Y02246D02*
X01468Y02251D01*
Y02262*
X01473Y02267*
X01494*
X015Y02262*
Y02251*
X01494Y02246*
X01473*
X01405Y02205D02*
Y02215D01*
Y0221*
X01373*
X01378Y02205*
Y02231D02*
X01373Y02236D01*
Y02247*
X01378Y02252*
X01399*
X01405Y02247*
Y02236*
X01399Y02231*
X01378*
X01405Y02262D02*
X01373D01*
X01394D02*
X01384Y02278D01*
X01394Y02262D02*
X01405Y02278D01*
X02465Y0353D02*
X0246Y03536D01*
X0245*
X02445Y0353*
Y0351*
X0245Y03505*
X0246*
X02465Y0351*
X02476Y03536D02*
Y0351D01*
X02481Y03505*
X02491*
X02496Y0351*
Y03536*
X02507D02*
X02527D01*
X02517*
Y03505*
X0268Y0233D02*
X02685Y02336D01*
X02695*
X027Y0233*
Y0231*
X02695Y02305*
X02685*
X0268Y0231*
Y0233*
X02711Y02305D02*
Y0231D01*
X02716*
Y02305*
X02711*
X02736Y0233D02*
X02742Y02336D01*
X02752*
X02757Y0233*
Y0231*
X02752Y02305*
X02742*
X02736Y0231*
Y0233*
X02767Y02305D02*
X02778D01*
X02773*
Y02336*
X02767Y0233*
X02793Y02325D02*
Y0231D01*
X02798Y02305*
X02814*
Y02325*
X01495Y01875D02*
X01535D01*
Y01865*
X01495Y01825*
Y01815*
X01585D02*
Y01875D01*
X01555Y01845*
X01595*
X01615Y01815D02*
X01635D01*
X01625*
Y01875*
X01615Y01865*
X01956Y03047D02*
X01995D01*
Y03037*
X01956Y02997*
Y02988*
X02044D02*
Y03047D01*
X02015Y03017*
X02054*
X02074Y02988D02*
X02093D01*
X02083*
Y03047*
X02074Y03037*
X02355Y03053D02*
X02395D01*
Y03043*
X02355Y03003*
Y02993*
X02445D02*
Y03053D01*
X02415Y03023*
X02455*
X02475Y02993D02*
X02495D01*
X02485*
Y03053*
X02475Y03043*
X01561Y03047D02*
X016D01*
Y03037*
X01561Y02997*
Y02988*
X01649D02*
Y03047D01*
X0162Y03017*
X01659*
X01679Y02988D02*
X01698D01*
X01688*
Y03047*
X01679Y03037*
X02426Y01385D02*
X02405D01*
X02426Y01406*
Y01411*
X0242Y01416*
X0241*
X02405Y01411*
X02436D02*
X02441Y01416D01*
X02452*
X02457Y01411*
Y0139*
X02452Y01385*
X02441*
X02436Y0139*
Y01411*
X02468Y01385D02*
Y01416D01*
Y01395D02*
X02483Y01406D01*
X02468Y01395D02*
X02483Y01385D01*
X02426Y01481D02*
X02405D01*
X02426Y01502*
Y01508*
X0242Y01513*
X0241*
X02405Y01508*
X02436D02*
X02441Y01513D01*
X02452*
X02457Y01508*
Y01487*
X02452Y01481*
X02441*
X02436Y01487*
Y01508*
X02468Y01481D02*
Y01513D01*
Y01492D02*
X02483Y01502D01*
X02468Y01492D02*
X02483Y01481D01*
X02427Y01571D02*
X02406D01*
X02427Y01592*
Y01597*
X02421Y01602*
X02411*
X02406Y01597*
X02437D02*
X02442Y01602D01*
X02453*
X02458Y01597*
Y01576*
X02453Y01571*
X02442*
X02437Y01576*
Y01597*
X02469Y01571D02*
Y01602D01*
Y01581D02*
X02484Y01592D01*
X02469Y01581D02*
X02484Y01571D01*
X02828Y01379D02*
X02838D01*
X02833*
Y0141*
X02828Y01405*
X02854D02*
X02859Y0141D01*
X0287*
X02875Y01405*
Y01384*
X0287Y01379*
X02859*
X02854Y01384*
Y01405*
X02885Y01379D02*
Y0141D01*
Y01389D02*
X02901Y014D01*
X02885Y01389D02*
X02901Y01379D01*
X02823Y01482D02*
X02833D01*
X02828*
Y01513*
X02823Y01508*
X02849D02*
X02854Y01513D01*
X02865*
X0287Y01508*
Y01487*
X02865Y01482*
X02854*
X02849Y01487*
Y01508*
X0288Y01482D02*
Y01513D01*
Y01492D02*
X02896Y01503D01*
X0288Y01492D02*
X02896Y01482D01*
X02823Y01581D02*
X02833D01*
X02828*
Y01612*
X02823Y01607*
X02849D02*
X02854Y01612D01*
X02865*
X0287Y01607*
Y01586*
X02865Y01581*
X02854*
X02849Y01586*
Y01607*
X0288Y01581D02*
Y01612D01*
Y01591D02*
X02896Y01602D01*
X0288Y01591D02*
X02896Y01581D01*
X02376Y02725D02*
X02381Y0273D01*
X02391*
X02397Y02725*
Y0272*
X02391Y02714*
X02386*
X02391*
X02397Y02709*
Y02704*
X02391Y02699*
X02381*
X02376Y02704*
X02407Y02699D02*
Y0273D01*
Y02709D02*
X02423Y0272D01*
X02407Y02709D02*
X02423Y02699D01*
X0204Y01655D02*
X02D01*
X0198Y01675*
X02Y01695*
X0204*
X0201*
Y01655*
X0198Y01715D02*
Y01755D01*
Y01735*
X0204*
Y01775D02*
X02D01*
Y01785*
X0201Y01795*
X0204*
X0201*
X02Y01805*
X0201Y01814*
X0204*
Y01864D02*
Y01844D01*
X0203Y01834*
X0201*
X02Y01844*
Y01864*
X0201Y01874*
X0202*
Y01834*
X0206Y01914D02*
Y01924D01*
X0205Y01934*
X02*
Y01904*
X0201Y01894*
X0203*
X0204Y01904*
Y01934*
X02Y01964D02*
Y01984D01*
X0201Y01994*
X0204*
Y01964*
X0203Y01954*
X0202Y01964*
Y01994*
X0199Y02014D02*
X0198Y02024D01*
Y02044*
X0199Y02054*
X02*
X0201Y02044*
Y02034*
Y02044*
X0202Y02054*
X0203*
X0204Y02044*
Y02024*
X0203Y02014*
X0204Y02114D02*
Y02074D01*
X02Y02114*
X0199*
X0198Y02104*
Y02084*
X0199Y02074*
Y02134D02*
X0198Y02144D01*
Y02164*
X0199Y02174*
X02*
X0201Y02164*
X0202Y02174*
X0203*
X0204Y02164*
Y02144*
X0203Y02134*
X0202*
X0201Y02144*
X02Y02134*
X0199*
X0201Y02144D02*
Y02164D01*
X0204Y02194D02*
X0198D01*
Y02224*
X0199Y02234*
X0201*
X0202Y02224*
Y02194*
X0201Y02254D02*
Y02294D01*
X0204Y02314D02*
X0198D01*
Y02344*
X0199Y02354*
X0201*
X0202Y02344*
Y02314*
X0198Y02374D02*
X0203D01*
X0204Y02384*
Y02404*
X0203Y02414*
X0198*
X02993Y01065D02*
X03014D01*
X03025Y01075*
X03014Y01086*
X02993*
X02998Y01117D02*
X02993Y01112D01*
Y01101*
X02998Y01096*
X03019*
X03025Y01101*
Y01112*
X03019Y01117*
X02998Y01149D02*
X02993Y01143D01*
Y01133*
X02998Y01128*
X03019*
X03025Y01133*
Y01143*
X03019Y01149*
X0142Y01475D02*
Y01485D01*
Y0148*
X0139*
X01395Y01475*
Y015D02*
X0139Y01505D01*
Y01515*
X01395Y0152*
X01415*
X0142Y01515*
Y01505*
X01415Y015*
X01395*
X0142Y0153D02*
X0139D01*
X0141D02*
X014Y01545D01*
X0141Y0153D02*
X0142Y01545D01*
X0269Y027D02*
X02701D01*
X02695*
Y02735*
X0269Y02729*
X02719D02*
X02725Y02735D01*
X02736*
X02742Y02729*
Y02705*
X02736Y027*
X02725*
X02719Y02705*
Y02729*
X02754Y027D02*
Y02735D01*
Y02711D02*
X02771Y02723D01*
X02754Y02711D02*
X02771Y027D01*
X01111Y01789D02*
X01101Y01799D01*
X01081*
X01071Y01789*
Y01779*
X01081Y01769*
X01101*
X01111Y01759*
Y01749*
X01101Y01739*
X01081*
X01071Y01749*
X01131Y01739D02*
X01151D01*
X01141*
Y01799*
X01131Y01789*
X02086Y01356D02*
X02065D01*
Y0134*
X02075Y01346*
X0208*
X02086Y0134*
Y0133*
X0208Y01325*
X0207*
X02065Y0133*
X02096Y01346D02*
X02107Y01325D01*
X02117Y01346*
X02266Y01351D02*
X0226Y01356D01*
X0225*
X02245Y01351*
Y0133*
X0225Y01325*
X0226*
X02266Y0133*
Y0134*
X02255*
X02276Y01325D02*
Y01356D01*
X02297Y01325*
Y01356*
X02308D02*
Y01325D01*
X02323*
X02329Y0133*
Y01351*
X02323Y01356*
X02308*
X01181Y01351D02*
X01175Y01356D01*
X01165*
X0116Y01351*
Y0133*
X01165Y01325*
X01175*
X01181Y0133*
Y0134*
X0117*
X01191Y01325D02*
Y01356D01*
X01212Y01325*
Y01356*
X01223D02*
Y01325D01*
X01238*
X01244Y0133*
Y01351*
X01238Y01356*
X01223*
X01595Y0134D02*
X01616D01*
X01626Y01325D02*
X01637D01*
X01631*
Y01356*
X01626Y01351*
X01652D02*
X01658Y01356D01*
X01668*
X01673Y01351*
Y0133*
X01668Y01325*
X01658*
X01652Y0133*
Y01351*
X01684Y01346D02*
X01694Y01325D01*
X01705Y01346*
X01815Y0134D02*
X01836D01*
X01825Y01351D02*
Y0133D01*
X01846Y01325D02*
X01857D01*
X01851*
Y01356*
X01846Y01351*
X01872D02*
X01878Y01356D01*
X01888*
X01893Y01351*
Y0133*
X01888Y01325*
X01878*
X01872Y0133*
Y01351*
X01904Y01346D02*
X01914Y01325D01*
X01925Y01346*
X02904Y01319D02*
X02894D01*
X0289Y01314*
Y01294*
X02894Y0129*
X02904*
X02909Y01294*
Y01314*
X02904Y01319*
X02939Y01314D02*
X02934Y01319D01*
X02924*
X02919Y01314*
Y01309*
X02924Y01304*
X02934*
X02939Y01299*
Y01294*
X02934Y0129*
X02924*
X02919Y01294*
X02949Y01319D02*
X02958D01*
X02954*
Y0129*
X02949*
X02958*
X02785Y01319D02*
Y0129D01*
X02804*
X02834Y01319D02*
X02814D01*
Y0129*
X02834*
X02814Y01304D02*
X02824D01*
X02844Y01319D02*
Y0129D01*
X02858*
X02863Y01294*
Y01314*
X02858Y01319*
X02844*
X02685Y0129D02*
Y01319D01*
X02699*
X02704Y01314*
Y01304*
X02699Y01299*
X02685*
X02694D02*
X02704Y0129D01*
X02734Y01314D02*
X02729Y01319D01*
X02719*
X02714Y01314*
Y01309*
X02719Y01304*
X02729*
X02734Y01299*
Y01294*
X02729Y0129*
X02719*
X02714Y01294*
X02744Y01319D02*
X02763D01*
X02753*
Y0129*
X02604Y01314D02*
X02599Y01319D01*
X02589*
X02585Y01314*
Y01309*
X02589Y01304*
X02599*
X02604Y01299*
Y01294*
X02599Y0129*
X02589*
X02585Y01294*
X02634Y01314D02*
X02629Y01319D01*
X02619*
X02614Y01314*
Y01294*
X02619Y0129*
X02629*
X02634Y01294*
X02644Y01319D02*
Y0129D01*
Y01299*
X02663Y01319*
X02649Y01304*
X02663Y0129*
X029Y02943D02*
Y0291D01*
X02922*
X02933Y02943D02*
Y0291D01*
X0295*
X02955Y02915*
Y02921*
X0295Y02926*
X02933*
X0295*
X02955Y02932*
Y02937*
X0295Y02943*
X02933*
X02989D02*
X02966D01*
Y02926*
X02978*
X02966*
Y0291*
X0289Y03153D02*
Y03131D01*
X02901Y0312*
X02912Y03131*
Y03153*
X02929Y0312D02*
X0294D01*
X02945Y03125*
Y03136*
X0294Y03142*
X02929*
X02923Y03136*
Y03125*
X02929Y0312*
X02956Y03142D02*
Y03125D01*
X02962Y0312*
X02979*
Y03142*
X02995Y03147D02*
Y03142D01*
X0299*
X03001*
X02995*
Y03125*
X03001Y0312*
X02927Y03047D02*
X02921Y03053D01*
X0291*
X02905Y03047*
Y03042*
X0291Y03036*
X02921*
X02927Y03031*
Y03025*
X02921Y0302*
X0291*
X02905Y03025*
X02955Y0302D02*
X02944D01*
X02938Y03025*
Y03036*
X02944Y03042*
X02955*
X0296Y03036*
Y03031*
X02938*
X02983Y03008D02*
X02988D01*
X02994Y03014*
Y03042*
X02977*
X02971Y03036*
Y03025*
X02977Y0302*
X02994*
X02875Y02838D02*
Y02805D01*
X02891*
X02897Y0281*
Y02816*
X02891Y02821*
X02875*
X02891*
X02897Y02827*
Y02832*
X02891Y02838*
X02875*
X02908Y02805D02*
X02919D01*
X02914*
Y02827*
X02908*
X02941D02*
X02953D01*
X02958Y02821*
Y02805*
X02941*
X02936Y0281*
X02941Y02816*
X02958*
X02969Y02805D02*
X02986D01*
X02992Y0281*
X02986Y02816*
X02975*
X02969Y02821*
X02975Y02827*
X02992*
X02885Y02743D02*
Y0271D01*
X02901*
X02907Y02715*
Y02737*
X02901Y02743*
X02885*
X02935Y0271D02*
X02924D01*
X02918Y02715*
Y02726*
X02924Y02732*
X02935*
X0294Y02726*
Y02721*
X02918*
X02974Y02732D02*
X02957D01*
X02951Y02726*
Y02715*
X02957Y0271*
X02974*
X029Y02648D02*
Y02626D01*
X02911Y02615*
X02922Y02626*
Y02648*
X02933Y02615D02*
X02944D01*
X02939*
Y02637*
X02933*
X02961Y02615D02*
Y02637D01*
X02978*
X02983Y02631*
Y02615*
X029Y02515D02*
X02911D01*
X02905*
Y02548*
X029Y02542*
X02927D02*
X02933Y02548D01*
X02944*
X0295Y02542*
Y0252*
X02944Y02515*
X02933*
X02927Y0252*
Y02542*
X02961Y02537D02*
X02972Y02515D01*
X02983Y02537*
X02885Y02436D02*
X02907D01*
X02918Y0242D02*
X02929D01*
X02924*
Y02453*
X02918Y02447*
X02946D02*
X02951Y02453D01*
X02963*
X02968Y02447*
Y02425*
X02963Y0242*
X02951*
X02946Y02425*
Y02447*
X02979Y02442D02*
X0299Y0242D01*
X03002Y02442*
X02937Y02348D02*
X02915D01*
Y02331*
X02926Y02337*
X02931*
X02937Y02331*
Y0232*
X02931Y02315*
X0292*
X02915Y0232*
X02948Y02337D02*
X02959Y02315D01*
X0297Y02337*
X02485Y01319D02*
X02494D01*
X02489*
Y0129*
X02485*
X02494*
X02529Y01314D02*
X02524Y01319D01*
X02514*
X02509Y01314*
Y01309*
X02514Y01304*
X02524*
X02529Y01299*
Y01294*
X02524Y0129*
X02514*
X02509Y01294*
X02553Y01319D02*
X02544D01*
X02539Y01314*
Y01294*
X02544Y0129*
X02553*
X02558Y01294*
Y01314*
X02553Y01319*
X02922Y02237D02*
X02916Y02243D01*
X02905*
X029Y02237*
Y02215*
X02905Y0221*
X02916*
X02922Y02215*
Y02226*
X02911*
X02933Y0221D02*
Y02243D01*
X02955Y0221*
Y02243*
X02966D02*
Y0221D01*
X02983*
X02989Y02215*
Y02237*
X02983Y02243*
X02966*
X01277Y03397D02*
X01271Y03391D01*
Y0338*
X01277Y03375*
X01299*
X01305Y0338*
Y03391*
X01299Y03397*
X01288*
Y03386*
X01305Y03408D02*
X01271D01*
X01305Y0343*
X01271*
Y03441D02*
X01305D01*
Y03458*
X01299Y03464*
X01277*
X01271Y03458*
Y03441*
X01776Y0338D02*
X01798D01*
X0181Y03391*
X01798Y03402*
X01776*
X0181Y03419D02*
Y0343D01*
X01804Y03435*
X01793*
X01787Y0343*
Y03419*
X01793Y03413*
X01804*
X0181Y03419*
X01787Y03446D02*
X01804D01*
X0181Y03452*
Y03469*
X01787*
X01782Y03485D02*
X01787D01*
Y0348*
Y03491*
Y03485*
X01804*
X0181Y03491*
G54D25*
X01311Y02856D02*
D01*
X01311Y02857*
X01311Y02858*
X01311Y02859*
X01311Y02859*
X01311Y0286*
X0131Y02861*
X0131Y02862*
X0131Y02862*
X01309Y02863*
X01309Y02864*
X01308Y02864*
X01307Y02865*
X01307Y02865*
X01306Y02866*
X01305Y02866*
X01305Y02867*
X01304Y02867*
X01303Y02867*
X01302Y02868*
X01302Y02868*
X01301Y02868*
X013Y02868*
X01299*
X01298Y02868*
X01297Y02868*
X01297Y02868*
X01296Y02867*
X01295Y02867*
X01294Y02867*
X01294Y02866*
X01293Y02866*
X01292Y02865*
X01292Y02865*
X01291Y02864*
X0129Y02864*
X0129Y02863*
X01289Y02862*
X01289Y02862*
X01289Y02861*
X01288Y0286*
X01288Y02859*
X01288Y02859*
X01288Y02858*
X01288Y02857*
X01288Y02856*
X01288Y02855*
X01288Y02854*
X01288Y02854*
X01288Y02853*
X01288Y02852*
X01289Y02851*
X01289Y02851*
X01289Y0285*
X0129Y02849*
X0129Y02849*
X01291Y02848*
X01292Y02847*
X01292Y02847*
X01293Y02846*
X01294Y02846*
X01294Y02845*
X01295Y02845*
X01296Y02845*
X01297Y02845*
X01297Y02844*
X01298Y02844*
X01299Y02844*
X013*
X01301Y02844*
X01302Y02844*
X01302Y02845*
X01303Y02845*
X01304Y02845*
X01305Y02845*
X01305Y02846*
X01306Y02846*
X01307Y02847*
X01307Y02847*
X01308Y02848*
X01309Y02849*
X01309Y02849*
X0131Y0285*
X0131Y02851*
X0131Y02851*
X01311Y02852*
X01311Y02853*
X01311Y02854*
X01311Y02854*
X01311Y02855*
X01311Y02856*
X01418Y0179D02*
D01*
X01418Y0179*
X01418Y01791*
X01418Y01792*
X01417Y01793*
X01417Y01794*
X01417Y01794*
X01417Y01795*
X01416Y01796*
X01416Y01796*
X01415Y01797*
X01415Y01798*
X01414Y01798*
X01413Y01799*
X01413Y01799*
X01412Y018*
X01411Y018*
X01411Y018*
X0141Y01801*
X01409Y01801*
X01408Y01801*
X01407Y01801*
X01407Y01801*
X01406*
X01405Y01801*
X01404Y01801*
X01403Y01801*
X01402Y01801*
X01402Y018*
X01401Y018*
X014Y018*
X014Y01799*
X01399Y01799*
X01398Y01798*
X01398Y01798*
X01397Y01797*
X01397Y01796*
X01396Y01796*
X01396Y01795*
X01395Y01794*
X01395Y01794*
X01395Y01793*
X01395Y01792*
X01394Y01791*
X01394Y0179*
X01394Y0179*
X01394Y01789*
X01394Y01788*
X01395Y01787*
X01395Y01786*
X01395Y01785*
X01395Y01785*
X01396Y01784*
X01396Y01783*
X01397Y01783*
X01397Y01782*
X01398Y01781*
X01398Y01781*
X01399Y0178*
X014Y0178*
X014Y01779*
X01401Y01779*
X01402Y01779*
X01402Y01778*
X01403Y01778*
X01404Y01778*
X01405Y01778*
X01406Y01778*
X01407*
X01407Y01778*
X01408Y01778*
X01409Y01778*
X0141Y01778*
X01411Y01779*
X01411Y01779*
X01412Y01779*
X01413Y0178*
X01413Y0178*
X01414Y01781*
X01415Y01781*
X01415Y01782*
X01416Y01783*
X01416Y01783*
X01417Y01784*
X01417Y01785*
X01417Y01785*
X01417Y01786*
X01418Y01787*
X01418Y01788*
X01418Y01789*
X01418Y0179*
X02101Y02856D02*
D01*
X02101Y02857*
X02101Y02858*
X02101Y02859*
X02101Y02859*
X02101Y0286*
X021Y02861*
X021Y02862*
X021Y02862*
X02099Y02863*
X02099Y02864*
X02098Y02864*
X02097Y02865*
X02097Y02865*
X02096Y02866*
X02095Y02866*
X02095Y02867*
X02094Y02867*
X02093Y02867*
X02092Y02868*
X02092Y02868*
X02091Y02868*
X0209Y02868*
X02089*
X02088Y02868*
X02087Y02868*
X02087Y02868*
X02086Y02867*
X02085Y02867*
X02084Y02867*
X02084Y02866*
X02083Y02866*
X02082Y02865*
X02082Y02865*
X02081Y02864*
X0208Y02864*
X0208Y02863*
X02079Y02862*
X02079Y02862*
X02079Y02861*
X02078Y0286*
X02078Y02859*
X02078Y02859*
X02078Y02858*
X02078Y02857*
X02078Y02856*
X02078Y02855*
X02078Y02854*
X02078Y02854*
X02078Y02853*
X02078Y02852*
X02079Y02851*
X02079Y02851*
X02079Y0285*
X0208Y02849*
X0208Y02849*
X02081Y02848*
X02082Y02847*
X02082Y02847*
X02083Y02846*
X02084Y02846*
X02084Y02845*
X02085Y02845*
X02086Y02845*
X02087Y02845*
X02087Y02844*
X02088Y02844*
X02089Y02844*
X0209*
X02091Y02844*
X02092Y02844*
X02092Y02845*
X02093Y02845*
X02094Y02845*
X02095Y02845*
X02095Y02846*
X02096Y02846*
X02097Y02847*
X02097Y02847*
X02098Y02848*
X02099Y02849*
X02099Y02849*
X021Y0285*
X021Y02851*
X021Y02851*
X02101Y02852*
X02101Y02853*
X02101Y02854*
X02101Y02854*
X02101Y02855*
X02101Y02856*
X02501Y02861D02*
D01*
X02501Y02862*
X02501Y02863*
X02501Y02864*
X02501Y02864*
X02501Y02865*
X025Y02866*
X025Y02867*
X025Y02867*
X02499Y02868*
X02499Y02869*
X02498Y02869*
X02497Y0287*
X02497Y0287*
X02496Y02871*
X02495Y02871*
X02495Y02872*
X02494Y02872*
X02493Y02872*
X02492Y02873*
X02492Y02873*
X02491Y02873*
X0249Y02873*
X02489*
X02488Y02873*
X02487Y02873*
X02487Y02873*
X02486Y02872*
X02485Y02872*
X02484Y02872*
X02484Y02871*
X02483Y02871*
X02482Y0287*
X02482Y0287*
X02481Y02869*
X0248Y02869*
X0248Y02868*
X02479Y02867*
X02479Y02867*
X02479Y02866*
X02478Y02865*
X02478Y02864*
X02478Y02864*
X02478Y02863*
X02478Y02862*
X02478Y02861*
X02478Y0286*
X02478Y02859*
X02478Y02859*
X02478Y02858*
X02478Y02857*
X02479Y02856*
X02479Y02856*
X02479Y02855*
X0248Y02854*
X0248Y02854*
X02481Y02853*
X02482Y02852*
X02482Y02852*
X02483Y02851*
X02484Y02851*
X02484Y0285*
X02485Y0285*
X02486Y0285*
X02487Y0285*
X02487Y02849*
X02488Y02849*
X02489Y02849*
X0249*
X02491Y02849*
X02492Y02849*
X02492Y0285*
X02493Y0285*
X02494Y0285*
X02495Y0285*
X02495Y02851*
X02496Y02851*
X02497Y02852*
X02497Y02852*
X02498Y02853*
X02499Y02854*
X02499Y02854*
X025Y02855*
X025Y02856*
X025Y02856*
X02501Y02857*
X02501Y02858*
X02501Y02859*
X02501Y02859*
X02501Y0286*
X02501Y02861*
X01706Y02856D02*
D01*
X01706Y02857*
X01706Y02858*
X01706Y02859*
X01706Y02859*
X01706Y0286*
X01705Y02861*
X01705Y02862*
X01705Y02862*
X01704Y02863*
X01704Y02864*
X01703Y02864*
X01702Y02865*
X01702Y02865*
X01701Y02866*
X017Y02866*
X017Y02867*
X01699Y02867*
X01698Y02867*
X01697Y02868*
X01697Y02868*
X01696Y02868*
X01695Y02868*
X01694*
X01693Y02868*
X01692Y02868*
X01692Y02868*
X01691Y02867*
X0169Y02867*
X01689Y02867*
X01689Y02866*
X01688Y02866*
X01687Y02865*
X01687Y02865*
X01686Y02864*
X01685Y02864*
X01685Y02863*
X01684Y02862*
X01684Y02862*
X01684Y02861*
X01683Y0286*
X01683Y02859*
X01683Y02859*
X01683Y02858*
X01683Y02857*
X01683Y02856*
X01683Y02855*
X01683Y02854*
X01683Y02854*
X01683Y02853*
X01683Y02852*
X01684Y02851*
X01684Y02851*
X01684Y0285*
X01685Y02849*
X01685Y02849*
X01686Y02848*
X01687Y02847*
X01687Y02847*
X01688Y02846*
X01689Y02846*
X01689Y02845*
X0169Y02845*
X01691Y02845*
X01692Y02845*
X01692Y02844*
X01693Y02844*
X01694Y02844*
X01695*
X01696Y02844*
X01697Y02844*
X01697Y02845*
X01698Y02845*
X01699Y02845*
X017Y02845*
X017Y02846*
X01701Y02846*
X01702Y02847*
X01702Y02847*
X01703Y02848*
X01704Y02849*
X01704Y02849*
X01705Y0285*
X01705Y02851*
X01705Y02851*
X01706Y02852*
X01706Y02853*
X01706Y02854*
X01706Y02854*
X01706Y02855*
X01706Y02856*
X02086Y01407D02*
D01*
X02086Y01408*
X02086Y01409*
X02086Y01409*
X02086Y0141*
X02086Y01411*
X02085Y01412*
X02085Y01413*
X02085Y01413*
X02084Y01414*
X02084Y01415*
X02083Y01415*
X02082Y01416*
X02082Y01416*
X02081Y01417*
X0208Y01417*
X0208Y01418*
X02079Y01418*
X02078Y01418*
X02077Y01418*
X02077Y01419*
X02076Y01419*
X02075Y01419*
X02074*
X02073Y01419*
X02072Y01419*
X02072Y01418*
X02071Y01418*
X0207Y01418*
X02069Y01418*
X02069Y01417*
X02068Y01417*
X02067Y01416*
X02067Y01416*
X02066Y01415*
X02065Y01415*
X02065Y01414*
X02064Y01413*
X02064Y01413*
X02064Y01412*
X02063Y01411*
X02063Y0141*
X02063Y01409*
X02063Y01409*
X02063Y01408*
X02063Y01407*
X02063Y01406*
X02063Y01405*
X02063Y01405*
X02063Y01404*
X02063Y01403*
X02064Y01402*
X02064Y01401*
X02064Y01401*
X02065Y014*
X02065Y01399*
X02066Y01399*
X02067Y01398*
X02067Y01398*
X02068Y01397*
X02069Y01397*
X02069Y01396*
X0207Y01396*
X02071Y01396*
X02072Y01396*
X02072Y01395*
X02073Y01395*
X02074Y01395*
X02075*
X02076Y01395*
X02077Y01395*
X02077Y01396*
X02078Y01396*
X02079Y01396*
X0208Y01396*
X0208Y01397*
X02081Y01397*
X02082Y01398*
X02082Y01398*
X02083Y01399*
X02084Y01399*
X02084Y014*
X02085Y01401*
X02085Y01401*
X02085Y01402*
X02086Y01403*
X02086Y01404*
X02086Y01405*
X02086Y01405*
X02086Y01406*
X02086Y01407*
G54D26*
X01389Y02818D02*
D01*
X01389Y02819*
X01389Y02819*
X01389Y02819*
X01389Y0282*
X01389Y0282*
X01389Y0282*
X01389Y02821*
X01389Y02821*
X01388Y02821*
X01388Y02821*
X01388Y02822*
X01388Y02822*
X01388Y02822*
X01387Y02822*
X01387Y02823*
X01387Y02823*
X01386Y02823*
X01386Y02823*
X01386Y02823*
X01385Y02823*
X01385Y02823*
X01385Y02823*
X01384*
X01384Y02823*
X01384Y02823*
X01383Y02823*
X01383Y02823*
X01383Y02823*
X01382Y02823*
X01382Y02823*
X01382Y02822*
X01381Y02822*
X01381Y02822*
X01381Y02822*
X01381Y02821*
X01381Y02821*
X0138Y02821*
X0138Y02821*
X0138Y0282*
X0138Y0282*
X0138Y0282*
X0138Y02819*
X0138Y02819*
X0138Y02819*
X0138Y02818*
X0138Y02818*
X0138Y02818*
X0138Y02817*
X0138Y02817*
X0138Y02817*
X0138Y02816*
X0138Y02816*
X0138Y02816*
X01381Y02815*
X01381Y02815*
X01381Y02815*
X01381Y02815*
X01381Y02814*
X01382Y02814*
X01382Y02814*
X01382Y02814*
X01383Y02814*
X01383Y02814*
X01383Y02814*
X01384Y02813*
X01384Y02813*
X01384Y02813*
X01385*
X01385Y02813*
X01385Y02813*
X01386Y02814*
X01386Y02814*
X01386Y02814*
X01387Y02814*
X01387Y02814*
X01387Y02814*
X01388Y02814*
X01388Y02815*
X01388Y02815*
X01388Y02815*
X01388Y02815*
X01389Y02816*
X01389Y02816*
X01389Y02816*
X01389Y02817*
X01389Y02817*
X01389Y02817*
X01389Y02818*
X01389Y02818*
X01389Y02818*
X01373Y01705D02*
D01*
X01373Y01705*
X01373Y01705*
X01373Y01706*
X01373Y01706*
X01373Y01706*
X01373Y01706*
X01373Y01707*
X01372Y01707*
X01372Y01707*
X01372Y01708*
X01372Y01708*
X01372Y01708*
X01371Y01708*
X01371Y01709*
X01371Y01709*
X0137Y01709*
X0137Y01709*
X0137Y01709*
X01369Y01709*
X01369Y01709*
X01369Y01709*
X01368Y01709*
X01368*
X01368Y01709*
X01367Y01709*
X01367Y01709*
X01367Y01709*
X01366Y01709*
X01366Y01709*
X01366Y01709*
X01366Y01709*
X01365Y01708*
X01365Y01708*
X01365Y01708*
X01365Y01708*
X01364Y01707*
X01364Y01707*
X01364Y01707*
X01364Y01706*
X01364Y01706*
X01364Y01706*
X01364Y01706*
X01363Y01705*
X01363Y01705*
X01363Y01705*
X01363Y01704*
X01363Y01704*
X01364Y01703*
X01364Y01703*
X01364Y01703*
X01364Y01703*
X01364Y01702*
X01364Y01702*
X01364Y01702*
X01365Y01701*
X01365Y01701*
X01365Y01701*
X01365Y01701*
X01366Y017*
X01366Y017*
X01366Y017*
X01366Y017*
X01367Y017*
X01367Y017*
X01367Y017*
X01368Y017*
X01368Y017*
X01368*
X01369Y017*
X01369Y017*
X01369Y017*
X0137Y017*
X0137Y017*
X0137Y017*
X01371Y017*
X01371Y017*
X01371Y01701*
X01372Y01701*
X01372Y01701*
X01372Y01701*
X01372Y01702*
X01372Y01702*
X01373Y01702*
X01373Y01703*
X01373Y01703*
X01373Y01703*
X01373Y01703*
X01373Y01704*
X01373Y01704*
X01373Y01705*
X02179Y02818D02*
D01*
X02179Y02819*
X02179Y02819*
X02179Y02819*
X02179Y0282*
X02179Y0282*
X02179Y0282*
X02179Y02821*
X02179Y02821*
X02178Y02821*
X02178Y02821*
X02178Y02822*
X02178Y02822*
X02178Y02822*
X02177Y02822*
X02177Y02823*
X02177Y02823*
X02176Y02823*
X02176Y02823*
X02176Y02823*
X02175Y02823*
X02175Y02823*
X02175Y02823*
X02174*
X02174Y02823*
X02174Y02823*
X02173Y02823*
X02173Y02823*
X02173Y02823*
X02172Y02823*
X02172Y02823*
X02172Y02822*
X02171Y02822*
X02171Y02822*
X02171Y02822*
X02171Y02821*
X02171Y02821*
X0217Y02821*
X0217Y02821*
X0217Y0282*
X0217Y0282*
X0217Y0282*
X0217Y02819*
X0217Y02819*
X0217Y02819*
X0217Y02818*
X0217Y02818*
X0217Y02818*
X0217Y02817*
X0217Y02817*
X0217Y02817*
X0217Y02816*
X0217Y02816*
X0217Y02816*
X02171Y02815*
X02171Y02815*
X02171Y02815*
X02171Y02815*
X02171Y02814*
X02172Y02814*
X02172Y02814*
X02172Y02814*
X02173Y02814*
X02173Y02814*
X02173Y02814*
X02174Y02813*
X02174Y02813*
X02174Y02813*
X02175*
X02175Y02813*
X02175Y02813*
X02176Y02814*
X02176Y02814*
X02176Y02814*
X02177Y02814*
X02177Y02814*
X02177Y02814*
X02178Y02814*
X02178Y02815*
X02178Y02815*
X02178Y02815*
X02178Y02815*
X02179Y02816*
X02179Y02816*
X02179Y02816*
X02179Y02817*
X02179Y02817*
X02179Y02817*
X02179Y02818*
X02179Y02818*
X02179Y02818*
X02579Y02823D02*
D01*
X02579Y02824*
X02579Y02824*
X02579Y02824*
X02579Y02825*
X02579Y02825*
X02579Y02825*
X02579Y02826*
X02579Y02826*
X02578Y02826*
X02578Y02826*
X02578Y02827*
X02578Y02827*
X02578Y02827*
X02577Y02827*
X02577Y02828*
X02577Y02828*
X02576Y02828*
X02576Y02828*
X02576Y02828*
X02575Y02828*
X02575Y02828*
X02575Y02828*
X02574*
X02574Y02828*
X02574Y02828*
X02573Y02828*
X02573Y02828*
X02573Y02828*
X02572Y02828*
X02572Y02828*
X02572Y02827*
X02571Y02827*
X02571Y02827*
X02571Y02827*
X02571Y02826*
X02571Y02826*
X0257Y02826*
X0257Y02826*
X0257Y02825*
X0257Y02825*
X0257Y02825*
X0257Y02824*
X0257Y02824*
X0257Y02824*
X0257Y02823*
X0257Y02823*
X0257Y02823*
X0257Y02822*
X0257Y02822*
X0257Y02822*
X0257Y02821*
X0257Y02821*
X0257Y02821*
X02571Y0282*
X02571Y0282*
X02571Y0282*
X02571Y0282*
X02571Y02819*
X02572Y02819*
X02572Y02819*
X02572Y02819*
X02573Y02819*
X02573Y02819*
X02573Y02819*
X02574Y02818*
X02574Y02818*
X02574Y02818*
X02575*
X02575Y02818*
X02575Y02818*
X02576Y02819*
X02576Y02819*
X02576Y02819*
X02577Y02819*
X02577Y02819*
X02577Y02819*
X02578Y02819*
X02578Y0282*
X02578Y0282*
X02578Y0282*
X02578Y0282*
X02579Y02821*
X02579Y02821*
X02579Y02821*
X02579Y02822*
X02579Y02822*
X02579Y02822*
X02579Y02823*
X02579Y02823*
X02579Y02823*
X01784Y02818D02*
D01*
X01784Y02819*
X01784Y02819*
X01784Y02819*
X01784Y0282*
X01784Y0282*
X01784Y0282*
X01784Y02821*
X01784Y02821*
X01783Y02821*
X01783Y02821*
X01783Y02822*
X01783Y02822*
X01783Y02822*
X01782Y02822*
X01782Y02823*
X01782Y02823*
X01781Y02823*
X01781Y02823*
X01781Y02823*
X0178Y02823*
X0178Y02823*
X0178Y02823*
X01779*
X01779Y02823*
X01779Y02823*
X01778Y02823*
X01778Y02823*
X01778Y02823*
X01777Y02823*
X01777Y02823*
X01777Y02822*
X01776Y02822*
X01776Y02822*
X01776Y02822*
X01776Y02821*
X01776Y02821*
X01775Y02821*
X01775Y02821*
X01775Y0282*
X01775Y0282*
X01775Y0282*
X01775Y02819*
X01775Y02819*
X01775Y02819*
X01775Y02818*
X01775Y02818*
X01775Y02818*
X01775Y02817*
X01775Y02817*
X01775Y02817*
X01775Y02816*
X01775Y02816*
X01775Y02816*
X01776Y02815*
X01776Y02815*
X01776Y02815*
X01776Y02815*
X01776Y02814*
X01777Y02814*
X01777Y02814*
X01777Y02814*
X01778Y02814*
X01778Y02814*
X01778Y02814*
X01779Y02813*
X01779Y02813*
X01779Y02813*
X0178*
X0178Y02813*
X0178Y02813*
X01781Y02814*
X01781Y02814*
X01781Y02814*
X01782Y02814*
X01782Y02814*
X01782Y02814*
X01783Y02814*
X01783Y02815*
X01783Y02815*
X01783Y02815*
X01783Y02815*
X01784Y02816*
X01784Y02816*
X01784Y02816*
X01784Y02817*
X01784Y02817*
X01784Y02817*
X01784Y02818*
X01784Y02818*
X01784Y02818*
X02164Y01363D02*
D01*
X02164Y01364*
X02164Y01364*
X02164Y01364*
X02164Y01365*
X02164Y01365*
X02164Y01365*
X02164Y01366*
X02164Y01366*
X02163Y01366*
X02163Y01366*
X02163Y01367*
X02163Y01367*
X02163Y01367*
X02162Y01367*
X02162Y01368*
X02162Y01368*
X02161Y01368*
X02161Y01368*
X02161Y01368*
X0216Y01368*
X0216Y01368*
X0216Y01368*
X02159*
X02159Y01368*
X02159Y01368*
X02158Y01368*
X02158Y01368*
X02158Y01368*
X02157Y01368*
X02157Y01368*
X02157Y01367*
X02156Y01367*
X02156Y01367*
X02156Y01367*
X02156Y01366*
X02156Y01366*
X02155Y01366*
X02155Y01366*
X02155Y01365*
X02155Y01365*
X02155Y01365*
X02155Y01364*
X02155Y01364*
X02155Y01364*
X02155Y01363*
X02155Y01363*
X02155Y01363*
X02155Y01362*
X02155Y01362*
X02155Y01362*
X02155Y01361*
X02155Y01361*
X02155Y01361*
X02156Y0136*
X02156Y0136*
X02156Y0136*
X02156Y0136*
X02156Y01359*
X02157Y01359*
X02157Y01359*
X02157Y01359*
X02158Y01359*
X02158Y01359*
X02158Y01359*
X02159Y01358*
X02159Y01358*
X02159Y01358*
X0216*
X0216Y01358*
X0216Y01358*
X02161Y01359*
X02161Y01359*
X02161Y01359*
X02162Y01359*
X02162Y01359*
X02162Y01359*
X02163Y01359*
X02163Y0136*
X02163Y0136*
X02163Y0136*
X02163Y0136*
X02164Y01361*
X02164Y01361*
X02164Y01361*
X02164Y01362*
X02164Y01362*
X02164Y01362*
X02164Y01363*
X02164Y01363*
X02164Y01363*
G54D27*
X0126Y02817D02*
D01*
X01259Y02818*
X01259Y0282*
X01259Y02822*
X01259Y02824*
X01258Y02825*
X01257Y02827*
X01257Y02828*
X01256Y0283*
X01255Y02831*
X01254Y02833*
X01252Y02834*
X01251Y02835*
X0125Y02836*
X01248Y02837*
X01247Y02838*
X01245Y02839*
X01244Y0284*
X01242Y0284*
X01241Y02841*
X01239Y02841*
X01237Y02842*
X01235Y02842*
X01234*
X01232Y02842*
X0123Y02841*
X01228Y02841*
X01227Y0284*
X01225Y0284*
X01224Y02839*
X01222Y02838*
X01221Y02837*
X01219Y02836*
X01218Y02835*
X01217Y02834*
X01215Y02833*
X01214Y02831*
X01213Y0283*
X01212Y02828*
X01212Y02827*
X01211Y02825*
X0121Y02824*
X0121Y02822*
X0121Y0282*
X0121Y02818*
X0121Y02817*
X01113Y02587D02*
D01*
X01115Y02582*
X01118Y02577*
X01121Y02573*
X01125Y02568*
X01128Y02564*
X01132Y02561*
X01137Y02557*
X01141Y02554*
X01146Y02551*
X01151Y02548*
X01156Y02546*
X01161Y02544*
X01166Y02543*
X01172Y02542*
X01177Y02541*
X01183Y02541*
X01188Y02541*
X01193Y02541*
X01199Y02542*
X01204Y02543*
X0121Y02545*
X01215Y02547*
X0122Y02549*
X01225Y02552*
X01229Y02555*
X01234Y02558*
X01238Y02562*
X01242Y02565*
X01245Y02569*
X01249Y02574*
X01251Y02577*
Y02662D02*
D01*
X01248Y02666*
X01244Y02671*
X01241Y02675*
X01237Y02678*
X01232Y02682*
X01228Y02685*
X01223Y02688*
X01218Y02691*
X01213Y02693*
X01208Y02695*
X01203Y02696*
X01197Y02697*
X01192Y02698*
X01187Y02698*
X01181Y02698*
X01176Y02698*
X0117Y02697*
X01165Y02696*
X0116Y02694*
X01154Y02692*
X01149Y0269*
X01145Y02687*
X0114Y02684*
X01135Y02681*
X01131Y02678*
X01127Y02674*
X01124Y0267*
X0112Y02665*
X01117Y02661*
X01115Y02656*
X01113Y02652*
X01123Y01852D02*
D01*
X01126Y01848*
X0113Y01843*
X01133Y01839*
X01137Y01836*
X01142Y01832*
X01146Y01829*
X01151Y01826*
X01156Y01823*
X01161Y01821*
X01166Y01819*
X01171Y01818*
X01177Y01817*
X01182Y01816*
X01187Y01816*
X01193Y01816*
X01198Y01816*
X01204Y01817*
X01209Y01818*
X01214Y0182*
X0122Y01822*
X01225Y01824*
X01229Y01827*
X01234Y0183*
X01239Y01833*
X01243Y01836*
X01247Y0184*
X0125Y01844*
X01254Y01849*
X01257Y01853*
X01259Y01858*
X01261Y01862*
Y01927D02*
D01*
X01259Y01932*
X01256Y01937*
X01253Y01941*
X01249Y01946*
X01246Y0195*
X01242Y01953*
X01237Y01957*
X01233Y0196*
X01228Y01963*
X01223Y01966*
X01218Y01968*
X01213Y0197*
X01208Y01971*
X01202Y01972*
X01197Y01973*
X01191Y01973*
X01186Y01973*
X01181Y01973*
X01175Y01972*
X0117Y01971*
X01164Y01969*
X01159Y01967*
X01154Y01965*
X01149Y01962*
X01145Y01959*
X0114Y01956*
X01136Y01952*
X01132Y01949*
X01129Y01945*
X01125Y0194*
X01123Y01937*
X01458Y02592D02*
D01*
X0146Y02587*
X01463Y02582*
X01466Y02578*
X0147Y02573*
X01473Y02569*
X01477Y02566*
X01482Y02562*
X01486Y02559*
X01491Y02556*
X01496Y02553*
X01501Y02551*
X01506Y02549*
X01511Y02548*
X01517Y02547*
X01522Y02546*
X01528Y02546*
X01533Y02546*
X01538Y02546*
X01544Y02547*
X01549Y02548*
X01555Y0255*
X0156Y02552*
X01565Y02554*
X0157Y02557*
X01574Y0256*
X01579Y02563*
X01583Y02567*
X01587Y0257*
X0159Y02574*
X01594Y02579*
X01596Y02582*
Y02667D02*
D01*
X01593Y02671*
X01589Y02676*
X01586Y0268*
X01582Y02683*
X01577Y02687*
X01573Y0269*
X01568Y02693*
X01563Y02696*
X01558Y02698*
X01553Y027*
X01548Y02701*
X01542Y02702*
X01537Y02703*
X01532Y02703*
X01526Y02703*
X01521Y02703*
X01515Y02702*
X0151Y02701*
X01505Y02699*
X01499Y02697*
X01494Y02695*
X0149Y02692*
X01485Y02689*
X0148Y02686*
X01476Y02683*
X01472Y02679*
X01469Y02675*
X01465Y0267*
X01462Y02666*
X0146Y02661*
X01458Y02657*
X01367Y0183D02*
D01*
X01368Y0183*
X0137Y0183*
X01372Y0183*
X01374Y0183*
X01375Y01831*
X01377Y01832*
X01378Y01832*
X0138Y01833*
X01381Y01834*
X01383Y01835*
X01384Y01837*
X01385Y01838*
X01386Y01839*
X01387Y01841*
X01388Y01842*
X01389Y01844*
X0139Y01845*
X0139Y01847*
X01391Y01848*
X01391Y0185*
X01392Y01852*
X01392Y01854*
Y01855*
X01392Y01857*
X01391Y01859*
X01391Y01861*
X0139Y01862*
X0139Y01864*
X01389Y01865*
X01388Y01867*
X01387Y01868*
X01386Y0187*
X01385Y01871*
X01384Y01872*
X01383Y01874*
X01381Y01875*
X0138Y01876*
X01378Y01877*
X01377Y01877*
X01375Y01878*
X01374Y01879*
X01372Y01879*
X0137Y01879*
X01368Y01879*
X01367Y0188*
X0205Y02817D02*
D01*
X02049Y02818*
X02049Y0282*
X02049Y02822*
X02049Y02824*
X02048Y02825*
X02047Y02827*
X02047Y02828*
X02046Y0283*
X02045Y02831*
X02044Y02833*
X02042Y02834*
X02041Y02835*
X0204Y02836*
X02038Y02837*
X02037Y02838*
X02035Y02839*
X02034Y0284*
X02032Y0284*
X02031Y02841*
X02029Y02841*
X02027Y02842*
X02025Y02842*
X02024*
X02022Y02842*
X0202Y02841*
X02018Y02841*
X02017Y0284*
X02015Y0284*
X02014Y02839*
X02012Y02838*
X02011Y02837*
X02009Y02836*
X02008Y02835*
X02007Y02834*
X02005Y02833*
X02004Y02831*
X02003Y0283*
X02002Y02828*
X02002Y02827*
X02001Y02825*
X02Y02824*
X02Y02822*
X02Y0282*
X02Y02818*
X02Y02817*
X0245Y02822D02*
D01*
X02449Y02823*
X02449Y02825*
X02449Y02827*
X02449Y02829*
X02448Y0283*
X02447Y02832*
X02447Y02833*
X02446Y02835*
X02445Y02836*
X02444Y02838*
X02442Y02839*
X02441Y0284*
X0244Y02841*
X02438Y02842*
X02437Y02843*
X02435Y02844*
X02434Y02845*
X02432Y02845*
X02431Y02846*
X02429Y02846*
X02427Y02847*
X02425Y02847*
X02424*
X02422Y02847*
X0242Y02846*
X02418Y02846*
X02417Y02845*
X02415Y02845*
X02414Y02844*
X02412Y02843*
X02411Y02842*
X02409Y02841*
X02408Y0284*
X02407Y02839*
X02405Y02838*
X02404Y02836*
X02403Y02835*
X02402Y02833*
X02402Y02832*
X02401Y0283*
X024Y02829*
X024Y02827*
X024Y02825*
X024Y02823*
X024Y02822*
X01655Y02817D02*
D01*
X01654Y02818*
X01654Y0282*
X01654Y02822*
X01654Y02824*
X01653Y02825*
X01652Y02827*
X01652Y02828*
X01651Y0283*
X0165Y02831*
X01649Y02833*
X01647Y02834*
X01646Y02835*
X01645Y02836*
X01643Y02837*
X01642Y02838*
X0164Y02839*
X01639Y0284*
X01637Y0284*
X01636Y02841*
X01634Y02841*
X01632Y02842*
X0163Y02842*
X01629*
X01627Y02842*
X01625Y02841*
X01623Y02841*
X01622Y0284*
X0162Y0284*
X01619Y02839*
X01617Y02838*
X01616Y02837*
X01614Y02836*
X01613Y02835*
X01612Y02834*
X0161Y02833*
X01609Y02831*
X01608Y0283*
X01607Y02828*
X01607Y02827*
X01606Y02825*
X01605Y02824*
X01605Y02822*
X01605Y0282*
X01605Y02818*
X01605Y02817*
X02035Y01368D02*
D01*
X02034Y01369*
X02034Y01371*
X02034Y01373*
X02034Y01374*
X02033Y01376*
X02032Y01378*
X02032Y01379*
X02031Y01381*
X0203Y01382*
X02029Y01384*
X02027Y01385*
X02026Y01386*
X02025Y01387*
X02023Y01388*
X02022Y01389*
X0202Y0139*
X02019Y01391*
X02017Y01391*
X02016Y01392*
X02014Y01392*
X02012Y01392*
X0201Y01393*
X02009*
X02007Y01392*
X02005Y01392*
X02003Y01392*
X02002Y01391*
X02Y01391*
X01999Y0139*
X01997Y01389*
X01996Y01388*
X01994Y01387*
X01993Y01386*
X01992Y01385*
X0199Y01384*
X01989Y01382*
X01988Y01381*
X01987Y01379*
X01987Y01378*
X01986Y01376*
X01985Y01374*
X01985Y01373*
X01985Y01371*
X01985Y01369*
X01985Y01368*
X0178Y02085D02*
Y02435D01*
X0163D02*
X0178D01*
X0163Y02085D02*
Y02435D01*
Y02085D02*
X0178D01*
X02569Y0339D02*
X0262D01*
X02679D02*
X0273D01*
X02789D02*
X0284D01*
X02775Y03154D02*
Y03205D01*
Y03049D02*
Y031D01*
Y02944D02*
Y02995D01*
Y02839D02*
Y0289D01*
X02459Y03389D02*
X0251D01*
X0113Y03222D02*
X01339D01*
X0113Y02817D02*
X0121D01*
X0126D02*
X01339D01*
X0113D02*
Y03222D01*
X01339Y02817D02*
Y03222D01*
X03025Y02245D02*
Y0317D01*
Y0217D02*
Y02245D01*
Y0217D02*
X03125D01*
Y0317*
X03025D02*
X03125D01*
X01715Y02515D02*
X01815D01*
X01715D02*
Y02715D01*
X01815*
Y02515D02*
Y02715D01*
X02235Y02075D02*
X02335D01*
Y01875D02*
Y02075D01*
X02235Y01875D02*
X02335D01*
X02235D02*
Y02075D01*
Y0233D02*
X02335D01*
Y0213D02*
Y0233D01*
X02235Y0213D02*
X02335D01*
X02235D02*
Y0233D01*
X01105Y02345D02*
Y02354D01*
Y02136D02*
Y02145D01*
Y02345D02*
X01135D01*
Y02145D02*
Y02345D01*
X01075Y02145D02*
X01135D01*
X01075D02*
Y02345D01*
X01105*
X012Y02136D02*
Y02145D01*
Y02345D02*
Y02354D01*
X0117Y02145D02*
X012D01*
X0117D02*
Y02345D01*
X0123*
Y02145D02*
Y02345D01*
X012Y02145D02*
X0123D01*
X01295Y02345D02*
Y02354D01*
Y02136D02*
Y02145D01*
Y02345D02*
X01325D01*
Y02145D02*
Y02345D01*
X01265Y02145D02*
X01325D01*
X01265D02*
Y02345D01*
X01295*
X02545Y01685D02*
X02554D01*
X02336D02*
X02345D01*
X02545Y01655D02*
Y01685D01*
X02345Y01655D02*
X02545D01*
X02345D02*
Y01715D01*
X02545*
Y01685D02*
Y01715D01*
Y01783D02*
X02554D01*
X02336D02*
X02345D01*
X02545Y01753D02*
Y01783D01*
X02345Y01753D02*
X02545D01*
X02345D02*
Y01813D01*
X02545*
Y01783D02*
Y01813D01*
X025Y02405D02*
X02509D01*
X02291D02*
X023D01*
X025Y02375D02*
Y02405D01*
X023Y02375D02*
X025D01*
X023D02*
Y02435D01*
X025*
Y02405D02*
Y02435D01*
X02291Y02504D02*
X023D01*
X025D02*
X02509D01*
X023D02*
Y02534D01*
X025*
Y02474D02*
Y02534D01*
X023Y02474D02*
X025D01*
X023D02*
Y02504D01*
X025Y02602D02*
X02509D01*
X02291D02*
X023D01*
X025Y02572D02*
Y02602D01*
X023Y02572D02*
X025D01*
X023D02*
Y02632D01*
X025*
Y02602D02*
Y02632D01*
X02751Y01695D02*
X0276D01*
X0296D02*
X02969D01*
X0276D02*
Y01725D01*
X0296*
Y01665D02*
Y01725D01*
X0276Y01665D02*
X0296D01*
X0276D02*
Y01695D01*
X02751Y01793D02*
X0276D01*
X0296D02*
X02969D01*
X0276D02*
Y01823D01*
X0296*
Y01763D02*
Y01823D01*
X0276Y01763D02*
X0296D01*
X0276D02*
Y01793D01*
X0296Y01891D02*
X02969D01*
X02751D02*
X0276D01*
X0296Y01861D02*
Y01891D01*
X0276Y01861D02*
X0296D01*
X0276D02*
Y01921D01*
X0296*
Y01891D02*
Y01921D01*
X02751Y0199D02*
X0276D01*
X0296D02*
X02969D01*
X0276D02*
Y0202D01*
X0296*
Y0196D02*
Y0202D01*
X0276Y0196D02*
X0296D01*
X0276D02*
Y0199D01*
X02751Y02095D02*
X0276D01*
X0296D02*
X02969D01*
X0276D02*
Y02125D01*
X0296*
Y02065D02*
Y02125D01*
X0276Y02065D02*
X0296D01*
X0276D02*
Y02095D01*
X01485Y02345D02*
Y02354D01*
Y02136D02*
Y02145D01*
Y02345D02*
X01515D01*
Y02145D02*
Y02345D01*
X01455Y02145D02*
X01515D01*
X01455D02*
Y02345D01*
X01485*
X0139Y02136D02*
Y02145D01*
Y02345D02*
Y02354D01*
X0136Y02145D02*
X0139D01*
X0136D02*
Y02345D01*
X0142*
Y02145D02*
Y02345D01*
X0139Y02145D02*
X0142D01*
X0265Y0218D02*
Y0228D01*
X0285*
Y0218D02*
Y0228D01*
X0265Y0218D02*
X0285D01*
X01772Y0175D02*
Y01959D01*
X01367Y0188D02*
Y01959D01*
Y0175D02*
Y0183D01*
Y01959D02*
X01772D01*
X01367Y0175D02*
X01772D01*
X0192Y03222D02*
X02129D01*
X0192Y02817D02*
X02D01*
X0205D02*
X02129D01*
X0192D02*
Y03222D01*
X02129Y02817D02*
Y03222D01*
X0232Y03227D02*
X02529D01*
X0232Y02822D02*
X024D01*
X0245D02*
X02529D01*
X0232D02*
Y03227D01*
X02529Y02822D02*
Y03227D01*
X01525Y03222D02*
X01734D01*
X01525Y02817D02*
X01605D01*
X01655D02*
X01734D01*
X01525D02*
Y03222D01*
X01734Y02817D02*
Y03222D01*
X02545Y014D02*
X02554D01*
X02336D02*
X02345D01*
X02545Y0137D02*
Y014D01*
X02345Y0137D02*
X02545D01*
X02345D02*
Y0143D01*
X02545*
Y014D02*
Y0143D01*
Y01495D02*
X02554D01*
X02336D02*
X02345D01*
X02545Y01465D02*
Y01495D01*
X02345Y01465D02*
X02545D01*
X02345D02*
Y01525D01*
X02545*
Y01495D02*
Y01525D01*
Y01586D02*
X02554D01*
X02336D02*
X02345D01*
X02545Y01556D02*
Y01586D01*
X02345Y01556D02*
X02545D01*
X02345D02*
Y01616D01*
X02545*
Y01586D02*
Y01616D01*
X02756Y01395D02*
X02765D01*
X02965D02*
X02974D01*
X02765D02*
Y01425D01*
X02965*
Y01365D02*
Y01425D01*
X02765Y01365D02*
X02965D01*
X02765D02*
Y01395D01*
X02751Y01498D02*
X0276D01*
X0296D02*
X02969D01*
X0276D02*
Y01528D01*
X0296*
Y01468D02*
Y01528D01*
X0276Y01468D02*
X0296D01*
X0276D02*
Y01498D01*
X02751Y01596D02*
X0276D01*
X0296D02*
X02969D01*
X0276D02*
Y01626D01*
X0296*
Y01566D02*
Y01626D01*
X0276Y01566D02*
X0296D01*
X0276D02*
Y01596D01*
X02291Y02715D02*
X023D01*
X025D02*
X02509D01*
X023D02*
Y02745D01*
X025*
Y02685D02*
Y02745D01*
X023Y02685D02*
X025D01*
X023D02*
Y02715D01*
X02114Y01368D02*
Y02761D01*
X01905Y01368D02*
Y02761D01*
X02035Y01368D02*
X02114D01*
X01905D02*
X01985D01*
X01905Y02761D02*
X02114D01*
X0247Y0106D02*
Y0126D01*
X0297Y0106D02*
Y0126D01*
X0247Y0106D02*
X0297D01*
X0247Y0126D02*
X0297D01*
M02*